# Blender 4.5.4 LTS
# www.blender.org
mtllib door.mtl
o Cube
v -1.465542 -0.375017 0.102868
v -1.420122 3.522780 0.106416
v -1.594932 -0.342095 -0.149872
v -1.581100 3.555987 -0.133337
v 1.302604 -0.425809 0.149724
v 1.271265 3.523505 0.156285
v 1.345565 -0.328315 -0.203185
v 1.380246 3.531434 -0.140581
v -1.581621 -0.353612 -0.080820
v -1.552814 -0.367075 -0.011860
v -1.508162 -0.377179 0.049391
v -1.344520 0.569803 0.091885
v -1.215699 1.518522 0.082576
v -1.263285 2.507221 0.090106
v -1.472310 3.517734 0.057535
v -1.533965 3.530536 -0.000330
v -1.568007 3.545021 -0.066540
v -1.584649 2.567178 -0.137555
v -1.589880 1.588011 -0.143759
v -1.594286 0.621712 -0.149013
v 0.532846 -0.119236 -0.295026
v -0.196704 -0.140016 -0.267156
v -0.880198 -0.176877 -0.185272
v -0.844322 3.537272 -0.138141
v -0.110533 3.514022 -0.145702
v 0.629790 3.508761 -0.147636
v 1.362284 2.505147 -0.161918
v 1.346821 1.507690 -0.190137
v 1.339866 0.594236 -0.206975
v 1.308771 -0.412515 0.079749
v 1.335962 -0.384073 -0.007462
v 1.351143 -0.357189 -0.107126
v 1.360035 3.529369 -0.067719
v 1.324131 3.529130 0.011979
v 1.281608 3.524181 0.090373
v 1.117236 2.487020 0.195627
v 0.940183 1.412520 0.071847
v 1.075348 0.447927 0.034347
v -0.745586 -0.242561 0.107439
v -0.070850 -0.278377 0.120225
v 0.598481 -0.297485 0.139747
v 0.563248 3.505362 0.150649
v -0.065237 3.498394 0.132215
v -0.700522 3.502642 0.116306
v -1.430554 0.566746 0.047637
v -1.333485 1.514621 0.043251
v -1.361453 2.501280 0.049396
v -1.526793 0.587397 -0.008592
v -1.498525 1.547489 -0.004086
v -1.502577 2.529305 -0.000292
v -1.576488 0.607466 -0.078714
v -1.569036 1.572612 -0.073368
v -1.565381 2.552543 -0.068341
v -0.881516 0.604354 -0.185319
v -0.871757 1.543644 -0.171190
v -0.857167 2.529390 -0.152207
v -0.193088 0.583098 -0.261366
v -0.170763 1.432413 -0.228724
v -0.137945 2.455982 -0.181170
v 0.537210 0.580309 -0.287244
v 0.561013 1.381429 -0.250013
v 0.599032 2.428795 -0.191158
v 1.338762 0.580364 -0.112649
v 1.334360 1.519181 -0.101955
v 1.339817 2.512170 -0.080864
v 1.301598 0.559706 -0.000760
v 1.274700 1.521709 0.009394
v 1.279801 2.518517 0.016233
v 1.231284 0.507656 0.117737
v 1.146006 1.481156 0.127434
v 1.176969 2.501806 0.116087
v 0.422674 0.370095 0.017589
v 0.268459 1.327489 0.047333
v 0.420212 2.442935 0.182436
v -0.060363 0.454802 0.114960
v -0.054490 1.418824 0.101738
v -0.050791 2.447561 0.129600
v -0.646343 0.521536 0.097613
v -0.526489 1.458569 0.093808
v -0.556087 2.461451 0.106387
v -0.862503 -0.196299 -0.102101
v -0.153215 -0.187197 -0.143292
v 0.584788 -0.184746 -0.151239
v -0.831177 -0.219438 -0.017871
v -0.120278 -0.230099 -0.026759
v 0.601493 -0.233938 -0.022802
v -0.786778 -0.238526 0.050818
v -0.094705 -0.263569 0.055929
v 0.596672 -0.275382 0.070215
v 0.616073 3.509295 -0.072795
v -0.113672 3.510648 -0.072315
v -0.836836 3.527527 -0.068100
v 0.591744 3.512347 0.009579
v -0.110513 3.507983 0.005910
v -0.808671 3.514874 0.003395
v 0.564945 3.506655 0.087158
v -0.091050 3.498495 0.075344
v -0.748900 3.499883 0.065116
v -1.539803 -0.013986 0.021012
v -1.579054 0.002780 -0.118023
v -0.508794 0.099614 0.286422
v -0.402115 3.079900 -0.393665
v 1.188976 -0.113088 0.225464
v 0.057739 3.072657 -0.157448
v 1.342715 0.008813 -0.368564
v -0.023186 3.118046 0.351186
v -1.594609 0.015662 -0.257326
v -0.533054 3.153342 0.429321
v -1.405031 -0.026754 0.236142
v -0.767245 3.129766 -0.031022
v 0.075794 0.035565 0.398408
v -0.293500 3.002620 -0.182557
v 0.207750 2.995377 -0.309100
v 0.483087 3.040766 0.126155
v 0.152004 3.076061 0.521699
v -0.327953 3.052486 0.330905
v 0.377092 3.117226 -0.258546
v 0.520136 3.024203 0.210845
v -0.792993 0.147317 -0.431182
v -0.452838 3.173049 -0.645341
v 1.117265 2.972360 0.238244
v 0.089697 3.107746 -0.389348
v 1.343267 3.033342 -0.214213
v -0.042901 3.082654 0.115517
v 0.885815 3.122874 -0.521247
v -0.667385 3.132449 0.171549
v 0.509231 0.164087 -0.612275
v -0.920740 3.188316 -0.298687
v 1.318780 -0.036331 0.033237
v 1.270028 -0.076577 0.238875
v -0.880857 0.125483 -0.329008
v -0.194896 0.112832 -0.486886
v 0.535028 0.107242 -0.540615
v -1.469358 -0.029363 0.138450
v 1.344953 -0.012560 -0.178244
v -0.695964 0.058786 0.246437
v -0.065607 0.011215 0.276561
v 0.510577 -0.028412 0.198738
v -0.767069 -1.080225 -0.212034
v -0.907014 0.016902 -0.432007
v -0.545104 0.062674 -0.415835
v -0.396544 0.073521 -0.033803
v -0.666640 0.034452 0.186133
v -0.982128 -0.000540 -0.059971
v -0.044749 -0.666433 -0.135972
v -0.157672 0.218849 -0.313470
v 0.134357 0.255783 -0.300421
v 0.254231 0.264535 0.007844
v 0.036288 0.233011 0.185313
v -0.218282 0.204775 -0.013271
v 0.465999 -1.310578 -0.253732
v 0.353076 0.052639 -0.431231
v 0.645105 0.109512 -0.418181
v 0.764979 0.122989 -0.109916
v 0.547036 0.074445 0.067552
v 0.292466 0.030966 -0.131031
v 0.205101 -1.434530 -0.041726
v 0.092178 -0.071314 -0.219225
v 0.384207 -0.014440 -0.206175
v 0.504081 -0.000963 0.102090
v 0.286138 -0.049507 0.279558
v 0.031568 -0.092986 0.080975
vn -0.4407 -0.4665 0.7669
vn -0.1249 0.0840 0.9886
vn -0.6225 -0.5481 -0.5586
vn -0.1551 0.1202 -0.9806
vn 0.2648 -0.3522 0.8977
vn 0.1597 0.1218 0.9796
vn 0.6799 -0.6112 -0.4051
vn 0.1887 0.1451 -0.9713
vn -0.7570 -0.6504 0.0621
vn -0.7455 -0.6515 0.1406
vn -0.6793 -0.6433 0.3532
vn -0.1922 0.0993 0.9763
vn -0.1049 0.0026 0.9945
vn -0.1144 -0.0211 0.9932
vn -0.4489 0.3081 0.8388
vn -0.5261 0.3837 0.7590
vn -0.7141 0.5457 0.4385
vn -0.1631 0.0116 -0.9865
vn -0.1808 0.0127 -0.9834
vn -0.3331 0.0623 -0.9408
vn -0.0208 -0.7312 -0.6818
vn -0.0710 -0.7300 -0.6798
vn 0.0061 -0.6508 -0.7592
vn -0.0153 0.1249 -0.9920
vn -0.0137 0.1364 -0.9906
vn 0.0066 0.1374 -0.9905
vn 0.1902 0.0327 -0.9812
vn 0.2170 0.0352 -0.9755
vn 0.4093 0.0774 -0.9091
vn 0.7353 -0.6745 0.0658
vn 0.7595 -0.6420 -0.1048
vn 0.7570 -0.6420 -0.1221
vn 0.7588 0.5677 0.3193
vn 0.7025 0.5173 0.4887
vn 0.7049 0.5047 0.4983
vn 0.0578 -0.0299 0.9979
vn -0.0634 -0.0722 0.9954
vn -0.1022 0.0482 0.9936
vn 0.0255 -0.7130 0.7007
vn -0.0236 -0.7106 0.7032
vn -0.0553 -0.5468 0.8354
vn -0.0387 0.1322 0.9905
vn -0.0491 0.1155 0.9921
vn -0.0243 0.0963 0.9951
vn -0.5005 0.0691 0.8630
vn -0.3473 0.0105 0.9377
vn -0.3914 -0.0312 0.9197
vn -0.6575 0.0312 0.7528
vn -0.4740 0.0050 0.8805
vn -0.5197 -0.0173 0.8542
vn -0.9114 0.0046 0.4116
vn -0.8579 0.0037 0.5139
vn -0.8745 -0.0043 0.4850
vn -0.0776 0.0836 -0.9935
vn -0.0532 0.0211 -0.9984
vn -0.0292 0.0198 -0.9994
vn -0.0730 0.1296 -0.9889
vn -0.0496 0.0395 -0.9980
vn -0.0267 0.0369 -0.9990
vn 0.0372 0.1447 -0.9888
vn 0.0218 0.0411 -0.9989
vn 0.0129 0.0404 -0.9991
vn 0.9813 0.0084 0.1926
vn 0.9531 -0.0046 0.3026
vn 0.9258 -0.0198 0.3774
vn 0.9110 0.0327 0.4112
vn 0.8059 0.0066 0.5920
vn 0.7991 -0.0252 0.6007
vn 0.0484 0.0873 0.9950
vn 0.1684 -0.0484 0.9845
vn 0.4500 -0.0631 0.8908
vn 0.0410 0.0552 0.9976
vn 0.0409 -0.0472 0.9980
vn -0.0286 -0.0275 0.9992
vn 0.0728 0.1259 0.9894
vn 0.0133 -0.0224 0.9997
vn -0.0348 -0.0214 0.9992
vn -0.0161 0.0784 0.9968
vn -0.0222 -0.0030 0.9997
vn -0.0270 -0.0136 0.9995
vn 0.0976 -0.9528 -0.2875
vn -0.0002 -0.9405 -0.3398
vn -0.0968 -0.9337 -0.3448
vn 0.0865 -0.9447 -0.3164
vn -0.0108 -0.9395 -0.3425
vn -0.0935 -0.9286 -0.3592
vn 0.0767 -0.9676 -0.2405
vn -0.0217 -0.9594 -0.2811
vn -0.0931 -0.9416 -0.3238
vn -0.0128 0.9999 -0.0013
vn 0.0120 0.9986 0.0516
vn 0.0230 0.9912 0.1304
vn -0.0153 0.9993 0.0329
vn 0.0022 0.9954 0.0954
vn 0.0164 0.9858 0.1672
vn -0.0178 0.9988 0.0455
vn -0.0032 0.9979 0.0652
vn 0.0147 0.9979 0.0629
vn -0.8305 0.0304 0.5563
vn -0.9772 0.0110 0.2118
vn -0.0272 -0.2731 0.9616
vn -0.0182 -0.2218 -0.9749
vn -0.0159 0.0100 0.9998
vn 0.5504 -0.2249 -0.8040
vn 0.1960 -0.0302 -0.9801
vn 0.2993 -0.0686 0.9517
vn -0.1378 -0.0236 -0.9902
vn -0.0429 -0.0470 0.9980
vn -0.0737 -0.0097 0.9972
vn -0.8528 -0.1258 -0.5069
vn 0.0041 -0.2106 0.9776
vn -0.3140 -0.2199 -0.9236
vn 0.0227 -0.2334 -0.9721
vn 0.9687 -0.1493 -0.1984
vn 0.0149 -0.0409 0.9991
vn -0.6963 -0.0772 0.7136
vn -0.9779 -0.0188 -0.2082
vn -0.1404 -0.2733 0.9516
vn -0.0656 -0.2972 -0.9526
vn -0.0075 -0.0698 -0.9975
vn 0.0414 -0.2978 0.9537
vn 0.7500 -0.2148 -0.6256
vn 0.9599 -0.2802 0.0081
vn 0.1460 -0.2171 0.9652
vn 0.0180 0.0285 -0.9994
vn -0.0626 -0.1950 0.9788
vn -0.0185 -0.0933 -0.9955
vn -0.9855 -0.0342 -0.1662
vn 0.9621 0.0406 0.2698
vn 0.1996 0.0775 0.9768
vn -0.1203 -0.0100 -0.9927
vn -0.0787 -0.0057 -0.9969
vn 0.0213 -0.0021 -0.9998
vn -0.7555 0.0646 0.6520
vn 0.9997 0.0095 0.0217
vn -0.0118 -0.0006 0.9999
vn 0.0267 -0.0044 0.9996
vn 0.0316 0.0041 0.9995
vn -0.0573 -0.7709 -0.6344
vn -0.0391 -0.2012 -0.9788
vn 0.1508 -0.2019 -0.9677
vn 0.7371 -0.3280 0.5908
vn 0.0462 -0.3397 0.9394
vn -0.6926 -0.2341 0.6823
vn -0.0366 -0.7113 -0.7020
vn -0.0393 -0.1322 -0.9904
vn 0.1607 -0.1335 -0.9779
vn 0.7919 -0.2222 0.5688
vn 0.0494 -0.2284 0.9723
vn -0.7362 -0.1555 0.6586
vt 0.892994 0.320599
vt 0.901057 0.320599
vt 0.901057 0.328662
vt 0.892995 0.328662
vt 0.909120 0.320599
vt 0.909120 0.328662
vt 0.901057 0.336725
vt 0.892994 0.336725
vt 0.909120 0.336725
vt 0.888963 0.312537
vt 0.892994 0.312537
vt 0.888963 0.320599
vt 0.901057 0.312537
vt 0.909120 0.312537
vt 0.917182 0.312537
vt 0.917182 0.320599
vt 0.917182 0.328662
vt 0.917182 0.336725
vt 0.917182 0.344787
vt 0.909120 0.344787
vt 0.901057 0.344787
vt 0.892995 0.344787
vt 0.888963 0.336725
vt 0.888963 0.344787
vt 0.888963 0.328662
vt 0.892994 0.352850
vt 0.901057 0.352850
vt 0.901057 0.360912
vt 0.892994 0.360912
vt 0.909120 0.352850
vt 0.909120 0.360912
vt 0.901057 0.368975
vt 0.892995 0.368975
vt 0.909120 0.368975
vt 0.888963 0.352850
vt 0.917182 0.352850
vt 0.917182 0.360912
vt 0.917182 0.368975
vt 0.917182 0.377038
vt 0.909120 0.377038
vt 0.901057 0.377038
vt 0.892994 0.377038
vt 0.888963 0.368975
vt 0.888963 0.377038
vt 0.888963 0.360912
vt 0.892994 0.385100
vt 0.901057 0.385100
vt 0.901057 0.393163
vt 0.892994 0.393163
vt 0.909120 0.385100
vt 0.909120 0.393163
vt 0.901057 0.401225
vt 0.892995 0.401225
vt 0.909120 0.401225
vt 0.888963 0.385100
vt 0.917182 0.385100
vt 0.917182 0.393163
vt 0.917182 0.401225
vt 0.917182 0.409288
vt 0.909120 0.409288
vt 0.901057 0.409288
vt 0.892994 0.409288
vt 0.888963 0.401225
vt 0.888963 0.409288
vt 0.888963 0.393163
vt 0.892994 0.417351
vt 0.901057 0.417351
vt 0.901057 0.425413
vt 0.892994 0.425413
vt 0.909120 0.417351
vt 0.909120 0.425413
vt 0.901057 0.433476
vt 0.892995 0.433476
vt 0.909120 0.433476
vt 0.888963 0.417351
vt 0.917182 0.417351
vt 0.917182 0.425413
vt 0.917182 0.433476
vt 0.917182 0.441539
vt 0.909120 0.441539
vt 0.901057 0.441539
vt 0.892994 0.441539
vt 0.888963 0.433476
vt 0.888963 0.441539
vt 0.888963 0.425413
vt 0.860744 0.385100
vt 0.868807 0.385100
vt 0.868807 0.393163
vt 0.860744 0.393163
vt 0.876869 0.385100
vt 0.876869 0.393163
vt 0.868807 0.401225
vt 0.860744 0.401225
vt 0.876869 0.401225
vt 0.852681 0.377038
vt 0.860744 0.377038
vt 0.852681 0.385100
vt 0.868807 0.377038
vt 0.876869 0.377038
vt 0.884932 0.377038
vt 0.884932 0.385100
vt 0.884932 0.393163
vt 0.884932 0.401225
vt 0.884932 0.409288
vt 0.876869 0.409288
vt 0.868807 0.409288
vt 0.860744 0.409288
vt 0.852681 0.401225
vt 0.852681 0.409288
vt 0.852681 0.393163
vt 0.925245 0.385100
vt 0.933308 0.385100
vt 0.933308 0.393163
vt 0.925245 0.393163
vt 0.941370 0.385100
vt 0.941370 0.393163
vt 0.933308 0.401225
vt 0.925245 0.401225
vt 0.941370 0.401225
vt 0.925245 0.377038
vt 0.933308 0.377038
vt 0.941370 0.377038
vt 0.949433 0.377038
vt 0.949433 0.385100
vt 0.949433 0.393163
vt 0.949433 0.401225
vt 0.949433 0.409288
vt 0.941370 0.409288
vt 0.933308 0.409288
vt 0.925245 0.409288
vt 0.696896 0.134563
vt 0.852681 0.059848
vt 0.852681 0.457339
vt 0.808523 0.537571
vt 0.129763 0.123085
vt 0.085782 0.546856
vt 0.000000 0.411560
vt 0.001136 0.022703
vt 0.590354 0.340197
vt 0.564086 -0.000000
vt 0.884932 0.417351
vt 0.250166 -0.000000
vt 0.884932 0.433476
vt 0.884932 0.441539
vt 0.884932 0.425413
vt 0.250166 0.353277
vt 0.884932 0.360912
vt 0.884932 0.368975
vt 0.884932 0.352850
vt 0.419114 0.355695
vt 0.521106 0.543417
vt 0.250166 0.427312
vt 0.667242 0.882504
vt 0.855170 0.933285
vt 0.564086 1.000000
vt 0.250166 0.048070
vt 0.901353 0.590021
vt 0.304998 0.000000
vt 0.564086 0.686364
vt 0.846041 0.537571
vt 0.564086 0.231108
vt 0.884932 0.344787
vt 0.884932 0.320599
vt 0.884932 0.328662
vt 0.884932 0.336725
vt 0.884932 0.312537
vt 0.331725 0.703059
vt 0.336597 0.543417
vt 0.387449 0.560739
vt 0.387449 0.820934
vt 0.301873 0.930744
vt 0.250166 0.781291
vt 0.897633 0.183715
vt 0.893702 0.312537
vt 0.852681 0.298559
vt 0.852681 0.088610
vt 0.921751 -0.000000
vt 0.963462 0.120602
vt 0.451516 0.718393
vt 0.431123 0.862012
vt 0.387449 0.844626
vt 0.387449 0.618013
vt 0.488065 0.543417
vt 0.547276 0.674095
vt 0.064067 0.721831
vt 0.043675 0.865451
vt -0.000000 0.848064
vt -0.000000 0.621452
vt 0.100616 0.546856
vt 0.159827 0.677533
s 1
f 45/1/45 46/2/46 49/3/49 48/4/48
f 46/2/46 47/5/47 50/6/50 49/3/49
f 48/4/48 49/3/49 52/7/52 51/8/51
f 49/3/49 50/6/50 53/9/53 52/7/52
f 109/10/109 12/11/12 45/1/45 134/12/134
f 12/11/12 13/13/13 46/2/46 45/1/45
f 13/13/13 14/14/14 47/5/47 46/2/46
f 14/14/14 2/15/2 15/16/15 47/5/47
f 47/5/47 15/16/15 16/17/16 50/6/50
f 50/6/50 16/17/16 17/18/17 53/9/53
f 53/9/53 17/18/17 4/19/4 18/20/18
f 52/7/52 53/9/53 18/20/18 19/21/19
f 51/8/51 52/7/52 19/21/19 20/22/20
f 100/23/100 51/8/51 20/22/20 107/24/107
f 99/25/99 48/4/48 51/8/51 100/23/100
f 134/12/134 45/1/45 48/4/48 99/25/99
f 54/26/54 55/27/55 58/28/58 57/29/57
f 55/27/55 56/30/56 59/31/59 58/28/58
f 57/29/57 58/28/58 61/32/61 60/33/60
f 58/28/58 59/31/59 62/34/62 61/32/61
f 107/24/107 20/22/20 54/26/54 131/35/131
f 20/22/20 19/21/19 55/27/55 54/26/54
f 19/21/19 18/20/18 56/30/56 55/27/55
f 18/20/18 4/19/4 24/36/24 56/30/56
f 56/30/56 24/36/24 25/37/25 59/31/59
f 59/31/59 25/37/25 26/38/26 62/34/62
f 62/34/62 26/38/26 8/39/8 27/40/27
f 61/32/61 62/34/62 27/40/27 28/41/28
f 60/33/60 61/32/61 28/41/28 29/42/29
f 133/43/133 60/33/60 29/42/29 105/44/105
f 132/45/132 57/29/57 60/33/60 133/43/133
f 131/35/131 54/26/54 57/29/57 132/45/132
f 63/46/63 64/47/64 67/48/67 66/49/66
f 64/47/64 65/50/65 68/51/68 67/48/67
f 66/49/66 67/48/67 70/52/70 69/53/69
f 67/48/67 68/51/68 71/54/71 70/52/70
f 105/44/105 29/42/29 63/46/63 135/55/135
f 29/42/29 28/41/28 64/47/64 63/46/63
f 28/41/28 27/40/27 65/50/65 64/47/64
f 27/40/27 8/39/8 33/56/33 65/50/65
f 65/50/65 33/56/33 34/57/34 68/51/68
f 68/51/68 34/57/34 35/58/35 71/54/71
f 71/54/71 35/58/35 6/59/6 36/60/36
f 70/52/70 71/54/71 36/60/36 37/61/37
f 69/53/69 70/52/70 37/61/37 38/62/38
f 130/63/130 69/53/69 38/62/38 103/64/103
f 129/65/129 66/49/66 69/53/69 130/63/130
f 135/55/135 63/46/63 66/49/66 129/65/129
f 72/66/72 73/67/73 76/68/76 75/69/75
f 73/67/73 74/70/74 77/71/77 76/68/76
f 75/69/75 76/68/76 79/72/79 78/73/78
f 76/68/76 77/71/77 80/74/80 79/72/79
f 103/64/103 38/62/38 72/66/72 138/75/138
f 38/62/38 37/61/37 73/67/73 72/66/72
f 37/61/37 36/60/36 74/70/74 73/67/73
f 36/60/36 6/59/6 42/76/42 74/70/74
f 74/70/74 42/76/42 43/77/43 77/71/77
f 77/71/77 43/77/43 44/78/44 80/74/80
f 80/74/80 44/78/44 2/79/2 14/80/14
f 79/72/79 80/74/80 14/80/14 13/81/13
f 78/73/78 79/72/79 13/81/13 12/82/12
f 136/83/136 78/73/78 12/82/12 109/84/109
f 137/85/137 75/69/75 78/73/78 136/83/136
f 138/75/138 72/66/72 75/69/75 137/85/137
f 81/86/81 82/87/82 85/88/85 84/89/84
f 82/87/82 83/90/83 86/91/86 85/88/85
f 84/89/84 85/88/85 88/92/88 87/93/87
f 85/88/85 86/91/86 89/94/89 88/92/88
f 3/95/3 23/96/23 81/86/81 9/97/9
f 23/96/23 22/98/22 82/87/82 81/86/81
f 22/98/22 21/99/21 83/90/83 82/87/82
f 21/99/21 7/100/7 32/101/32 83/90/83
f 83/90/83 32/101/32 31/102/31 86/91/86
f 86/91/86 31/102/31 30/103/30 89/94/89
f 89/94/89 30/103/30 5/104/5 41/105/41
f 88/92/88 89/94/89 41/105/41 40/106/40
f 87/93/87 88/92/88 40/106/40 39/107/39
f 11/108/11 87/93/87 39/107/39 1/109/1
f 10/110/10 84/89/84 87/93/87 11/108/11
f 9/97/9 81/86/81 84/89/84 10/110/10
f 90/111/90 91/112/91 94/113/94 93/114/93
f 91/112/91 92/115/92 95/116/95 94/113/94
f 93/114/93 94/113/94 97/117/97 96/118/96
f 94/113/94 95/116/95 98/119/98 97/117/97
f 8/39/8 26/120/26 90/111/90 33/56/33
f 26/120/26 25/121/25 91/112/91 90/111/90
f 25/121/25 24/122/24 92/115/92 91/112/91
f 24/122/24 4/123/4 17/124/17 92/115/92
f 92/115/92 17/124/17 16/125/16 95/116/95
f 95/116/95 16/125/16 15/126/15 98/119/98
f 98/119/98 15/126/15 2/127/2 44/128/44
f 97/117/97 98/119/98 44/128/44 43/129/43
f 96/118/96 97/117/97 43/129/43 42/130/42
f 35/58/35 96/118/96 42/130/42 6/59/6
f 34/57/34 93/114/93 96/118/96 35/58/35
f 33/56/33 90/111/90 93/114/93 34/57/34
f 111/131/111 116/132/116 112/133/112
f 111/131/111 112/133/112 113/134/113
f 101/135/101 102/136/102 104/137/104
f 32/101/32 135/55/135 129/65/129 31/102/31
f 101/135/101 104/137/104 106/138/106
f 111/131/111 114/139/114 115/140/115
f 5/104/5 103/64/103 138/75/138 41/141/41
f 101/135/101 106/138/106 108/142/108
f 39/143/39 136/83/136 109/84/109 1/144/1
f 40/145/40 137/85/137 136/83/136 39/143/39
f 101/135/101 108/142/108 110/146/110
f 111/131/111 115/140/115 116/132/116
f 111/131/111 113/134/113 114/139/114
f 101/135/101 110/146/110 102/136/102
f 41/141/41 138/75/138 137/85/137 40/145/40
f 22/147/22 132/45/132 133/43/133 21/148/21
f 23/149/23 131/35/131 132/45/132 22/147/22
f 119/150/119 120/151/120 122/152/122
f 127/153/127 117/154/117 125/155/125
f 119/150/119 122/152/122 124/156/124
f 7/100/7 105/44/105 135/55/135 32/101/32
f 127/153/127 118/157/118 117/154/117
f 119/150/119 124/156/124 126/158/126
f 127/153/127 125/155/125 123/159/123
f 127/153/127 121/160/121 118/157/118
f 119/150/119 126/158/126 128/161/128
f 30/103/30 130/63/130 103/64/103 5/104/5
f 31/102/31 129/65/129 130/63/130 30/103/30
f 119/150/119 128/161/128 120/151/120
f 127/153/127 123/159/123 121/160/121
f 21/148/21 133/43/133 105/44/105 7/100/7
f 3/162/3 107/24/107 131/35/131 23/149/23
f 11/163/11 134/12/134 99/25/99 10/164/10
f 10/164/10 99/25/99 100/23/100 9/165/9
f 9/165/9 100/23/100 107/24/107 3/162/3
f 1/166/1 109/10/109 134/12/134 11/163/11
f 139/167/139 140/168/140 141/169/141
f 139/167/139 141/169/141 142/170/142
f 139/167/139 142/170/142 143/171/143
f 139/167/139 143/171/143 144/172/144
f 139/167/139 144/172/144 140/168/140
f 145/173/139 146/174/140 147/175/141
f 145/173/139 147/175/141 148/176/142
f 145/173/139 148/176/142 149/177/143
f 145/173/139 149/177/143 150/178/144
f 145/173/139 150/178/144 146/174/140
f 151/179/145 152/180/146 153/181/147
f 151/179/145 153/181/147 154/182/148
f 151/179/145 154/182/148 155/183/149
f 151/179/145 155/183/149 156/184/150
f 151/179/145 156/184/150 152/180/146
f 157/185/145 158/186/146 159/187/147
f 157/185/145 159/187/147 160/188/148
f 157/185/145 160/188/148 161/189/149
f 157/185/145 161/189/149 162/190/150
f 157/185/145 162/190/150 158/186/146
