# Blender 5.0.0
# www.blender.org
mtllib fire-pillar.mtl
o Circle
v 0.000000 0.000000 -1.000000
v -0.195090 0.000000 -0.980785
v -0.382683 0.000000 -0.923880
v -0.555570 0.000000 -0.831470
v -0.707107 0.000000 -0.707107
v -0.831470 0.000000 -0.555570
v -0.923880 0.000000 -0.382683
v -0.980785 0.000000 -0.195090
v -1.000000 0.000000 0.000000
v -0.980785 0.000000 0.195090
v -0.923880 0.000000 0.382683
v -0.831470 0.000000 0.555570
v -0.707107 0.000000 0.707107
v -0.555570 0.000000 0.831470
v -0.382683 0.000000 0.923880
v -0.195090 0.000000 0.980785
v 0.000000 0.000000 1.000000
v 0.195090 0.000000 0.980785
v 0.382683 0.000000 0.923880
v 0.555570 0.000000 0.831470
v 0.707107 0.000000 0.707107
v 0.831470 0.000000 0.555570
v 0.923880 0.000000 0.382683
v 0.980785 0.000000 0.195090
v 1.000000 0.000000 0.000000
v 0.980785 0.000000 -0.195090
v 0.923880 0.000000 -0.382683
v 0.831470 0.000000 -0.555570
v 0.707107 0.000000 -0.707107
v 0.555570 0.000000 -0.831470
v 0.382683 0.000000 -0.923880
v 0.195090 0.000000 -0.980785
v -0.000000 -0.182523 -0.709840
v -0.138483 -0.182523 -0.696200
v -0.271644 -0.182523 -0.655806
v -0.394366 -0.182523 -0.590210
v -0.501933 -0.182523 -0.501933
v -0.590210 -0.182523 -0.394366
v -0.655806 -0.182523 -0.271644
v -0.696200 -0.182523 -0.138483
v -0.709840 -0.182523 -0.000000
v -0.696200 -0.182523 0.138483
v -0.655806 -0.182523 0.271644
v -0.590210 -0.182523 0.394366
v -0.501933 -0.182523 0.501933
v -0.394366 -0.182523 0.590210
v -0.271644 -0.182523 0.655806
v -0.138483 -0.182523 0.696200
v -0.000000 -0.182523 0.709840
v 0.138483 -0.182523 0.696200
v 0.271644 -0.182523 0.655806
v 0.394366 -0.182523 0.590210
v 0.501933 -0.182523 0.501933
v 0.590210 -0.182523 0.394366
v 0.655806 -0.182523 0.271644
v 0.696200 -0.182523 0.138483
v 0.709840 -0.182523 -0.000000
v 0.696200 -0.182523 -0.138483
v 0.655806 -0.182523 -0.271644
v 0.590210 -0.182523 -0.394366
v 0.501933 -0.182523 -0.501933
v 0.394366 -0.182523 -0.590210
v 0.271644 -0.182523 -0.655806
v 0.138483 -0.182523 -0.696200
v 0.000000 -0.290694 -0.163094
v -0.031818 -0.290694 -0.159961
v -0.062414 -0.290694 -0.150680
v -0.090610 -0.290694 -0.135608
v -0.115325 -0.290694 -0.115325
v -0.135608 -0.290694 -0.090610
v -0.150680 -0.290694 -0.062414
v -0.159961 -0.290694 -0.031818
v -0.163094 -0.290694 -0.000000
v -0.159961 -0.290694 0.031818
v -0.150680 -0.290694 0.062414
v -0.135608 -0.290694 0.090610
v -0.115325 -0.290694 0.115325
v -0.090610 -0.290694 0.135608
v -0.062414 -0.290694 0.150680
v -0.031818 -0.290694 0.159961
v 0.000000 -0.290694 0.163094
v 0.031818 -0.290694 0.159961
v 0.062414 -0.290694 0.150680
v 0.090610 -0.290694 0.135608
v 0.115325 -0.290694 0.115325
v 0.135608 -0.290694 0.090610
v 0.150680 -0.290694 0.062414
v 0.159961 -0.290694 0.031818
v 0.163094 -0.290694 -0.000000
v 0.159961 -0.290694 -0.031818
v 0.150680 -0.290694 -0.062414
v 0.135608 -0.290694 -0.090610
v 0.115325 -0.290694 -0.115325
v 0.090610 -0.290694 -0.135608
v 0.062414 -0.290694 -0.150680
v 0.031818 -0.290694 -0.159961
v 0.056889 -0.136934 -1.000000
v -0.056889 -0.136934 -0.980785
v -0.382683 -0.136934 -0.923880
v -0.555570 -0.136934 -0.831470
v -0.707107 -0.136934 -0.707107
v -0.831470 -0.136934 -0.555570
v -0.923880 -0.136934 -0.382683
v -0.980785 -0.136934 -0.195090
v -1.000000 -0.136934 -0.056889
v -0.980785 -0.136934 0.056889
v -0.923880 -0.136934 0.382683
v -0.831470 -0.136934 0.555570
v -0.707107 -0.136934 0.707107
v -0.555570 -0.136934 0.831470
v -0.382683 -0.136934 0.923880
v -0.195090 -0.136934 0.980785
v -0.056889 -0.136934 1.000000
v 0.056889 -0.136934 0.980785
v 0.382683 -0.136934 0.923880
v 0.555570 -0.136934 0.831470
v 0.707107 -0.136934 0.707107
v 0.831470 -0.136934 0.555570
v 0.923880 -0.136934 0.382683
v 0.980785 -0.136934 0.195090
v 1.000000 -0.136934 0.056889
v 0.980785 -0.136934 -0.056889
v 0.923880 -0.136934 -0.382683
v 0.831470 -0.136934 -0.555570
v 0.707107 -0.136934 -0.707107
v 0.555570 -0.136934 -0.831470
v 0.382683 -0.136934 -0.923880
v 0.195090 -0.136934 -0.980785
v 0.056889 -0.319457 -0.709840
v -0.056889 -0.319457 -0.696200
v -0.271644 -0.319457 -0.655806
v -0.394366 -0.319457 -0.590210
v -0.501933 -0.319457 -0.501933
v -0.590210 -0.319457 -0.394366
v -0.655806 -0.319457 -0.271644
v -0.696200 -0.319457 -0.138483
v -0.709840 -0.319457 -0.056889
v -0.696200 -0.319457 0.056889
v -0.655806 -0.319457 0.271644
v -0.590210 -0.319457 0.394366
v -0.501933 -0.319457 0.501933
v -0.394366 -0.319457 0.590210
v -0.271644 -0.319457 0.655806
v -0.138483 -0.319457 0.696200
v -0.056889 -0.319457 0.709840
v 0.056889 -0.319457 0.696200
v 0.271644 -0.319457 0.655806
v 0.394366 -0.319457 0.590210
v 0.501933 -0.319457 0.501933
v 0.590210 -0.319457 0.394366
v 0.655806 -0.319457 0.271644
v 0.696200 -0.319457 0.138483
v 0.709840 -0.319457 0.056889
v 0.696200 -0.319457 -0.056889
v 0.655806 -0.319457 -0.271644
v 0.590210 -0.319457 -0.394366
v 0.501933 -0.319457 -0.501933
v 0.394366 -0.319457 -0.590210
v 0.271644 -0.319457 -0.655806
v 0.138483 -0.319457 -0.696200
v 0.056889 -0.427628 -0.163094
v -0.056889 -0.427628 -0.159961
v -0.062414 -0.427628 -0.150680
v -0.090610 -0.427628 -0.135608
v -0.115325 -0.427628 -0.115325
v -0.135608 -0.427628 -0.090610
v -0.150680 -0.427628 -0.062414
v -0.159961 -0.427628 -0.031818
v -0.163094 -0.427628 -0.056889
v -0.159961 -0.427628 0.056889
v -0.150680 -0.427628 0.062414
v -0.135608 -0.427628 0.090610
v -0.115325 -0.427628 0.115325
v -0.090610 -0.427628 0.135608
v -0.062414 -0.427628 0.150680
v -0.031818 -0.427628 0.159961
v -0.056889 -0.427628 0.163094
v 0.056889 -0.427628 0.159961
v 0.062414 -0.427628 0.150680
v 0.090610 -0.427628 0.135608
v 0.115325 -0.427628 0.115325
v 0.135608 -0.427628 0.090610
v 0.150680 -0.427628 0.062414
v 0.159961 -0.427628 0.031818
v 0.163094 -0.427628 0.056889
v 0.159961 -0.427628 -0.056889
v 0.150680 -0.427628 -0.062414
v 0.135608 -0.427628 -0.090610
v 0.115325 -0.427628 -0.115325
v 0.090610 -0.427628 -0.135608
v 0.062414 -0.427628 -0.150680
v 0.031818 -0.427628 -0.159961
v 0.555570 -0.136934 0.831470
v 0.707107 -0.136934 0.707107
v -0.923880 -0.136934 -0.382683
v -0.980785 -0.136934 -0.195090
v 0.831470 -0.136934 0.555570
v 0.923880 -0.136934 0.382683
v 0.980785 -0.136934 0.195090
v -0.923880 -0.136934 0.382683
v -0.831470 -0.136934 0.555570
v -0.707107 -0.136934 0.707107
v 0.923880 -0.136934 -0.382683
v -0.555570 -0.136934 0.831470
v 0.831470 -0.136934 -0.555570
v -0.382683 -0.136934 0.923880
v 0.707107 -0.136934 -0.707107
v -0.195090 -0.136934 0.980785
v -0.382683 -0.136934 -0.923880
v 0.555570 -0.136934 -0.831470
v -0.555570 -0.136934 -0.831470
v 0.382683 -0.136934 -0.923880
v -0.707107 -0.136934 -0.707107
v 0.195090 -0.136934 -0.980785
v 0.382683 -0.136934 0.923880
v -0.831470 -0.136934 -0.555570
v 0.555570 0.000000 0.831470
v 0.707107 0.000000 0.707107
v -0.923880 0.000000 -0.382683
v -0.980785 0.000000 -0.195090
v 0.831470 0.000000 0.555570
v -1.000000 0.000000 0.000000
v 0.923880 0.000000 0.382683
v -0.980785 0.000000 0.195090
v 0.980785 0.000000 0.195090
v -0.923880 0.000000 0.382683
v 1.000000 0.000000 0.000000
v -0.831470 0.000000 0.555570
v 0.980785 0.000000 -0.195090
v -0.707107 0.000000 0.707107
v 0.923880 0.000000 -0.382683
v -0.555570 0.000000 0.831470
v 0.831470 0.000000 -0.555570
v -0.382683 0.000000 0.923880
v 0.000000 0.000000 -1.000000
v -0.195090 0.000000 -0.980785
v 0.707107 0.000000 -0.707107
v -0.195090 0.000000 0.980785
v -0.382683 0.000000 -0.923880
v 0.555570 0.000000 -0.831470
v 0.000000 0.000000 1.000000
v -0.555570 0.000000 -0.831470
v 0.382683 0.000000 -0.923880
v 0.195090 0.000000 0.980785
v -0.707107 0.000000 -0.707107
v 0.195090 0.000000 -0.980785
v 0.382683 0.000000 0.923880
v -0.831470 0.000000 -0.555570
v 0.056889 -0.837434 -0.336576
v -0.056889 -0.837434 -0.330109
v -0.128802 -0.837434 -0.310956
v -0.186992 -0.837434 -0.279853
v -0.237995 -0.837434 -0.237995
v -0.279853 -0.837434 -0.186992
v -0.310956 -0.837434 -0.128802
v -0.330109 -0.837434 -0.065663
v -0.336576 -0.837434 -0.056889
v -0.330109 -0.837434 0.056889
v -0.310956 -0.837434 0.128802
v -0.279853 -0.837434 0.186992
v -0.237995 -0.837434 0.237995
v -0.186992 -0.837434 0.279853
v -0.128802 -0.837434 0.310956
v -0.065663 -0.837434 0.330109
v -0.056889 -0.837434 0.336576
v 0.056889 -0.837434 0.330109
v 0.128802 -0.837434 0.310956
v 0.186992 -0.837434 0.279853
v 0.237995 -0.837434 0.237995
v 0.279853 -0.837434 0.186992
v 0.310956 -0.837434 0.128802
v 0.330109 -0.837434 0.065663
v 0.336576 -0.837434 0.056889
v 0.330109 -0.837434 -0.056889
v 0.310956 -0.837434 -0.128802
v 0.279853 -0.837434 -0.186992
v 0.237995 -0.837434 -0.237995
v 0.186992 -0.837434 -0.279853
v 0.128802 -0.837434 -0.310956
v 0.065663 -0.837434 -0.330109
v -0.000000 -2.142612 -0.336576
v -0.065663 -2.142612 -0.330109
v -0.128802 -2.142612 -0.310956
v -0.186992 -2.142612 -0.279853
v -0.237995 -2.142612 -0.237995
v -0.279853 -2.142612 -0.186992
v -0.310956 -2.142612 -0.128802
v -0.330109 -2.142612 -0.065663
v -0.336576 -2.142612 -0.000000
v -0.330109 -2.142612 0.065663
v -0.310956 -2.142612 0.128802
v -0.279853 -2.142612 0.186992
v -0.237995 -2.142612 0.237995
v -0.186992 -2.142612 0.279853
v -0.128802 -2.142612 0.310956
v -0.065663 -2.142612 0.330109
v -0.000000 -2.142612 0.336576
v 0.065663 -2.142612 0.330109
v 0.128802 -2.142612 0.310956
v 0.186992 -2.142612 0.279853
v 0.237995 -2.142612 0.237995
v 0.279853 -2.142612 0.186992
v 0.310956 -2.142612 0.128802
v 0.330109 -2.142612 0.065663
v 0.336576 -2.142612 -0.000000
v 0.330109 -2.142612 -0.065663
v 0.310956 -2.142612 -0.128802
v 0.279853 -2.142612 -0.186992
v 0.237995 -2.142612 -0.237995
v 0.186992 -2.142612 -0.279853
v 0.128802 -2.142612 -0.310956
v 0.065663 -2.142612 -0.330109
v -0.056889 -0.411900 -0.696200
v 0.056889 -0.411900 -0.709840
v -0.696200 -0.411900 0.056889
v -0.709840 -0.411900 -0.056889
v 0.056889 -0.411900 0.696200
v -0.056889 -0.411900 0.709840
v 0.696200 -0.411900 -0.056889
v 0.709840 -0.411900 0.056889
v 0.056889 -0.229377 -1.000000
v -1.000000 -0.229377 -0.056889
v -0.980785 -0.229377 0.056889
v 1.000000 -0.229377 0.056889
v 0.980785 -0.229377 -0.056889
v -0.056889 -0.229377 -0.980785
v -0.056889 -0.229377 1.000000
v 0.056889 -0.229377 0.980785
v 0.382683 -0.067326 0.923880
v 0.555570 -0.067326 0.831470
v 0.707107 -0.067326 0.707107
v 0.831470 -0.067326 0.555570
v 0.923880 -0.067326 0.382683
v 0.980785 -0.067326 0.195090
v 1.000000 -0.067326 0.027970
v 0.980785 -0.067326 -0.127141
v 0.923880 -0.067326 -0.382683
v 0.831470 -0.067326 -0.555570
v 0.027970 -0.067326 -1.000000
v -0.127141 -0.067326 -0.980785
v 0.707107 -0.067326 -0.707107
v -0.382683 -0.067326 -0.923880
v 0.555570 -0.067326 -0.831470
v -0.555570 -0.067326 -0.831470
v 0.382683 -0.067326 -0.923880
v -0.707107 -0.067326 -0.707107
v 0.195090 -0.067326 -0.980785
v -0.831470 -0.067326 -0.555570
v -0.923880 -0.067326 -0.382683
v -0.980785 -0.067326 -0.195090
v -1.000000 -0.067326 -0.027970
v -0.980785 -0.067326 0.127141
v -0.923880 -0.067326 0.382683
v -0.831470 -0.067326 0.555570
v -0.707107 -0.067326 0.707107
v -0.555570 -0.067326 0.831470
v -0.382683 -0.067326 0.923880
v -0.195090 -0.067326 0.980785
v -0.027970 -0.067326 1.000000
v 0.127141 -0.067326 0.980785
v -0.056889 -0.319457 -0.696200
v -0.056889 -0.136934 -0.980785
v 0.056889 -0.319457 -0.709840
v 0.056889 -0.136934 -1.000000
v 0.696200 -0.319457 -0.056889
v 0.980785 -0.136934 -0.056889
v 0.709840 -0.319457 0.056889
v 1.000000 -0.136934 0.056889
v 0.056889 -0.319457 0.696200
v 0.056889 -0.136934 0.980785
v -0.056889 -0.319457 0.709840
v -0.056889 -0.136934 1.000000
v -0.696200 -0.319457 0.056889
v -0.980785 -0.136934 0.056889
v -0.709840 -0.319457 -0.056889
v -1.000000 -0.136934 -0.056889
v -0.330109 -0.908131 -0.065663
v -0.336576 -0.908131 -0.053807
v 0.279853 -0.908131 0.186992
v 0.310956 -0.908131 0.128802
v -0.330109 -0.908131 0.057364
v 0.330109 -0.908131 0.065663
v -0.310956 -0.908131 0.128802
v 0.336576 -0.908131 0.053807
v -0.279853 -0.908131 0.186992
v 0.330109 -0.908131 -0.057364
v -0.237995 -0.908131 0.237995
v 0.310956 -0.908131 -0.128802
v -0.186992 -0.908131 0.279853
v 0.279853 -0.908131 -0.186992
v -0.128802 -0.908131 0.310956
v 0.053807 -0.908131 -0.336576
v -0.057364 -0.908131 -0.330109
v 0.237995 -0.908131 -0.237995
v -0.065663 -0.908131 0.330109
v -0.128802 -0.908131 -0.310956
v 0.186992 -0.908131 -0.279853
v -0.053807 -0.908131 0.336576
v -0.186992 -0.908131 -0.279853
v 0.128802 -0.908131 -0.310956
v 0.057364 -0.908131 0.330109
v -0.237995 -0.908131 -0.237995
v 0.065663 -0.908131 -0.330109
v 0.128802 -0.908131 0.310956
v -0.279853 -0.908131 -0.186992
v 0.186992 -0.908131 0.279853
v -0.310956 -0.908131 -0.128802
v 0.237995 -0.908131 0.237995
v -0.468543 -1.051150 -0.066227
v 0.432877 -1.051150 0.179303
v -0.459540 -1.051150 0.081194
v 0.459539 -1.051150 0.091408
v -0.432877 -1.051150 0.179303
v 0.468542 -1.051150 0.066227
v -0.389579 -1.051150 0.260308
v 0.459539 -1.051150 -0.081194
v -0.331309 -1.051150 0.331310
v 0.432877 -1.051150 -0.179303
v -0.260308 -1.051150 0.389579
v 0.389579 -1.051150 -0.260308
v -0.179303 -1.051150 0.432877
v -0.081194 -1.051150 -0.459540
v 0.331310 -1.051150 -0.331310
v -0.091408 -1.051150 0.459540
v -0.179303 -1.051150 -0.432877
v 0.260308 -1.051150 -0.389579
v -0.066227 -1.051150 0.468542
v -0.260308 -1.051150 -0.389579
v 0.179303 -1.051150 -0.432877
v 0.081194 -1.051150 0.459540
v -0.331309 -1.051150 -0.331310
v 0.091408 -1.051150 -0.459540
v 0.179303 -1.051150 0.432877
v -0.389579 -1.051150 -0.260308
v 0.260308 -1.051150 0.389579
v -0.432877 -1.051150 -0.179303
v 0.331310 -1.051150 0.331310
v -0.459540 -1.051150 -0.091408
v 0.389579 -1.051150 0.260308
v 0.066227 -1.051150 -0.468542
v -0.336576 -1.193190 -0.041383
v 0.310956 -1.193190 0.128802
v -0.330109 -1.193190 0.059280
v 0.330109 -1.193190 0.065663
v -0.310956 -1.193190 0.128802
v 0.336576 -1.193190 0.041383
v -0.279853 -1.193190 0.186992
v 0.330109 -1.193190 -0.059280
v -0.237995 -1.193190 0.237995
v 0.310956 -1.193190 -0.128802
v -0.186992 -1.193190 0.279853
v 0.279853 -1.193190 -0.186992
v -0.128802 -1.193190 0.310956
v -0.059280 -1.193190 -0.330109
v 0.237995 -1.193190 -0.237995
v -0.065663 -1.193190 0.330109
v -0.128802 -1.193190 -0.310956
v 0.186992 -1.193190 -0.279853
v -0.041383 -1.193190 0.336576
v -0.186992 -1.193190 -0.279853
v 0.128802 -1.193190 -0.310956
v 0.059280 -1.193190 0.330109
v -0.237995 -1.193190 -0.237995
v 0.065663 -1.193190 -0.330109
v 0.128802 -1.193190 0.310956
v -0.279853 -1.193190 -0.186992
v 0.186992 -1.193190 0.279853
v -0.310956 -1.193190 -0.128802
v 0.237995 -1.193190 0.237995
v -0.330109 -1.193190 -0.065663
v 0.279853 -1.193190 0.186992
v 0.041383 -1.193190 -0.336576
v -0.447399 -1.037735 -0.088993
v 0.379287 -1.037735 0.253431
v 0.065062 -1.037735 -0.456164
v -0.456164 -1.037735 -0.065062
v 0.421441 -1.037735 0.174567
v -0.447399 -1.037735 0.078959
v 0.447399 -1.037735 0.088993
v -0.421441 -1.037735 0.174567
v 0.456164 -1.037735 0.065062
v -0.379287 -1.037735 0.253431
v 0.447399 -1.037735 -0.078959
v -0.322557 -1.037735 0.322557
v 0.421441 -1.037735 -0.174567
v -0.253431 -1.037735 0.379287
v 0.379287 -1.037735 -0.253431
v -0.174566 -1.037735 0.421441
v -0.078959 -1.037735 -0.447399
v 0.322557 -1.037735 -0.322557
v -0.088993 -1.037735 0.447399
v -0.174566 -1.037735 -0.421441
v 0.253431 -1.037735 -0.379287
v -0.065062 -1.037735 0.456164
v -0.253431 -1.037735 -0.379287
v 0.174567 -1.037735 -0.421441
v 0.078959 -1.037735 0.447399
v -0.322557 -1.037735 -0.322557
v 0.088993 -1.037735 -0.447399
v 0.174567 -1.037735 0.421441
v -0.379287 -1.037735 -0.253431
v 0.253431 -1.037735 0.379287
v -0.421441 -1.037735 -0.174567
v 0.322557 -1.037735 0.322557
v -0.337327 -0.916107 -0.067099
v 0.285972 -0.916107 0.191080
v 0.054500 -0.916107 -0.343936
v -0.343936 -0.916107 -0.054500
v 0.317755 -0.916107 0.131618
v -0.337327 -0.916107 0.058693
v 0.337327 -0.916107 0.067099
v -0.317755 -0.916107 0.131618
v 0.343936 -0.916107 0.054500
v -0.285972 -0.916107 0.191080
v 0.337327 -0.916107 -0.058693
v -0.243199 -0.916107 0.243199
v 0.317755 -0.916107 -0.131618
v -0.191080 -0.916107 0.285972
v 0.285972 -0.916107 -0.191080
v -0.131618 -0.916107 0.317755
v -0.058693 -0.916107 -0.337327
v 0.243199 -0.916107 -0.243199
v -0.067099 -0.916107 0.337327
v -0.131618 -0.916107 -0.317755
v 0.191080 -0.916107 -0.285972
v -0.054500 -0.916107 0.343936
v -0.191080 -0.916107 -0.285972
v 0.131618 -0.916107 -0.317755
v 0.058693 -0.916107 0.337327
v -0.243199 -0.916107 -0.243199
v 0.067099 -0.916107 -0.337327
v 0.131618 -0.916107 0.317755
v -0.285972 -0.916107 -0.191080
v 0.191080 -0.916107 0.285972
v -0.317755 -0.916107 -0.131618
v 0.243199 -0.916107 0.243199
v -0.344354 -1.177557 -0.068496
v 0.291929 -1.177557 0.195061
v 0.044117 -1.177557 -0.351100
v -0.351101 -1.177557 -0.044117
v 0.324375 -1.177557 0.134360
v -0.344354 -1.177557 0.061692
v 0.344354 -1.177557 0.068496
v -0.324375 -1.177557 0.134360
v 0.351100 -1.177557 0.044117
v -0.291929 -1.177557 0.195061
v 0.344354 -1.177557 -0.061692
v -0.248266 -1.177557 0.248266
v 0.324375 -1.177557 -0.134360
v -0.195061 -1.177557 0.291929
v 0.291929 -1.177557 -0.195061
v -0.134360 -1.177557 0.324375
v -0.061692 -1.177557 -0.344354
v 0.248266 -1.177557 -0.248266
v -0.068496 -1.177557 0.344354
v -0.134360 -1.177557 -0.324375
v 0.195061 -1.177557 -0.291929
v -0.044117 -1.177557 0.351100
v -0.195061 -1.177557 -0.291929
v 0.134360 -1.177557 -0.324375
v 0.061692 -1.177557 0.344354
v -0.248266 -1.177557 -0.248266
v 0.068496 -1.177557 -0.344354
v 0.134360 -1.177557 0.324375
v -0.291929 -1.177557 -0.195061
v 0.195061 -1.177557 0.291929
v -0.324375 -1.177557 -0.134360
v 0.248266 -1.177557 0.248266
v -0.445480 -1.066579 -0.088612
v 0.377660 -1.066579 0.252344
v 0.063528 -1.066579 -0.454208
v -0.454208 -1.066579 -0.063528
v 0.419633 -1.066579 0.173818
v -0.445480 -1.066579 0.078814
v 0.445480 -1.066579 0.088612
v -0.419633 -1.066579 0.173818
v 0.454208 -1.066579 0.063528
v -0.377660 -1.066579 0.252344
v 0.445480 -1.066579 -0.078814
v -0.321173 -1.066579 0.321173
v 0.419633 -1.066579 -0.173818
v -0.252344 -1.066579 0.377660
v 0.377660 -1.066579 -0.252344
v -0.173818 -1.066579 0.419633
v -0.078814 -1.066579 -0.445480
v 0.321173 -1.066579 -0.321173
v -0.088612 -1.066579 0.445480
v -0.173818 -1.066579 -0.419633
v 0.252344 -1.066579 -0.377660
v -0.063528 -1.066579 0.454208
v -0.252344 -1.066579 -0.377660
v 0.173818 -1.066579 -0.419633
v 0.078814 -1.066579 0.445480
v -0.321173 -1.066579 -0.321173
v 0.088612 -1.066579 -0.445480
v 0.173818 -1.066579 0.419633
v -0.377660 -1.066579 -0.252344
v 0.252344 -1.066579 0.377660
v -0.419633 -1.066579 -0.173818
v 0.321173 -1.066579 0.321173
vn -0.1905 0.9630 -0.1905
vn -0.2681 0.9253 -0.2681
vn -0.2107 0.9253 -0.3153
vn -0.1496 0.9630 -0.2240
vn 0.2642 0.9630 0.0525
vn 0.3719 0.9253 0.0740
vn 0.3503 0.9253 0.1451
vn 0.2489 0.9630 0.1031
vn -0.2240 0.9630 -0.1496
vn -0.3153 0.9253 -0.2107
vn 0.2694 0.9630 -0.0000
vn 0.3792 0.9253 -0.0000
vn -0.2489 0.9630 -0.1031
vn -0.3503 0.9253 -0.1451
vn 0.2642 0.9630 -0.0525
vn 0.3719 0.9253 -0.0740
vn -0.2642 0.9630 -0.0525
vn -0.3719 0.9253 -0.0740
vn 0.2489 0.9630 -0.1031
vn 0.3503 0.9253 -0.1451
vn -0.2694 0.9630 -0.0000
vn -0.3792 0.9253 -0.0000
vn 0.2240 0.9630 -0.1496
vn 0.3153 0.9253 -0.2107
vn -0.2642 0.9630 0.0525
vn -0.3719 0.9253 0.0740
vn 0.1905 0.9630 -0.1905
vn 0.2681 0.9253 -0.2681
vn -0.2489 0.9630 0.1031
vn -0.3503 0.9253 0.1451
vn 0.1496 0.9630 -0.2240
vn 0.2107 0.9253 -0.3153
vn -0.2240 0.9630 0.1496
vn -0.3153 0.9253 0.2107
vn 0.1031 0.9630 -0.2489
vn 0.1451 0.9253 -0.3503
vn 0.0525 0.9630 0.2642
vn 0.0740 0.9253 0.3719
vn -0.0000 0.9253 0.3792
vn -0.0000 0.9630 0.2694
vn -0.1905 0.9630 0.1905
vn -0.2681 0.9253 0.2681
vn 0.0525 0.9630 -0.2642
vn 0.0740 0.9253 -0.3719
vn 0.1031 0.9630 0.2489
vn 0.1451 0.9253 0.3503
vn -0.1496 0.9630 0.2240
vn -0.2107 0.9253 0.3153
vn -0.0000 0.9630 -0.2694
vn -0.0000 0.9253 -0.3792
vn 0.1496 0.9630 0.2240
vn 0.2107 0.9253 0.3153
vn -0.1031 0.9630 0.2489
vn -0.1451 0.9253 0.3503
vn -0.0525 0.9630 -0.2642
vn -0.0740 0.9253 -0.3719
vn 0.1905 0.9630 0.1905
vn 0.2681 0.9253 0.2681
vn -0.0525 0.9630 0.2642
vn -0.0740 0.9253 0.3719
vn -0.1031 0.9630 -0.2489
vn -0.1451 0.9253 -0.3503
vn 0.2240 0.9630 0.1496
vn 0.3153 0.9253 0.2107
vn 0.1706 0.6543 0.7367
vn -0.1507 0.6611 0.7350
vn -0.5344 0.6549 0.5344
vn -0.6283 0.6549 0.4198
vn 0.3441 0.6397 -0.6873
vn 0.2892 0.6549 -0.6982
vn 0.3439 0.6462 0.6813
vn -0.4198 0.6549 0.6283
vn 0.1507 0.6611 -0.7350
vn 0.4198 0.6549 0.6283
vn -0.2892 0.6549 0.6982
vn -0.1706 0.6543 -0.7367
vn 0.5344 0.6549 0.5344
vn -0.3441 0.6397 0.6873
vn -0.3439 0.6462 -0.6813
vn 0.6283 0.6549 0.4198
vn -0.4198 0.6549 -0.6283
vn 0.6982 0.6549 0.2892
vn -0.5344 0.6549 -0.5344
vn 0.6873 0.6397 0.3441
vn -0.6283 0.6549 -0.4198
vn 0.7350 0.6611 0.1507
vn -0.6982 0.6549 -0.2892
vn 0.7367 0.6543 -0.1706
vn -0.6873 0.6397 -0.3441
vn 0.6813 0.6462 -0.3439
vn -0.7350 0.6611 -0.1507
vn 0.6283 0.6549 -0.4198
vn -0.7367 0.6543 0.1706
vn 0.5344 0.6549 -0.5344
vn -0.6813 0.6462 0.3439
vn 0.4198 0.6549 -0.6283
vn 0.6575 0.3681 0.6575
vn 0.5166 0.3681 0.7731
vn 0.2107 -0.9253 0.3153
vn 0.2681 -0.9253 0.2681
vn -0.9143 0.3494 -0.2050
vn -0.8590 0.3681 -0.3558
vn -0.3503 -0.9253 -0.1451
vn -0.3667 -0.9260 -0.0898
vn 0.7731 0.3681 0.5166
vn 0.3153 -0.9253 0.2107
vn -0.3724 0.9264 -0.0557
vn -0.6434 -0.7561 -0.1197
vn 0.8590 0.3681 0.3558
vn 0.3503 -0.9253 0.1451
vn 0.9143 0.3494 0.2050
vn 0.3667 -0.9260 0.0898
vn -0.3643 0.9290 0.0656
vn -0.8458 0.5160 0.1357
vn -0.9706 0.1003 0.2189
vn -0.6502 -0.7495 0.1244
vn 0.3724 0.9264 0.0557
vn 0.6434 -0.7561 0.1197
vn -0.7731 0.3681 0.5166
vn -0.8530 0.4267 0.3005
vn -0.3646 -0.9224 0.1274
vn -0.3153 -0.9253 0.2107
vn -0.0000 -0.0000 1.0000
vn -0.6575 0.3681 0.6575
vn -0.2681 -0.9253 0.2681
vn 0.3643 0.9290 -0.0656
vn 0.8458 0.5160 -0.1357
vn 0.9706 0.1003 -0.2189
vn 0.6502 -0.7495 -0.1244
vn -0.5166 0.3681 0.7731
vn -0.2107 -0.9253 0.3153
vn 0.7731 0.3681 -0.5166
vn 0.8530 0.4267 -0.3005
vn 0.3646 -0.9224 -0.1274
vn 0.3153 -0.9253 -0.2107
vn -0.3558 0.3681 0.8590
vn -0.1451 -0.9253 0.3503
vn -0.1357 0.5160 -0.8458
vn -0.0328 0.5504 -0.8342
vn -0.1412 -0.4568 -0.8783
vn -0.1366 -0.5000 -0.8552
vn 0.6575 0.3681 -0.6575
vn 0.2681 -0.9253 -0.2681
vn -0.2050 0.3494 0.9143
vn -0.0898 -0.9260 0.3667
vn -0.0656 0.9290 -0.3643
vn -0.2189 0.1003 -0.9706
vn -0.1244 -0.7495 -0.6502
vn 0.5166 0.3681 -0.7731
vn 0.2107 -0.9253 -0.3153
vn -0.0557 0.9264 0.3724
vn -0.1197 -0.7561 0.6434
vn -0.5166 0.3681 -0.7731
vn -0.3005 0.4267 -0.8530
vn -0.1274 -0.9224 -0.3646
vn -0.2107 -0.9253 -0.3153
vn 0.3558 0.3681 -0.8590
vn 0.1451 -0.9253 -0.3503
vn 1.0000 -0.0000 -0.0000
vn -0.6575 0.3681 -0.6575
vn -0.2681 -0.9253 -0.2681
vn 0.2050 0.3494 -0.9143
vn 0.0898 -0.9260 -0.3667
vn 0.0656 0.9290 0.3643
vn 0.1357 0.5160 0.8458
vn 0.2189 0.1003 0.9706
vn 0.1244 -0.7495 0.6502
vn -0.7731 0.3681 -0.5166
vn -0.3153 -0.9253 -0.2107
vn 0.0557 0.9264 -0.3724
vn 0.1197 -0.7561 -0.6434
vn 0.3005 0.4267 0.8530
vn 0.1274 -0.9224 0.3646
vn -1.0000 -0.0000 -0.0000
vn 0.1614 -0.9810 -0.1078
vn 0.1372 -0.9810 -0.1372
vn -0.0743 -0.9810 0.1793
vn -0.0565 -0.9805 0.1882
vn -0.0439 -0.9799 -0.1947
vn -0.0746 -0.9808 -0.1803
vn 0.1078 -0.9810 -0.1614
vn -0.2831 0.0997 0.9539
vn -0.0565 -0.9801 0.1902
vn -0.1078 -0.9810 -0.1614
vn 0.0743 -0.9810 -0.1793
vn -0.1372 -0.9810 -0.1372
vn 0.0565 -0.9805 -0.1882
vn 0.0439 -0.9799 0.1947
vn 0.0746 -0.9808 0.1803
vn -0.1614 -0.9810 -0.1078
vn 0.2831 0.0997 -0.9539
vn 0.0565 -0.9801 -0.1902
vn 0.1078 -0.9810 0.1614
vn -0.1793 -0.9810 -0.0743
vn 0.1372 -0.9810 0.1372
vn -0.1882 -0.9805 -0.0565
vn 0.1614 -0.9810 0.1078
vn -0.9539 0.0997 -0.2831
vn -0.1902 -0.9801 -0.0565
vn 0.1793 -0.9810 0.0743
vn 0.1882 -0.9805 0.0565
vn -0.1947 -0.9799 0.0439
vn -0.1803 -0.9808 0.0746
vn 0.9539 0.0997 0.2831
vn 0.1902 -0.9801 0.0565
vn -0.1614 -0.9810 0.1078
vn -0.0000 -0.0000 -1.0000
vn -0.1372 -0.9810 0.1372
vn 0.1947 -0.9799 -0.0439
vn 0.1803 -0.9808 -0.0746
vn -0.1078 -0.9810 0.1614
vn 0.5556 -0.0000 0.8315
vn 0.3490 -0.0559 0.9355
vn 0.2417 0.6943 0.6779
vn 0.3919 0.7088 0.5865
vn -0.7071 -0.0000 0.7071
vn -0.8315 -0.0000 0.5556
vn 0.4642 -0.0209 0.8855
vn 0.2747 -0.0210 0.9613
vn 0.7071 -0.0000 0.7071
vn 0.4988 0.7088 0.4988
vn -0.5556 -0.0000 0.8315
vn 0.8315 -0.0000 0.5556
vn 0.5865 0.7088 0.3919
vn -0.3827 -0.0000 0.9239
vn 0.9239 -0.0000 0.3827
vn 0.6517 0.7088 0.2699
vn -0.4959 -0.0720 0.8654
vn 0.9790 0.0120 0.2036
vn 0.6858 0.7130 0.1461
vn -0.3431 -0.0734 0.9364
vn 0.9994 -0.0345 -0.0081
vn 0.8342 0.5504 -0.0328
vn 0.8654 -0.0720 0.4959
vn 0.9825 -0.0936 -0.1613
vn 0.9364 -0.0734 0.3431
vn 0.9355 -0.0559 -0.3490
vn 0.6779 0.6943 -0.2417
vn 0.9613 -0.0210 -0.2747
vn 0.8315 -0.0000 -0.5556
vn 0.5865 0.7088 -0.3919
vn -0.1613 -0.0936 -0.9825
vn -0.0081 -0.0345 -0.9994
vn 0.8855 -0.0209 -0.4642
vn 0.7071 -0.0000 -0.7071
vn 0.4988 0.7088 -0.4988
vn -0.3490 -0.0559 -0.9355
vn -0.2417 0.6943 -0.6779
vn 0.5556 -0.0000 -0.8315
vn 0.3919 0.7088 -0.5865
vn -0.5556 -0.0000 -0.8315
vn -0.3919 0.7088 -0.5865
vn 0.3827 -0.0000 -0.9239
vn 0.2699 0.7088 -0.6517
vn -0.7071 -0.0000 -0.7071
vn -0.4988 0.7088 -0.4988
vn 0.2036 0.0120 -0.9790
vn 0.1461 0.7130 -0.6858
vn -0.8315 -0.0000 -0.5556
vn -0.5865 0.7088 -0.3919
vn -0.9239 -0.0000 -0.3827
vn -0.6517 0.7088 -0.2699
vn 0.4959 -0.0720 -0.8654
vn -0.9790 0.0120 -0.2036
vn -0.6858 0.7130 -0.1461
vn 0.3431 -0.0734 -0.9364
vn -0.9994 -0.0345 0.0081
vn -0.8342 0.5504 0.0328
vn -0.2747 -0.0210 -0.9613
vn -0.9825 -0.0936 0.1613
vn -0.4642 -0.0209 -0.8855
vn -0.9355 -0.0559 0.3490
vn -0.6779 0.6943 0.2417
vn -0.5865 0.7088 0.3919
vn -0.4988 0.7088 0.4988
vn -0.3919 0.7088 0.5865
vn -0.2699 0.7088 0.6517
vn -0.8654 -0.0720 -0.4959
vn -0.2036 0.0120 0.9790
vn -0.1461 0.7130 0.6858
vn -0.9364 -0.0734 -0.3431
vn 0.0081 -0.0345 0.9994
vn 0.0328 0.5504 0.8342
vn -0.9613 -0.0210 0.2747
vn 0.1613 -0.0936 0.9825
vn -0.8855 -0.0209 0.4642
vn 0.2635 0.6881 0.6761
vn -0.0205 0.6951 -0.7186
vn 0.1395 0.7126 -0.6876
vn 0.1583 0.6719 0.7235
vn 0.0205 0.6951 0.7186
vn -0.2635 0.6881 -0.6761
vn -0.1395 0.7126 0.6876
vn -0.1583 0.6719 -0.7235
vn 0.6761 0.6881 -0.2635
vn 0.7235 0.6719 -0.1583
vn 0.7186 0.6951 -0.0205
vn -0.6761 0.6881 0.2635
vn 0.6876 0.7126 0.1395
vn -0.7235 0.6719 0.1583
vn -0.7186 0.6951 0.0205
vn -0.6876 0.7126 -0.1395
vn 0.8508 0.3898 0.3524
vn 0.9059 0.1965 0.3752
vn 0.7375 0.0046 0.6753
vn 0.2050 0.1363 0.9692
vn -0.8697 0.3765 0.3193
vn -0.9788 -0.0790 0.1891
vn -0.9046 0.1932 0.3799
vn -0.8403 0.3837 0.3830
vn 0.8344 -0.4163 0.3612
vn -0.8157 -0.3221 0.4805
vn -0.8153 0.1965 0.5447
vn -0.7657 0.3898 0.5116
vn -0.6933 0.1965 0.6933
vn -0.6512 0.3898 0.6512
vn 0.8697 0.3765 -0.3193
vn 0.9788 -0.0790 -0.1891
vn 0.9046 0.1932 -0.3799
vn 0.8403 0.3837 -0.3830
vn -0.5447 0.1965 0.8153
vn -0.5116 0.3898 0.7657
vn 0.8153 0.1965 -0.5447
vn 0.7657 0.3898 -0.5116
vn -0.3752 0.1965 0.9059
vn -0.3524 0.3898 0.8508
vn 0.6933 0.1965 -0.6933
vn 0.6512 0.3898 -0.6512
vn -0.6753 0.0046 0.7375
vn -0.9692 0.1363 0.2050
vn -0.3193 0.3765 -0.8697
vn -0.1891 -0.0790 -0.9788
vn -0.3799 0.1932 -0.9046
vn -0.3830 0.3837 -0.8403
vn 0.5447 0.1965 -0.8153
vn 0.5116 0.3898 -0.7657
vn -0.3612 -0.4163 0.8344
vn -0.4805 -0.3221 -0.8157
vn -0.5447 0.1965 -0.8153
vn -0.5116 0.3898 -0.7657
vn 0.3752 0.1965 -0.9059
vn 0.3524 0.3898 -0.8508
vn -0.6933 0.1965 -0.6933
vn -0.6512 0.3898 -0.6512
vn 0.6753 0.0046 -0.7375
vn 0.9692 0.1363 -0.2050
vn 0.3193 0.3765 0.8697
vn 0.1891 -0.0790 0.9788
vn 0.3799 0.1932 0.9046
vn 0.3830 0.3837 0.8403
vn -0.8153 0.1965 -0.5447
vn -0.7657 0.3898 -0.5116
vn 0.3612 -0.4163 -0.8344
vn 0.4805 -0.3221 0.8157
vn 0.5447 0.1965 0.8153
vn 0.5116 0.3898 0.7657
vn -0.9059 0.1965 -0.3752
vn -0.8508 0.3898 -0.3524
vn 0.6933 0.1965 0.6933
vn 0.6512 0.3898 0.6512
vn -0.7375 0.0046 -0.6753
vn -0.2050 0.1363 -0.9692
vn 0.8153 0.1965 0.5447
vn 0.7657 0.3898 0.5116
vn -0.8344 -0.4163 -0.3612
vn 0.8157 -0.3221 -0.4805
vn -0.8783 -0.4568 0.1412
vn -0.8552 -0.5000 0.1366
vn -0.9019 -0.3685 -0.2254
vn -0.9762 -0.0016 -0.2169
vn -0.9996 -0.0005 -0.0296
vn -0.9229 -0.3808 -0.0566
vn 0.7712 -0.3736 0.5153
vn 0.8570 -0.3736 0.3550
vn -0.9839 0.0014 0.1788
vn -0.9143 -0.3720 0.1601
vn 0.9762 -0.0016 0.2169
vn 0.9019 -0.3685 0.2254
vn -0.9264 0.0005 0.3765
vn -0.8602 -0.3742 0.3465
vn 0.9996 -0.0005 0.0296
vn 0.9229 -0.3808 0.0566
vn -0.7712 -0.3736 0.5153
vn 0.9839 0.0014 -0.1788
vn 0.9143 -0.3720 -0.1601
vn -0.6559 -0.3736 0.6559
vn 0.9264 0.0005 -0.3765
vn 0.8602 -0.3742 -0.3465
vn -0.5153 -0.3736 0.7712
vn 0.7712 -0.3736 -0.5153
vn -0.3550 -0.3736 0.8570
vn 0.0566 -0.3808 -0.9229
vn 0.0296 -0.0005 -0.9996
vn -0.1788 0.0014 -0.9839
vn -0.1601 -0.3720 -0.9143
vn 0.6559 -0.3736 -0.6559
vn -0.2169 -0.0016 0.9762
vn -0.2254 -0.3685 0.9019
vn -0.3765 0.0005 -0.9264
vn -0.3465 -0.3742 -0.8602
vn 0.5153 -0.3736 -0.7712
vn -0.0296 -0.0005 0.9996
vn -0.0566 -0.3808 0.9229
vn -0.5153 -0.3736 -0.7712
vn 0.3550 -0.3736 -0.8570
vn 0.1788 0.0014 0.9839
vn 0.1601 -0.3720 0.9143
vn -0.6559 -0.3736 -0.6559
vn 0.2169 -0.0016 -0.9762
vn 0.2254 -0.3685 -0.9019
vn 0.3765 0.0005 0.9264
vn 0.3465 -0.3742 0.8602
vn -0.7712 -0.3736 -0.5153
vn 0.5153 -0.3736 0.7712
vn -0.8570 -0.3736 -0.3550
vn 0.6559 -0.3736 0.6559
vn -0.6444 -0.7612 0.0729
vn -0.6570 -0.7504 0.0723
vn 0.8552 -0.5000 -0.1366
vn 0.8783 -0.4568 -0.1412
vn 0.6444 -0.7612 -0.0729
vn 0.6570 -0.7504 -0.0723
vn -0.0729 -0.7612 -0.6444
vn -0.0723 -0.7504 -0.6570
vn 0.1366 -0.5000 0.8552
vn 0.1412 -0.4568 0.8783
vn 0.0729 -0.7612 0.6444
vn 0.0723 -0.7504 0.6570
vn 0.6564 0.3720 0.6564
vn 0.7718 0.3720 0.5157
vn -0.8576 0.3720 -0.3552
vn -0.8597 0.3486 -0.3734
vn 0.5157 0.3720 0.7718
vn -0.7718 0.3720 -0.5157
vn 0.3405 0.3737 0.8628
vn 0.3734 0.3486 -0.8597
vn 0.2178 0.3875 -0.8958
vn -0.6564 0.3720 -0.6564
vn 0.1474 0.3721 0.9164
vn 0.3552 0.3720 -0.8576
vn -0.5157 0.3720 -0.7718
vn -0.2178 0.3875 0.8958
vn 0.5157 0.3720 -0.7718
vn -0.3405 0.3737 -0.8628
vn -0.3734 0.3486 0.8597
vn 0.6564 0.3720 -0.6564
vn -0.1474 0.3721 -0.9164
vn -0.3552 0.3720 0.8576
vn 0.7718 0.3720 -0.5157
vn -0.5157 0.3720 0.7718
vn 0.8628 0.3737 -0.3405
vn -0.6564 0.3720 0.6564
vn 0.9164 0.3721 -0.1474
vn -0.7718 0.3720 0.5157
vn 0.8958 0.3875 0.2178
vn -0.8628 0.3737 0.3405
vn 0.8597 0.3486 0.3734
vn -0.9164 0.3721 0.1474
vn 0.8576 0.3720 0.3552
vn -0.8958 0.3875 -0.2178
vn 0.5197 0.6781 0.5197
vn 0.7071 -0.0016 0.7071
vn 0.8315 -0.0016 0.5556
vn 0.6111 0.6781 0.4083
vn -0.6790 0.6781 -0.2812
vn -0.9239 -0.0016 -0.3827
vn -0.9492 -0.0040 -0.3147
vn -0.6987 0.6728 -0.2430
vn 0.4083 0.6781 0.6111
vn 0.5556 -0.0016 0.8315
vn -0.6111 0.6781 -0.4083
vn -0.8315 -0.0016 -0.5556
vn 0.2710 0.6783 0.6830
vn 0.3698 -0.0014 0.9291
vn 0.2430 0.6728 -0.6987
vn 0.3147 -0.0040 -0.9492
vn 0.1405 -0.0030 -0.9901
vn 0.1135 0.6805 -0.7239
vn -0.5197 0.6781 -0.5197
vn -0.7071 -0.0016 -0.7071
vn 0.1190 0.6771 0.7262
vn 0.1629 -0.0010 0.9866
vn 0.2812 0.6781 -0.6790
vn 0.3827 -0.0016 -0.9239
vn -0.4083 0.6781 -0.6111
vn -0.5556 -0.0016 -0.8315
vn -0.1135 0.6805 0.7239
vn -0.1405 -0.0030 0.9901
vn 0.4083 0.6781 -0.6111
vn 0.5556 -0.0016 -0.8315
vn -0.2710 0.6783 -0.6830
vn -0.3698 -0.0014 -0.9291
vn -0.2430 0.6728 0.6987
vn -0.3147 -0.0040 0.9492
vn 0.5197 0.6781 -0.5197
vn 0.7071 -0.0016 -0.7071
vn -0.1190 0.6771 -0.7262
vn -0.1629 -0.0010 -0.9866
vn -0.2812 0.6781 0.6790
vn -0.3827 -0.0016 0.9239
vn 0.6111 0.6781 -0.4083
vn 0.8315 -0.0016 -0.5556
vn -0.4083 0.6781 0.6111
vn -0.5556 -0.0016 0.8315
vn 0.6830 0.6783 -0.2710
vn 0.9291 -0.0014 -0.3698
vn -0.5197 0.6781 0.5197
vn -0.7071 -0.0016 0.7071
vn 0.7262 0.6771 -0.1190
vn 0.9866 -0.0010 -0.1629
vn -0.6111 0.6781 0.4083
vn -0.8315 -0.0016 0.5556
vn 0.7239 0.6805 0.1135
vn 0.9901 -0.0031 0.1405
vn -0.6830 0.6783 0.2710
vn -0.9291 -0.0014 0.3698
vn 0.6987 0.6728 0.2430
vn 0.9492 -0.0040 0.3147
vn -0.7262 0.6771 0.1190
vn -0.9866 -0.0010 0.1629
vn 0.6790 0.6781 0.2812
vn 0.9239 -0.0016 0.3827
vn -0.7239 0.6805 -0.1135
vn -0.9901 -0.0031 -0.1405
vn 0.5180 -0.6807 0.5180
vn 0.6091 -0.6807 0.4070
vn -0.6768 -0.6807 -0.2804
vn -0.7023 -0.6806 -0.2089
vn 0.4070 -0.6807 0.6091
vn -0.6091 -0.6807 -0.4070
vn 0.2712 -0.6804 0.6808
vn 0.2089 -0.6806 -0.7023
vn 0.0802 -0.6847 -0.7244
vn -0.5180 -0.6807 -0.5180
vn 0.1208 -0.6787 0.7245
vn 0.2804 -0.6807 -0.6768
vn -0.4070 -0.6807 -0.6091
vn -0.0802 -0.6847 0.7244
vn 0.4070 -0.6807 -0.6091
vn -0.2712 -0.6804 -0.6808
vn -0.2089 -0.6806 0.7023
vn 0.5180 -0.6807 -0.5180
vn -0.1208 -0.6787 -0.7245
vn -0.2804 -0.6807 0.6768
vn 0.6091 -0.6807 -0.4070
vn -0.4070 -0.6807 0.6091
vn 0.6808 -0.6804 -0.2712
vn -0.5180 -0.6807 0.5180
vn 0.7245 -0.6787 -0.1208
vn -0.6091 -0.6807 0.4070
vn 0.7244 -0.6847 0.0802
vn -0.6808 -0.6804 0.2712
vn 0.7023 -0.6806 0.2089
vn -0.7245 -0.6787 0.1208
vn 0.6768 -0.6807 0.2804
vn -0.7244 -0.6847 -0.0802
vn -0.6914 0.6698 -0.2708
vn -0.7197 0.6801 -0.1391
vn -0.7264 0.6771 0.1179
vn 0.6914 0.6698 0.2708
vn -0.6832 0.6783 0.2704
vn 0.7197 0.6801 0.1391
vn 0.7264 0.6771 -0.1179
vn 0.6832 0.6783 -0.2704
vn 0.1391 0.6801 -0.7198
vn -0.1179 0.6771 -0.7264
vn -0.2708 0.6698 0.6914
vn -0.2704 0.6783 -0.6832
vn -0.1391 0.6801 0.7198
vn 0.1179 0.6771 0.7264
vn 0.2708 0.6698 -0.6914
vn 0.2704 0.6783 0.6832
vn -0.6990 -0.6799 -0.2218
vn -0.7222 -0.6852 -0.0943
vn -0.7246 -0.6787 0.1198
vn 0.6990 -0.6799 0.2218
vn -0.6810 -0.6804 0.2707
vn 0.7222 -0.6852 0.0943
vn 0.7246 -0.6787 -0.1198
vn 0.6810 -0.6804 -0.2707
vn 0.0943 -0.6852 -0.7222
vn -0.1198 -0.6787 -0.7246
vn -0.2218 -0.6799 0.6990
vn -0.2707 -0.6804 -0.6810
vn -0.0943 -0.6852 0.7222
vn 0.1198 -0.6787 0.7246
vn 0.2218 -0.6799 -0.6990
vn 0.2707 -0.6804 0.6810
vt 0.000000 0.000000
s 1
f 218/1/1 53/1/2 52/1/3 217/1/4
f 220/1/5 40/1/6 39/1/7 219/1/8
f 221/1/9 54/1/10 53/1/2 218/1/1
f 222/1/11 41/1/12 40/1/6 220/1/5
f 223/1/13 55/1/14 54/1/10 221/1/9
f 224/1/15 42/1/16 41/1/12 222/1/11
f 225/1/17 56/1/18 55/1/14 223/1/13
f 226/1/19 43/1/20 42/1/16 224/1/15
f 227/1/21 57/1/22 56/1/18 225/1/17
f 228/1/23 44/1/24 43/1/20 226/1/19
f 229/1/25 58/1/26 57/1/22 227/1/21
f 230/1/27 45/1/28 44/1/24 228/1/23
f 231/1/29 59/1/30 58/1/26 229/1/25
f 232/1/31 46/1/32 45/1/28 230/1/27
f 233/1/33 60/1/34 59/1/30 231/1/29
f 234/1/35 47/1/36 46/1/32 232/1/31
f 236/1/37 34/1/38 33/1/39 235/1/40
f 237/1/41 61/1/42 60/1/34 233/1/33
f 238/1/43 48/1/44 47/1/36 234/1/35
f 239/1/45 35/1/46 34/1/38 236/1/37
f 240/1/47 62/1/48 61/1/42 237/1/41
f 241/1/49 49/1/50 48/1/44 238/1/43
f 242/1/51 36/1/52 35/1/46 239/1/45
f 243/1/53 63/1/54 62/1/48 240/1/47
f 244/1/55 50/1/56 49/1/50 241/1/49
f 245/1/57 37/1/58 36/1/52 242/1/51
f 246/1/59 64/1/60 63/1/54 243/1/53
f 247/1/61 51/1/62 50/1/56 244/1/55
f 248/1/63 38/1/64 37/1/58 245/1/57
f 235/1/40 33/1/39 64/1/60 246/1/59
f 217/1/4 52/1/3 51/1/62 247/1/61
f 219/1/8 39/1/7 38/1/64 248/1/63
f 34/1/38 66/1/65 65/1/66 33/1/39
f 61/1/42 93/1/67 92/1/68 60/1/34
f 48/1/44 80/1/69 79/1/70 47/1/36
f 35/1/46 67/1/71 66/1/65 34/1/38
f 62/1/48 94/1/72 93/1/67 61/1/42
f 49/1/50 81/1/73 80/1/69 48/1/44
f 36/1/52 68/1/74 67/1/71 35/1/46
f 63/1/54 95/1/75 94/1/72 62/1/48
f 50/1/56 82/1/76 81/1/73 49/1/50
f 37/1/58 69/1/77 68/1/74 36/1/52
f 64/1/60 96/1/78 95/1/75 63/1/54
f 51/1/62 83/1/79 82/1/76 50/1/56
f 38/1/64 70/1/80 69/1/77 37/1/58
f 33/1/39 65/1/66 96/1/78 64/1/60
f 52/1/3 84/1/81 83/1/79 51/1/62
f 39/1/7 71/1/82 70/1/80 38/1/64
f 53/1/2 85/1/83 84/1/81 52/1/3
f 40/1/6 72/1/84 71/1/82 39/1/7
f 54/1/10 86/1/85 85/1/83 53/1/2
f 41/1/12 73/1/86 72/1/84 40/1/6
f 55/1/14 87/1/87 86/1/85 54/1/10
f 42/1/16 74/1/88 73/1/86 41/1/12
f 56/1/18 88/1/89 87/1/87 55/1/14
f 43/1/20 75/1/90 74/1/88 42/1/16
f 57/1/22 89/1/91 88/1/89 56/1/18
f 44/1/24 76/1/92 75/1/90 43/1/20
f 58/1/26 90/1/93 89/1/91 57/1/22
f 45/1/28 77/1/94 76/1/92 44/1/24
f 59/1/30 91/1/95 90/1/93 58/1/26
f 46/1/32 78/1/96 77/1/94 45/1/28
f 60/1/34 92/1/68 91/1/95 59/1/30
f 47/1/36 79/1/70 78/1/96 46/1/32
f 194/1/97 193/1/98 148/1/99 149/1/100
f 196/1/101 195/1/102 135/1/103 136/1/104
f 197/1/105 194/1/97 149/1/100 150/1/106
f 376/1/107 196/1/101 136/1/104 375/1/108
f 198/1/109 197/1/105 150/1/106 151/1/110
f 199/1/111 198/1/109 151/1/110 152/1/112
f 374/1/113 106/1/114 138/1/115 373/1/116
f 368/1/117 199/1/111 152/1/112 367/1/118
f 201/1/119 200/1/120 139/1/121 140/1/122
s 0
f 138/1/123 106/1/123 323/1/123 315/1/123
s 1
f 202/1/124 201/1/119 140/1/122 141/1/125
f 366/1/126 122/1/127 154/1/128 365/1/129
f 204/1/130 202/1/124 141/1/125 142/1/131
f 205/1/132 203/1/133 155/1/134 156/1/135
f 206/1/136 204/1/130 142/1/131 143/1/137
f 98/1/138 97/1/139 321/1/140 326/1/141
f 207/1/142 205/1/132 156/1/135 157/1/143
f 208/1/144 206/1/136 143/1/137 144/1/145
f 362/1/146 98/1/138 130/1/147 361/1/148
f 210/1/149 207/1/142 157/1/143 158/1/150
f 372/1/151 208/1/144 144/1/145 371/1/152
f 211/1/153 209/1/154 131/1/155 132/1/156
f 212/1/157 210/1/149 158/1/150 159/1/158
s 0
f 178/1/159 317/1/159 266/1/159
s 1
f 213/1/160 211/1/153 132/1/156 133/1/161
f 214/1/162 212/1/157 159/1/158 160/1/163
f 370/1/164 114/1/165 146/1/166 369/1/167
f 216/1/168 213/1/160 133/1/161 134/1/169
f 364/1/170 214/1/162 160/1/163 363/1/171
f 193/1/98 215/1/172 147/1/173 148/1/99
f 195/1/102 216/1/168 134/1/169 135/1/103
s 0
f 145/1/174 177/1/174 318/1/174
s 1
f 157/1/143 156/1/135 188/1/175 189/1/176
f 144/1/145 143/1/137 175/1/177 176/1/178
f 131/1/155 361/1/148 130/1/147 162/1/179 163/1/180
f 158/1/150 157/1/143 189/1/176 190/1/181
f 145/1/182 371/1/152 144/1/145 176/1/178 177/1/183
f 132/1/156 131/1/155 163/1/180 164/1/184
f 159/1/158 158/1/150 190/1/181 191/1/185
s 0
f 130/1/174 98/1/174 326/1/174 313/1/174
s 1
f 133/1/161 132/1/156 164/1/184 165/1/186
f 160/1/163 159/1/158 191/1/185 192/1/187
f 147/1/173 369/1/167 146/1/166 178/1/188 179/1/189
f 134/1/169 133/1/161 165/1/186 166/1/190
f 129/1/191 363/1/171 160/1/163 192/1/187 161/1/192
f 148/1/99 147/1/173 179/1/189 180/1/193
f 135/1/103 134/1/169 166/1/190 167/1/194
f 149/1/100 148/1/99 180/1/193 181/1/195
f 136/1/104 135/1/103 167/1/194 168/1/196
f 150/1/106 149/1/100 181/1/195 182/1/197
f 137/1/198 375/1/108 136/1/104 168/1/196 169/1/199
f 151/1/110 150/1/106 182/1/197 183/1/200
s 0
f 97/1/159 129/1/159 314/1/159 321/1/159
s 1
f 152/1/112 151/1/110 183/1/200 184/1/201
f 139/1/121 373/1/116 138/1/115 170/1/202 171/1/203
f 153/1/204 367/1/118 152/1/112 184/1/201 185/1/205
f 140/1/122 139/1/121 171/1/203 172/1/206
s 0
f 137/1/207 169/1/207 316/1/207
s 1
f 141/1/125 140/1/122 172/1/206 173/1/208
f 155/1/134 365/1/129 154/1/128 186/1/209 187/1/210
f 142/1/131 141/1/125 173/1/208 174/1/211
f 156/1/135 155/1/134 187/1/210 188/1/175
f 143/1/137 142/1/131 174/1/211 175/1/177
f 330/1/212 329/1/213 115/1/214 116/1/215
f 92/1/68 93/1/67 189/1/216 188/1/217
f 66/1/65 67/1/71 163/1/218 162/1/219
f 331/1/220 330/1/212 116/1/215 117/1/221
f 93/1/67 94/1/72 190/1/222 189/1/216
f 67/1/71 68/1/74 164/1/212 163/1/218
f 332/1/223 331/1/220 117/1/221 118/1/224
f 94/1/72 95/1/75 191/1/225 190/1/222
f 68/1/74 69/1/77 165/1/220 164/1/212
f 333/1/226 332/1/223 118/1/224 119/1/227
f 95/1/75 96/1/78 192/1/228 191/1/225
f 69/1/77 70/1/80 166/1/223 165/1/220
f 334/1/229 333/1/226 119/1/227 120/1/230
f 96/1/78 65/1/66 161/1/231 192/1/228
f 70/1/80 71/1/82 167/1/226 166/1/223
f 335/1/232 334/1/229 120/1/230 121/1/233
f 71/1/82 72/1/84 168/1/234 167/1/226
f 336/1/235 335/1/232 121/1/233 122/1/127
f 72/1/84 73/1/86 169/1/236 168/1/234
f 337/1/237 336/1/235 122/1/127 123/1/238
f 73/1/86 74/1/88 170/1/239 169/1/236
f 338/1/240 337/1/237 123/1/238 124/1/241
f 340/1/242 339/1/243 97/1/139 98/1/138
f 74/1/88 75/1/90 171/1/244 170/1/239
f 341/1/245 338/1/240 124/1/241 125/1/246
f 342/1/247 340/1/242 98/1/138 99/1/248
f 75/1/90 76/1/92 172/1/240 171/1/244
f 343/1/249 341/1/245 125/1/246 126/1/250
f 344/1/251 342/1/247 99/1/248 100/1/252
f 76/1/92 77/1/94 173/1/245 172/1/240
f 345/1/253 343/1/249 126/1/250 127/1/254
f 346/1/255 344/1/251 100/1/252 101/1/256
f 77/1/94 78/1/96 174/1/249 173/1/245
f 347/1/257 345/1/253 127/1/254 128/1/258
f 348/1/259 346/1/255 101/1/256 102/1/260
f 78/1/96 79/1/70 175/1/253 174/1/249
f 339/1/243 347/1/257 128/1/258 97/1/139
f 349/1/261 348/1/259 102/1/260 103/1/262
f 79/1/70 80/1/69 176/1/263 175/1/253
f 350/1/264 349/1/261 103/1/262 104/1/265
f 80/1/69 81/1/73 177/1/266 176/1/263
f 351/1/267 350/1/264 104/1/265 105/1/268
f 81/1/73 82/1/76 178/1/269 177/1/266
f 352/1/270 351/1/267 105/1/268 106/1/114
f 82/1/76 83/1/79 179/1/271 178/1/269
f 353/1/272 352/1/270 106/1/114 107/1/273
f 83/1/79 84/1/81 180/1/251 179/1/271
f 354/1/217 353/1/272 107/1/273 108/1/274
f 84/1/81 85/1/83 181/1/255 180/1/251
f 355/1/216 354/1/217 108/1/274 109/1/275
f 85/1/83 86/1/85 182/1/259 181/1/255
f 356/1/222 355/1/216 109/1/275 110/1/276
f 86/1/85 87/1/87 183/1/261 182/1/259
f 357/1/225 356/1/222 110/1/276 111/1/277
f 87/1/87 88/1/89 184/1/278 183/1/261
f 358/1/279 357/1/225 111/1/277 112/1/280
f 88/1/89 89/1/91 185/1/281 184/1/278
f 359/1/282 358/1/279 112/1/280 113/1/283
f 89/1/91 90/1/93 186/1/284 185/1/281
f 360/1/285 359/1/282 113/1/283 114/1/165
f 90/1/93 91/1/95 187/1/286 186/1/284
f 329/1/213 360/1/285 114/1/165 115/1/214
f 91/1/95 92/1/68 188/1/217 187/1/286
f 65/1/66 66/1/65 162/1/219 161/1/231
f 103/1/262 102/1/260 216/1/168 195/1/102
f 116/1/215 115/1/214 215/1/172 193/1/98
f 97/1/139 128/1/258 214/1/162 364/1/170
f 102/1/260 101/1/256 213/1/160 216/1/168
f 115/1/214 114/1/165 370/1/164 215/1/172
f 128/1/258 127/1/254 212/1/157 214/1/162
f 101/1/256 100/1/252 211/1/153 213/1/160
f 127/1/254 126/1/250 210/1/149 212/1/157
f 100/1/252 99/1/248 209/1/154 211/1/153
f 113/1/283 112/1/280 208/1/144 372/1/151
f 126/1/250 125/1/246 207/1/142 210/1/149
f 99/1/248 98/1/138 362/1/146 209/1/154
f 112/1/280 111/1/277 206/1/136 208/1/144
f 125/1/246 124/1/241 205/1/132 207/1/142
f 111/1/277 110/1/276 204/1/130 206/1/136
f 124/1/241 123/1/238 203/1/133 205/1/132
f 110/1/276 109/1/275 202/1/124 204/1/130
f 123/1/238 122/1/127 366/1/126 203/1/133
f 109/1/275 108/1/274 201/1/119 202/1/124
f 108/1/274 107/1/273 200/1/120 201/1/119
f 121/1/233 120/1/230 199/1/111 368/1/117
f 107/1/273 106/1/114 374/1/113 200/1/120
f 120/1/230 119/1/227 198/1/109 199/1/111
f 119/1/227 118/1/224 197/1/105 198/1/109
f 105/1/268 104/1/265 196/1/101 376/1/107
f 118/1/224 117/1/221 194/1/97 197/1/105
f 104/1/265 103/1/262 195/1/102 196/1/101
f 117/1/221 116/1/215 193/1/98 194/1/97
f 7/1/262 219/1/8 248/1/63 6/1/260
f 20/1/215 217/1/4 247/1/61 19/1/287
f 1/1/288 235/1/40 246/1/59 32/1/289
f 6/1/260 248/1/63 245/1/57 5/1/256
f 19/1/287 247/1/61 244/1/55 18/1/290
f 32/1/289 246/1/59 243/1/53 31/1/254
f 5/1/256 245/1/57 242/1/51 4/1/252
f 18/1/290 244/1/55 241/1/49 17/1/291
f 31/1/254 243/1/53 240/1/47 30/1/250
f 4/1/252 242/1/51 239/1/45 3/1/292
f 17/1/291 241/1/49 238/1/43 16/1/293
f 30/1/250 240/1/47 237/1/41 29/1/246
f 3/1/292 239/1/45 236/1/37 2/1/294
f 16/1/293 238/1/43 234/1/35 15/1/277
f 29/1/246 237/1/41 233/1/33 28/1/241
f 2/1/294 236/1/37 235/1/40 1/1/288
f 15/1/277 234/1/35 232/1/31 14/1/276
f 28/1/241 233/1/33 231/1/29 27/1/295
f 14/1/276 232/1/31 230/1/27 13/1/275
f 27/1/295 231/1/29 229/1/25 26/1/296
f 13/1/275 230/1/27 228/1/23 12/1/274
f 26/1/296 229/1/25 227/1/21 25/1/297
f 12/1/274 228/1/23 226/1/19 11/1/298
f 25/1/297 227/1/21 225/1/17 24/1/299
f 11/1/298 226/1/19 224/1/15 10/1/300
f 24/1/299 225/1/17 223/1/13 23/1/227
f 10/1/300 224/1/15 222/1/11 9/1/301
f 23/1/227 223/1/13 221/1/9 22/1/224
f 9/1/301 222/1/11 220/1/5 8/1/302
f 22/1/224 221/1/9 218/1/1 21/1/221
f 8/1/302 220/1/5 219/1/8 7/1/262
f 21/1/221 218/1/1 217/1/4 20/1/215
f 183/1/303 271/1/304 272/1/305 184/1/306
f 170/1/307 258/1/308 259/1/309 171/1/310
f 184/1/306 272/1/305 273/1/311 185/1/312
f 171/1/310 259/1/309 260/1/313 172/1/314
s 0
f 186/1/207 319/1/207 274/1/207
s 1
f 172/1/314 260/1/313 261/1/315 173/1/316
f 186/1/317 274/1/318 275/1/319 187/1/320
f 173/1/316 261/1/315 262/1/321 174/1/322
f 187/1/320 275/1/319 276/1/323 188/1/324
f 174/1/322 262/1/321 263/1/325 175/1/326
s 0
f 105/1/207 137/1/207 316/1/207 322/1/207
s 1
f 188/1/324 276/1/323 277/1/327 189/1/328
f 175/1/326 263/1/325 264/1/329 176/1/330
f 162/1/331 250/1/332 251/1/333 163/1/334
f 189/1/328 277/1/327 278/1/335 190/1/336
f 176/1/330 264/1/329 265/1/337 177/1/338
f 163/1/334 251/1/333 252/1/339 164/1/340
f 190/1/336 278/1/335 279/1/341 191/1/342
f 164/1/340 252/1/339 253/1/343 165/1/344
f 191/1/342 279/1/341 280/1/345 192/1/346
f 178/1/347 266/1/348 267/1/349 179/1/350
f 165/1/344 253/1/343 254/1/351 166/1/352
f 192/1/346 280/1/345 249/1/353 161/1/354
f 179/1/350 267/1/349 268/1/355 180/1/356
f 166/1/352 254/1/351 255/1/357 167/1/358
f 180/1/356 268/1/355 269/1/359 181/1/360
f 167/1/358 255/1/357 256/1/361 168/1/362
f 181/1/360 269/1/359 270/1/363 182/1/364
f 168/1/362 256/1/361 257/1/365 169/1/366
f 182/1/364 270/1/363 271/1/304 183/1/303
f 106/1/114 105/1/268 322/1/367 323/1/368
f 470/1/369 288/1/370 289/1/371 441/1/372
f 471/1/373 302/1/223 303/1/226 442/1/374
f 441/1/372 289/1/371 290/1/375 443/1/376
f 442/1/374 303/1/226 304/1/377 444/1/378
f 443/1/376 290/1/375 291/1/379 445/1/380
f 444/1/378 304/1/377 305/1/381 446/1/382
f 445/1/380 291/1/379 292/1/217 447/1/383
f 446/1/382 305/1/381 306/1/384 448/1/385
f 447/1/383 292/1/217 293/1/216 449/1/386
f 448/1/385 306/1/384 307/1/387 450/1/388
f 449/1/386 293/1/216 294/1/222 451/1/389
f 450/1/388 307/1/387 308/1/240 452/1/390
f 451/1/389 294/1/222 295/1/225 453/1/391
f 472/1/392 281/1/393 282/1/394 454/1/395
f 452/1/390 308/1/240 309/1/245 455/1/396
f 453/1/391 295/1/225 296/1/397 456/1/398
f 454/1/395 282/1/394 283/1/399 457/1/400
f 455/1/396 309/1/245 310/1/249 458/1/401
f 456/1/398 296/1/397 297/1/402 459/1/403
f 457/1/400 283/1/399 284/1/251 460/1/404
f 458/1/401 310/1/249 311/1/253 461/1/405
f 459/1/403 297/1/402 298/1/406 462/1/407
f 460/1/404 284/1/251 285/1/255 463/1/408
f 461/1/405 311/1/253 312/1/409 464/1/410
f 462/1/407 298/1/406 299/1/411 465/1/412
f 463/1/408 285/1/255 286/1/259 466/1/413
f 464/1/410 312/1/409 281/1/393 472/1/392
f 465/1/412 299/1/411 300/1/212 467/1/414
f 466/1/413 286/1/259 287/1/261 468/1/415
f 467/1/414 300/1/212 301/1/220 469/1/416
f 468/1/415 287/1/261 288/1/370 470/1/369
f 469/1/416 301/1/220 302/1/223 471/1/373
f 323/1/368 322/1/367 316/1/417 315/1/418
f 325/1/419 324/1/420 320/1/421 319/1/422
f 326/1/141 321/1/140 314/1/423 313/1/424
f 328/1/425 327/1/426 318/1/427 317/1/428
f 320/1/421 273/1/311 274/1/318 319/1/422
f 314/1/423 249/1/353 250/1/332 313/1/424
f 318/1/427 265/1/337 266/1/348 317/1/428
f 316/1/417 257/1/365 258/1/308 315/1/418
s 0
f 170/1/123 138/1/123 315/1/123
f 178/1/159 146/1/159 317/1/159
f 121/1/123 153/1/123 320/1/123 324/1/123
f 153/1/123 185/1/123 320/1/123
f 113/1/174 145/1/174 318/1/174 327/1/174
f 249/1/159 314/1/159 161/1/159
f 129/1/159 161/1/159 314/1/159
f 154/1/207 122/1/207 325/1/207 319/1/207
f 162/1/174 313/1/174 250/1/174
s 1
f 114/1/165 113/1/283 327/1/426 328/1/425
s 0
f 162/1/174 130/1/174 313/1/174
f 186/1/207 154/1/207 319/1/207
s 1
f 122/1/127 121/1/233 324/1/420 325/1/419
s 0
f 146/1/159 114/1/159 328/1/159 317/1/159
f 170/1/123 315/1/123 258/1/123
f 273/1/123 320/1/123 185/1/123
f 257/1/207 316/1/207 169/1/207
f 265/1/174 318/1/174 177/1/174
s 1
f 19/1/287 18/1/290 360/1/285 329/1/213
f 18/1/290 17/1/291 359/1/282 360/1/285
f 17/1/291 16/1/293 358/1/279 359/1/282
f 16/1/293 15/1/277 357/1/225 358/1/279
f 15/1/277 14/1/276 356/1/222 357/1/225
f 14/1/276 13/1/275 355/1/216 356/1/222
f 13/1/275 12/1/274 354/1/217 355/1/216
f 12/1/274 11/1/298 353/1/272 354/1/217
f 11/1/298 10/1/300 352/1/270 353/1/272
f 10/1/300 9/1/301 351/1/267 352/1/270
f 9/1/301 8/1/302 350/1/264 351/1/267
f 8/1/302 7/1/262 349/1/261 350/1/264
f 7/1/262 6/1/260 348/1/259 349/1/261
f 1/1/288 32/1/289 347/1/257 339/1/243
f 6/1/260 5/1/256 346/1/255 348/1/259
f 32/1/289 31/1/254 345/1/253 347/1/257
f 5/1/256 4/1/252 344/1/251 346/1/255
f 31/1/254 30/1/250 343/1/249 345/1/253
f 4/1/252 3/1/292 342/1/247 344/1/251
f 30/1/250 29/1/246 341/1/245 343/1/249
f 3/1/292 2/1/294 340/1/242 342/1/247
f 29/1/246 28/1/241 338/1/240 341/1/245
f 2/1/294 1/1/288 339/1/243 340/1/242
f 28/1/241 27/1/295 337/1/237 338/1/240
f 27/1/295 26/1/296 336/1/235 337/1/237
f 26/1/296 25/1/297 335/1/232 336/1/235
f 25/1/297 24/1/299 334/1/229 335/1/232
f 24/1/299 23/1/227 333/1/226 334/1/229
f 23/1/227 22/1/224 332/1/223 333/1/226
f 22/1/224 21/1/221 331/1/220 332/1/223
f 21/1/221 20/1/215 330/1/212 331/1/220
f 20/1/215 19/1/287 329/1/213 330/1/212
f 209/1/154 362/1/146 361/1/148 131/1/155
f 97/1/139 364/1/170 363/1/171 129/1/191
f 203/1/133 366/1/126 365/1/129 155/1/134
f 121/1/233 368/1/117 367/1/118 153/1/204
f 215/1/172 370/1/164 369/1/167 147/1/173
f 113/1/283 372/1/151 371/1/152 145/1/182
f 200/1/120 374/1/113 373/1/116 139/1/121
f 105/1/268 376/1/107 375/1/108 137/1/198
f 269/1/359 408/1/429 379/1/430 270/1/363
f 255/1/357 407/1/431 377/1/432 256/1/361
f 268/1/355 406/1/433 408/1/429 269/1/359
f 254/1/351 405/1/434 407/1/431 255/1/357
f 267/1/349 404/1/435 406/1/433 268/1/355
f 280/1/345 403/1/436 392/1/437 249/1/353
f 253/1/343 402/1/438 405/1/434 254/1/351
f 266/1/348 401/1/439 404/1/435 267/1/349
f 279/1/341 400/1/440 403/1/436 280/1/345
f 252/1/339 399/1/441 402/1/438 253/1/343
f 265/1/337 398/1/442 401/1/439 266/1/348
f 278/1/335 397/1/443 400/1/440 279/1/341
f 251/1/333 396/1/444 399/1/441 252/1/339
f 264/1/329 395/1/445 398/1/442 265/1/337
f 277/1/327 394/1/446 397/1/443 278/1/335
f 250/1/332 393/1/447 396/1/444 251/1/333
f 263/1/325 391/1/448 395/1/445 264/1/329
f 276/1/323 390/1/449 394/1/446 277/1/327
f 249/1/353 392/1/437 393/1/447 250/1/332
f 262/1/321 389/1/450 391/1/448 263/1/325
f 275/1/319 388/1/451 390/1/449 276/1/323
f 261/1/315 387/1/452 389/1/450 262/1/321
f 274/1/318 386/1/453 388/1/451 275/1/319
f 260/1/313 385/1/454 387/1/452 261/1/315
f 273/1/311 384/1/455 386/1/453 274/1/318
f 259/1/309 383/1/456 385/1/454 260/1/313
f 272/1/305 382/1/457 384/1/455 273/1/311
f 258/1/308 381/1/458 383/1/456 259/1/309
f 271/1/304 380/1/459 382/1/457 272/1/305
f 257/1/365 378/1/460 381/1/458 258/1/308
f 270/1/363 379/1/430 380/1/459 271/1/304
f 256/1/361 377/1/432 378/1/460 257/1/365
f 504/1/461 437/1/462 439/1/463 474/1/464
f 503/1/465 436/1/466 438/1/467 473/1/468
f 502/1/469 435/1/470 437/1/462 504/1/461
f 501/1/471 434/1/472 436/1/466 503/1/465
f 500/1/473 433/1/474 435/1/470 502/1/469
f 499/1/475 432/1/476 440/1/477 475/1/478
f 498/1/479 431/1/480 434/1/472 501/1/471
f 497/1/481 430/1/482 433/1/474 500/1/473
f 496/1/483 429/1/484 432/1/476 499/1/475
f 495/1/485 428/1/486 431/1/480 498/1/479
f 494/1/487 427/1/488 430/1/482 497/1/481
f 493/1/489 426/1/490 429/1/484 496/1/483
f 492/1/491 425/1/492 428/1/486 495/1/485
f 491/1/493 424/1/494 427/1/488 494/1/487
f 490/1/495 423/1/496 426/1/490 493/1/489
f 489/1/497 422/1/498 425/1/492 492/1/491
f 488/1/499 421/1/500 424/1/494 491/1/493
f 487/1/501 420/1/502 423/1/496 490/1/495
f 475/1/478 440/1/477 422/1/498 489/1/497
f 486/1/503 419/1/504 421/1/500 488/1/499
f 485/1/505 418/1/506 420/1/502 487/1/501
f 484/1/507 417/1/508 419/1/504 486/1/503
f 483/1/509 416/1/510 418/1/506 485/1/505
f 482/1/511 415/1/512 417/1/508 484/1/507
f 481/1/513 414/1/514 416/1/510 483/1/509
f 480/1/515 413/1/516 415/1/512 482/1/511
f 479/1/517 412/1/518 414/1/514 481/1/513
f 478/1/519 411/1/520 413/1/516 480/1/515
f 477/1/521 410/1/522 412/1/518 479/1/517
f 476/1/523 409/1/524 411/1/520 478/1/519
f 474/1/464 439/1/463 410/1/522 477/1/521
f 473/1/468 438/1/467 409/1/524 476/1/523
f 568/1/525 469/1/416 471/1/373 538/1/526
f 567/1/527 468/1/415 470/1/369 537/1/528
f 566/1/529 467/1/414 469/1/416 568/1/525
f 565/1/530 466/1/413 468/1/415 567/1/527
f 564/1/531 465/1/412 467/1/414 566/1/529
f 563/1/532 464/1/410 472/1/392 539/1/533
f 562/1/534 463/1/408 466/1/413 565/1/530
f 561/1/535 462/1/407 465/1/412 564/1/531
f 560/1/536 461/1/405 464/1/410 563/1/532
f 559/1/537 460/1/404 463/1/408 562/1/534
f 558/1/538 459/1/403 462/1/407 561/1/535
f 557/1/539 458/1/401 461/1/405 560/1/536
f 556/1/540 457/1/400 460/1/404 559/1/537
f 555/1/541 456/1/398 459/1/403 558/1/538
f 554/1/542 455/1/396 458/1/401 557/1/539
f 553/1/543 454/1/395 457/1/400 556/1/540
f 552/1/544 453/1/391 456/1/398 555/1/541
f 551/1/545 452/1/390 455/1/396 554/1/542
f 539/1/533 472/1/392 454/1/395 553/1/543
f 550/1/546 451/1/389 453/1/391 552/1/544
f 549/1/547 450/1/388 452/1/390 551/1/545
f 548/1/548 449/1/386 451/1/389 550/1/546
f 547/1/549 448/1/385 450/1/388 549/1/547
f 546/1/550 447/1/383 449/1/386 548/1/548
f 545/1/551 446/1/382 448/1/385 547/1/549
f 544/1/552 445/1/380 447/1/383 546/1/550
f 543/1/553 444/1/378 446/1/382 545/1/551
f 542/1/554 443/1/376 445/1/380 544/1/552
f 541/1/555 442/1/374 444/1/378 543/1/553
f 540/1/556 441/1/372 443/1/376 542/1/554
f 538/1/526 471/1/373 442/1/374 541/1/555
f 537/1/528 470/1/369 441/1/372 540/1/556
f 505/1/557 473/1/468 476/1/523 508/1/558
f 506/1/464 474/1/464 477/1/521 509/1/521
f 508/1/558 476/1/523 478/1/519 510/1/559
f 509/1/521 477/1/521 479/1/517 511/1/560
f 510/1/559 478/1/519 480/1/515 512/1/561
f 511/1/560 479/1/517 481/1/513 513/1/562
f 512/1/561 480/1/515 482/1/511 514/1/511
f 513/1/562 481/1/513 483/1/509 515/1/563
f 514/1/511 482/1/511 484/1/507 516/1/507
f 515/1/563 483/1/509 485/1/505 517/1/564
f 516/1/507 484/1/507 486/1/503 518/1/503
f 517/1/564 485/1/505 487/1/501 519/1/501
f 518/1/503 486/1/503 488/1/499 520/1/499
f 507/1/565 475/1/478 489/1/497 521/1/566
f 519/1/501 487/1/501 490/1/495 522/1/495
f 520/1/499 488/1/499 491/1/493 523/1/567
f 521/1/566 489/1/497 492/1/491 524/1/568
f 522/1/495 490/1/495 493/1/489 525/1/489
f 523/1/567 491/1/493 494/1/487 526/1/569
f 524/1/568 492/1/491 495/1/485 527/1/485
f 525/1/489 493/1/489 496/1/483 528/1/483
f 526/1/569 494/1/487 497/1/481 529/1/570
f 527/1/485 495/1/485 498/1/479 530/1/479
f 528/1/483 496/1/483 499/1/475 531/1/571
f 529/1/570 497/1/481 500/1/473 532/1/572
f 530/1/479 498/1/479 501/1/471 533/1/471
f 531/1/571 499/1/475 475/1/478 507/1/565
f 532/1/572 500/1/473 502/1/469 534/1/469
f 533/1/471 501/1/471 503/1/465 535/1/465
f 534/1/469 502/1/469 504/1/461 536/1/461
f 535/1/465 503/1/465 473/1/468 505/1/557
f 536/1/461 504/1/461 474/1/464 506/1/464
f 408/1/429 536/1/461 506/1/464 379/1/430
f 407/1/431 535/1/465 505/1/557 377/1/432
f 406/1/433 534/1/469 536/1/461 408/1/429
f 405/1/434 533/1/471 535/1/465 407/1/431
f 404/1/435 532/1/572 534/1/469 406/1/433
f 403/1/436 531/1/571 507/1/565 392/1/437
f 402/1/438 530/1/479 533/1/471 405/1/434
f 401/1/439 529/1/570 532/1/572 404/1/435
f 400/1/440 528/1/483 531/1/571 403/1/436
f 399/1/441 527/1/485 530/1/479 402/1/438
f 398/1/442 526/1/569 529/1/570 401/1/439
f 397/1/443 525/1/489 528/1/483 400/1/440
f 396/1/444 524/1/568 527/1/485 399/1/441
f 395/1/445 523/1/567 526/1/569 398/1/442
f 394/1/446 522/1/495 525/1/489 397/1/443
f 393/1/447 521/1/566 524/1/568 396/1/444
f 391/1/448 520/1/499 523/1/567 395/1/445
f 390/1/449 519/1/501 522/1/495 394/1/446
f 392/1/437 507/1/565 521/1/566 393/1/447
f 389/1/450 518/1/503 520/1/499 391/1/448
f 388/1/451 517/1/564 519/1/501 390/1/449
f 387/1/452 516/1/507 518/1/503 389/1/450
f 386/1/453 515/1/563 517/1/564 388/1/451
f 385/1/454 514/1/511 516/1/507 387/1/452
f 384/1/455 513/1/562 515/1/563 386/1/453
f 383/1/456 512/1/561 514/1/511 385/1/454
f 382/1/457 511/1/560 513/1/562 384/1/455
f 381/1/458 510/1/559 512/1/561 383/1/456
f 380/1/459 509/1/521 511/1/560 382/1/457
f 378/1/460 508/1/558 510/1/559 381/1/458
f 379/1/430 506/1/464 509/1/521 380/1/459
f 377/1/432 505/1/557 508/1/558 378/1/460
f 569/1/573 537/1/528 540/1/556 572/1/574
f 570/1/526 538/1/526 541/1/555 573/1/555
f 572/1/574 540/1/556 542/1/554 574/1/575
f 573/1/555 541/1/555 543/1/553 575/1/576
f 574/1/575 542/1/554 544/1/552 576/1/577
f 575/1/576 543/1/553 545/1/551 577/1/578
f 576/1/577 544/1/552 546/1/550 578/1/550
f 577/1/578 545/1/551 547/1/549 579/1/579
f 578/1/550 546/1/550 548/1/548 580/1/548
f 579/1/579 547/1/549 549/1/547 581/1/580
f 580/1/548 548/1/548 550/1/546 582/1/546
f 581/1/580 549/1/547 551/1/545 583/1/545
f 582/1/546 550/1/546 552/1/544 584/1/544
f 571/1/581 539/1/533 553/1/543 585/1/582
f 583/1/545 551/1/545 554/1/542 586/1/542
f 584/1/544 552/1/544 555/1/541 587/1/583
f 585/1/582 553/1/543 556/1/540 588/1/584
f 586/1/542 554/1/542 557/1/539 589/1/539
f 587/1/583 555/1/541 558/1/538 590/1/585
f 588/1/584 556/1/540 559/1/537 591/1/537
f 589/1/539 557/1/539 560/1/536 592/1/536
f 590/1/585 558/1/538 561/1/535 593/1/586
f 591/1/537 559/1/537 562/1/534 594/1/534
f 592/1/536 560/1/536 563/1/532 595/1/587
f 593/1/586 561/1/535 564/1/531 596/1/588
f 594/1/534 562/1/534 565/1/530 597/1/530
f 595/1/587 563/1/532 539/1/533 571/1/581
f 596/1/588 564/1/531 566/1/529 598/1/529
f 597/1/530 565/1/530 567/1/527 599/1/527
f 598/1/529 566/1/529 568/1/525 600/1/525
f 599/1/527 567/1/527 537/1/528 569/1/573
f 600/1/525 568/1/525 538/1/526 570/1/526
f 437/1/462 600/1/525 570/1/526 439/1/463
f 436/1/466 599/1/527 569/1/573 438/1/467
f 435/1/470 598/1/529 600/1/525 437/1/462
f 434/1/472 597/1/530 599/1/527 436/1/466
f 433/1/474 596/1/588 598/1/529 435/1/470
f 432/1/476 595/1/587 571/1/581 440/1/477
f 431/1/480 594/1/534 597/1/530 434/1/472
f 430/1/482 593/1/586 596/1/588 433/1/474
f 429/1/484 592/1/536 595/1/587 432/1/476
f 428/1/486 591/1/537 594/1/534 431/1/480
f 427/1/488 590/1/585 593/1/586 430/1/482
f 426/1/490 589/1/539 592/1/536 429/1/484
f 425/1/492 588/1/584 591/1/537 428/1/486
f 424/1/494 587/1/583 590/1/585 427/1/488
f 423/1/496 586/1/542 589/1/539 426/1/490
f 422/1/498 585/1/582 588/1/584 425/1/492
f 421/1/500 584/1/544 587/1/583 424/1/494
f 420/1/502 583/1/545 586/1/542 423/1/496
f 440/1/477 571/1/581 585/1/582 422/1/498
f 419/1/504 582/1/546 584/1/544 421/1/500
f 418/1/506 581/1/580 583/1/545 420/1/502
f 417/1/508 580/1/548 582/1/546 419/1/504
f 416/1/510 579/1/579 581/1/580 418/1/506
f 415/1/512 578/1/550 580/1/548 417/1/508
f 414/1/514 577/1/578 579/1/579 416/1/510
f 413/1/516 576/1/577 578/1/550 415/1/512
f 412/1/518 575/1/576 577/1/578 414/1/514
f 411/1/520 574/1/575 576/1/577 413/1/516
f 410/1/522 573/1/555 575/1/576 412/1/518
f 409/1/524 572/1/574 574/1/575 411/1/520
f 439/1/463 570/1/526 573/1/555 410/1/522
f 438/1/467 569/1/573 572/1/574 409/1/524
