# Blender 4.5.4 LTS
# www.blender.org
mtllib doors and walls.mtl
o antarctic_wall
v -2.045141 0.000000 0.660276
v -6.259060 6.885036 1.827632
v -2.045141 0.000000 -0.660276
v -6.059540 6.997551 0.658990
v 3.119832 0.000000 0.150597
v 5.802992 7.205354 1.978965
v 3.119832 0.000000 -1.169955
v 5.625460 7.259372 0.782118
v -2.054750 0.617628 -0.173450
v -2.069192 1.235255 -0.694803
v -2.102123 1.852883 -0.927466
v -2.151371 2.470510 -0.997781
v -3.947397 3.764469 -0.413518
v -5.422505 4.879851 0.182947
v -5.981284 6.294165 1.076620
v -5.391007 5.538285 -0.570800
v -3.568156 4.424924 -1.468863
v -2.283787 3.088138 -2.248018
v -2.205321 2.470510 -2.318333
v -2.146349 1.852883 -2.248018
v -2.099675 1.235255 -2.015356
v -2.061981 0.617628 -1.494003
v 5.004213 5.538285 -0.570800
v 3.864554 4.424924 -1.468863
v 3.113849 3.088138 -2.248018
v 3.119832 2.470510 -2.828012
v 3.119832 1.852883 -2.757697
v 3.119832 1.235255 -2.525034
v 3.119832 0.617628 -2.003682
v 5.559696 6.562909 1.202865
v 5.131721 5.150816 0.296647
v 4.238476 3.764468 -0.413518
v 3.119832 2.470510 -1.507459
v 3.119832 1.852883 -1.437145
v 3.119832 1.235255 -1.204482
v 3.119832 0.617628 -0.683129
v -6.567280 8.320728 3.726267
v -6.537283 8.577391 2.614630
v 6.002140 8.939136 2.785788
v 5.990514 8.696639 3.904128
v -7.164237 8.583277 7.514776
v -7.134240 8.839937 6.403138
v 5.405184 9.201683 6.574296
v 5.393558 8.959187 7.692636
v 0.345975 -0.047452 -1.186558
v 1.979404 6.281941 -0.131527
v 0.345975 -0.047452 0.133994
v 1.292582 5.987202 0.965052
v 0.336367 0.570175 -0.699732
v 0.321925 1.187803 -1.221085
v 0.288993 1.805430 -1.453748
v 0.239745 2.423058 -1.524063
v 0.255442 3.717016 -0.939801
v 1.363859 4.792767 -0.359008
v 2.051020 5.567503 0.281733
v 0.329135 0.570175 -2.020285
v 0.291441 1.187803 -2.541638
v 0.244767 1.805430 -2.774300
v 0.204610 2.423058 -2.844615
v 0.199272 3.040685 -2.774300
v 0.209020 4.377471 -1.995146
v 1.136286 5.490833 -1.097082
v 0.968978 7.557515 1.703786
v 0.907431 7.262775 2.800364
v 0.275468 7.820062 5.492294
v 0.310475 7.525323 6.588873
v -0.849583 -0.023726 -0.923417
v -2.488848 6.010928 1.228193
v -0.859191 0.593901 -0.436591
v -0.873633 1.211529 -0.957944
v -0.906565 1.829157 -1.190607
v -0.955813 2.446784 -1.260922
v -1.867460 3.740743 -0.676659
v -2.223279 4.816494 -0.095867
v -2.120801 5.591229 0.544874
v -2.830739 7.730049 3.238914
v -3.427695 7.992596 7.027423
v -2.125490 6.305667 0.131614
v -0.849583 -0.023726 0.397135
v -0.866423 0.593901 -1.757144
v -0.904117 1.211529 -2.278497
v -0.950791 1.829156 -2.511159
v -1.009699 2.446784 -2.581474
v -1.088229 3.064412 -2.511159
v -1.842554 4.401197 -1.732005
v -2.275196 5.514559 -0.833941
v -2.787126 7.842084 2.070082
v -3.431857 8.142647 5.873625
v 3.742370 6.828658 0.349455
v 1.732903 -0.023726 0.397135
v 1.716063 0.593901 -1.757144
v 1.701280 1.211529 -2.278497
v 1.701280 1.829156 -2.511159
v 1.701280 2.446784 -2.581474
v 1.696016 3.064412 -2.511159
v 2.099077 4.401197 -1.732005
v 3.176759 5.514559 -0.833941
v 3.632842 8.656024 2.414605
v 2.983532 8.907284 6.198412
v 1.732903 -0.023726 -0.923417
v 3.647160 6.871355 1.586586
v 1.723295 0.593901 -0.436591
v 1.708853 1.211529 -0.957944
v 1.701280 1.829156 -1.190607
v 1.701280 2.446784 -1.260922
v 2.318056 3.740742 -0.676660
v 3.310145 4.816493 -0.095867
v 3.681020 6.139536 0.773260
v 3.616142 8.442451 3.544993
v 3.019185 8.704999 7.333501
v -0.154058 6.293804 0.000043
v -0.251804 -0.035589 0.265565
v -0.268644 0.582038 -1.888715
v -0.306338 1.199666 -2.410067
v -0.353012 1.817293 -2.642730
v -0.411920 2.434921 -2.713045
v -0.483724 3.052548 -2.642730
v -0.859690 4.389335 -1.863575
v -0.717290 5.502696 -0.965511
v -0.910794 7.569378 1.835356
v -1.580166 7.831925 5.623865
v -0.251804 -0.035589 -1.054988
v -0.598133 5.999065 1.096622
v -0.261412 0.582038 -0.568162
v -0.275854 1.199666 -1.089515
v -0.308786 1.817293 -1.322177
v -0.358034 2.434921 -1.392492
v -0.876990 3.728879 -0.808230
v -0.486656 4.804630 -0.227437
v -0.186081 5.579367 0.413303
v -0.964579 7.274639 2.931935
v -1.561535 7.537187 6.720444
v 4.683915 7.044015 0.565787
v 2.426368 -0.011863 0.528706
v 2.417948 0.605764 -1.625573
v 2.410556 1.223392 -2.146926
v 2.410556 1.841019 -2.379589
v 2.410556 2.458647 -2.449904
v 2.404932 3.076275 -2.379589
v 2.981816 4.413061 -1.600434
v 4.090487 5.526422 -0.702370
v 4.817491 8.797580 2.600197
v 4.194358 9.054483 6.386354
v 2.426368 -0.011863 -0.791847
v 4.725076 7.038354 1.782775
v 2.421563 0.605764 -0.305021
v 2.414342 1.223392 -0.826374
v 2.410556 1.841019 -1.059036
v 2.410556 2.458647 -1.129351
v 3.278266 3.752605 -0.545089
v 4.220933 4.983655 0.100390
v 4.620358 6.351223 0.988062
v 4.803328 8.569546 3.724560
v 4.206371 8.832092 7.513069
vn -0.9490 -0.2321 -0.2131
vn 0.0731 0.6107 -0.7885
vn 0.9650 -0.1962 -0.1740
vn -0.0912 -0.8329 0.5458
vn 0.0171 -0.9999 -0.0000
vn 0.9938 -0.0765 -0.0810
vn 0.1452 0.7958 0.5879
vn 0.1777 0.6372 0.7499
vn 0.2077 0.3545 0.9117
vn 0.2156 0.1274 0.9681
vn 0.1487 -0.2735 0.9503
vn 0.0862 -0.4147 0.9059
vn 0.0326 -0.5691 0.8216
vn 1.0000 -0.0000 -0.0000
vn 0.9160 -0.3044 -0.2613
vn 0.8480 -0.2590 -0.4625
vn 0.8922 -0.3488 -0.2869
vn -0.2947 -0.7686 -0.5679
vn -0.3698 -0.6006 -0.7089
vn -0.4422 -0.3162 -0.8394
vn -0.4668 -0.1000 -0.8787
vn -0.1596 0.4587 -0.8741
vn 0.1395 0.4460 -0.8841
vn 0.1137 0.5517 -0.8263
vn -0.9998 -0.0177 0.0027
vn -0.9994 -0.0301 0.0143
vn -0.9982 -0.0537 0.0282
vn -0.9959 -0.0830 0.0370
vn -0.7330 -0.6375 -0.2373
vn -0.6922 -0.4732 -0.5449
vn -0.7898 -0.4452 -0.4219
vn 0.8841 0.4547 0.1078
vn -0.9873 -0.1080 -0.1169
vn 0.0001 -0.7879 0.6158
vn 0.0609 0.7879 -0.6127
vn 0.1912 0.9657 0.1756
vn -0.9108 -0.3962 -0.1161
vn 0.0936 -0.9921 0.0835
vn 0.1826 0.9822 -0.0430
vn -0.3456 0.9301 -0.1244
vn -0.0015 -0.9976 0.0689
vn -0.4247 0.8807 0.2096
vn -0.1114 0.7619 -0.6381
vn 0.0351 -0.8173 0.5752
vn -0.0634 0.6448 -0.7617
vn -0.1233 0.4871 -0.8646
vn -0.1958 0.0989 -0.9757
vn -0.2124 -0.1273 -0.9688
vn -0.2074 -0.3585 -0.9102
vn -0.1771 -0.6411 -0.7467
vn -0.1450 -0.7964 -0.5871
vn -0.0824 -0.5545 0.8281
vn -0.1158 -0.3819 0.9169
vn -0.1315 -0.3811 0.9151
vn -0.1808 0.1041 0.9780
vn -0.1792 0.3417 0.9226
vn -0.1544 0.6352 0.7568
vn -0.1258 0.7965 0.5915
vn -0.0198 -0.9998 -0.0000
vn 0.1000 -0.7623 0.6394
vn -0.0361 0.7857 -0.6175
vn -0.0096 0.6971 -0.7169
vn -0.2156 -0.1307 -0.9677
vn -0.2126 0.0838 -0.9735
vn -0.1556 0.4062 -0.9005
vn -0.0830 0.5734 -0.8151
vn -0.0627 -0.7817 0.6204
vn -0.1503 -0.9876 0.0448
vn 0.1484 0.9878 -0.0476
vn 0.2250 0.9563 0.1867
vn 0.0025 0.8023 -0.5969
vn 0.0505 -0.6443 0.7631
vn 0.0805 -0.4745 0.8766
vn 0.1490 -0.3374 0.9295
vn 0.0316 -0.8435 0.5362
vn 0.0060 -0.7499 0.6615
vn -0.1254 0.7967 0.5913
vn -0.1526 0.6359 0.7565
vn -0.1772 0.3455 0.9215
vn -0.1831 0.1112 0.9768
vn -0.1418 -0.3387 0.9302
vn -0.1238 -0.3828 0.9155
vn -0.0794 -0.5290 0.8449
vn -0.0021 0.7531 -0.6579
vn -0.1397 0.9727 0.1856
vn -0.1063 0.9908 -0.0844
vn 0.3680 -0.9218 0.1219
vn 0.1558 -0.7818 0.6037
vn 0.1026 0.5669 -0.8174
vn 0.1277 0.4847 -0.8653
vn 0.1703 0.1129 -0.9789
vn 0.1761 -0.1057 -0.9787
vn 0.1752 -0.3413 -0.9235
vn 0.1534 -0.6336 -0.7583
vn 0.1260 -0.7959 -0.5922
vn 0.0336 0.7028 -0.7106
vn 0.0297 -0.8402 0.5415
vn 0.1335 -0.3862 0.9127
vn 0.0714 -0.5119 0.8560
vn 0.0448 -0.6535 0.7556
vn -0.0333 0.8131 -0.5812
vn 0.0244 0.9656 0.2589
vn 0.0015 0.9976 -0.0689
vn -0.0413 0.7803 -0.6241
vn -0.2114 0.0851 -0.9737
vn -0.1391 0.4541 -0.8800
vn -0.0751 0.6201 -0.7809
vn -0.0271 -0.7911 0.6110
vn -0.2322 -0.9722 0.0308
vn -0.1062 0.9907 -0.0850
vn -0.1416 0.9693 0.2007
vn -0.0056 0.7622 -0.6473
vn -0.0813 -0.5232 0.8483
vn -0.1231 -0.3870 0.9138
vn 0.1247 -0.6054 0.7861
vn 0.4668 0.1000 0.8787
vn 0.4429 0.3172 0.8386
vn 0.3715 0.6001 0.7084
vn 0.2956 0.7680 0.5681
vn 0.0122 -0.7646 0.6444
vn -0.0017 -0.7826 0.6225
vn 0.1135 0.5539 -0.8248
vn 0.1381 0.4605 -0.8769
vn 0.1794 0.1128 -0.9773
vn 0.1831 -0.1112 -0.9768
vn 0.1767 -0.3470 -0.9211
vn 0.1518 -0.6360 -0.7566
vn 0.1251 -0.7963 -0.5918
vn 0.0659 0.6376 -0.7676
vt 0.593750 0.000000
vt 0.625000 0.000000
vt 0.625000 0.250000
vt 0.593750 0.250000
vt 0.593750 0.468750
vt 0.625000 0.468750
vt 0.625000 0.500000
vt 0.593750 0.500000
vt 0.625000 0.750000
vt 0.593750 0.750000
vt 0.593750 0.937500
vt 0.625000 0.937500
vt 0.625000 1.000000
vt 0.593750 1.000000
vt 0.343750 0.500000
vt 0.375000 0.500000
vt 0.375000 0.750000
vt 0.343750 0.750000
vt 0.375000 0.937500
vt 0.406250 0.937500
vt 0.406250 1.000000
vt 0.375000 1.000000
vt 0.437500 0.937500
vt 0.437500 1.000000
vt 0.468750 0.937500
vt 0.468750 1.000000
vt 0.500000 0.937500
vt 0.500000 1.000000
vt 0.531250 0.937500
vt 0.531250 1.000000
vt 0.562500 0.937500
vt 0.562500 1.000000
vt 0.406250 0.500000
vt 0.406250 0.750000
vt 0.437500 0.500000
vt 0.437500 0.750000
vt 0.468750 0.500000
vt 0.468750 0.750000
vt 0.500000 0.500000
vt 0.500000 0.750000
vt 0.531250 0.500000
vt 0.531250 0.750000
vt 0.562500 0.500000
vt 0.562500 0.750000
vt 0.375000 0.468750
vt 0.406250 0.468750
vt 0.437500 0.468750
vt 0.468750 0.468750
vt 0.500000 0.468750
vt 0.531250 0.468750
vt 0.562500 0.468750
vt 0.375000 0.000000
vt 0.406250 0.000000
vt 0.406250 0.250000
vt 0.375000 0.250000
vt 0.437500 0.000000
vt 0.437500 0.250000
vt 0.468750 0.000000
vt 0.468750 0.250000
vt 0.500000 0.000000
vt 0.500000 0.250000
vt 0.531250 0.000000
vt 0.531250 0.250000
vt 0.562500 0.000000
vt 0.562500 0.250000
vt 0.625000 0.781250
vt 0.625000 0.781250
vt 0.625000 0.312500
vt 0.625000 0.312500
vt 0.812500 0.500000
vt 0.875000 0.500000
vt 0.875000 0.750000
vt 0.812500 0.750000
vt 0.625000 0.781250
vt 0.625000 0.437500
vt 0.625000 0.375000
vt 0.625000 0.906250
vt 0.625000 0.875000
vt 0.625000 0.906250
vt 0.687500 0.500000
vt 0.750000 0.500000
vt 0.750000 0.750000
vt 0.687500 0.750000
vt 0.625000 0.437500
vt 0.625000 0.875000
vt 0.562500 0.343750
vt 0.593750 0.343750
vt 0.593750 0.375000
vt 0.562500 0.375000
vt 0.531250 0.343750
vt 0.531250 0.375000
vt 0.500000 0.343750
vt 0.500000 0.375000
vt 0.468750 0.343750
vt 0.468750 0.375000
vt 0.437500 0.343750
vt 0.437500 0.375000
vt 0.406250 0.343750
vt 0.406250 0.375000
vt 0.375000 0.343750
vt 0.375000 0.375000
vt 0.562500 0.812500
vt 0.593750 0.812500
vt 0.593750 0.875000
vt 0.562500 0.875000
vt 0.531250 0.812500
vt 0.531250 0.875000
vt 0.500000 0.812500
vt 0.500000 0.875000
vt 0.468750 0.812500
vt 0.468750 0.875000
vt 0.437500 0.812500
vt 0.437500 0.875000
vt 0.406250 0.812500
vt 0.406250 0.875000
vt 0.375000 0.812500
vt 0.375000 0.875000
vt 0.218750 0.500000
vt 0.250000 0.500000
vt 0.250000 0.750000
vt 0.218750 0.750000
vt 0.625000 0.812500
vt 0.625000 0.343750
vt 0.593750 0.312500
vt 0.125000 0.500000
vt 0.187500 0.500000
vt 0.187500 0.750000
vt 0.125000 0.750000
vt 0.406250 0.312500
vt 0.375000 0.312500
vt 0.437500 0.312500
vt 0.468750 0.312500
vt 0.500000 0.312500
vt 0.531250 0.312500
vt 0.562500 0.312500
vt 0.625000 0.937500
vt 0.781250 0.500000
vt 0.781250 0.750000
vt 0.562500 0.906250
vt 0.593750 0.906250
vt 0.531250 0.906250
vt 0.500000 0.906250
vt 0.468750 0.906250
vt 0.437500 0.906250
vt 0.406250 0.906250
vt 0.375000 0.906250
vt 0.593750 0.781250
vt 0.375000 0.781250
vt 0.406250 0.781250
vt 0.437500 0.781250
vt 0.468750 0.781250
vt 0.500000 0.781250
vt 0.531250 0.781250
vt 0.562500 0.781250
vt 0.625000 0.468750
vt 0.656250 0.500000
vt 0.656250 0.750000
vt 0.625000 0.468750
vt 0.625000 0.812500
vt 0.625000 0.812500
vt 0.593750 0.437500
vt 0.562500 0.437500
vt 0.531250 0.437500
vt 0.500000 0.437500
vt 0.468750 0.437500
vt 0.437500 0.437500
vt 0.406250 0.437500
vt 0.375000 0.437500
vt 0.312500 0.500000
vt 0.312500 0.750000
s 0
f 15/1/1 2/2/1 4/3/1 16/4/1
f 141/5/2 133/6/2 8/7/2 23/8/2
f 23/8/3 8/7/3 6/9/3 30/10/3
f 75/11/4 68/12/4 2/13/4 15/14/4
f 144/15/5 7/16/5 5/17/5 134/18/5
f 6/9/6 8/7/6 39/7/6 40/9/6
f 79/19/7 69/20/7 9/21/7 1/22/7
f 69/20/8 70/23/8 10/24/8 9/21/8
f 70/23/9 71/25/9 11/26/9 10/24/9
f 71/25/10 72/27/10 12/28/10 11/26/10
f 72/27/11 73/29/11 13/30/11 12/28/11
f 73/29/12 74/31/12 14/32/12 13/30/12
f 74/31/13 75/11/13 15/14/13 14/32/13
f 7/16/14 29/33/14 36/34/14 5/17/14
f 29/33/14 28/35/14 35/36/14 36/34/14
f 28/35/14 27/37/14 34/38/14 35/36/14
f 27/37/14 26/39/14 33/40/14 34/38/14
f 26/39/15 25/41/15 32/42/15 33/40/15
f 25/41/16 24/43/16 31/44/16 32/42/16
f 24/43/17 23/8/17 30/10/17 31/44/17
f 144/45/18 135/46/18 29/33/18 7/16/18
f 135/46/19 136/47/19 28/35/19 29/33/19
f 136/47/20 137/48/20 27/37/20 28/35/20
f 137/48/21 138/49/21 26/39/21 27/37/21
f 138/49/22 139/50/22 25/41/22 26/39/22
f 139/50/23 140/51/23 24/43/23 25/41/23
f 140/51/24 141/5/24 23/8/24 24/43/24
f 1/52/25 9/53/25 22/54/25 3/55/25
f 9/53/26 10/56/26 21/57/26 22/54/26
f 10/56/27 11/58/27 20/59/27 21/57/27
f 11/58/28 12/60/28 19/61/28 20/59/28
f 12/60/29 13/62/29 18/63/29 19/61/29
f 13/62/30 14/64/30 17/65/30 18/63/30
f 14/64/31 15/1/31 16/4/31 17/65/31
f 40/9/32 39/7/32 43/7/32 44/9/32
f 4/3/33 2/2/33 37/2/33 38/3/33
f 145/66/34 6/9/34 40/9/34 153/67/34
f 78/68/35 4/3/35 38/3/35 87/69/35
f 88/70/36 42/71/36 41/72/36 77/73/36
f 38/3/37 37/2/37 41/2/37 42/3/37
f 153/67/38 40/9/38 44/9/38 154/74/38
f 87/69/39 38/3/39 42/3/39 88/69/39
f 98/75/40 63/76/40 65/76/40 99/75/40
f 131/77/41 64/78/41 66/78/41 132/79/41
f 99/80/42 65/81/42 66/82/42 110/83/42
f 89/84/43 46/76/43 63/76/43 98/75/43
f 123/77/44 48/85/44 64/78/44 131/77/44
f 118/86/45 119/87/45 62/88/45 61/89/45
f 117/90/46 118/86/46 61/89/46 60/91/46
f 116/92/47 117/90/47 60/91/47 59/93/47
f 115/94/48 116/92/48 59/93/48 58/95/48
f 114/96/49 115/94/49 58/95/49 57/97/49
f 113/98/50 114/96/50 57/97/50 56/99/50
f 122/100/51 113/98/51 56/99/51 45/101/51
f 107/102/52 108/103/52 55/104/52 54/105/52
f 106/106/53 107/102/53 54/105/53 53/107/53
f 105/108/54 106/106/54 53/107/54 52/109/54
f 104/110/55 105/108/55 52/109/55 51/111/55
f 103/112/56 104/110/56 51/111/56 50/113/56
f 102/114/57 103/112/57 50/113/57 49/115/57
f 90/116/58 102/114/58 49/115/58 47/117/58
f 122/118/59 45/119/59 47/120/59 112/121/59
f 108/103/60 101/122/60 48/85/60 55/104/60
f 119/87/61 111/123/61 46/76/61 62/88/61
f 16/4/62 4/3/62 78/68/62 86/124/62
f 3/125/59 67/126/59 79/127/59 1/128/59
f 3/55/51 22/54/51 80/129/51 67/130/51
f 22/54/50 21/57/50 81/131/50 80/129/50
f 21/57/49 20/59/49 82/132/49 81/131/49
f 20/59/63 19/61/63 83/133/63 82/132/63
f 19/61/64 18/63/64 84/134/64 83/133/64
f 18/63/65 17/65/65 85/135/65 84/134/65
f 17/65/66 16/4/66 86/124/66 85/135/66
f 2/13/67 68/12/67 76/136/67 37/13/67
f 37/13/68 76/136/68 77/136/68 41/13/68
f 120/123/69 87/69/69 88/69/69 121/123/69
f 121/137/70 88/70/70 77/73/70 132/138/70
f 111/123/71 78/68/71 87/69/71 120/123/71
f 129/139/72 130/140/72 75/11/72 74/31/72
f 128/141/73 129/139/73 74/31/73 73/29/73
f 127/142/74 128/141/74 73/29/74 72/27/74
f 126/143/10 127/142/10 72/27/10 71/25/10
f 125/144/9 126/143/9 71/25/9 70/23/9
f 124/145/8 125/144/8 70/23/8 69/20/8
f 112/146/7 124/145/7 69/20/7 79/19/7
f 130/140/75 123/77/75 68/12/75 75/11/75
f 152/147/76 145/66/76 101/122/76 108/103/76
f 134/148/77 146/149/77 102/114/77 90/116/77
f 146/149/78 147/150/78 103/112/78 102/114/78
f 147/150/79 148/151/79 104/110/79 103/112/79
f 148/151/80 149/152/80 105/108/80 104/110/80
f 149/152/81 150/153/81 106/106/81 105/108/81
f 150/153/82 151/154/82 107/102/82 106/106/82
f 151/154/83 152/147/83 108/103/83 107/102/83
f 133/6/84 89/84/84 98/75/84 142/155/84
f 143/156/85 99/80/85 110/83/85 154/157/85
f 142/155/86 98/75/86 99/75/86 143/158/86
f 64/78/87 109/159/87 110/160/87 66/78/87
f 48/85/88 101/122/88 109/159/88 64/78/88
f 61/89/89 62/88/89 97/161/89 96/162/89
f 60/91/90 61/89/90 96/162/90 95/163/90
f 59/93/91 60/91/91 95/163/91 94/164/91
f 58/95/92 59/93/92 94/164/92 93/165/92
f 57/97/93 58/95/93 93/165/93 92/166/93
f 56/99/94 57/97/94 92/166/94 91/167/94
f 45/101/95 56/99/95 91/167/95 100/168/95
f 45/119/5 100/169/5 90/170/5 47/120/5
f 62/88/96 46/76/96 89/84/96 97/161/96
f 55/104/97 48/85/97 123/77/97 130/140/97
f 47/117/7 49/115/7 124/145/7 112/146/7
f 49/115/8 50/113/8 125/144/8 124/145/8
f 50/113/9 51/111/9 126/143/9 125/144/9
f 51/111/10 52/109/10 127/142/10 126/143/10
f 52/109/98 53/107/98 128/141/98 127/142/98
f 53/107/99 54/105/99 129/139/99 128/141/99
f 54/105/100 55/104/100 130/140/100 129/139/100
f 46/76/101 111/123/101 120/123/101 63/76/101
f 65/81/102 121/137/102 132/138/102 66/82/102
f 63/76/103 120/123/103 121/123/103 65/76/103
f 86/124/104 78/68/104 111/123/104 119/87/104
f 67/126/59 122/118/59 112/121/59 79/127/59
f 67/130/51 80/129/51 113/98/51 122/100/51
f 80/129/50 81/131/50 114/96/50 113/98/50
f 81/131/49 82/132/49 115/94/49 114/96/49
f 82/132/63 83/133/63 116/92/63 115/94/63
f 83/133/105 84/134/105 117/90/105 116/92/105
f 84/134/106 85/135/106 118/86/106 117/90/106
f 85/135/107 86/124/107 119/87/107 118/86/107
f 68/12/108 123/77/108 131/77/108 76/136/108
f 76/136/109 131/77/109 132/79/109 77/136/109
f 39/7/110 142/155/110 143/158/110 43/7/110
f 43/7/111 143/156/111 154/157/111 44/9/111
f 8/7/112 133/6/112 142/155/112 39/7/112
f 31/44/113 30/10/113 152/147/113 151/154/113
f 32/42/114 31/44/114 151/154/114 150/153/114
f 33/40/115 32/42/115 150/153/115 149/152/115
f 34/38/116 33/40/116 149/152/116 148/151/116
f 35/36/117 34/38/117 148/151/117 147/150/117
f 36/34/118 35/36/118 147/150/118 146/149/118
f 5/17/119 36/34/119 146/149/119 134/148/119
f 30/10/120 6/9/120 145/66/120 152/147/120
f 109/159/38 153/67/38 154/74/38 110/160/38
f 101/122/121 145/66/121 153/67/121 109/159/121
f 96/162/122 97/161/122 141/5/122 140/51/122
f 95/163/123 96/162/123 140/51/123 139/50/123
f 94/164/124 95/163/124 139/50/124 138/49/124
f 93/165/125 94/164/125 138/49/125 137/48/125
f 92/166/126 93/165/126 137/48/126 136/47/126
f 91/167/127 92/166/127 136/47/127 135/46/127
f 100/168/128 91/167/128 135/46/128 144/45/128
f 100/169/5 144/15/5 134/18/5 90/170/5
f 97/161/129 89/84/129 133/6/129 141/5/129
