# Blender 4.5.4 LTS
# www.blender.org
mtllib wall.mtl
o antarctic_wall
v -2.569683 0.000000 0.759104
v -6.783602 7.171112 2.614726
v -2.569683 0.000000 -0.145010
v -6.584082 6.997551 -4.022072
v 2.595290 0.000000 0.410153
v 5.278450 7.500601 2.683831
v 2.595290 0.000000 -0.493961
v 5.100918 7.259372 -4.795312
v -2.579291 0.617628 0.188295
v -2.593733 1.235255 -0.168649
v -2.626665 1.852883 -0.327941
v -2.675913 3.448430 -0.376082
v -4.471939 4.742388 0.023932
v -5.947047 5.857770 0.432301
v -6.505826 6.960237 1.044153
v -5.915549 6.204357 -4.437909
v -4.092698 5.402843 -3.201396
v -2.808329 4.066057 -1.232054
v -2.729862 3.448429 -1.280196
v -2.670891 1.852883 -1.232054
v -2.624217 1.235255 -1.072763
v -2.586523 0.617627 -0.715819
v 4.479671 6.204357 -4.437909
v 3.340013 5.402843 -3.201396
v 2.589307 4.066057 -1.232054
v 2.595290 3.448429 -1.629146
v 2.595290 1.852883 -1.581005
v 2.595290 1.235255 -1.421713
v 2.595290 0.617627 -1.064770
v 5.035154 7.228981 1.130586
v 4.607179 6.128736 0.510146
v 3.713935 4.742387 0.023932
v 2.595290 3.448429 -0.725032
v 2.595290 1.852883 -0.676891
v 2.595290 1.235255 -0.517599
v 2.595290 0.617627 -0.160656
v -7.091822 8.736390 3.755273
v -7.061825 8.577391 -6.451564
v 5.477598 8.939136 -7.191921
v 5.465972 9.123082 3.836551
v -7.688778 9.272145 6.306679
v 4.869016 9.658837 6.387957
v -0.178567 -0.047452 -0.505328
v 1.454863 6.281941 -5.420838
v -0.178567 -0.047452 0.398786
v 0.768040 6.215785 2.122564
v -0.188175 0.570175 -0.172024
v -0.202617 1.187803 -0.528967
v -0.235548 1.805430 -0.688259
v -0.284797 2.423058 -0.736400
v -0.269100 3.717016 -0.336386
v 0.839317 4.792767 0.061253
v 1.526478 5.567503 0.499935
v -0.195406 0.570175 -1.076138
v -0.233101 1.187803 -1.433081
v -0.279774 1.805430 -1.592373
v -0.319932 2.423058 -1.640514
v -0.325270 3.040685 -1.592373
v -0.315522 4.377471 -3.561714
v 0.611744 5.490833 -4.798227
v 0.444436 7.557515 -7.932712
v 0.382890 7.617254 3.236958
v -0.214067 8.153009 5.788364
v -1.374125 -0.023726 -0.325169
v -3.013390 6.258457 2.299197
v -1.383733 0.593901 0.008135
v -1.398175 1.211529 -0.348808
v -1.431106 1.829157 -0.508100
v -1.480355 2.446784 -0.556241
v -2.392002 3.740743 -0.156227
v -2.747821 4.816494 0.241412
v -2.645343 5.591229 0.680094
v -3.355280 8.113696 3.486037
v -3.952236 8.649452 6.037443
v -2.650032 6.305667 -5.240679
v -1.374125 -0.023726 0.578945
v -1.390965 0.593901 -0.895978
v -1.428659 1.211529 -1.252922
v -1.475332 1.829156 -1.412213
v -1.534241 2.446784 -1.460355
v -1.612771 3.064412 -1.412213
v -2.367096 4.401197 -3.381555
v -2.799737 5.514559 -4.618068
v -3.311667 7.842084 -7.681928
v 3.217829 6.828658 -5.091535
v 1.208362 -0.023726 0.578945
v 1.191522 0.593901 -0.895978
v 1.176739 1.211529 -1.252922
v 1.176739 1.829156 -1.412213
v 1.176739 2.446784 -1.460355
v 1.171475 3.064412 -1.412213
v 1.574535 4.401197 -3.381555
v 2.652218 5.514559 -4.618068
v 3.108301 8.656024 -7.446051
v 1.208362 -0.023726 -0.325169
v 3.122618 7.140030 2.452071
v 1.198753 0.593901 0.008135
v 1.184311 1.211529 -0.348808
v 1.176739 1.829156 -0.508100
v 1.176739 2.446784 -0.556241
v 1.793515 3.740742 -0.156227
v 2.785603 4.816493 0.241412
v 3.156479 6.139536 0.836458
v 3.091600 8.844285 3.618971
v 2.494644 9.380040 6.170377
v -0.678600 6.293804 -5.330759
v -0.776346 -0.035589 0.488865
v -0.793186 0.582038 -0.986058
v -0.830880 1.199666 -1.343001
v -0.877553 1.817293 -1.502293
v -0.936462 2.434921 -1.550434
v -1.008265 3.052548 -1.502293
v -1.384231 4.389335 -3.471634
v -1.241831 5.502696 -4.708148
v -1.435336 7.569378 -7.842632
v -0.776346 -0.035589 -0.415249
v -1.122675 6.237121 2.210880
v -0.785954 0.582038 -0.081944
v -0.800396 1.199666 -0.438887
v -0.833327 1.817293 -0.598179
v -0.882576 2.434921 -0.646320
v -1.401532 3.728879 -0.246306
v -1.011197 4.804630 0.151332
v -0.710622 5.579367 0.590014
v -1.489121 7.638590 3.325274
v -2.086077 8.174346 5.876680
v 4.159373 7.044015 -4.943424
v 1.901826 -0.011863 0.669024
v 1.893406 0.605764 -0.805899
v 1.886014 1.223392 -1.162842
v 1.886014 1.841019 -1.322134
v 1.886014 2.458647 -1.370275
v 1.880391 3.076275 -1.322134
v 2.457274 4.413061 -3.291475
v 3.565945 5.526422 -4.527988
v 4.292949 8.797580 -7.318986
v 1.901826 -0.011863 -0.235090
v 4.200534 7.320315 2.567951
v 1.897022 0.605764 0.098215
v 1.889801 1.223392 -0.258728
v 1.886014 1.841019 -0.418020
v 1.886014 2.458647 -0.466161
v 2.753725 3.752605 -0.066147
v 3.696391 4.983655 0.375779
v 4.095816 6.351223 0.983522
v 4.278786 8.983685 3.727761
v 3.681830 9.519439 6.279167
vn -0.7217 -0.6922 0.0060
vn -0.0439 -0.7500 -0.6600
vn 0.8351 -0.5500 0.0064
vn -0.2634 -0.9424 0.2061
vn 0.0171 -0.9999 -0.0000
vn -0.1663 -0.8542 -0.4925
vn 0.1231 0.6746 0.7279
vn 0.1389 0.4980 0.8560
vn 0.1490 0.2544 0.9555
vn 0.1699 0.0504 0.9842
vn -0.1898 -0.4658 0.8643
vn -0.0964 -0.4136 0.9053
vn -0.1051 -0.5050 0.8567
vn 1.0000 -0.0000 -0.0000
vn 0.8825 -0.2933 -0.3676
vn 0.7818 -0.5868 -0.2108
vn 0.7666 -0.6415 -0.0296
vn -0.2522 -0.6577 -0.7098
vn -0.2952 -0.4794 -0.8265
vn -0.3297 -0.2358 -0.9142
vn -0.3168 -0.0412 -0.9476
vn -0.5009 0.2893 -0.8157
vn 0.7769 -0.6108 -0.1527
vn 0.0704 -0.7670 -0.6378
vn -0.9998 -0.0177 0.0040
vn -0.9993 -0.0301 0.0208
vn -0.9977 -0.0537 0.0412
vn -0.9980 -0.0322 0.0542
vn -0.7107 -0.6181 -0.3360
vn -0.5712 -0.7883 -0.2286
vn -0.6137 -0.7873 -0.0600
vn 0.3378 -0.7359 -0.5868
vn -0.9579 -0.2871 0.0017
vn 0.0001 -0.5755 0.8178
vn -0.0427 -0.5989 -0.7997
vn 0.2674 -0.7824 -0.5625
vn -0.0258 -0.8944 -0.4464
vn 0.0932 -0.9698 0.2254
vn 0.0958 -0.3736 -0.9226
vn 0.2360 -0.4336 -0.8697
vn -0.0015 -0.9787 0.2052
vn 0.1582 -0.7765 -0.6100
vn -0.0401 -0.6002 -0.7989
vn 0.0299 -0.6172 0.7863
vn 0.7048 -0.5932 -0.3890
vn -0.0684 -0.8284 -0.5560
vn -0.1358 0.0686 -0.9884
vn -0.1479 -0.0886 -0.9850
vn -0.1490 -0.2575 -0.9547
vn -0.1386 -0.5019 -0.8538
vn -0.1230 -0.6754 -0.7271
vn -0.0618 -0.4159 0.9073
vn -0.0829 -0.2733 0.9583
vn -0.0942 -0.2729 0.9574
vn -0.1253 0.0721 0.9895
vn -0.1279 0.2438 0.9614
vn -0.1203 0.4946 0.8607
vn -0.1065 0.6740 0.7310
vn -0.0198 -0.9998 -0.0000
vn 0.2349 -0.8418 0.4861
vn -0.0379 -0.7283 -0.6842
vn -0.4751 -0.7301 -0.4912
vn -0.1705 -0.0519 -0.9840
vn -0.0949 0.0654 -0.9933
vn -0.5690 -0.7867 -0.2395
vn 0.1570 -0.8202 -0.5502
vn -0.0523 -0.5686 0.8210
vn -0.1501 -0.9740 0.1694
vn 0.0734 -0.6639 -0.7442
vn 0.4035 -0.7400 -0.5381
vn 0.2935 -0.4333 -0.8521
vn 0.0392 -0.5001 0.8651
vn 0.0588 -0.3469 0.9360
vn 0.1059 -0.2398 0.9650
vn 0.1501 0.0887 0.9847
vn 0.0097 -0.9247 0.3805
vn 0.0971 -0.8486 0.5201
vn -0.1061 0.6742 0.7309
vn -0.1188 0.4953 0.8606
vn -0.1265 0.2466 0.9608
vn -0.1269 0.0771 0.9889
vn -0.1008 -0.2406 0.9654
vn -0.0886 -0.2742 0.9576
vn -0.0590 -0.3933 0.9175
vn -0.0270 -0.8946 -0.4461
vn -0.0705 -0.7372 -0.6719
vn 0.3649 -0.8903 0.2723
vn 0.1310 -0.5754 0.8073
vn 0.0747 -0.7726 -0.6305
vn 0.0707 -0.8287 -0.5551
vn 0.1179 0.0782 -0.9899
vn 0.1219 -0.0732 -0.9898
vn 0.1249 -0.2434 -0.9619
vn 0.1194 -0.4930 -0.8618
vn 0.1066 -0.6733 -0.7317
vn -0.2229 -0.9346 -0.2772
vn 0.0088 -0.9265 0.3762
vn 0.0958 -0.2769 0.9561
vn 0.0528 -0.3784 0.9241
vn 0.0349 -0.5092 0.8599
vn -0.0373 -0.5932 -0.8042
vn -0.0238 -0.8952 -0.4450
vn 0.3148 -0.3048 -0.8989
vn 0.0217 -0.9958 -0.0891
vn -0.1502 -0.0911 -0.9845
vn -0.1468 0.0591 -0.9874
vn -0.0744 -0.8349 -0.5454
vn 0.5940 -0.8041 0.0263
vn -0.0227 -0.5802 0.8141
vn -0.2321 -0.9614 0.1476
vn -0.2371 0.2868 -0.9282
vn -0.3163 -0.8225 -0.4727
vn -0.2886 -0.8436 -0.4527
vn 0.4513 -0.5143 0.7293
vn 0.6462 -0.6140 0.4532
vn 0.7644 -0.6353 0.1095
vn 0.3168 0.0412 0.9476
vn 0.3304 0.2367 0.9137
vn 0.2966 0.4792 0.8261
vn 0.2529 0.6572 0.7100
vn 0.4134 -0.8615 0.2948
vn -0.0014 -0.5684 0.8227
vn 0.0651 -0.7691 -0.6358
vn 0.0744 -0.8336 -0.5473
vn 0.1243 0.0782 -0.9892
vn 0.1269 -0.0771 -0.9889
vn 0.1261 -0.2477 -0.9606
vn 0.1182 -0.4953 -0.8607
vn 0.1059 -0.6737 -0.7313
vn -0.0648 -0.7379 -0.6718
vn -0.0503 -0.6118 -0.7894
vn -0.1758 -0.5881 -0.7895
vn -0.9841 -0.1756 -0.0250
vt 0.593750 0.000000
vt 0.625000 0.000000
vt 0.625000 0.250000
vt 0.593750 0.250000
vt 0.593750 0.312500
vt 0.593750 0.343750
vt 0.562500 0.312500
vt 0.593750 0.500000
vt 0.625000 0.500000
vt 0.625000 0.750000
vt 0.593750 0.750000
vt 0.593750 0.937500
vt 0.625000 0.937500
vt 0.625000 1.000000
vt 0.593750 1.000000
vt 0.343750 0.500000
vt 0.375000 0.500000
vt 0.375000 0.750000
vt 0.343750 0.750000
vt 0.625000 0.343750
vt 0.625000 0.312500
vt 0.625000 0.312500
vt 0.375000 0.937500
vt 0.406250 0.937500
vt 0.406250 1.000000
vt 0.375000 1.000000
vt 0.437500 0.937500
vt 0.437500 1.000000
vt 0.468750 0.937500
vt 0.468750 1.000000
vt 0.500000 0.937500
vt 0.500000 1.000000
vt 0.531250 0.937500
vt 0.531250 1.000000
vt 0.562500 0.937500
vt 0.562500 1.000000
vt 0.406250 0.500000
vt 0.406250 0.750000
vt 0.437500 0.500000
vt 0.437500 0.750000
vt 0.468750 0.500000
vt 0.468750 0.750000
vt 0.500000 0.500000
vt 0.500000 0.750000
vt 0.531250 0.500000
vt 0.531250 0.750000
vt 0.562500 0.500000
vt 0.562500 0.750000
vt 0.375000 0.468750
vt 0.406250 0.468750
vt 0.437500 0.468750
vt 0.468750 0.468750
vt 0.500000 0.468750
vt 0.531250 0.468750
vt 0.562500 0.468750
vt 0.562500 0.437500
vt 0.562500 0.375000
vt 0.593750 0.375000
vt 0.375000 0.000000
vt 0.406250 0.000000
vt 0.406250 0.250000
vt 0.375000 0.250000
vt 0.437500 0.000000
vt 0.437500 0.250000
vt 0.468750 0.000000
vt 0.468750 0.250000
vt 0.500000 0.000000
vt 0.500000 0.250000
vt 0.531250 0.000000
vt 0.531250 0.250000
vt 0.562500 0.000000
vt 0.562500 0.250000
vt 0.625000 0.437500
vt 0.625000 0.375000
vt 0.625000 0.437500
vt 0.625000 0.781250
vt 0.625000 0.781250
vt 0.625000 0.468750
vt 0.625000 0.468750
vt 0.625000 0.781250
vt 0.593750 0.468750
vt 0.593750 0.437500
vt 0.625000 0.906250
vt 0.625000 0.875000
vt 0.625000 0.906250
vt 0.625000 0.875000
vt 0.531250 0.343750
vt 0.562500 0.343750
vt 0.531250 0.375000
vt 0.500000 0.343750
vt 0.500000 0.375000
vt 0.468750 0.343750
vt 0.468750 0.375000
vt 0.437500 0.343750
vt 0.437500 0.375000
vt 0.406250 0.343750
vt 0.406250 0.375000
vt 0.375000 0.343750
vt 0.375000 0.375000
vt 0.562500 0.812500
vt 0.593750 0.812500
vt 0.593750 0.875000
vt 0.562500 0.875000
vt 0.531250 0.812500
vt 0.531250 0.875000
vt 0.500000 0.812500
vt 0.500000 0.875000
vt 0.468750 0.812500
vt 0.468750 0.875000
vt 0.437500 0.812500
vt 0.437500 0.875000
vt 0.406250 0.812500
vt 0.406250 0.875000
vt 0.375000 0.812500
vt 0.375000 0.875000
vt 0.218750 0.500000
vt 0.250000 0.500000
vt 0.250000 0.750000
vt 0.218750 0.750000
vt 0.625000 0.812500
vt 0.125000 0.500000
vt 0.187500 0.500000
vt 0.187500 0.750000
vt 0.125000 0.750000
vt 0.406250 0.312500
vt 0.375000 0.312500
vt 0.437500 0.312500
vt 0.468750 0.312500
vt 0.500000 0.312500
vt 0.531250 0.312500
vt 0.625000 0.937500
vt 0.562500 0.906250
vt 0.593750 0.906250
vt 0.531250 0.906250
vt 0.500000 0.906250
vt 0.468750 0.906250
vt 0.437500 0.906250
vt 0.406250 0.906250
vt 0.375000 0.906250
vt 0.593750 0.781250
vt 0.375000 0.781250
vt 0.406250 0.781250
vt 0.437500 0.781250
vt 0.468750 0.781250
vt 0.500000 0.781250
vt 0.531250 0.781250
vt 0.562500 0.781250
vt 0.625000 0.812500
vt 0.625000 0.812500
vt 0.531250 0.437500
vt 0.500000 0.437500
vt 0.468750 0.437500
vt 0.437500 0.437500
vt 0.406250 0.437500
vt 0.375000 0.437500
vt 0.312500 0.500000
vt 0.312500 0.750000
s 0
f 15/1/1 2/2/1 4/3/1 16/4/1
f 83/5/2 114/6/2 82/7/2
f 23/8/3 8/9/3 6/10/3 30/11/3
f 72/12/4 65/13/4 2/14/4 15/15/4
f 137/16/5 7/17/5 5/18/5 128/19/5
f 115/20/6 75/21/6 84/22/6
f 76/23/7 66/24/7 9/25/7 1/26/7
f 66/24/8 67/27/8 10/28/8 9/25/8
f 67/27/9 68/29/9 11/30/9 10/28/9
f 68/29/10 69/31/10 12/32/10 11/30/10
f 69/31/11 70/33/11 13/34/11 12/32/11
f 70/33/12 71/35/12 14/36/12 13/34/12
f 71/35/13 72/12/13 15/15/13 14/36/13
f 7/17/14 29/37/14 36/38/14 5/18/14
f 29/37/14 28/39/14 35/40/14 36/38/14
f 28/39/14 27/41/14 34/42/14 35/40/14
f 27/41/14 26/43/14 33/44/14 34/42/14
f 26/43/15 25/45/15 32/46/15 33/44/15
f 25/45/16 24/47/16 31/48/16 32/46/16
f 24/47/17 23/8/17 30/11/17 31/48/17
f 137/49/18 129/50/18 29/37/18 7/17/18
f 129/50/19 130/51/19 28/39/19 29/37/19
f 130/51/20 131/52/20 27/41/20 28/39/20
f 131/52/21 132/53/21 26/43/21 27/41/21
f 132/53/22 133/54/22 25/45/22 26/43/22
f 133/54/23 134/55/23 24/47/23 25/45/23
f 92/56/24 59/57/24 60/58/24
f 1/59/25 9/60/25 22/61/25 3/62/25
f 9/60/26 10/63/26 21/64/26 22/61/26
f 10/63/27 11/65/27 20/66/27 21/64/27
f 11/65/28 12/67/28 19/68/28 20/66/28
f 12/67/29 13/69/29 18/70/29 19/68/29
f 13/69/30 14/71/30 17/72/30 18/70/30
f 14/71/31 15/1/31 16/4/31 17/72/31
f 85/73/32 44/74/32 94/75/32
f 4/3/33 37/2/33 38/3/33
f 138/76/34 6/10/34 40/10/34 146/77/34
f 114/6/35 106/20/35 60/58/35
f 85/73/36 136/78/36 127/79/36
f 106/20/37 75/21/37 115/20/37
f 146/77/38 40/10/38 42/10/38 147/80/38
f 135/81/39 93/82/39 85/73/39
f 127/79/40 8/9/40 23/8/40
f 125/83/41 62/84/41 63/84/41 126/85/41
f 94/75/42 136/78/42 85/73/42
f 75/21/43 106/20/43 114/6/43
f 117/83/44 46/86/44 62/84/44 125/83/44
f 24/47/45 134/55/45 93/82/45
f 112/87/46 113/88/46 59/57/46 58/89/46
f 111/90/47 112/87/47 58/89/47 57/91/47
f 110/92/48 111/90/48 57/91/48 56/93/48
f 109/94/49 110/92/49 56/93/49 55/95/49
f 108/96/50 109/94/50 55/95/50 54/97/50
f 116/98/51 108/96/51 54/97/51 43/99/51
f 102/100/52 103/101/52 53/102/52 52/103/52
f 101/104/53 102/100/53 52/103/53 51/105/53
f 100/106/54 101/104/54 51/105/54 50/107/54
f 99/108/55 100/106/55 50/107/55 49/109/55
f 98/110/56 99/108/56 49/109/56 48/111/56
f 97/112/57 98/110/57 48/111/57 47/113/57
f 86/114/58 97/112/58 47/113/58 45/115/58
f 116/116/59 43/117/59 45/118/59 107/119/59
f 103/101/60 96/120/60 46/86/60 53/102/60
f 114/6/61 60/58/61 59/57/61
f 82/7/62 17/72/62 83/5/62
f 3/121/59 64/122/59 76/123/59 1/124/59
f 3/62/51 22/61/51 77/125/51 64/126/51
f 22/61/50 21/64/50 78/127/50 77/125/50
f 21/64/49 20/66/49 79/128/49 78/127/49
f 20/66/63 19/68/63 80/129/63 79/128/63
f 19/68/64 18/70/64 81/130/64 80/129/64
f 18/70/65 17/72/65 82/7/65 81/130/65
f 136/78/66 39/9/66 8/9/66
f 2/14/67 65/13/67 73/131/67 37/14/67
f 37/14/68 73/131/68 74/131/68 41/14/68
f 93/82/69 60/58/69 44/74/69
f 61/74/70 94/75/70 44/74/70
f 44/74/71 85/73/71 93/82/71
f 123/132/72 124/133/72 72/12/72 71/35/72
f 122/134/73 123/132/73 71/35/73 70/33/73
f 121/135/74 122/134/74 70/33/74 69/31/74
f 120/136/75 121/135/75 69/31/75 68/29/75
f 119/137/9 120/136/9 68/29/9 67/27/9
f 118/138/8 119/137/8 67/27/8 66/24/8
f 107/139/7 118/138/7 66/24/7 76/23/7
f 124/133/76 117/83/76 65/13/76 72/12/76
f 145/140/77 138/76/77 96/120/77 103/101/77
f 128/141/78 139/142/78 97/112/78 86/114/78
f 139/142/79 140/143/79 98/110/79 97/112/79
f 140/143/80 141/144/80 99/108/80 98/110/80
f 141/144/81 142/145/81 100/106/81 99/108/81
f 142/145/82 143/146/82 101/104/82 100/106/82
f 143/146/83 144/147/83 102/100/83 101/104/83
f 144/147/84 145/140/84 103/101/84 102/100/84
f 85/73/40 127/79/40 23/8/40
f 106/20/85 115/20/85 61/74/85
f 113/88/86 82/7/86 114/6/86
f 62/84/87 104/148/87 105/149/87 63/84/87
f 46/86/88 96/120/88 104/148/88 62/84/88
f 134/55/89 92/56/89 93/82/89
f 58/89/90 59/57/90 92/56/90 91/150/90
f 57/91/91 58/89/91 91/150/91 90/151/91
f 56/93/92 57/91/92 90/151/92 89/152/92
f 55/95/93 56/93/93 89/152/93 88/153/93
f 54/97/94 55/95/94 88/153/94 87/154/94
f 43/99/95 54/97/95 87/154/95 95/155/95
f 43/117/5 95/156/5 86/157/5 45/118/5
f 17/72/96 16/4/96 83/5/96
f 53/102/97 46/86/97 117/83/97 124/133/97
f 45/115/7 47/113/7 118/138/7 107/139/7
f 47/113/8 48/111/8 119/137/8 118/138/8
f 48/111/9 49/109/9 120/136/9 119/137/9
f 49/109/75 50/107/75 121/135/75 120/136/75
f 50/107/98 51/105/98 122/134/98 121/135/98
f 51/105/99 52/103/99 123/132/99 122/134/99
f 52/103/100 53/102/100 124/133/100 123/132/100
f 106/20/101 44/74/101 60/58/101
f 44/74/102 106/20/102 61/74/102
f 23/8/103 135/81/103 85/73/103
f 93/82/104 135/81/104 24/47/104
f 64/122/59 116/116/59 107/119/59 76/123/59
f 64/126/51 77/125/51 108/96/51 116/98/51
f 77/125/50 78/127/50 109/94/50 108/96/50
f 78/127/49 79/128/49 110/92/49 109/94/49
f 79/128/105 80/129/105 111/90/105 110/92/105
f 80/129/106 81/130/106 112/87/106 111/90/106
f 81/130/107 82/7/107 113/88/107 112/87/107
f 135/81/108 23/8/108 24/47/108
f 65/13/109 117/83/109 125/83/109 73/131/109
f 73/131/110 125/83/110 126/85/110 74/131/110
f 16/4/111 4/3/111 75/21/111
f 4/3/112 38/3/112 84/22/112
f 75/21/113 4/3/113 84/22/113
f 31/48/114 30/11/114 145/140/114 144/147/114
f 32/46/115 31/48/115 144/147/115 143/146/115
f 33/44/116 32/46/116 143/146/116 142/145/116
f 34/42/117 33/44/117 142/145/117 141/144/117
f 35/40/118 34/42/118 141/144/118 140/143/118
f 36/38/119 35/40/119 140/143/119 139/142/119
f 5/18/120 36/38/120 139/142/120 128/141/120
f 30/11/121 6/10/121 138/76/121 145/140/121
f 104/148/38 146/77/38 147/80/38 105/149/38
f 96/120/122 138/76/122 146/77/122 104/148/122
f 93/82/123 92/56/123 60/58/123
f 91/150/124 92/56/124 134/55/124 133/54/124
f 90/151/125 91/150/125 133/54/125 132/53/125
f 89/152/126 90/151/126 132/53/126 131/52/126
f 88/153/127 89/152/127 131/52/127 130/51/127
f 87/154/128 88/153/128 130/51/128 129/50/128
f 95/155/129 87/154/129 129/50/129 137/49/129
f 95/156/5 137/16/5 128/19/5 86/157/5
f 113/88/130 114/6/130 59/57/130
f 127/79/36 136/78/36 8/9/36
f 114/6/131 83/5/131 75/21/131
f 83/5/132 16/4/132 75/21/132
f 4/3/133 2/2/133 37/2/133
