# Blender 4.5.4 LTS
# www.blender.org
mtllib boss-arena-walls.mtl
o Cube.001
v -7.113164 3.471357 5.202177
v -5.202177 3.471357 7.113164
v -5.202177 3.471357 -7.113164
v -7.113164 3.471357 -5.202177
v 5.202177 3.471357 7.113164
v 7.113164 3.471357 5.202177
v 7.113164 3.471357 -5.202177
v 5.202177 3.471357 -7.113164
v -7.113164 -10.715168 -5.202177
v -5.202177 -10.715168 -7.113164
v -5.202177 -10.715168 7.113164
v -7.113164 -10.715168 5.202177
v 5.202177 -10.715168 -7.113164
v 7.113164 -10.715168 -5.202177
v 7.113164 -10.715168 5.202177
v 5.202177 -10.715168 7.113164
v -5.236279 -10.819638 8.102189
v -5.897784 -10.819638 7.828185
v -5.590537 -10.819638 8.021935
v -7.828185 -10.819638 5.897784
v -8.102189 -10.819638 5.236279
v -8.021935 -10.819638 5.590538
v -8.102189 -10.819638 -5.236279
v -7.828185 -10.819638 -5.897784
v -8.021935 -10.819638 -5.590538
v -5.897784 -10.819638 -7.828185
v -5.236279 -10.819638 -8.102189
v -5.590537 -10.819638 -8.021935
v 8.102189 -10.819638 5.236279
v 7.828184 -10.819638 5.897784
v 8.021935 -10.819638 5.590538
v 5.897784 -10.819638 7.828185
v 5.236279 -10.819638 8.102189
v 5.590538 -10.819638 8.021935
v 5.236279 -10.819638 -8.102189
v 5.897784 -10.819638 -7.828185
v 5.590538 -10.819638 -8.021935
v 7.828184 -10.819638 -5.897784
v 8.102189 -10.819638 -5.236279
v 8.021935 -10.819638 -5.590538
v -7.828185 3.465547 -5.897784
v -8.102189 3.465547 -5.236279
v -7.762697 3.465547 -5.436960
v -8.021935 3.465547 -5.590538
v -5.236279 3.465547 -8.102189
v -5.897784 3.465547 -7.828185
v -5.436959 3.465547 -7.762697
v -5.590537 3.465547 -8.021935
v -5.897784 3.465547 7.828185
v -5.236279 3.465547 8.102189
v -5.436959 3.465547 7.762697
v -5.590537 3.465547 8.021935
v -8.102189 3.465547 5.236279
v -7.828185 3.465547 5.897784
v -7.762697 3.465547 5.436960
v -8.021935 3.465547 5.590538
v 5.897784 3.465547 -7.828185
v 5.236279 3.465547 -8.102189
v 5.436960 3.465547 -7.762697
v 5.590538 3.465547 -8.021935
v 8.102189 3.465547 -5.236279
v 7.828184 3.465547 -5.897784
v 7.762696 3.465547 -5.436960
v 8.021935 3.465547 -5.590538
v 7.828184 3.465547 5.897784
v 8.102189 3.465547 5.236279
v 7.762696 3.465547 5.436960
v 8.021935 3.465547 5.590538
v 5.236279 3.465547 8.102189
v 5.897784 3.465547 7.828185
v 5.436960 3.465547 7.762697
v 5.590538 3.465547 8.021935
vn -0.7071 -0.0000 0.7071
vn 0.7071 -0.0000 0.7071
vn -0.0000 -0.0000 1.0000
vn 1.0000 -0.0000 -0.0000
vn -0.7071 -0.0000 -0.7071
vn 0.7071 -0.0000 -0.7071
vn -1.0000 -0.0000 -0.0000
vn -0.0000 -0.0000 -1.0000
vn -0.0000 1.0000 -0.0000
vn -0.2209 -0.0000 -0.9753
vn -0.5334 -0.0000 -0.8459
vn -0.9753 -0.0000 -0.2209
vn -0.8459 -0.0000 -0.5334
vn -0.2209 -0.0000 0.9753
vn -0.5334 -0.0000 0.8459
vn -0.9753 -0.0000 0.2209
vn -0.8459 -0.0000 0.5334
vn 0.9753 -0.0000 -0.2209
vn 0.8459 -0.0000 -0.5334
vn 0.2209 -0.0000 -0.9753
vn 0.5334 -0.0000 -0.8459
vn 0.2209 -0.0000 0.9753
vn 0.5334 -0.0000 0.8459
vn 0.9753 -0.0000 0.2209
vn 0.8459 -0.0000 0.5334
vn -0.0041 1.0000 -0.0041
vn -0.0059 1.0000 -0.0000
vn -0.0000 1.0000 -0.0059
vn -0.0000 1.0000 0.0059
vn -0.0041 1.0000 0.0041
vn 0.0041 1.0000 -0.0041
vn 0.0059 1.0000 -0.0000
vn 0.0041 1.0000 0.0041
vt 0.637003 0.541983
vt 0.656673 0.502330
vt 0.829862 0.514095
vt 0.859978 0.544216
vt 0.859978 0.705784
vt 0.656673 0.747670
vt 0.637003 0.708017
vt 0.829862 0.735905
vt 0.870807 0.534056
vt 0.874318 0.538508
vt 0.871940 0.539455
vt 0.875000 0.544215
vt 0.830235 0.499438
vt 0.836450 0.500640
vt 0.835357 0.502872
vt 0.840991 0.504227
vt 0.840991 0.745773
vt 0.836450 0.749360
vt 0.835357 0.747129
vt 0.836085 0.748616
vt 0.835357 0.747129
vt 0.875000 0.705785
vt 0.874318 0.711492
vt 0.871940 0.710545
vt 0.874147 0.711424
vt 0.871940 0.710545
vt 0.644351 0.489560
vt 0.647203 0.484370
vt 0.648774 0.487349
vt 0.653299 0.484084
vt 0.648774 0.487349
vt 0.625000 0.544215
vt 0.625000 0.538750
vt 0.627445 0.539000
vt 0.625000 0.534009
vt 0.627445 0.539000
vt 0.627405 0.717813
vt 0.625206 0.712282
vt 0.627445 0.711000
vt 0.623687 0.707097
vt 0.646731 0.772484
vt 0.647203 0.765630
vt 0.648774 0.762651
vt 0.647316 0.765416
vt 0.648774 0.762651
vt 0.625749 0.294964
vt 0.375000 0.294215
vt 0.375000 0.288237
vt 0.625000 0.288237
vt 0.375000 0.279782
vt 0.625000 0.279782
vt 0.375000 0.205785
vt 0.625000 0.205785
vt 0.625000 0.211763
vt 0.375000 0.211763
vt 0.625000 0.220218
vt 0.375000 0.220218
vt 0.375000 0.955785
vt 0.625749 0.955035
vt 0.625000 0.961763
vt 0.375000 0.961763
vt 0.375000 0.000000
vt 0.625000 0.000000
vt 0.625000 0.004227
vt 0.375000 0.004227
vt 0.625000 0.044215
vt 0.375000 0.044215
vt 0.375000 0.038237
vt 0.625000 0.038237
vt 0.375000 0.034009
vt 0.625000 0.034009
vt 0.375000 0.544215
vt 0.375000 0.538237
vt 0.625000 0.538237
vt 0.375000 0.529782
vt 0.627405 0.532187
vt 0.375000 0.455785
vt 0.646729 0.477514
vt 0.646753 0.483516
vt 0.375000 0.461763
vt 0.375000 0.470218
vt 0.375000 0.794215
vt 0.375000 0.788237
vt 0.646753 0.766484
vt 0.375000 0.779782
vt 0.644348 0.760434
vt 0.375000 0.705785
vt 0.625000 0.705785
vt 0.625000 0.711763
vt 0.375000 0.711763
vt 0.375000 0.720218
vt 0.830217 0.750568
vt 0.870773 0.715991
s 0
usemtl Material
f 7/1/1 8/2/1 13/2/1 14/1/1
f 3/3/2 4/4/2 9/4/2 10/3/2
f 8/2/3 3/3/3 10/3/3 13/2/3
f 4/4/4 1/5/4 12/5/4 9/4/4
f 5/6/5 6/7/5 15/7/5 16/6/5
f 1/5/6 2/8/6 11/8/6 12/5/6
f 6/7/7 7/1/7 14/1/7 15/7/7
f 2/8/8 5/6/8 16/6/8 11/8/8
f 41/9/9 44/10/9 43/11/9
f 44/10/9 42/12/9 43/11/9
f 45/13/9 48/14/9 47/15/9
f 48/14/9 46/16/9 47/15/9
f 49/17/9 52/18/9 51/19/9
f 52/18/9 50/20/9 51/21/9
f 53/22/9 56/23/9 55/24/9
f 56/23/9 54/25/9 55/26/9
f 57/27/9 60/28/9 59/29/9
f 60/28/9 58/30/9 59/31/9
f 61/32/9 64/33/9 63/34/9
f 64/33/9 62/35/9 63/36/9
f 65/37/9 68/38/9 67/39/9
f 68/38/9 66/40/9 67/39/9
f 69/41/9 72/42/9 71/43/9
f 72/42/9 70/44/9 71/45/9
f 45/46/10 27/47/10 28/48/10 48/49/10
f 48/49/11 28/48/11 26/50/11 46/51/11
f 23/52/12 42/53/12 44/54/12 25/55/12
f 25/55/13 44/54/13 41/56/13 24/57/13
f 17/58/14 50/59/14 52/60/14 19/61/14
f 19/62/15 52/63/15 49/64/15 18/65/15
f 53/66/16 21/67/16 22/68/16 56/69/16
f 56/69/17 22/68/17 20/70/17 54/71/17
f 61/32/18 39/72/18 40/73/18 64/74/18
f 64/74/19 40/73/19 38/75/19 62/76/19
f 35/77/20 58/78/20 60/79/20 37/80/20
f 37/80/21 60/79/21 57/27/21 36/81/21
f 69/41/22 33/82/22 34/83/22 72/84/22
f 72/84/23 34/83/23 32/85/23 70/86/23
f 29/87/24 66/88/24 68/89/24 31/90/24
f 31/90/25 68/89/25 65/37/25 30/91/25
f 18/65/1 49/64/1 54/71/1 20/70/1
f 33/82/3 69/41/3 50/59/3 17/58/3
f 21/67/7 53/66/7 42/53/7 23/52/7
f 46/51/5 26/50/5 24/57/5 41/56/5
f 27/47/8 45/46/8 58/78/8 35/77/8
f 70/86/2 32/85/2 30/91/2 65/37/2
f 39/72/4 61/32/4 66/88/4 29/87/4
f 62/76/6 38/75/6 36/81/6 57/27/6
f 4/4/26 3/3/26 47/15/26 46/16/26 41/9/26 43/11/26
f 1/5/27 4/4/27 43/11/27 42/12/27 53/22/27 55/24/27
f 3/3/28 8/2/28 59/29/28 58/78/28 45/13/28 47/15/28
f 5/6/29 2/8/29 51/19/29 50/92/29 69/41/29 71/43/29
f 2/8/30 1/5/30 55/24/30 54/93/30 49/17/30 51/19/30
f 8/2/31 7/1/31 63/34/31 62/76/31 57/27/31 59/29/31
f 7/1/32 6/7/32 67/39/32 66/88/32 61/32/32 63/34/32
f 6/7/33 5/6/33 71/43/33 70/86/33 65/37/33 67/39/33
