# Blender 4.5.4 LTS
# www.blender.org
mtllib boss-arena.mtl
o Cube-col
v 1.832242 2.150392 -1.850439
v 1.707879 -0.029370 -2.478967
v 2.676629 -0.029370 -1.510217
v 1.832242 2.150392 2.245763
v 2.676629 -0.029370 1.905541
v 1.707879 -0.029370 2.874291
v -1.832242 2.150392 -1.850439
v -2.676629 -0.029370 -1.510217
v -1.707879 -0.029370 -2.478967
v -1.832242 2.150392 2.245763
v -1.707879 -0.029370 2.874291
v -2.676629 -0.029370 1.905541
v 1.707879 2.150392 -2.478967
v 2.676629 2.150392 -1.510217
v -1.707879 2.150392 2.874291
v -2.676629 2.150392 1.905541
v 2.676629 2.150392 1.905541
v 1.707879 2.150392 2.874291
v -2.676629 2.150392 -1.510217
v -1.707879 2.150392 -2.478967
v 0.880653 -0.029370 -2.478967
v -0.880653 -0.029370 -2.478967
v -0.880653 2.150392 -2.478967
v 0.880653 2.150392 -2.478967
v -0.880652 2.150392 2.874291
v 0.880653 2.150392 2.874291
v 0.880652 -0.029370 2.874291
v -0.880653 -0.029370 2.874291
v -0.944779 2.150392 -1.850439
v 0.944779 2.150392 -1.850439
v -0.944779 2.150392 2.245763
v 0.944779 2.150392 2.245763
v 0.880652 -0.029370 6.913910
v -0.880653 -0.029370 6.913910
v 4.140128 -0.021571 -6.574388
v 6.494090 -0.021571 -4.220424
v 6.494090 -0.021571 4.079520
v 4.140127 -0.021571 6.433483
v -6.513780 -0.021571 -4.220424
v -4.159817 -0.021571 -6.574388
v -4.159817 -0.021571 6.433483
v -6.513780 -0.021571 4.079520
v 2.130052 -0.021571 -6.574388
v -2.149740 -0.021571 -6.574388
v -0.009845 -0.021571 6.433483
v -2.689345 2.150392 -0.601582
v -2.689345 2.150392 1.159724
v -2.689345 -0.029370 1.159723
v -2.689345 -0.029370 -0.601582
v -6.913832 -0.029370 1.159723
v -6.913832 -0.029370 -0.601583
v 4.140128 0.357889 -6.574388
v 6.494090 0.357889 -4.220424
v 6.494090 0.357889 4.079520
v 4.140127 0.357889 6.433483
v -6.513780 0.357889 -4.220424
v -4.159817 0.357889 -6.574388
v -4.159817 0.357889 6.433483
v -6.513780 0.357889 4.079520
v 2.130052 0.357889 -6.574388
v -2.149740 0.357889 -6.574388
v -0.009845 0.357889 6.433483
v 4.952303 0.357889 -7.796493
v 7.766951 0.357889 -4.981843
v 7.766951 0.357889 4.942452
v 4.952303 0.357889 7.757100
v -7.786642 0.357889 -4.981844
v -4.971992 0.357889 -7.796493
v -4.971993 0.357889 7.757100
v -7.786642 0.357889 4.942451
v 2.548843 0.357889 -7.796493
v -2.568532 0.357889 -7.796493
v -0.009845 0.357889 7.757100
v 4.952303 -0.075971 -7.796493
v 7.766951 -0.075971 -4.981843
v 7.766951 -0.075971 4.942452
v 4.952303 -0.075971 7.757100
v -7.786642 -0.075971 -4.981844
v -4.971992 -0.075971 -7.796493
v -4.971993 -0.075971 7.757100
v -7.786642 -0.075971 4.942451
v 2.548843 -0.075971 -7.796493
v -2.568532 -0.075971 -7.796493
v -0.009845 -0.075971 7.757100
v -4.517168 1.118358 1.159724
v -4.517168 1.118358 -0.601582
v -4.316002 1.222156 1.159724
v -4.316002 1.222156 -0.601582
v -4.114836 1.325954 1.159724
v -4.114836 1.325954 -0.601582
v -3.913669 1.429753 1.159724
v -3.913669 1.429753 -0.601582
v -3.712503 1.533551 1.159724
v -3.712503 1.533551 -0.601582
v -3.521395 1.632159 1.159724
v -3.521395 1.632159 -0.601582
v -3.310171 1.741147 1.159724
v -3.310171 1.741147 -0.601582
v -2.706672 2.052541 1.159724
v -2.706672 2.052541 -0.601582
v -3.109005 1.844945 1.159724
v -3.109005 1.844945 -0.601582
v -2.907839 1.948743 1.159724
v -2.907839 1.948743 -0.601582
v -0.880653 0.178226 6.529184
v -0.880653 0.074428 6.721547
v 0.880652 0.178226 6.529184
v 0.880652 0.074428 6.721547
v -2.890511 2.046593 -0.601582
v -3.091677 1.942795 -0.601582
v -3.292843 1.838997 -0.601582
v -3.494009 1.735199 -0.601582
v -3.695176 1.631401 -0.601582
v -3.896342 1.527603 -0.601582
v -4.097508 1.423805 -0.601582
v -4.298674 1.320006 -0.601582
v -4.499840 1.216208 -0.601582
v -4.701006 1.112410 -0.601582
v -4.902173 1.008612 -0.601582
v -5.103339 0.904814 -0.601582
v -5.304505 0.801015 -0.601582
v -5.505671 0.697217 -0.601582
v -5.706837 0.593419 -0.601582
v -5.908003 0.489621 -0.601582
v -6.109169 0.385823 -0.601582
v -6.310334 0.282025 -0.601583
v -6.511500 0.178226 -0.601583
v -6.712667 0.074428 -0.601583
v -2.890511 2.046593 1.159724
v -3.091677 1.942795 1.159724
v -3.292843 1.838997 1.159724
v -3.494009 1.735199 1.159724
v -3.695176 1.631401 1.159724
v -3.896342 1.527603 1.159724
v -4.097508 1.423805 1.159724
v -4.298674 1.320006 1.159724
v -4.499840 1.216208 1.159724
v -4.701006 1.112410 1.159724
v -4.902173 1.008612 1.159723
v -5.103339 0.904814 1.159723
v -5.304505 0.801015 1.159723
v -5.505671 0.697217 1.159723
v -5.706837 0.593419 1.159723
v -5.908003 0.489621 1.159723
v -6.109169 0.385823 1.159723
v -6.310334 0.282025 1.159723
v -6.511500 0.178226 1.159723
v -6.712667 0.074428 1.159723
v -4.718334 1.014560 -0.601582
v -4.718334 1.014560 1.159724
v -4.919500 0.910762 -0.601582
v -4.919500 0.910762 1.159723
v -5.124400 0.805037 -0.601582
v -5.124400 0.805037 1.159723
v -5.321832 0.703165 -0.601582
v -5.321832 0.703165 1.159723
v -5.522998 0.599367 -0.601582
v -5.522998 0.599367 1.159723
v -5.724164 0.495569 -0.601582
v -5.724164 0.495569 1.159723
v -5.925331 0.391771 -0.601582
v -5.925331 0.391771 1.159723
v -6.126496 0.287973 -0.601583
v -6.126496 0.287973 1.159723
v -6.327662 0.184174 -0.601583
v -6.327662 0.184174 1.159723
v 2.681052 2.150392 1.159723
v 2.681052 2.150392 -0.601582
v 2.681052 -0.029370 -0.601582
v 2.681052 -0.029370 1.159724
v 6.905540 -0.029370 -0.601582
v 6.905540 -0.029370 1.159724
v 4.508875 1.118358 -0.601582
v 4.508875 1.118358 1.159724
v 4.307709 1.222156 -0.601582
v 4.307709 1.222156 1.159723
v 4.106543 1.325954 -0.601582
v 4.106543 1.325954 1.159724
v 3.905377 1.429753 -0.601582
v 3.905377 1.429753 1.159724
v 3.704211 1.533551 -0.601582
v 3.704211 1.533551 1.159723
v 3.513103 1.632159 -0.601582
v 3.513103 1.632159 1.159723
v 3.301878 1.741147 -0.601582
v 3.301878 1.741147 1.159723
v 2.698380 2.052541 -0.601582
v 2.698380 2.052541 1.159723
v 3.100712 1.844945 -0.601582
v 3.100712 1.844945 1.159723
v 2.899546 1.948743 -0.601582
v 2.899546 1.948743 1.159723
v 2.882218 2.046593 1.159723
v 3.083385 1.942795 1.159723
v 3.284551 1.838997 1.159723
v 3.485717 1.735199 1.159723
v 3.686883 1.631401 1.159723
v 3.888049 1.527603 1.159724
v 4.089215 1.423805 1.159724
v 4.290381 1.320006 1.159723
v 4.491548 1.216208 1.159724
v 4.692714 1.112410 1.159724
v 4.893880 1.008612 1.159724
v 5.095046 0.904814 1.159724
v 5.296212 0.801015 1.159724
v 5.497378 0.697217 1.159724
v 5.698544 0.593419 1.159724
v 5.899710 0.489621 1.159724
v 6.100876 0.385823 1.159724
v 6.302042 0.282025 1.159724
v 6.503208 0.178226 1.159724
v 6.704374 0.074428 1.159724
v 2.882218 2.046593 -0.601582
v 3.083385 1.942795 -0.601582
v 3.284551 1.838997 -0.601582
v 3.485717 1.735199 -0.601582
v 3.686883 1.631401 -0.601582
v 3.888049 1.527603 -0.601582
v 4.089215 1.423805 -0.601582
v 4.290381 1.320006 -0.601582
v 4.491548 1.216208 -0.601582
v 4.692714 1.112410 -0.601582
v 4.893880 1.008612 -0.601582
v 5.095046 0.904814 -0.601582
v 5.296212 0.801015 -0.601582
v 5.497378 0.697217 -0.601582
v 5.698544 0.593419 -0.601582
v 5.899710 0.489621 -0.601582
v 6.100876 0.385823 -0.601582
v 6.302042 0.282025 -0.601582
v 6.503208 0.178226 -0.601582
v 6.704374 0.074428 -0.601582
v 4.710042 1.014560 1.159724
v 4.710042 1.014560 -0.601582
v 4.911208 0.910762 1.159724
v 4.911208 0.910762 -0.601582
v 5.116107 0.805037 1.159724
v 5.116107 0.805037 -0.601582
v 5.313540 0.703165 1.159724
v 5.313540 0.703165 -0.601582
v 5.514706 0.599367 1.159724
v 5.514706 0.599367 -0.601582
v 5.715872 0.495569 1.159724
v 5.715872 0.495569 -0.601582
v 5.917038 0.391771 1.159724
v 5.917038 0.391771 -0.601582
v 6.118203 0.287973 1.159724
v 6.118203 0.287973 -0.601582
v 6.319369 0.184174 1.159724
v 6.319369 0.184174 -0.601582
v -0.884798 2.150392 2.859934
v 0.876507 2.150392 2.859934
v 0.876507 -0.029370 2.859934
v -0.884799 -0.029370 2.859934
v 0.876506 -0.029370 7.084421
v -0.884799 -0.029370 7.084421
v 0.876507 1.118358 4.687757
v -0.884799 1.118358 4.687757
v 0.876507 1.222156 4.486591
v -0.884799 1.222156 4.486591
v 0.876507 1.325954 4.285425
v -0.884799 1.325954 4.285425
v 0.876507 1.429753 4.084258
v -0.884799 1.429753 4.084258
v 0.876507 1.533551 3.883092
v -0.884799 1.533551 3.883092
v 0.876507 1.632159 3.691984
v -0.884799 1.632159 3.691984
v 0.876507 1.741147 3.480760
v -0.884799 1.741147 3.480760
v 0.876507 2.052541 2.877261
v -0.884799 2.052541 2.877261
v 0.876507 1.844945 3.279594
v -0.884799 1.844945 3.279593
v 0.876507 1.948743 3.078428
v -0.884799 1.948743 3.078428
v -0.884799 2.046593 3.061100
v -0.884799 1.942795 3.262266
v -0.884799 1.838997 3.463432
v -0.884799 1.735199 3.664598
v -0.884799 1.631401 3.865765
v -0.884799 1.527603 4.066931
v -0.884799 1.423805 4.268097
v -0.884799 1.320006 4.469263
v -0.884799 1.216208 4.670429
v -0.884799 1.112410 4.871595
v -0.884799 1.008612 5.072761
v -0.884799 0.904814 5.273927
v -0.884799 0.801015 5.475094
v -0.884799 0.697217 5.676260
v -0.884799 0.593419 5.877426
v -0.884799 0.489621 6.078592
v -0.884799 0.385823 6.279757
v -0.884799 0.282025 6.480923
v -0.884799 0.178226 6.682089
v -0.884799 0.074428 6.883255
v 0.876507 2.046593 3.061100
v 0.876507 1.942795 3.262266
v 0.876507 1.838997 3.463432
v 0.876507 1.735199 3.664598
v 0.876507 1.631401 3.865765
v 0.876507 1.527603 4.066931
v 0.876507 1.423805 4.268097
v 0.876507 1.320006 4.469263
v 0.876507 1.216208 4.670429
v 0.876507 1.112410 4.871595
v 0.876507 1.008612 5.072762
v 0.876507 0.904814 5.273928
v 0.876507 0.801015 5.475094
v 0.876507 0.697217 5.676260
v 0.876507 0.593419 5.877426
v 0.876506 0.489621 6.078592
v 0.876506 0.385823 6.279758
v 0.876507 0.282025 6.480923
v 0.876506 0.178226 6.682089
v 0.876506 0.074428 6.883255
v -0.884799 1.014560 4.888923
v 0.876507 1.014560 4.888923
v -0.884799 0.910762 5.090089
v 0.876507 0.910762 5.090089
v -0.884799 0.805037 5.294989
v 0.876507 0.805037 5.294989
v -0.884799 0.703165 5.492421
v 0.876507 0.703165 5.492421
v -0.884799 0.599367 5.693587
v 0.876507 0.599367 5.693587
v -0.884799 0.495569 5.894753
v 0.876506 0.495569 5.894754
v -0.884799 0.391771 6.095920
v 0.876506 0.391771 6.095920
v -0.884799 0.287973 6.297085
v 0.876506 0.287973 6.297085
v -0.884799 0.184174 6.498251
v 0.876506 0.184174 6.498251
v 0.876506 2.150392 -2.459944
v -0.884799 2.150392 -2.459944
v -0.884799 -0.029370 -2.459944
v 0.876507 -0.029370 -2.459944
v -0.884799 -0.029370 -6.684432
v 0.876507 -0.029370 -6.684432
v -0.884799 1.118358 -4.287767
v 0.876507 1.118358 -4.287768
v -0.884799 1.222156 -4.086601
v 0.876506 1.222156 -4.086601
v -0.884799 1.325954 -3.885435
v 0.876507 1.325954 -3.885435
v -0.884799 1.429753 -3.684269
v 0.876507 1.429753 -3.684269
v -0.884799 1.533551 -3.483103
v 0.876506 1.533551 -3.483103
v -0.884799 1.632159 -3.291995
v 0.876506 1.632159 -3.291995
v -0.884799 1.741147 -3.080770
v 0.876506 1.741147 -3.080770
v -0.884799 2.052541 -2.477272
v 0.876506 2.052541 -2.477272
v -0.884799 1.844945 -2.879604
v 0.876506 1.844945 -2.879604
v -0.884799 1.948743 -2.678438
v 0.876506 1.948743 -2.678438
v 0.876506 2.046593 -2.661110
v 0.876506 1.942795 -2.862277
v 0.876506 1.838997 -3.063443
v 0.876506 1.735199 -3.264609
v 0.876506 1.631401 -3.465775
v 0.876507 1.527603 -3.666941
v 0.876507 1.423805 -3.868107
v 0.876506 1.320006 -4.069273
v 0.876507 1.216208 -4.270440
v 0.876507 1.112410 -4.471606
v 0.876506 1.008612 -4.672772
v 0.876506 0.904814 -4.873938
v 0.876507 0.801015 -5.075104
v 0.876507 0.697217 -5.276270
v 0.876506 0.593419 -5.477437
v 0.876506 0.489621 -5.678603
v 0.876506 0.385823 -5.879768
v 0.876506 0.282025 -6.080934
v 0.876506 0.178226 -6.282100
v 0.876506 0.074428 -6.483266
v -0.884799 2.046593 -2.661110
v -0.884799 1.942795 -2.862277
v -0.884799 1.838997 -3.063443
v -0.884799 1.735199 -3.264609
v -0.884799 1.631401 -3.465775
v -0.884799 1.527603 -3.666941
v -0.884799 1.423805 -3.868107
v -0.884799 1.320006 -4.069273
v -0.884799 1.216208 -4.270440
v -0.884799 1.112410 -4.471606
v -0.884799 1.008612 -4.672772
v -0.884799 0.904814 -4.873938
v -0.884799 0.801015 -5.075104
v -0.884799 0.697217 -5.276270
v -0.884799 0.593419 -5.477436
v -0.884799 0.489621 -5.678602
v -0.884799 0.385823 -5.879768
v -0.884799 0.282025 -6.080934
v -0.884799 0.178226 -6.282099
v -0.884799 0.074428 -6.483266
v 0.876507 1.014560 -4.488934
v -0.884799 1.014560 -4.488934
v 0.876506 0.910762 -4.690100
v -0.884799 0.910762 -4.690100
v 0.876506 0.805037 -4.895000
v -0.884799 0.805037 -4.895000
v 0.876507 0.703165 -5.092432
v -0.884799 0.703165 -5.092432
v 0.876507 0.599367 -5.293598
v -0.884799 0.599367 -5.293598
v 0.876506 0.495569 -5.494764
v -0.884799 0.495569 -5.494764
v 0.876506 0.391771 -5.695930
v -0.884799 0.391771 -5.695930
v 0.876507 0.287973 -5.897095
v -0.884799 0.287973 -5.897095
v 0.876507 0.184174 -6.098261
v -0.884799 0.184174 -6.098261
vn 0.7071 -0.0000 -0.7071
vn -0.7071 -0.0000 0.7071
vn 0.7071 -0.0000 0.7071
vn -0.7071 -0.0000 -0.7071
vn -0.0000 -0.0000 -1.0000
vn 1.0000 -0.0000 -0.0000
vn -0.0000 -1.0000 -0.0000
vn -0.0000 -0.0000 1.0000
vn -1.0000 -0.0000 -0.0000
vn -0.0000 1.0000 -0.0000
vn -0.0000 1.0000 -0.0022
vn -0.0000 1.0000 0.0019
vn -0.0000 -1.0000 0.0022
vn 0.0013 -1.0000 0.0013
vn -0.0000 -1.0000 -0.0019
vn -0.0012 -1.0000 -0.0012
vn -0.0013 -1.0000 0.0013
vn 0.0020 -1.0000 -0.0000
vn -0.0020 -1.0000 -0.0000
vn 0.0012 -1.0000 -0.0012
vn -0.9847 0.1744 -0.0000
vn -0.0323 0.9995 -0.0000
vn -0.0044 1.0000 -0.0000
vn -0.0000 0.8801 0.4749
vn -0.4585 0.8887 -0.0000
vn -0.9784 0.2065 -0.0000
vn -0.9664 0.2569 -0.0000
vn -0.0223 0.9998 -0.0000
vn 0.9847 0.1744 -0.0000
vn 0.0323 0.9995 -0.0000
vn 0.0044 1.0000 -0.0000
vn 0.4585 0.8887 -0.0000
vn 0.9784 0.2065 -0.0000
vn 0.9664 0.2569 -0.0000
vn 0.0223 0.9998 -0.0000
vn -0.0000 0.1744 0.9847
vn -0.0000 0.9995 0.0323
vn -0.0000 1.0000 0.0044
vn -0.0000 0.8887 0.4585
vn -0.0000 0.2065 0.9784
vn -0.0000 0.2569 0.9664
vn -0.0000 0.9998 0.0223
vn -0.0000 0.1744 -0.9847
vn -0.0000 0.9995 -0.0323
vn -0.0000 1.0000 -0.0044
vn -0.0000 0.8887 -0.4585
vn -0.0000 0.2065 -0.9784
vn -0.0000 0.2569 -0.9664
vn -0.0000 0.9998 -0.0223
vt 0.323322 0.019311
vt 0.323322 0.226215
vt 0.193279 0.226215
vt 0.193279 0.019311
vt 0.777590 0.019311
vt 0.777590 0.226215
vt 0.647547 0.226215
vt 0.647547 0.019311
vt 0.114758 0.226215
vt 0.114758 0.019311
vt 0.492859 0.475636
vt 0.492859 0.730850
vt 0.532297 0.730850
vt 0.578481 0.684665
vt 0.578481 0.521821
vt 0.532297 0.475636
vt 0.856111 0.019311
vt 0.856111 0.226215
vt 0.538226 0.700885
vt 0.363523 0.505601
vt 0.323268 0.521821
vt 0.369452 0.475636
vt 0.538226 0.505601
vt 0.363523 0.700885
vt 0.369452 0.730850
vt 0.323268 0.684665
vt 0.495916 0.700885
vt 0.405833 0.505601
vt 0.408890 0.475636
vt 0.495916 0.505601
vt 0.405833 0.700885
vt 0.408890 0.730850
vt 0.492859 0.283049
vt 0.408890 0.283049
vt 0.450405 0.305954
vt 0.648253 0.305954
vt 0.348387 0.926097
vt 0.252557 0.926097
vt 0.252557 0.305954
vt 0.760477 0.418178
vt 0.552423 0.926097
vt 0.648253 0.926097
vt 0.140333 0.813873
vt 0.140333 0.418178
vt 0.760477 0.813873
vt 0.193190 0.557377
vt 0.183599 0.557377
vt 0.322661 0.557377
vt 0.840306 0.439568
vt 0.840306 0.431198
vt 0.985725 0.431198
vt 0.985725 0.439568
vt 0.863304 0.926710
vt 0.874226 0.921074
vt 0.973469 0.983391
vt 0.058068 0.135227
vt 0.058068 0.043221
vt 0.012609 0.043221
vt 0.012609 0.135227
vt 0.057072 0.250004
vt 0.058068 0.428434
vt 0.012609 0.428434
vt 0.012608 0.250004
vt 0.057072 0.169614
vt 0.012608 0.169614
vt 0.058068 0.678430
vt 0.057072 0.580390
vt 0.012608 0.580390
vt 0.012609 0.678430
vt 0.058067 0.928425
vt 0.057072 0.999991
vt 0.012608 0.999991
vt 0.012609 0.928425
vt 0.057072 0.500000
vt 0.012608 0.500000
vt 0.057072 0.000009
vt 0.012608 0.000009
vt 0.057072 0.749996
vt 0.012608 0.749996
vt 0.450405 0.242851
vt 0.213837 0.242851
vt 0.328421 0.984360
vt 0.213837 0.984360
vt 0.079650 0.377038
vt 0.572389 0.984360
vt 0.686973 0.984360
vt 0.821160 0.850173
vt 0.821160 0.377038
vt 0.686973 0.242851
vt 0.079650 0.850173
vt 0.012608 0.071575
vt 0.056076 0.071575
vt 0.012607 0.614778
vt 0.056076 0.614778
vt 0.012607 0.321570
vt 0.056076 0.321570
vt 0.012607 0.706784
vt 0.056076 0.706784
vt 0.012607 0.821562
vt 0.056076 0.821562
vt 0.840306 0.598601
vt 0.840306 0.590230
vt 0.985725 0.590230
vt 0.985725 0.598601
vt 0.840306 0.581860
vt 0.840306 0.573490
vt 0.985725 0.573490
vt 0.985725 0.581860
vt 0.840306 0.565120
vt 0.840306 0.556750
vt 0.985725 0.556750
vt 0.985725 0.565120
vt 0.840306 0.548380
vt 0.840306 0.540010
vt 0.985725 0.540010
vt 0.985725 0.548380
vt 0.840306 0.531640
vt 0.840306 0.523269
vt 0.985725 0.523269
vt 0.985725 0.531640
vt 0.840306 0.514899
vt 0.840306 0.507366
vt 0.985725 0.507366
vt 0.985725 0.514899
vt 0.840306 0.498159
vt 0.840306 0.489789
vt 0.985725 0.489789
vt 0.985725 0.498159
vt 0.840306 0.447938
vt 0.985725 0.447938
vt 0.840306 0.481419
vt 0.840306 0.473049
vt 0.985725 0.473049
vt 0.985725 0.481419
vt 0.840306 0.464679
vt 0.840306 0.456308
vt 0.985725 0.456308
vt 0.985725 0.464679
vt 0.985725 0.447938
vt 0.840306 0.464679
vt 0.840306 0.447938
vt 0.840306 0.782743
vt 0.840306 0.766003
vt 0.985725 0.766003
vt 0.985725 0.782743
vt 0.840306 0.749263
vt 0.985725 0.749263
vt 0.840306 0.740893
vt 0.840306 0.732522
vt 0.985725 0.732522
vt 0.985725 0.740892
vt 0.840306 0.724152
vt 0.840306 0.715782
vt 0.985725 0.715782
vt 0.985725 0.724152
vt 0.840306 0.707412
vt 0.840306 0.699042
vt 0.985725 0.699042
vt 0.985725 0.707412
vt 0.840306 0.690672
vt 0.840306 0.682302
vt 0.985725 0.682302
vt 0.985725 0.690672
vt 0.840306 0.673932
vt 0.840306 0.665561
vt 0.985725 0.665561
vt 0.985725 0.673932
vt 0.840306 0.657191
vt 0.840306 0.648821
vt 0.985725 0.648821
vt 0.985725 0.657191
vt 0.840306 0.640762
vt 0.840306 0.632081
vt 0.985725 0.632081
vt 0.985725 0.640762
vt 0.840306 0.623711
vt 0.840306 0.615341
vt 0.985725 0.615341
vt 0.985725 0.623711
vt 0.840306 0.606971
vt 0.985725 0.606971
vt 0.317866 0.641347
vt 0.322661 0.641347
vt 0.744098 0.983391
vt 0.775925 0.971796
vt 0.121261 0.641347
vt 0.130852 0.641347
vt 0.145237 0.641347
vt 0.140442 0.641347
vt 0.150033 0.641347
vt 0.154828 0.641347
vt 0.159623 0.641347
vt 0.164418 0.641347
vt 0.169214 0.641347
vt 0.174009 0.641347
vt 0.178804 0.641347
vt 0.183599 0.641347
vt 0.188395 0.641347
vt 0.193190 0.641347
vt 0.197985 0.641347
vt 0.202602 0.641347
vt 0.207576 0.641347
vt 0.212371 0.641347
vt 0.217166 0.641347
vt 0.221961 0.641347
vt 0.226757 0.641347
vt 0.231552 0.641347
vt 0.236347 0.641347
vt 0.241142 0.641347
vt 0.245938 0.641347
vt 0.250733 0.641347
vt 0.255528 0.641347
vt 0.260323 0.641347
vt 0.265118 0.641347
vt 0.269914 0.641347
vt 0.274709 0.641347
vt 0.279025 0.641347
vt 0.284299 0.641347
vt 0.289095 0.641347
vt 0.293890 0.641347
vt 0.298685 0.641347
vt 0.303480 0.641347
vt 0.308276 0.641347
vt 0.313071 0.641347
vt 0.786847 0.966160
vt 0.797770 0.960525
vt 0.808692 0.954889
vt 0.961606 0.875988
vt 0.972528 0.870352
vt 0.950683 0.881624
vt 0.819614 0.949253
vt 0.939761 0.887260
vt 0.917916 0.898531
vt 0.928292 0.893177
vt 0.885149 0.915439
vt 0.896071 0.909803
vt 0.906994 0.904167
vt 0.830537 0.943617
vt 0.841256 0.938086
vt 0.852382 0.932346
vt 0.317866 0.557377
vt 0.313071 0.557377
vt 0.308276 0.557377
vt 0.303480 0.557377
vt 0.298685 0.557377
vt 0.293890 0.557377
vt 0.289095 0.557377
vt 0.284299 0.557377
vt 0.279025 0.557377
vt 0.274709 0.557377
vt 0.269914 0.557377
vt 0.265118 0.557377
vt 0.260323 0.557377
vt 0.255528 0.557377
vt 0.250733 0.557377
vt 0.245938 0.557377
vt 0.241142 0.557377
vt 0.236347 0.557377
vt 0.231552 0.557377
vt 0.226757 0.557377
vt 0.221961 0.557377
vt 0.217166 0.557377
vt 0.212371 0.557377
vt 0.207576 0.557377
vt 0.202602 0.557377
vt 0.197985 0.557377
vt 0.188395 0.557377
vt 0.178804 0.557377
vt 0.174009 0.557377
vt 0.169214 0.557377
vt 0.164418 0.557377
vt 0.159623 0.557377
vt 0.154828 0.557377
vt 0.150033 0.557377
vt 0.145237 0.557377
vt 0.140442 0.557377
vt 0.130852 0.557377
vt 0.121261 0.557377
s 0
usemtl Material
f 14/1/1 3/2/1 2/3/1 13/4/1
f 11/5/2 15/6/2 16/7/2 12/8/2
f 18/5/3 6/6/3 5/7/3 17/8/3
f 20/3/4 9/4/4 8/1/4 19/2/4
f 21/9/5 24/10/5 13/4/5 2/3/5
f 3/2/6 14/1/6 17/8/6 5/7/6
f 27/11/7 21/12/7 2/13/7 3/14/7 5/15/7 6/16/7
f 28/17/8 25/18/8 15/6/8 11/5/8
f 12/8/9 16/7/9 19/2/9 8/1/9
f 1/19/10 14/14/10 13/13/10
f 10/20/10 16/21/10 15/22/10
f 4/23/10 18/16/10 17/15/10
f 7/24/10 20/25/10 19/26/10
f 30/27/10 1/19/10 13/13/10 24/12/10
f 1/19/10 4/23/10 17/15/10 14/14/10
f 10/20/10 7/24/10 19/26/10 16/21/10
f 31/28/10 10/20/10 15/22/10 25/29/10
f 4/23/10 32/30/10 26/11/10 18/16/10
f 32/30/10 31/28/10 25/29/10 26/11/10
f 7/24/10 29/31/10 23/32/10 20/25/10
f 29/31/10 30/27/10 24/12/10 23/32/10
f 6/6/8 18/5/8 26/17/8 27/18/8
f 8/26/7 9/25/7 22/32/7 28/29/7 11/22/7 12/21/7
f 28/29/7 22/32/7 21/12/7 27/11/7
f 9/4/5 20/3/5 23/9/5 22/10/5
f 22/32/5 23/32/5 24/12/5 21/12/5
f 28/29/7 27/11/7 33/33/7 34/34/7
f 6/16/11 27/11/11 45/35/11 38/36/11
f 9/25/12 22/32/12 44/37/12 40/38/12
f 11/22/13 28/29/13 45/35/13 41/39/13
f 6/16/14 5/15/14 37/40/14 38/36/14
f 2/13/15 21/12/15 43/41/15 35/42/15
f 9/25/16 8/26/16 39/43/16 40/38/16
f 12/21/17 11/22/17 41/39/17 42/44/17
f 22/32/12 21/12/12 43/41/12 44/37/12
f 5/15/18 3/14/18 36/45/18 37/40/18
f 8/26/19 12/21/19 42/44/19 39/43/19
f 3/14/20 2/13/20 35/42/20 36/45/20
f 156/46/8 158/47/8 48/48/8
f 99/49/21 47/50/21 46/51/21 100/52/21
f 149/53/5 86/54/5 49/55/5
f 44/56/8 43/57/8 60/58/8 61/59/8
f 39/60/9 42/61/9 59/62/9 56/63/9
f 40/64/4 39/60/4 56/63/4 57/65/4
f 38/66/5 45/67/5 62/68/5 55/69/5
f 36/70/1 35/71/1 52/72/1 53/73/1
f 41/74/8 45/67/8 62/68/8 58/75/8
f 40/64/8 44/56/8 61/59/8 57/65/8
f 42/61/2 41/74/2 58/75/2 59/62/2
f 35/76/5 43/57/5 60/58/5 52/77/5
f 37/78/6 36/70/6 53/73/6 54/79/6
f 38/66/3 37/78/3 54/79/3 55/69/3
f 58/39/7 62/35/7 73/80/7 69/81/7
f 57/38/10 61/37/10 72/82/10 68/83/10
f 59/44/7 58/39/7 69/81/7 70/84/7
f 52/42/7 60/41/7 71/85/7 63/86/7
f 54/40/7 53/45/7 64/87/7 65/88/7
f 55/36/7 54/40/7 65/88/7 66/89/7
f 61/37/10 60/41/10 71/85/10 72/82/10
f 56/43/7 59/44/7 70/84/7 67/90/7
f 57/38/7 56/43/7 67/90/7 68/83/7
f 55/36/10 62/35/10 73/80/10 66/89/10
f 53/45/7 52/42/7 63/86/7 64/87/7
f 70/77/1 69/91/1 80/92/1 81/76/1
f 63/68/8 71/93/8 82/94/8 74/67/8
f 65/95/9 64/75/9 75/74/9 76/96/9
f 66/63/4 65/95/4 76/96/4 77/60/4
f 72/97/5 71/93/5 82/94/5 83/98/5
f 67/99/6 70/72/6 81/71/6 78/100/6
f 68/79/3 67/99/3 78/100/3 79/78/3
f 66/63/8 73/65/8 84/64/8 77/60/8
f 64/75/2 63/68/2 74/67/2 75/74/2
f 69/91/5 73/65/5 84/64/5 80/92/5
f 68/79/5 72/97/5 83/98/5 79/78/5
f 138/101/22 85/102/22 86/103/22 118/104/22
f 137/105/22 87/106/22 88/107/22 117/108/22
f 136/109/22 89/110/22 90/111/22 116/112/22
f 135/113/22 91/114/22 92/115/22 115/116/22
f 134/117/22 93/118/22 94/119/22 114/120/22
f 133/121/23 95/122/23 96/123/23 113/124/23
f 132/125/22 97/126/22 98/127/22 112/128/22
f 129/129/22 99/49/22 100/52/22 109/130/22
f 131/131/22 101/132/22 102/133/22 111/134/22
f 130/135/22 103/136/22 104/137/22 110/138/22
f 108/139/24 107/138/24 105/140/24 106/141/24
f 50/142/25 148/143/25 128/144/25 51/145/25
f 148/143/25 147/146/25 127/147/25 128/144/25
f 166/148/21 146/149/21 126/150/21 165/151/21
f 164/152/21 145/153/21 125/154/21 163/155/21
f 162/156/21 144/157/21 124/158/21 161/159/21
f 160/160/21 143/161/21 123/162/21 159/163/21
f 158/164/21 142/165/21 122/166/21 157/167/21
f 156/168/21 141/169/21 121/170/21 155/171/21
f 154/172/26 140/173/26 120/174/26 153/175/26
f 152/176/21 139/177/21 119/178/21 151/179/21
f 150/180/21 138/101/21 118/104/21 149/181/21
f 85/102/21 137/105/21 117/108/21 86/103/21
f 87/106/21 136/109/21 116/112/21 88/107/21
f 89/110/21 135/113/21 115/116/21 90/111/21
f 91/114/21 134/117/21 114/120/21 92/115/21
f 93/118/21 133/121/21 113/124/21 94/119/21
f 95/122/27 132/125/27 112/128/27 96/123/27
f 97/126/21 131/131/21 111/134/21 98/127/21
f 101/132/21 130/135/21 110/138/21 102/133/21
f 103/136/21 129/129/21 109/130/21 104/137/21
f 139/177/22 150/180/22 149/181/22 119/178/22
f 140/173/22 152/176/22 151/179/22 120/174/22
f 141/169/28 154/172/28 153/175/28 121/170/28
f 142/165/22 156/168/22 155/171/22 122/166/22
f 143/161/22 158/164/22 157/167/22 123/162/22
f 144/157/22 160/160/22 159/163/22 124/158/22
f 145/153/22 162/156/22 161/159/22 125/154/22
f 146/149/22 164/152/22 163/155/22 126/150/22
f 147/146/22 166/148/22 165/151/22 127/147/22
f 100/182/5 46/183/5 49/183/5
f 49/55/5 51/184/5 165/185/5
f 51/186/5 128/187/5 165/188/5
f 128/187/5 127/189/5 165/188/5
f 165/188/5 126/190/5 163/191/5
f 163/191/5 125/192/5 161/193/5
f 161/193/5 124/194/5 159/195/5
f 159/195/5 123/196/5 157/197/5
f 157/197/5 122/198/5 155/199/5
f 155/199/5 121/200/5 153/201/5
f 153/201/5 120/202/5 151/203/5
f 151/203/5 119/204/5 149/205/5
f 149/205/5 118/206/5 86/207/5
f 86/207/5 117/208/5 88/209/5
f 88/209/5 116/210/5 90/211/5
f 90/211/5 115/212/5 92/213/5
f 92/213/5 114/214/5 94/215/5
f 94/215/5 113/216/5 96/217/5
f 96/217/5 112/218/5 98/219/5
f 98/219/5 111/220/5 102/221/5
f 102/221/5 110/222/5 104/223/5
f 104/223/5 109/224/5 100/182/5
f 163/225/5 161/226/5 49/55/5
f 161/226/5 159/227/5 49/55/5
f 49/55/5 165/185/5 163/225/5
f 104/228/5 100/229/5 49/55/5
f 102/230/5 104/228/5 49/55/5
f 49/55/5 159/227/5 157/231/5
f 98/232/5 102/230/5 49/55/5
f 94/233/5 96/234/5 49/55/5
f 96/234/5 98/232/5 49/55/5
f 88/235/5 90/236/5 49/55/5
f 90/236/5 92/237/5 49/55/5
f 86/54/5 88/235/5 49/55/5
f 92/237/5 94/233/5 49/55/5
f 49/55/5 157/231/5 155/238/5
f 155/238/5 153/239/5 49/55/5
f 153/239/5 151/240/5 49/55/5
f 151/240/5 149/53/5 49/55/5
f 48/48/8 47/48/8 99/241/8
f 99/241/8 129/242/8 103/243/8
f 103/243/8 130/244/8 101/245/8
f 101/245/8 131/246/8 97/247/8
f 97/247/8 132/248/8 95/249/8
f 95/249/8 133/250/8 93/251/8
f 93/251/8 134/252/8 91/253/8
f 91/253/8 135/254/8 89/255/8
f 89/255/8 136/256/8 87/257/8
f 87/257/8 137/258/8 85/259/8
f 85/259/8 138/260/8 150/261/8
f 150/261/8 139/262/8 152/263/8
f 152/263/8 140/264/8 154/265/8
f 154/265/8 141/266/8 156/46/8
f 156/46/8 142/267/8 158/47/8
f 158/47/8 143/268/8 160/269/8
f 160/269/8 144/270/8 162/271/8
f 162/271/8 145/272/8 164/273/8
f 164/273/8 146/274/8 166/275/8
f 166/275/8 147/276/8 148/277/8
f 148/277/8 50/278/8 166/275/8
f 50/278/8 48/48/8 166/275/8
f 48/48/8 99/241/8 103/243/8
f 48/48/8 103/243/8 101/245/8
f 160/269/8 162/271/8 48/48/8
f 162/271/8 164/273/8 48/48/8
f 164/273/8 166/275/8 48/48/8
f 48/48/8 101/245/8 97/247/8
f 97/247/8 95/249/8 48/48/8
f 95/249/8 93/251/8 48/48/8
f 91/253/8 89/255/8 48/48/8
f 89/255/8 87/257/8 48/48/8
f 87/257/8 85/259/8 48/48/8
f 48/48/8 93/251/8 91/253/8
f 158/47/8 160/269/8 48/48/8
f 85/259/8 150/261/8 48/48/8
f 150/261/8 152/263/8 48/48/8
f 152/263/8 154/265/8 48/48/8
f 154/265/8 156/46/8 48/48/8
f 240/46/5 242/47/5 169/48/5
f 187/49/29 168/50/29 167/51/29 188/52/29
f 233/53/8 174/54/8 170/55/8
f 222/101/30 173/102/30 174/103/30 202/104/30
f 221/105/30 175/106/30 176/107/30 201/108/30
f 220/109/30 177/110/30 178/111/30 200/112/30
f 219/113/30 179/114/30 180/115/30 199/116/30
f 218/117/30 181/118/30 182/119/30 198/120/30
f 217/121/31 183/122/31 184/123/31 197/124/31
f 216/125/30 185/126/30 186/127/30 196/128/30
f 213/129/30 187/49/30 188/52/30 193/130/30
f 215/131/30 189/132/30 190/133/30 195/134/30
f 214/135/30 191/136/30 192/137/30 194/138/30
f 171/142/32 232/143/32 212/144/32 172/145/32
f 232/143/32 231/146/32 211/147/32 212/144/32
f 250/148/29 230/149/29 210/150/29 249/151/29
f 248/152/29 229/153/29 209/154/29 247/155/29
f 246/156/29 228/157/29 208/158/29 245/159/29
f 244/160/29 227/161/29 207/162/29 243/163/29
f 242/164/29 226/165/29 206/166/29 241/167/29
f 240/168/29 225/169/29 205/170/29 239/171/29
f 238/172/33 224/173/33 204/174/33 237/175/33
f 236/176/29 223/177/29 203/178/29 235/179/29
f 234/180/29 222/101/29 202/104/29 233/181/29
f 173/102/29 221/105/29 201/108/29 174/103/29
f 175/106/29 220/109/29 200/112/29 176/107/29
f 177/110/29 219/113/29 199/116/29 178/111/29
f 179/114/29 218/117/29 198/120/29 180/115/29
f 181/118/29 217/121/29 197/124/29 182/119/29
f 183/122/34 216/125/34 196/128/34 184/123/34
f 185/126/29 215/131/29 195/134/29 186/127/29
f 189/132/29 214/135/29 194/138/29 190/133/29
f 191/136/29 213/129/29 193/130/29 192/137/29
f 223/177/30 234/180/30 233/181/30 203/178/30
f 224/173/30 236/176/30 235/179/30 204/174/30
f 225/169/35 238/172/35 237/175/35 205/170/35
f 226/165/30 240/168/30 239/171/30 206/166/30
f 227/161/30 242/164/30 241/167/30 207/162/30
f 228/157/30 244/160/30 243/163/30 208/158/30
f 229/153/30 246/156/30 245/159/30 209/154/30
f 230/149/30 248/152/30 247/155/30 210/150/30
f 231/146/30 250/148/30 249/151/30 211/147/30
f 188/182/8 167/183/8 170/183/8
f 170/55/8 172/184/8 249/185/8
f 172/186/8 212/187/8 249/188/8
f 212/187/8 211/189/8 249/188/8
f 249/188/8 210/190/8 247/191/8
f 247/191/8 209/192/8 245/193/8
f 245/193/8 208/194/8 243/195/8
f 243/195/8 207/196/8 241/197/8
f 241/197/8 206/198/8 239/199/8
f 239/199/8 205/200/8 237/201/8
f 237/201/8 204/202/8 235/203/8
f 235/203/8 203/204/8 233/205/8
f 233/205/8 202/206/8 174/207/8
f 174/207/8 201/208/8 176/209/8
f 176/209/8 200/210/8 178/211/8
f 178/211/8 199/212/8 180/213/8
f 180/213/8 198/214/8 182/215/8
f 182/215/8 197/216/8 184/217/8
f 184/217/8 196/218/8 186/219/8
f 186/219/8 195/220/8 190/221/8
f 190/221/8 194/222/8 192/223/8
f 192/223/8 193/224/8 188/182/8
f 247/225/8 245/226/8 170/55/8
f 245/226/8 243/227/8 170/55/8
f 170/55/8 249/185/8 247/225/8
f 192/228/8 188/229/8 170/55/8
f 190/230/8 192/228/8 170/55/8
f 170/55/8 243/227/8 241/231/8
f 186/232/8 190/230/8 170/55/8
f 182/233/8 184/234/8 170/55/8
f 184/234/8 186/232/8 170/55/8
f 176/235/8 178/236/8 170/55/8
f 178/236/8 180/237/8 170/55/8
f 174/54/8 176/235/8 170/55/8
f 180/237/8 182/233/8 170/55/8
f 170/55/8 241/231/8 239/238/8
f 239/238/8 237/239/8 170/55/8
f 237/239/8 235/240/8 170/55/8
f 235/240/8 233/53/8 170/55/8
f 169/48/5 168/48/5 187/241/5
f 187/241/5 213/242/5 191/243/5
f 191/243/5 214/244/5 189/245/5
f 189/245/5 215/246/5 185/247/5
f 185/247/5 216/248/5 183/249/5
f 183/249/5 217/250/5 181/251/5
f 181/251/5 218/252/5 179/253/5
f 179/253/5 219/254/5 177/255/5
f 177/255/5 220/256/5 175/257/5
f 175/257/5 221/258/5 173/259/5
f 173/259/5 222/260/5 234/261/5
f 234/261/5 223/262/5 236/263/5
f 236/263/5 224/264/5 238/265/5
f 238/265/5 225/266/5 240/46/5
f 240/46/5 226/267/5 242/47/5
f 242/47/5 227/268/5 244/269/5
f 244/269/5 228/270/5 246/271/5
f 246/271/5 229/272/5 248/273/5
f 248/273/5 230/274/5 250/275/5
f 250/275/5 231/276/5 232/277/5
f 232/277/5 171/278/5 250/275/5
f 171/278/5 169/48/5 250/275/5
f 169/48/5 187/241/5 191/243/5
f 169/48/5 191/243/5 189/245/5
f 244/269/5 246/271/5 169/48/5
f 246/271/5 248/273/5 169/48/5
f 248/273/5 250/275/5 169/48/5
f 169/48/5 189/245/5 185/247/5
f 185/247/5 183/249/5 169/48/5
f 183/249/5 181/251/5 169/48/5
f 179/253/5 177/255/5 169/48/5
f 177/255/5 175/257/5 169/48/5
f 175/257/5 173/259/5 169/48/5
f 169/48/5 181/251/5 179/253/5
f 242/47/5 244/269/5 169/48/5
f 173/259/5 234/261/5 169/48/5
f 234/261/5 236/263/5 169/48/5
f 236/263/5 238/265/5 169/48/5
f 238/265/5 240/46/5 169/48/5
f 324/46/6 326/47/6 253/48/6
f 271/49/36 252/50/36 251/51/36 272/52/36
f 317/53/9 258/54/9 254/55/9
f 306/101/37 257/102/37 258/103/37 286/104/37
f 305/105/37 259/106/37 260/107/37 285/108/37
f 304/109/37 261/110/37 262/111/37 284/112/37
f 303/113/37 263/114/37 264/115/37 283/116/37
f 302/117/37 265/118/37 266/119/37 282/120/37
f 301/121/38 267/122/38 268/123/38 281/124/38
f 300/125/37 269/126/37 270/127/37 280/128/37
f 297/129/37 271/49/37 272/52/37 277/130/37
f 299/131/37 273/132/37 274/133/37 279/134/37
f 298/135/37 275/136/37 276/137/37 278/138/37
f 255/142/39 316/143/39 296/144/39 256/145/39
f 316/143/39 315/146/39 295/147/39 296/144/39
f 334/148/36 314/149/36 294/150/36 333/151/36
f 332/152/36 313/153/36 293/154/36 331/155/36
f 330/156/36 312/157/36 292/158/36 329/159/36
f 328/160/36 311/161/36 291/162/36 327/163/36
f 326/164/36 310/165/36 290/166/36 325/167/36
f 324/168/36 309/169/36 289/170/36 323/171/36
f 322/172/40 308/173/40 288/174/40 321/175/40
f 320/176/36 307/177/36 287/178/36 319/179/36
f 318/180/36 306/101/36 286/104/36 317/181/36
f 257/102/36 305/105/36 285/108/36 258/103/36
f 259/106/36 304/109/36 284/112/36 260/107/36
f 261/110/36 303/113/36 283/116/36 262/111/36
f 263/114/36 302/117/36 282/120/36 264/115/36
f 265/118/36 301/121/36 281/124/36 266/119/36
f 267/122/41 300/125/41 280/128/41 268/123/41
f 269/126/36 299/131/36 279/134/36 270/127/36
f 273/132/36 298/135/36 278/138/36 274/133/36
f 275/136/36 297/129/36 277/130/36 276/137/36
f 307/177/37 318/180/37 317/181/37 287/178/37
f 308/173/37 320/176/37 319/179/37 288/174/37
f 309/169/42 322/172/42 321/175/42 289/170/42
f 310/165/37 324/168/37 323/171/37 290/166/37
f 311/161/37 326/164/37 325/167/37 291/162/37
f 312/157/37 328/160/37 327/163/37 292/158/37
f 313/153/37 330/156/37 329/159/37 293/154/37
f 314/149/37 332/152/37 331/155/37 294/150/37
f 315/146/37 334/148/37 333/151/37 295/147/37
f 272/182/9 251/183/9 254/183/9
f 254/55/9 256/184/9 333/185/9
f 256/186/9 296/187/9 333/188/9
f 296/187/9 295/189/9 333/188/9
f 333/188/9 294/190/9 331/191/9
f 331/191/9 293/192/9 329/193/9
f 329/193/9 292/194/9 327/195/9
f 327/195/9 291/196/9 325/197/9
f 325/197/9 290/198/9 323/199/9
f 323/199/9 289/200/9 321/201/9
f 321/201/9 288/202/9 319/203/9
f 319/203/9 287/204/9 317/205/9
f 317/205/9 286/206/9 258/207/9
f 258/207/9 285/208/9 260/209/9
f 260/209/9 284/210/9 262/211/9
f 262/211/9 283/212/9 264/213/9
f 264/213/9 282/214/9 266/215/9
f 266/215/9 281/216/9 268/217/9
f 268/217/9 280/218/9 270/219/9
f 270/219/9 279/220/9 274/221/9
f 274/221/9 278/222/9 276/223/9
f 276/223/9 277/224/9 272/182/9
f 331/225/9 329/226/9 254/55/9
f 329/226/9 327/227/9 254/55/9
f 254/55/9 333/185/9 331/225/9
f 276/228/9 272/229/9 254/55/9
f 274/230/9 276/228/9 254/55/9
f 254/55/9 327/227/9 325/231/9
f 270/232/9 274/230/9 254/55/9
f 266/233/9 268/234/9 254/55/9
f 268/234/9 270/232/9 254/55/9
f 260/235/9 262/236/9 254/55/9
f 262/236/9 264/237/9 254/55/9
f 258/54/9 260/235/9 254/55/9
f 264/237/9 266/233/9 254/55/9
f 254/55/9 325/231/9 323/238/9
f 323/238/9 321/239/9 254/55/9
f 321/239/9 319/240/9 254/55/9
f 319/240/9 317/53/9 254/55/9
f 253/48/6 252/48/6 271/241/6
f 271/241/6 297/242/6 275/243/6
f 275/243/6 298/244/6 273/245/6
f 273/245/6 299/246/6 269/247/6
f 269/247/6 300/248/6 267/249/6
f 267/249/6 301/250/6 265/251/6
f 265/251/6 302/252/6 263/253/6
f 263/253/6 303/254/6 261/255/6
f 261/255/6 304/256/6 259/257/6
f 259/257/6 305/258/6 257/259/6
f 257/259/6 306/260/6 318/261/6
f 318/261/6 307/262/6 320/263/6
f 320/263/6 308/264/6 322/265/6
f 322/265/6 309/266/6 324/46/6
f 324/46/6 310/267/6 326/47/6
f 326/47/6 311/268/6 328/269/6
f 328/269/6 312/270/6 330/271/6
f 330/271/6 313/272/6 332/273/6
f 332/273/6 314/274/6 334/275/6
f 334/275/6 315/276/6 316/277/6
f 316/277/6 255/278/6 334/275/6
f 255/278/6 253/48/6 334/275/6
f 253/48/6 271/241/6 275/243/6
f 253/48/6 275/243/6 273/245/6
f 328/269/6 330/271/6 253/48/6
f 330/271/6 332/273/6 253/48/6
f 332/273/6 334/275/6 253/48/6
f 253/48/6 273/245/6 269/247/6
f 269/247/6 267/249/6 253/48/6
f 267/249/6 265/251/6 253/48/6
f 263/253/6 261/255/6 253/48/6
f 261/255/6 259/257/6 253/48/6
f 259/257/6 257/259/6 253/48/6
f 253/48/6 265/251/6 263/253/6
f 326/47/6 328/269/6 253/48/6
f 257/259/6 318/261/6 253/48/6
f 318/261/6 320/263/6 253/48/6
f 320/263/6 322/265/6 253/48/6
f 322/265/6 324/46/6 253/48/6
f 408/46/9 410/47/9 337/48/9
f 355/49/43 336/50/43 335/51/43 356/52/43
f 401/53/6 342/54/6 338/55/6
f 390/101/44 341/102/44 342/103/44 370/104/44
f 389/105/44 343/106/44 344/107/44 369/108/44
f 388/109/44 345/110/44 346/111/44 368/112/44
f 387/113/44 347/114/44 348/115/44 367/116/44
f 386/117/44 349/118/44 350/119/44 366/120/44
f 385/121/45 351/122/45 352/123/45 365/124/45
f 384/125/44 353/126/44 354/127/44 364/128/44
f 381/129/44 355/49/44 356/52/44 361/130/44
f 383/131/44 357/132/44 358/133/44 363/134/44
f 382/135/44 359/136/44 360/137/44 362/138/44
f 339/142/46 400/143/46 380/144/46 340/145/46
f 400/143/46 399/146/46 379/147/46 380/144/46
f 418/148/43 398/149/43 378/150/43 417/151/43
f 416/152/43 397/153/43 377/154/43 415/155/43
f 414/156/43 396/157/43 376/158/43 413/159/43
f 412/160/43 395/161/43 375/162/43 411/163/43
f 410/164/43 394/165/43 374/166/43 409/167/43
f 408/168/43 393/169/43 373/170/43 407/171/43
f 406/172/47 392/173/47 372/174/47 405/175/47
f 404/176/43 391/177/43 371/178/43 403/179/43
f 402/180/43 390/101/43 370/104/43 401/181/43
f 341/102/43 389/105/43 369/108/43 342/103/43
f 343/106/43 388/109/43 368/112/43 344/107/43
f 345/110/43 387/113/43 367/116/43 346/111/43
f 347/114/43 386/117/43 366/120/43 348/115/43
f 349/118/43 385/121/43 365/124/43 350/119/43
f 351/122/48 384/125/48 364/128/48 352/123/48
f 353/126/43 383/131/43 363/134/43 354/127/43
f 357/132/43 382/135/43 362/138/43 358/133/43
f 359/136/43 381/129/43 361/130/43 360/137/43
f 391/177/44 402/180/44 401/181/44 371/178/44
f 392/173/44 404/176/44 403/179/44 372/174/44
f 393/169/49 406/172/49 405/175/49 373/170/49
f 394/165/44 408/168/44 407/171/44 374/166/44
f 395/161/44 410/164/44 409/167/44 375/162/44
f 396/157/44 412/160/44 411/163/44 376/158/44
f 397/153/44 414/156/44 413/159/44 377/154/44
f 398/149/44 416/152/44 415/155/44 378/150/44
f 399/146/44 418/148/44 417/151/44 379/147/44
f 356/182/6 335/183/6 338/183/6
f 338/55/6 340/184/6 417/185/6
f 340/186/6 380/187/6 417/188/6
f 380/187/6 379/189/6 417/188/6
f 417/188/6 378/190/6 415/191/6
f 415/191/6 377/192/6 413/193/6
f 413/193/6 376/194/6 411/195/6
f 411/195/6 375/196/6 409/197/6
f 409/197/6 374/198/6 407/199/6
f 407/199/6 373/200/6 405/201/6
f 405/201/6 372/202/6 403/203/6
f 403/203/6 371/204/6 401/205/6
f 401/205/6 370/206/6 342/207/6
f 342/207/6 369/208/6 344/209/6
f 344/209/6 368/210/6 346/211/6
f 346/211/6 367/212/6 348/213/6
f 348/213/6 366/214/6 350/215/6
f 350/215/6 365/216/6 352/217/6
f 352/217/6 364/218/6 354/219/6
f 354/219/6 363/220/6 358/221/6
f 358/221/6 362/222/6 360/223/6
f 360/223/6 361/224/6 356/182/6
f 415/225/6 413/226/6 338/55/6
f 413/226/6 411/227/6 338/55/6
f 338/55/6 417/185/6 415/225/6
f 360/228/6 356/229/6 338/55/6
f 358/230/6 360/228/6 338/55/6
f 338/55/6 411/227/6 409/231/6
f 354/232/6 358/230/6 338/55/6
f 350/233/6 352/234/6 338/55/6
f 352/234/6 354/232/6 338/55/6
f 344/235/6 346/236/6 338/55/6
f 346/236/6 348/237/6 338/55/6
f 342/54/6 344/235/6 338/55/6
f 348/237/6 350/233/6 338/55/6
f 338/55/6 409/231/6 407/238/6
f 407/238/6 405/239/6 338/55/6
f 405/239/6 403/240/6 338/55/6
f 403/240/6 401/53/6 338/55/6
f 337/48/9 336/48/9 355/241/9
f 355/241/9 381/242/9 359/243/9
f 359/243/9 382/244/9 357/245/9
f 357/245/9 383/246/9 353/247/9
f 353/247/9 384/248/9 351/249/9
f 351/249/9 385/250/9 349/251/9
f 349/251/9 386/252/9 347/253/9
f 347/253/9 387/254/9 345/255/9
f 345/255/9 388/256/9 343/257/9
f 343/257/9 389/258/9 341/259/9
f 341/259/9 390/260/9 402/261/9
f 402/261/9 391/262/9 404/263/9
f 404/263/9 392/264/9 406/265/9
f 406/265/9 393/266/9 408/46/9
f 408/46/9 394/267/9 410/47/9
f 410/47/9 395/268/9 412/269/9
f 412/269/9 396/270/9 414/271/9
f 414/271/9 397/272/9 416/273/9
f 416/273/9 398/274/9 418/275/9
f 418/275/9 399/276/9 400/277/9
f 400/277/9 339/278/9 418/275/9
f 339/278/9 337/48/9 418/275/9
f 337/48/9 355/241/9 359/243/9
f 337/48/9 359/243/9 357/245/9
f 412/269/9 414/271/9 337/48/9
f 414/271/9 416/273/9 337/48/9
f 416/273/9 418/275/9 337/48/9
f 337/48/9 357/245/9 353/247/9
f 353/247/9 351/249/9 337/48/9
f 351/249/9 349/251/9 337/48/9
f 347/253/9 345/255/9 337/48/9
f 345/255/9 343/257/9 337/48/9
f 343/257/9 341/259/9 337/48/9
f 337/48/9 349/251/9 347/253/9
f 410/47/9 412/269/9 337/48/9
f 341/259/9 402/261/9 337/48/9
f 402/261/9 404/263/9 337/48/9
f 404/263/9 406/265/9 337/48/9
f 406/265/9 408/46/9 337/48/9
f 29/31/10 7/24/10 10/20/10 31/28/10 32/30/10 4/23/10 1/19/10 30/27/10
