# Blender 4.5.4 LTS
# www.blender.org
mtllib light_cylinder.mtl
o Cylinder
v 0.000000 -0.300000 -0.300000
v 0.000000 0.300000 -0.300000
v 0.058527 -0.300000 -0.294236
v 0.058527 0.300000 -0.294236
v 0.114805 -0.300000 -0.277164
v 0.114805 0.300000 -0.277164
v 0.166671 -0.300000 -0.249441
v 0.166671 0.300000 -0.249441
v 0.212132 -0.300000 -0.212132
v 0.212132 0.300000 -0.212132
v 0.249441 -0.300000 -0.166671
v 0.249441 0.300000 -0.166671
v 0.277164 -0.300000 -0.114805
v 0.277164 0.300000 -0.114805
v 0.294236 -0.300000 -0.058527
v 0.294236 0.300000 -0.058527
v 0.300000 -0.300000 0.000000
v 0.300000 0.300000 0.000000
v 0.294236 -0.300000 0.058527
v 0.294236 0.300000 0.058527
v 0.277164 -0.300000 0.114805
v 0.277164 0.300000 0.114805
v 0.249441 -0.300000 0.166671
v 0.249441 0.300000 0.166671
v 0.212132 -0.300000 0.212132
v 0.212132 0.300000 0.212132
v 0.166671 -0.300000 0.249441
v 0.166671 0.300000 0.249441
v 0.114805 -0.300000 0.277164
v 0.114805 0.300000 0.277164
v 0.058527 -0.300000 0.294236
v 0.058527 0.300000 0.294236
v 0.000000 -0.300000 0.300000
v 0.000000 0.300000 0.300000
v -0.058527 -0.300000 0.294236
v -0.058527 0.300000 0.294236
v -0.114805 -0.300000 0.277164
v -0.114805 0.300000 0.277164
v -0.166671 -0.300000 0.249441
v -0.166671 0.300000 0.249441
v -0.212132 -0.300000 0.212132
v -0.212132 0.300000 0.212132
v -0.249441 -0.300000 0.166671
v -0.249441 0.300000 0.166671
v -0.277164 -0.300000 0.114805
v -0.277164 0.300000 0.114805
v -0.294236 -0.300000 0.058527
v -0.294236 0.300000 0.058527
v -0.300000 -0.300000 0.000000
v -0.300000 0.300000 0.000000
v -0.294236 -0.300000 -0.058527
v -0.294236 0.300000 -0.058527
v -0.277164 -0.300000 -0.114805
v -0.277164 0.300000 -0.114805
v -0.249441 -0.300000 -0.166671
v -0.249441 0.300000 -0.166671
v -0.212132 -0.300000 -0.212132
v -0.212132 0.300000 -0.212132
v -0.166671 -0.300000 -0.249441
v -0.166671 0.300000 -0.249441
v -0.114805 -0.300000 -0.277164
v -0.114805 0.300000 -0.277164
v -0.058527 -0.300000 -0.294236
v -0.058527 0.300000 -0.294236
v -0.000000 -0.292588 -0.324972
v 0.063399 -0.292588 -0.318728
v 0.063399 0.292588 -0.318728
v -0.000000 0.292588 -0.324972
v 0.124362 -0.292588 -0.300235
v 0.124362 0.292588 -0.300235
v 0.180545 -0.292588 -0.270205
v 0.180545 0.292588 -0.270205
v 0.229790 -0.292588 -0.229790
v 0.229790 0.292588 -0.229790
v 0.270205 -0.292588 -0.180545
v 0.270205 0.292588 -0.180545
v 0.300235 -0.292588 -0.124362
v 0.300235 0.292588 -0.124362
v 0.318728 -0.292588 -0.063399
v 0.318728 0.292588 -0.063399
v 0.324972 -0.292588 0.000000
v 0.324972 0.292588 0.000000
v 0.318728 -0.292588 0.063399
v 0.318728 0.292588 0.063399
v 0.300235 -0.292588 0.124362
v 0.300235 0.292588 0.124362
v 0.270205 -0.292588 0.180545
v 0.270205 0.292588 0.180545
v 0.229790 -0.292588 0.229790
v 0.229790 0.292588 0.229790
v 0.180545 -0.292588 0.270205
v 0.180545 0.292588 0.270205
v 0.124362 -0.292588 0.300235
v 0.124362 0.292588 0.300235
v 0.063399 -0.292588 0.318728
v 0.063399 0.292588 0.318728
v -0.000000 -0.292588 0.324972
v -0.000000 0.292588 0.324972
v -0.063399 -0.292588 0.318728
v -0.063399 0.292588 0.318728
v -0.124362 -0.292588 0.300235
v -0.124362 0.292588 0.300235
v -0.180545 -0.292588 0.270205
v -0.180545 0.292588 0.270205
v -0.229790 -0.292588 0.229790
v -0.229790 0.292588 0.229790
v -0.270205 -0.292588 0.180545
v -0.270205 0.292588 0.180545
v -0.300235 -0.292588 0.124362
v -0.300235 0.292588 0.124362
v -0.318728 -0.292588 0.063399
v -0.318728 0.292588 0.063399
v -0.324972 -0.292588 0.000000
v -0.324972 0.292588 0.000000
v -0.318728 -0.292588 -0.063399
v -0.318728 0.292588 -0.063399
v -0.300235 -0.292588 -0.124362
v -0.300235 0.292588 -0.124362
v -0.270205 -0.292588 -0.180545
v -0.270205 0.292588 -0.180545
v -0.229790 -0.292588 -0.229790
v -0.229790 0.292588 -0.229790
v -0.180545 -0.292588 -0.270205
v -0.180545 0.292588 -0.270205
v -0.124362 -0.292588 -0.300235
v -0.124362 0.292588 -0.300235
v -0.063399 -0.292588 -0.318728
v -0.063399 0.292588 -0.318728
v 0.000000 -0.381142 -0.300000
v 0.058527 -0.381142 -0.294236
v 0.058527 0.381142 -0.294236
v 0.000000 0.381142 -0.300000
v 0.114805 -0.381142 -0.277164
v 0.166671 -0.381142 -0.249441
v 0.166671 0.381142 -0.249441
v 0.114805 0.381142 -0.277164
v 0.212132 -0.381142 -0.212132
v 0.249441 -0.381142 -0.166671
v 0.249441 0.381142 -0.166671
v 0.212132 0.381142 -0.212132
v 0.277164 -0.381142 -0.114805
v 0.294236 -0.381142 -0.058527
v 0.294236 0.381142 -0.058527
v 0.277164 0.381142 -0.114805
v 0.300000 -0.381142 0.000000
v 0.294236 -0.381142 0.058527
v 0.294236 0.381142 0.058527
v 0.300000 0.381142 0.000000
v 0.277164 -0.381142 0.114805
v 0.249441 -0.381142 0.166671
v 0.249441 0.381142 0.166671
v 0.277164 0.381142 0.114805
v 0.212132 -0.381142 0.212132
v 0.166671 -0.381142 0.249441
v 0.166671 0.381142 0.249441
v 0.212132 0.381142 0.212132
v 0.114805 -0.381142 0.277164
v 0.058527 -0.381142 0.294236
v 0.058527 0.381142 0.294236
v 0.114805 0.381142 0.277164
v 0.000000 -0.381142 0.300000
v -0.058527 -0.381142 0.294236
v -0.058527 0.381142 0.294236
v 0.000000 0.381142 0.300000
v -0.114805 -0.381142 0.277164
v -0.166671 -0.381142 0.249441
v -0.166671 0.381142 0.249441
v -0.114805 0.381142 0.277164
v -0.212132 -0.381142 0.212132
v -0.249441 -0.381142 0.166671
v -0.249441 0.381142 0.166671
v -0.212132 0.381142 0.212132
v -0.277164 -0.381142 0.114805
v -0.294236 -0.381142 0.058527
v -0.294236 0.381142 0.058527
v -0.277164 0.381142 0.114805
v -0.300000 -0.381142 0.000000
v -0.294236 -0.381142 -0.058527
v -0.294236 0.381142 -0.058527
v -0.300000 0.381142 0.000000
v -0.277164 -0.381142 -0.114805
v -0.249441 -0.381142 -0.166671
v -0.249441 0.381142 -0.166671
v -0.277164 0.381142 -0.114805
v -0.212132 -0.381142 -0.212132
v -0.166671 -0.381142 -0.249441
v -0.166671 0.381142 -0.249441
v -0.212132 0.381142 -0.212132
v -0.114805 -0.381142 -0.277164
v -0.058527 -0.381142 -0.294236
v -0.058527 0.381142 -0.294236
v -0.114805 0.381142 -0.277164
v -0.000000 -0.371725 -0.324972
v 0.063399 -0.371725 -0.318728
v 0.063399 0.371725 -0.318728
v -0.000000 0.371725 -0.324972
v 0.124362 -0.371725 -0.300235
v 0.180545 -0.371725 -0.270205
v 0.180545 0.371725 -0.270205
v 0.124362 0.371725 -0.300235
v 0.229790 -0.371725 -0.229790
v 0.270205 -0.371725 -0.180545
v 0.270205 0.371725 -0.180545
v 0.229790 0.371725 -0.229790
v 0.300235 -0.371725 -0.124362
v 0.318728 -0.371725 -0.063399
v 0.318728 0.371725 -0.063399
v 0.300235 0.371725 -0.124362
v 0.324972 -0.371725 0.000000
v 0.318728 -0.371725 0.063399
v 0.318728 0.371725 0.063399
v 0.324972 0.371725 0.000000
v 0.300235 -0.371725 0.124362
v 0.270205 -0.371725 0.180545
v 0.270205 0.371725 0.180545
v 0.300235 0.371725 0.124362
v 0.229790 -0.371725 0.229790
v 0.180545 -0.371725 0.270205
v 0.180545 0.371725 0.270205
v 0.229790 0.371725 0.229790
v 0.124362 -0.371725 0.300235
v 0.063399 -0.371725 0.318728
v 0.063399 0.371725 0.318728
v 0.124362 0.371725 0.300235
v -0.000000 -0.371725 0.324972
v -0.063399 -0.371725 0.318728
v -0.063399 0.371725 0.318728
v -0.000000 0.371725 0.324972
v -0.124362 -0.371725 0.300235
v -0.180545 -0.371725 0.270205
v -0.180545 0.371725 0.270205
v -0.124362 0.371725 0.300235
v -0.229790 -0.371725 0.229790
v -0.270205 -0.371725 0.180545
v -0.270205 0.371725 0.180545
v -0.229790 0.371725 0.229790
v -0.300235 -0.371725 0.124362
v -0.318728 -0.371725 0.063399
v -0.318728 0.371725 0.063399
v -0.300235 0.371725 0.124362
v -0.324972 -0.371725 0.000000
v -0.318728 -0.371725 -0.063399
v -0.318728 0.371725 -0.063399
v -0.324972 0.371725 0.000000
v -0.300235 -0.371725 -0.124362
v -0.270205 -0.371725 -0.180545
v -0.270205 0.371725 -0.180545
v -0.300235 0.371725 -0.124362
v -0.229790 -0.371725 -0.229790
v -0.180545 -0.371725 -0.270205
v -0.180545 0.371725 -0.270205
v -0.229790 0.371725 -0.229790
v -0.124362 -0.371725 -0.300235
v -0.063399 -0.371725 -0.318728
v -0.063399 0.371725 -0.318728
v -0.124362 0.371725 -0.300235
v -0.000000 0.274388 -0.324972
v 0.063399 0.274388 -0.318728
v 0.124362 0.274388 -0.300235
v 0.180545 0.274388 -0.270205
v 0.229790 0.274388 -0.229790
v 0.270205 0.274388 -0.180545
v 0.300235 0.274388 -0.124362
v 0.318728 0.274388 -0.063399
v 0.324972 0.274388 0.000000
v 0.318728 0.274388 0.063399
v 0.300235 0.274388 0.124362
v 0.270205 0.274388 0.180545
v 0.229790 0.274388 0.229790
v 0.180545 0.274388 0.270205
v 0.124362 0.274388 0.300235
v 0.063399 0.274388 0.318728
v -0.000000 0.274388 0.324972
v -0.063399 0.274388 0.318728
v -0.124362 0.274388 0.300235
v -0.180545 0.274388 0.270205
v -0.229790 0.274388 0.229790
v -0.270205 0.274388 0.180545
v -0.300235 0.274388 0.124362
v -0.318728 0.274388 0.063399
v -0.324972 0.274388 0.000000
v -0.318728 0.274388 -0.063399
v -0.300235 0.274388 -0.124362
v -0.270205 0.274388 -0.180545
v -0.229790 0.274388 -0.229790
v -0.180545 0.274388 -0.270205
v -0.124362 0.274388 -0.300235
v -0.063399 0.274388 -0.318728
v 0.063399 -0.268730 -0.318728
v 0.124362 -0.268730 -0.300235
v 0.180545 -0.268730 -0.270205
v 0.229790 -0.268730 -0.229790
v 0.270205 -0.268730 -0.180545
v 0.300235 -0.268730 -0.124362
v 0.318728 -0.268730 -0.063399
v 0.324972 -0.268730 0.000000
v 0.318728 -0.268730 0.063399
v 0.300235 -0.268730 0.124362
v 0.270205 -0.268730 0.180545
v 0.229790 -0.268730 0.229790
v 0.180545 -0.268730 0.270205
v 0.124362 -0.268730 0.300235
v 0.063399 -0.268730 0.318728
v -0.000000 -0.268730 0.324972
v -0.063399 -0.268730 0.318728
v -0.124362 -0.268730 0.300235
v -0.180545 -0.268730 0.270205
v -0.229790 -0.268730 0.229790
v -0.270205 -0.268730 0.180545
v -0.300235 -0.268730 0.124362
v -0.318728 -0.268730 0.063399
v -0.324972 -0.268730 0.000000
v -0.318728 -0.268730 -0.063399
v -0.300235 -0.268730 -0.124362
v -0.270205 -0.268730 -0.180545
v -0.229790 -0.268730 -0.229790
v -0.180545 -0.268730 -0.270205
v -0.124362 -0.268730 -0.300235
v -0.063399 -0.268730 -0.318728
v -0.000000 -0.268730 -0.324972
vn -0.4156 -0.3219 0.8507
vn -0.4156 0.3219 0.8507
vn 0.2417 -0.3219 0.9154
vn 0.2417 0.3219 0.9154
vn -0.7095 -0.3219 0.6269
vn -0.7095 0.3219 0.6269
vn -0.1270 -0.3219 0.9382
vn -0.1270 0.3219 0.9382
vn -0.8954 -0.3219 0.3076
vn -0.8954 0.3219 0.3076
vn -0.4764 -0.3219 0.8182
vn -0.4764 0.3219 0.8182
vn -0.9450 -0.3219 -0.0585
vn -0.9450 0.3219 -0.0585
vn -0.7532 -0.3219 0.5736
vn -0.7532 0.3219 0.5736
vn -0.8507 -0.3219 -0.4156
vn -0.8507 0.3219 -0.4156
vn -0.9154 -0.3219 0.2417
vn -0.9154 0.3219 0.2417
vn -0.6269 -0.3219 -0.7095
vn -0.6269 0.3219 -0.7095
vn -0.9382 -0.3219 -0.1270
vn -0.9382 0.3219 -0.1270
vn -0.3076 -0.3219 -0.8954
vn -0.3076 0.3219 -0.8954
vn -0.8182 -0.3219 -0.4764
vn -0.8182 0.3219 -0.4764
vn 0.0585 -0.3219 -0.9450
vn 0.0585 0.3219 -0.9450
vn -0.5736 -0.3219 -0.7532
vn -0.5736 0.3219 -0.7532
vn 0.4156 -0.3219 -0.8507
vn 0.4156 0.3219 -0.8507
vn -0.2417 -0.3219 -0.9154
vn -0.2417 0.3219 -0.9154
vn 0.7095 -0.3219 -0.6269
vn 0.7095 0.3219 -0.6269
vn 0.1270 -0.3219 -0.9382
vn 0.1270 0.3219 -0.9382
vn 0.8954 -0.3219 -0.3076
vn 0.8954 0.3219 -0.3076
vn 0.4764 -0.3219 -0.8182
vn 0.4764 0.3219 -0.8182
vn 0.9450 -0.3219 0.0585
vn 0.9450 0.3219 0.0585
vn 0.7532 -0.3219 -0.5736
vn 0.7532 0.3219 -0.5736
vn 0.8507 -0.3219 0.4156
vn 0.8507 0.3219 0.4156
vn 0.9154 -0.3219 -0.2417
vn 0.9154 0.3219 -0.2417
vn 0.6269 -0.3219 0.7095
vn 0.6269 0.3219 0.7095
vn 0.9382 -0.3219 0.1270
vn 0.9382 0.3219 0.1270
vn 0.3076 -0.3219 0.8954
vn 0.3076 0.3219 0.8954
vn 0.8182 -0.3219 0.4764
vn 0.8182 0.3219 0.4764
vn -0.0585 -0.3219 0.9450
vn -0.0585 0.3219 0.9450
vn 0.5736 -0.3219 0.7532
vn 0.5736 0.3219 0.7532
vn -0.2154 -0.2606 -0.9411
vn 0.3949 -0.2606 -0.8810
vn 0.3949 0.2606 -0.8810
vn -0.2154 0.2606 -0.9411
vn 0.1611 -0.2606 -0.9519
vn 0.1611 0.2606 -0.9519
vn 0.7020 -0.2606 -0.6628
vn 0.7020 0.2606 -0.6628
vn 0.5131 -0.2606 -0.8178
vn 0.5131 0.2606 -0.8178
vn 0.9022 -0.2606 -0.3437
vn 0.9022 0.2606 -0.3437
vn 0.7870 -0.2606 -0.5592
vn 0.7870 0.2606 -0.5592
vn 0.9650 -0.2606 0.0277
vn 0.9650 0.2606 0.0277
vn 0.9411 -0.2606 -0.2154
vn 0.9411 0.2606 -0.2154
vn 0.8810 -0.2606 0.3949
vn 0.8810 0.2606 0.3949
vn 0.9519 -0.2606 0.1611
vn 0.9519 0.2606 0.1611
vn 0.6628 -0.2606 0.7020
vn 0.6628 0.2606 0.7020
vn 0.8178 -0.2606 0.5131
vn 0.8178 0.2606 0.5131
vn 0.3437 -0.2606 0.9022
vn 0.3437 0.2606 0.9022
vn 0.5592 -0.2606 0.7870
vn 0.5592 0.2606 0.7870
vn -0.0277 -0.2606 0.9650
vn -0.0277 0.2606 0.9650
vn 0.2154 -0.2606 0.9411
vn 0.2154 0.2606 0.9411
vn -0.3949 -0.2606 0.8810
vn -0.3949 0.2606 0.8810
vn -0.1611 -0.2606 0.9519
vn -0.1611 0.2606 0.9519
vn -0.7020 -0.2606 0.6628
vn -0.7020 0.2606 0.6628
vn -0.5131 -0.2606 0.8178
vn -0.5131 0.2606 0.8178
vn -0.9022 -0.2606 0.3437
vn -0.9022 0.2606 0.3437
vn -0.7870 -0.2606 0.5592
vn -0.7870 0.2606 0.5592
vn -0.9650 -0.2606 -0.0277
vn -0.9650 0.2606 -0.0277
vn -0.9411 -0.2606 0.2154
vn -0.9411 0.2606 0.2154
vn -0.8810 -0.2606 -0.3949
vn -0.8810 0.2606 -0.3949
vn -0.9519 -0.2606 -0.1611
vn -0.9519 0.2606 -0.1611
vn -0.6628 -0.2606 -0.7020
vn -0.6628 0.2606 -0.7020
vn -0.8178 -0.2606 -0.5131
vn -0.8178 0.2606 -0.5131
vn -0.3437 -0.2606 -0.9022
vn -0.3437 0.2606 -0.9022
vn -0.5592 -0.2606 -0.7870
vn -0.5592 0.2606 -0.7870
vn 0.0277 -0.2606 -0.9650
vn 0.0277 0.2606 -0.9650
vn -0.5797 -0.6899 0.4335
vn 0.4840 -0.6899 0.5383
vn 0.4840 0.6899 0.5383
vn -0.5797 0.6899 0.4335
vn -0.7015 -0.6899 0.1787
vn 0.2412 -0.6899 0.6825
vn 0.2412 0.6899 0.6825
vn -0.7015 0.6899 0.1787
vn -0.7165 -0.6899 -0.1034
vn -0.0384 -0.6899 0.7229
vn -0.0384 0.6899 0.7229
vn -0.7165 0.6899 -0.1034
vn -0.6224 -0.6899 -0.3697
vn -0.3121 -0.6899 0.6531
vn -0.3121 0.6899 0.6531
vn -0.6224 0.6899 -0.3697
vn -0.4335 -0.6899 -0.5797
vn -0.5383 -0.6899 0.4840
vn -0.5383 0.6899 0.4840
vn -0.4335 0.6899 -0.5797
vn -0.1787 -0.6899 -0.7015
vn -0.6825 -0.6899 0.2412
vn -0.6825 0.6899 0.2412
vn -0.1787 0.6899 -0.7015
vn 0.1034 -0.6899 -0.7165
vn -0.7229 -0.6899 -0.0384
vn -0.7229 0.6899 -0.0384
vn 0.1034 0.6899 -0.7165
vn 0.3697 -0.6899 -0.6224
vn -0.6531 -0.6899 -0.3121
vn -0.6531 0.6899 -0.3121
vn 0.3697 0.6899 -0.6224
vn 0.5797 -0.6899 -0.4335
vn -0.4840 -0.6899 -0.5383
vn -0.4840 0.6899 -0.5383
vn 0.5797 0.6899 -0.4335
vn 0.7015 -0.6899 -0.1787
vn -0.2412 -0.6899 -0.6825
vn -0.2412 0.6899 -0.6825
vn 0.7015 0.6899 -0.1787
vn 0.7165 -0.6899 0.1034
vn 0.0384 -0.6899 -0.7229
vn 0.0384 0.6899 -0.7229
vn 0.7165 0.6899 0.1034
vn 0.6224 -0.6899 0.3697
vn 0.3121 -0.6899 -0.6531
vn 0.3121 0.6899 -0.6531
vn 0.6224 0.6899 0.3697
vn 0.4335 -0.6899 0.5797
vn 0.5383 -0.6899 -0.4840
vn 0.5383 0.6899 -0.4840
vn 0.4335 0.6899 0.5797
vn 0.1787 -0.6899 0.7015
vn 0.6825 -0.6899 -0.2412
vn 0.6825 0.6899 -0.2412
vn 0.1787 0.6899 0.7015
vn -0.1034 -0.6899 0.7165
vn 0.7229 -0.6899 0.0384
vn 0.7229 0.6899 0.0384
vn -0.1034 0.6899 0.7165
vn -0.3697 -0.6899 0.6224
vn 0.6531 -0.6899 0.3121
vn 0.6531 0.6899 0.3121
vn -0.3697 0.6899 0.6224
vn -0.5679 -0.4550 -0.6859
vn 0.6908 -0.4550 -0.5619
vn 0.6908 0.4550 -0.5619
vn -0.5679 0.4550 -0.6859
vn -0.2622 -0.4550 -0.8510
vn 0.8533 -0.4550 -0.2548
vn 0.8533 0.4550 -0.2548
vn -0.2622 0.4550 -0.8510
vn 0.0834 -0.4550 -0.8866
vn 0.8858 -0.4550 0.0911
vn 0.8858 0.4550 0.0911
vn 0.0834 0.4550 -0.8866
vn 0.4164 -0.4550 -0.7871
vn 0.7835 -0.4550 0.4232
vn 0.7835 0.4550 0.4232
vn 0.4164 0.4550 -0.7871
vn 0.6859 -0.4550 -0.5679
vn 0.5619 -0.4550 0.6908
vn 0.5619 0.4550 0.6908
vn 0.6859 0.4550 -0.5679
vn 0.8510 -0.4550 -0.2622
vn 0.2548 -0.4550 0.8533
vn 0.2548 0.4550 0.8533
vn 0.8510 0.4550 -0.2622
vn 0.8866 -0.4550 0.0834
vn -0.0911 -0.4550 0.8858
vn -0.0911 0.4550 0.8858
vn 0.8866 0.4550 0.0834
vn 0.7871 -0.4550 0.4164
vn -0.4232 -0.4550 0.7835
vn -0.4232 0.4550 0.7835
vn 0.7871 0.4550 0.4164
vn 0.5679 -0.4550 0.6859
vn -0.6908 -0.4550 0.5619
vn -0.6908 0.4550 0.5619
vn 0.5679 0.4550 0.6859
vn 0.2622 -0.4550 0.8510
vn -0.8533 -0.4550 0.2548
vn -0.8533 0.4550 0.2548
vn 0.2622 0.4550 0.8510
vn -0.0834 -0.4550 0.8866
vn -0.8858 -0.4550 -0.0911
vn -0.8858 0.4550 -0.0911
vn -0.0834 0.4550 0.8866
vn -0.4164 -0.4550 0.7871
vn -0.7835 -0.4550 -0.4232
vn -0.7835 0.4550 -0.4232
vn -0.4164 0.4550 0.7871
vn -0.6859 -0.4550 0.5679
vn -0.5619 -0.4550 -0.6908
vn -0.5619 0.4550 -0.6908
vn -0.6859 0.4550 0.5679
vn -0.8510 -0.4550 0.2622
vn -0.2548 -0.4550 -0.8533
vn -0.2548 0.4550 -0.8533
vn -0.8510 0.4550 0.2622
vn -0.8866 -0.4550 -0.0834
vn 0.0911 -0.4550 -0.8858
vn 0.0911 0.4550 -0.8858
vn -0.8866 0.4550 -0.0834
vn -0.7871 -0.4550 -0.4164
vn 0.4232 -0.4550 -0.7835
vn 0.4232 0.4550 -0.7835
vn -0.7871 0.4550 -0.4164
vn -0.0000 -0.0000 -1.0000
vn 0.1951 -0.0000 -0.9808
vn 0.3827 -0.0000 -0.9239
vn 0.5556 -0.0000 -0.8315
vn 0.7071 -0.0000 -0.7071
vn 0.8315 -0.0000 -0.5556
vn 0.9239 -0.0000 -0.3827
vn 0.9808 -0.0000 -0.1951
vn 1.0000 -0.0000 -0.0000
vn 0.9808 -0.0000 0.1951
vn 0.9239 -0.0000 0.3827
vn 0.8315 -0.0000 0.5556
vn 0.7071 -0.0000 0.7071
vn 0.5556 -0.0000 0.8315
vn 0.3827 -0.0000 0.9239
vn 0.1951 -0.0000 0.9808
vn -0.0000 -0.0000 1.0000
vn -0.1951 -0.0000 0.9808
vn -0.3827 -0.0000 0.9239
vn -0.5556 -0.0000 0.8315
vn -0.7071 -0.0000 0.7071
vn -0.8315 -0.0000 0.5556
vn -0.9239 -0.0000 0.3827
vn -0.9808 -0.0000 0.1951
vn -1.0000 -0.0000 -0.0000
vn -0.9808 -0.0000 -0.1951
vn -0.9239 -0.0000 -0.3827
vn -0.8315 -0.0000 -0.5556
vn -0.7071 -0.0000 -0.7071
vn -0.5556 -0.0000 -0.8315
vn -0.3827 -0.0000 -0.9239
vn -0.1951 -0.0000 -0.9808
vt 1.000000 0.500000
vt 0.968750 0.500000
vt 0.968750 1.000000
vt 1.000000 1.000000
vt 0.937500 0.500000
vt 0.937500 1.000000
vt 0.906250 0.500000
vt 0.906250 1.000000
vt 0.875000 0.500000
vt 0.875000 1.000000
vt 0.843750 0.500000
vt 0.843750 1.000000
vt 0.812500 0.500000
vt 0.812500 1.000000
vt 0.781250 0.500000
vt 0.781250 1.000000
vt 0.750000 0.500000
vt 0.750000 1.000000
vt 0.718750 0.500000
vt 0.718750 1.000000
vt 0.687500 0.500000
vt 0.687500 1.000000
vt 0.656250 0.500000
vt 0.656250 1.000000
vt 0.625000 0.500000
vt 0.625000 1.000000
vt 0.593750 0.500000
vt 0.593750 1.000000
vt 0.562500 0.500000
vt 0.562500 1.000000
vt 0.531250 0.500000
vt 0.531250 1.000000
vt 0.500000 0.500000
vt 0.500000 1.000000
vt 0.468750 0.500000
vt 0.468750 1.000000
vt 0.437500 0.500000
vt 0.437500 1.000000
vt 0.406250 0.500000
vt 0.406250 1.000000
vt 0.375000 0.500000
vt 0.375000 1.000000
vt 0.343750 0.500000
vt 0.343750 1.000000
vt 0.312500 0.500000
vt 0.312500 1.000000
vt 0.281250 0.500000
vt 0.281250 1.000000
vt 0.250000 0.500000
vt 0.250000 1.000000
vt 0.218750 0.500000
vt 0.218750 1.000000
vt 0.187500 0.500000
vt 0.187500 1.000000
vt 0.156250 0.500000
vt 0.156250 1.000000
vt 0.125000 0.500000
vt 0.125000 1.000000
vt 0.093750 0.500000
vt 0.093750 1.000000
vt 0.062500 0.500000
vt 0.062500 1.000000
vt 0.968750 0.984450
vt 0.937500 0.984450
vt 0.031250 0.500000
vt 0.031250 1.000000
vt 0.000000 0.500000
vt 0.000000 1.000000
vt 1.000000 0.984450
vt 0.906250 0.984450
vt 0.875000 0.984450
vt 0.843750 0.984450
vt 0.812500 0.984450
vt 0.781250 0.984450
vt 0.750000 0.984450
vt 0.718750 0.984450
vt 0.687500 0.984450
vt 0.656250 0.984450
vt 0.625000 0.984450
vt 0.593750 0.984450
vt 0.562500 0.984450
vt 0.531250 0.984450
vt 0.500000 0.984450
vt 0.468750 0.984450
vt 0.437500 0.984450
vt 0.406250 0.984450
vt 0.375000 0.984450
vt 0.343750 0.984450
vt 0.312500 0.984450
vt 0.281250 0.984450
vt 0.250000 0.984450
vt 0.218750 0.984450
vt 0.187500 0.984450
vt 0.156250 0.984450
vt 0.125000 0.984450
vt 0.093750 0.984450
vt 0.062500 0.984450
vt 0.031250 0.984450
vt 0.000000 0.984450
vt 0.031250 0.520385
vt 0.000000 0.520385
vt 0.062500 0.520385
vt 0.093750 0.520385
vt 0.125000 0.520385
vt 0.156250 0.520385
vt 0.187500 0.520385
vt 0.218750 0.520385
vt 0.250000 0.520385
vt 0.281250 0.520385
vt 0.312500 0.520385
vt 0.343750 0.520385
vt 0.375000 0.520385
vt 0.406250 0.520385
vt 0.437500 0.520385
vt 0.468750 0.520385
vt 0.500000 0.520385
vt 0.531250 0.520385
vt 0.562500 0.520385
vt 0.593750 0.520385
vt 0.625000 0.520385
vt 0.656250 0.520385
vt 0.687500 0.520385
vt 0.718750 0.520385
vt 0.750000 0.520385
vt 0.781250 0.520385
vt 0.812500 0.520385
vt 0.843750 0.520385
vt 0.875000 0.520385
vt 0.906250 0.520385
vt 0.937500 0.520385
vt 1.000000 0.520385
vt 0.968750 0.520385
s 1
f 1/1/1 3/2/3 4/3/4 2/4/2
f 3/2/3 5/5/5 6/6/6 4/3/4
f 5/5/5 7/7/7 8/8/8 6/6/6
f 7/7/7 9/9/9 10/10/10 8/8/8
f 9/9/9 11/11/11 12/12/12 10/10/10
f 11/11/11 13/13/13 14/14/14 12/12/12
f 13/13/13 15/15/15 16/16/16 14/14/14
f 15/15/15 17/17/17 18/18/18 16/16/16
f 17/17/17 19/19/19 20/20/20 18/18/18
f 19/19/19 21/21/21 22/22/22 20/20/20
f 21/21/21 23/23/23 24/24/24 22/22/22
f 23/23/23 25/25/25 26/26/26 24/24/24
f 25/25/25 27/27/27 28/28/28 26/26/26
f 27/27/27 29/29/29 30/30/30 28/28/28
f 29/29/29 31/31/31 32/32/32 30/30/30
f 31/31/31 33/33/33 34/34/34 32/32/32
f 33/33/33 35/35/35 36/36/36 34/34/34
f 35/35/35 37/37/37 38/38/38 36/36/36
f 37/37/37 39/39/39 40/40/40 38/38/38
f 39/39/39 41/41/41 42/42/42 40/40/40
f 41/41/41 43/43/43 44/44/44 42/42/42
f 43/43/43 45/45/45 46/46/46 44/44/44
f 45/45/45 47/47/47 48/48/48 46/46/46
f 47/47/47 49/49/49 50/50/50 48/48/48
f 49/49/49 51/51/51 52/52/52 50/50/50
f 51/51/51 53/53/53 54/54/54 52/52/52
f 53/53/53 55/55/55 56/56/56 54/54/54
f 55/55/55 57/57/57 58/58/58 56/56/56
f 57/57/57 59/59/59 60/60/60 58/58/58
f 59/59/59 61/61/61 62/62/62 60/60/60
f 258/63/258 67/3/67 70/6/70 259/64/259
f 61/61/61 63/65/63 64/66/64 62/62/62
f 63/65/63 1/67/1 2/68/2 64/66/64
f 257/69/257 68/4/68 67/3/67 258/63/258
f 259/64/259 70/6/70 72/8/72 260/70/260
f 260/70/260 72/8/72 74/10/74 261/71/261
f 261/71/261 74/10/74 76/12/76 262/72/262
f 262/72/262 76/12/76 78/14/78 263/73/263
f 263/73/263 78/14/78 80/16/80 264/74/264
f 264/74/264 80/16/80 82/18/82 265/75/265
f 265/75/265 82/18/82 84/20/84 266/76/266
f 266/76/266 84/20/84 86/22/86 267/77/267
f 267/77/267 86/22/86 88/24/88 268/78/268
f 268/78/268 88/24/88 90/26/90 269/79/269
f 269/79/269 90/26/90 92/28/92 270/80/270
f 270/80/270 92/28/92 94/30/94 271/81/271
f 271/81/271 94/30/94 96/32/96 272/82/272
f 272/82/272 96/32/96 98/34/98 273/83/273
f 273/83/273 98/34/98 100/36/100 274/84/274
f 274/84/274 100/36/100 102/38/102 275/85/275
f 275/85/275 102/38/102 104/40/104 276/86/276
f 276/86/276 104/40/104 106/42/106 277/87/277
f 277/87/277 106/42/106 108/44/108 278/88/278
f 278/88/278 108/44/108 110/46/110 279/89/279
f 279/89/279 110/46/110 112/48/112 280/90/280
f 280/90/280 112/48/112 114/50/114 281/91/281
f 281/91/281 114/50/114 116/52/116 282/92/282
f 282/92/282 116/52/116 118/54/118 283/93/283
f 283/93/283 118/54/118 120/56/120 284/94/284
f 284/94/284 120/56/120 122/58/122 285/95/285
f 285/95/285 122/58/122 124/60/124 286/96/286
f 286/96/286 124/60/124 126/62/126 287/97/287
f 287/97/287 126/62/126 128/66/128 288/98/288
f 288/98/288 128/66/128 68/68/68 257/99/257
f 54/54/54 56/56/56 183/56/183 184/54/184
f 4/3/4 6/6/6 70/6/70 67/3/67
f 41/41/41 39/39/39 103/39/103 105/41/105
f 49/49/49 113/49/113 241/49/241 177/49/177
f 124/60/124 122/58/122 252/58/252 251/60/251
f 40/40/40 42/42/42 106/42/106 104/40/104
f 55/55/55 53/53/53 181/53/181 182/55/182
f 78/14/78 14/14/14 144/14/144 208/14/208
f 25/25/25 23/23/23 87/23/87 89/25/89
f 121/57/121 123/59/123 250/59/250 249/57/249
f 95/31/95 31/31/31 158/31/158 222/31/222
f 24/24/24 26/26/26 90/26/90 88/24/88
f 61/61/61 59/59/59 123/59/123 125/61/125
f 18/18/18 20/20/20 147/20/147 148/18/148
f 9/9/9 7/7/7 71/7/71 73/9/73
f 60/60/60 62/62/62 126/62/126 124/60/124
f 68/68/68 2/68/2 132/68/132 196/68/196
f 8/8/8 10/10/10 74/10/74 72/8/72
f 45/45/45 43/43/43 107/43/107 109/45/109
f 88/24/88 86/22/86 216/22/216 215/24/215
f 19/19/19 17/17/17 145/17/145 146/19/146
f 44/44/44 46/46/46 110/46/110 108/44/108
f 13/13/13 77/13/77 205/13/205 141/13/141
f 85/21/85 87/23/87 214/23/214 213/21/213
f 29/29/29 27/27/27 91/27/91 93/29/93
f 48/48/48 112/48/112 239/48/239 175/48/175
f 50/50/50 52/52/52 179/52/179 180/50/180
f 28/28/28 30/30/30 94/30/94 92/28/92
f 1/67/1 63/65/63 127/65/127 65/67/65
f 1/67/1 65/67/65 193/67/193 129/67/129
f 13/13/13 11/11/11 75/11/75 77/13/77
f 64/66/64 2/68/2 68/68/68 128/66/128
f 120/56/120 118/54/118 248/54/248 247/56/247
f 12/12/12 14/14/14 78/14/78 76/12/76
f 49/49/49 47/47/47 111/47/111 113/49/113
f 51/51/51 49/49/49 177/49/177 178/51/178
f 48/48/48 50/50/50 114/50/114 112/48/112
f 94/30/94 30/30/30 160/30/160 224/30/224
f 33/33/33 31/31/31 95/31/95 97/33/97
f 117/53/117 119/55/119 246/55/246 245/53/245
f 111/47/111 47/47/47 174/47/174 238/47/238
f 32/32/32 34/34/34 98/34/98 96/32/96
f 14/14/14 16/16/16 143/16/143 144/14/144
f 17/17/17 15/15/15 79/15/79 81/17/81
f 12/12/12 76/12/76 203/12/203 139/12/139
f 16/16/16 18/18/18 82/18/82 80/16/80
f 53/53/53 51/51/51 115/51/115 117/53/117
f 84/20/84 82/18/82 212/18/212 211/20/211
f 52/52/52 54/54/54 118/54/118 116/52/116
f 15/15/15 13/13/13 141/13/141 142/15/142
f 37/37/37 35/35/35 99/35/99 101/37/101
f 29/29/29 93/29/93 221/29/221 157/29/157
f 81/17/81 83/19/83 210/19/210 209/17/209
f 64/66/64 128/66/128 255/66/255 191/66/191
f 36/36/36 38/38/38 102/38/102 100/36/100
f 46/46/46 48/48/48 175/48/175 176/46/176
f 75/11/75 11/11/11 138/11/138 202/11/202
f 21/21/21 19/19/19 83/19/83 85/21/85
f 116/52/116 114/50/114 244/50/244 243/52/243
f 20/20/20 22/22/22 86/22/86 84/20/84
f 57/57/57 55/55/55 119/55/119 121/57/121
f 47/47/47 45/45/45 173/45/173 174/47/174
f 5/5/5 3/2/3 66/2/66 69/5/69
f 56/56/56 58/58/58 122/58/122 120/56/120
f 150/23/150 149/21/149 213/21/213 214/23/214
f 152/22/152 151/24/151 215/24/215 216/22/216
f 186/59/186 185/57/185 249/57/249 250/59/250
f 134/7/134 133/5/133 197/5/197 198/7/198
f 188/58/188 187/60/187 251/60/251 252/58/252
f 136/6/136 135/8/135 199/8/199 200/6/200
f 170/43/170 169/41/169 233/41/233 234/43/234
f 172/42/172 171/44/171 235/44/235 236/42/236
f 154/27/154 153/25/153 217/25/217 218/27/218
f 156/26/156 155/28/155 219/28/219 220/26/220
f 190/65/190 189/61/189 253/61/253 254/65/254
f 138/11/138 137/9/137 201/9/201 202/11/202
f 192/62/192 191/66/191 255/66/255 256/62/256
f 140/10/140 139/12/139 203/12/203 204/10/204
f 174/47/174 173/45/173 237/45/237 238/47/238
f 176/46/176 175/48/175 239/48/239 240/46/240
f 158/31/158 157/29/157 221/29/221 222/31/222
f 160/30/160 159/32/159 223/32/223 224/30/224
f 142/15/142 141/13/141 205/13/205 206/15/206
f 144/14/144 143/16/143 207/16/207 208/14/208
f 178/51/178 177/49/177 241/49/241 242/51/242
f 180/50/180 179/52/179 243/52/243 244/50/244
f 162/35/162 161/33/161 225/33/225 226/35/226
f 164/34/164 163/36/163 227/36/227 228/34/228
f 146/19/146 145/17/145 209/17/209 210/19/210
f 148/18/148 147/20/147 211/20/211 212/18/212
f 130/2/130 129/1/129 193/1/193 194/2/194
f 182/55/182 181/53/181 245/53/245 246/55/246
f 132/4/132 131/3/131 195/3/195 196/4/196
f 184/54/184 183/56/183 247/56/247 248/54/248
f 166/39/166 165/37/165 229/37/229 230/39/230
f 168/38/168 167/40/167 231/40/231 232/38/232
f 32/32/32 96/32/96 223/32/223 159/32/159
f 89/25/89 91/27/91 218/27/218 217/25/217
f 114/50/114 50/50/50 180/50/180 244/50/244
f 23/23/23 21/21/21 149/21/149 150/23/150
f 92/28/92 90/26/90 220/26/220 219/28/219
f 79/15/79 15/15/15 142/15/142 206/15/206
f 22/22/22 24/24/24 151/24/151 152/22/152
f 33/33/33 97/33/97 225/33/225 161/33/161
f 125/61/125 127/65/127 254/65/254 253/61/253
f 16/16/16 80/16/80 207/16/207 143/16/143
f 59/59/59 57/57/57 185/57/185 186/59/186
f 128/66/128 126/62/126 256/62/256 255/66/255
f 115/51/115 51/51/51 178/51/178 242/51/242
f 58/58/58 60/60/60 187/60/187 188/58/188
f 98/34/98 34/34/34 164/34/164 228/34/228
f 93/29/93 95/31/95 222/31/222 221/29/221
f 52/52/52 116/52/116 243/52/243 179/52/179
f 27/27/27 25/25/25 153/25/153 154/27/154
f 96/32/96 94/30/94 224/30/224 223/32/223
f 17/17/17 81/17/81 209/17/209 145/17/145
f 21/21/21 85/21/85 213/21/213 149/21/149
f 26/26/26 28/28/28 155/28/155 156/26/156
f 99/35/99 35/35/35 162/35/162 226/35/226
f 87/23/87 23/23/23 150/23/150 214/23/214
f 82/18/82 18/18/18 148/18/148 212/18/212
f 63/65/63 61/61/61 189/61/189 190/65/190
f 70/6/70 6/6/6 136/6/136 200/6/200
f 53/53/53 117/53/117 245/53/245 181/53/181
f 62/62/62 64/66/64 191/66/191 192/62/192
f 4/3/4 67/3/67 195/3/195 131/3/131
f 36/36/36 100/36/100 227/36/227 163/36/163
f 103/39/103 39/39/39 166/39/166 230/39/230
f 97/33/97 99/35/99 226/35/226 225/33/225
f 118/54/118 54/54/54 184/54/184 248/54/248
f 41/41/41 105/41/105 233/41/233 169/41/169
f 31/31/31 29/29/29 157/29/157 158/31/158
f 100/36/100 98/34/98 228/34/228 227/36/227
f 83/19/83 19/19/19 146/19/146 210/19/210
f 24/24/24 88/24/88 215/24/215 151/24/151
f 30/30/30 32/32/32 159/32/159 160/30/160
f 37/37/37 101/37/101 229/37/229 165/37/165
f 65/1/65 66/2/66 194/2/194 193/1/193
f 86/22/86 22/22/22 152/22/152 216/22/216
f 20/20/20 84/20/84 211/20/211 147/20/147
f 67/3/67 68/4/68 196/4/196 195/3/195
f 57/57/57 121/57/121 249/57/249 185/57/185
f 66/2/66 3/2/3 130/2/130 194/2/194
f 123/59/123 59/59/59 186/59/186 250/59/250
f 119/55/119 55/55/55 182/55/182 246/55/246
f 106/42/106 42/42/42 172/42/172 236/42/236
f 101/37/101 103/39/103 230/39/230 229/37/229
f 102/38/102 38/38/38 168/38/168 232/38/232
f 40/40/40 104/40/104 231/40/231 167/40/167
f 35/35/35 33/33/33 161/33/161 162/35/162
f 104/40/104 102/38/102 232/38/232 231/40/231
f 56/56/56 120/56/120 247/56/247 183/56/183
f 5/5/5 69/5/69 197/5/197 133/5/133
f 34/34/34 36/36/36 163/36/163 164/34/164
f 71/7/71 7/7/7 134/7/134 198/7/198
f 3/2/3 1/1/1 129/1/129 130/2/130
f 69/5/69 71/7/71 198/7/198 197/5/197
f 60/60/60 124/60/124 251/60/251 187/60/187
f 2/4/2 4/3/4 131/3/131 132/4/132
f 72/8/72 70/6/70 200/6/200 199/8/199
f 122/58/122 58/58/58 188/58/188 252/58/252
f 25/25/25 89/25/89 217/25/217 153/25/153
f 105/41/105 107/43/107 234/43/234 233/41/233
f 8/8/8 72/8/72 199/8/199 135/8/135
f 39/39/39 37/37/37 165/37/165 166/39/166
f 108/44/108 106/42/106 236/42/236 235/44/235
f 107/43/107 43/43/43 170/43/170 234/43/234
f 38/38/38 40/40/40 167/40/167 168/38/168
f 90/26/90 26/26/26 156/26/156 220/26/220
f 73/9/73 75/11/75 202/11/202 201/9/201
f 61/61/61 125/61/125 253/61/253 189/61/189
f 7/7/7 5/5/5 133/5/133 134/7/134
f 76/12/76 74/10/74 204/10/204 203/12/203
f 44/44/44 108/44/108 235/44/235 171/44/171
f 6/6/6 8/8/8 135/8/135 136/6/136
f 9/9/9 73/9/73 201/9/201 137/9/137
f 109/45/109 111/47/111 238/47/238 237/45/237
f 126/62/126 62/62/62 192/62/192 256/62/256
f 43/43/43 41/41/41 169/41/169 170/43/170
f 112/48/112 110/46/110 240/46/240 239/48/239
f 91/27/91 27/27/27 154/27/154 218/27/218
f 42/42/42 44/44/44 171/44/171 172/42/172
f 74/10/74 10/10/10 140/10/140 204/10/204
f 77/13/77 79/15/79 206/15/206 205/13/205
f 45/45/45 109/45/109 237/45/237 173/45/173
f 11/11/11 9/9/9 137/9/137 138/11/138
f 80/16/80 78/14/78 208/14/208 207/16/207
f 28/28/28 92/28/92 219/28/219 155/28/155
f 10/10/10 12/12/12 139/12/139 140/10/140
f 127/65/127 63/65/63 190/65/190 254/65/254
f 113/49/113 115/51/115 242/51/242 241/49/241
f 110/46/110 46/46/46 176/46/176 240/46/240
f 319/100/288 288/98/288 257/99/257 320/101/257
f 318/102/287 287/97/287 288/98/288 319/100/288
f 317/103/286 286/96/286 287/97/287 318/102/287
f 316/104/285 285/95/285 286/96/286 317/103/286
f 315/105/284 284/94/284 285/95/285 316/104/285
f 314/106/283 283/93/283 284/94/284 315/105/284
f 313/107/282 282/92/282 283/93/283 314/106/283
f 312/108/281 281/91/281 282/92/282 313/107/282
f 311/109/280 280/90/280 281/91/281 312/108/281
f 310/110/279 279/89/279 280/90/280 311/109/280
f 309/111/278 278/88/278 279/89/279 310/110/279
f 308/112/277 277/87/277 278/88/278 309/111/278
f 307/113/276 276/86/276 277/87/277 308/112/277
f 306/114/275 275/85/275 276/86/276 307/113/276
f 305/115/274 274/84/274 275/85/275 306/114/275
f 304/116/273 273/83/273 274/84/274 305/115/274
f 303/117/272 272/82/272 273/83/273 304/116/273
f 302/118/271 271/81/271 272/82/272 303/117/272
f 301/119/270 270/80/270 271/81/271 302/118/271
f 300/120/269 269/79/269 270/80/270 301/119/270
f 299/121/268 268/78/268 269/79/269 300/120/269
f 298/122/267 267/77/267 268/78/268 299/121/268
f 297/123/266 266/76/266 267/77/267 298/122/267
f 296/124/265 265/75/265 266/76/266 297/123/266
f 295/125/264 264/74/264 265/75/265 296/124/265
f 294/126/263 263/73/263 264/74/264 295/125/264
f 293/127/262 262/72/262 263/73/263 294/126/263
f 292/128/261 261/71/261 262/72/262 293/127/262
f 291/129/260 260/70/260 261/71/261 292/128/261
f 290/130/259 259/64/259 260/70/260 291/129/260
f 320/131/257 257/69/257 258/63/258 289/132/258
f 289/132/258 258/63/258 259/64/259 290/130/259
f 66/2/66 289/132/258 290/130/259 69/5/69
f 65/1/65 320/131/257 289/132/258 66/2/66
f 69/5/69 290/130/259 291/129/260 71/7/71
f 71/7/71 291/129/260 292/128/261 73/9/73
f 73/9/73 292/128/261 293/127/262 75/11/75
f 75/11/75 293/127/262 294/126/263 77/13/77
f 77/13/77 294/126/263 295/125/264 79/15/79
f 79/15/79 295/125/264 296/124/265 81/17/81
f 81/17/81 296/124/265 297/123/266 83/19/83
f 83/19/83 297/123/266 298/122/267 85/21/85
f 85/21/85 298/122/267 299/121/268 87/23/87
f 87/23/87 299/121/268 300/120/269 89/25/89
f 89/25/89 300/120/269 301/119/270 91/27/91
f 91/27/91 301/119/270 302/118/271 93/29/93
f 93/29/93 302/118/271 303/117/272 95/31/95
f 95/31/95 303/117/272 304/116/273 97/33/97
f 97/33/97 304/116/273 305/115/274 99/35/99
f 99/35/99 305/115/274 306/114/275 101/37/101
f 101/37/101 306/114/275 307/113/276 103/39/103
f 103/39/103 307/113/276 308/112/277 105/41/105
f 105/41/105 308/112/277 309/111/278 107/43/107
f 107/43/107 309/111/278 310/110/279 109/45/109
f 109/45/109 310/110/279 311/109/280 111/47/111
f 111/47/111 311/109/280 312/108/281 113/49/113
f 113/49/113 312/108/281 313/107/282 115/51/115
f 115/51/115 313/107/282 314/106/283 117/53/117
f 117/53/117 314/106/283 315/105/284 119/55/119
f 119/55/119 315/105/284 316/104/285 121/57/121
f 121/57/121 316/104/285 317/103/286 123/59/123
f 123/59/123 317/103/286 318/102/287 125/61/125
f 125/61/125 318/102/287 319/100/288 127/65/127
f 127/65/127 319/100/288 320/101/257 65/67/65
