# Blender 4.5.4 LTS
# www.blender.org
mtllib potion.mtl
o Cylinder
v -0.051375 0.378611 0.039219
v 0.063147 0.378611 -0.013996
v -0.063297 0.378611 -0.014152
v 0.050067 0.378611 0.041024
v -0.028909 0.378611 -0.057739
v 0.000048 0.378611 0.064578
v 0.028545 0.378611 -0.057914
v 0.000048 0.407897 0.064578
v 0.050067 0.407897 0.041024
v 0.028545 0.407897 -0.057914
v -0.028909 0.407897 -0.057739
v 0.063147 0.407897 -0.013996
v -0.051375 0.407897 0.039219
v -0.063297 0.407897 -0.014152
v 0.000174 0.407897 0.091494
v 0.071088 0.407897 0.058101
v 0.040575 0.407897 -0.082169
v -0.040880 0.407897 -0.081920
v 0.089633 0.407897 -0.019903
v -0.072731 0.407897 0.055543
v -0.089634 0.407897 -0.020125
v 0.000174 0.433452 0.091494
v 0.071088 0.433452 0.058101
v 0.040575 0.433452 -0.082169
v -0.040880 0.433452 -0.081920
v 0.089633 0.433452 -0.019903
v -0.072731 0.433452 0.055543
v -0.089633 0.433452 -0.020125
v 0.000329 0.433147 0.074288
v 0.057734 0.433147 0.047256
v 0.033072 0.433147 -0.066646
v -0.033347 0.433147 -0.066442
v 0.072819 0.433147 -0.016197
v -0.059220 0.433147 0.044922
v -0.072899 0.433147 -0.016311
v 0.000174 0.433147 0.091494
v 0.071088 0.433147 0.058101
v 0.040575 0.433147 -0.082169
v -0.040880 0.433147 -0.081920
v 0.089633 0.433147 -0.019903
v -0.072731 0.433147 0.055543
v -0.089633 0.433147 -0.020125
v 0.000398 0.505063 0.083607
v 0.065015 0.505063 0.053179
v 0.037255 0.505063 -0.075036
v -0.037510 0.505063 -0.074807
v 0.081996 0.505063 -0.018248
v -0.066635 0.505063 0.050551
v -0.082032 0.505063 -0.018376
v 0.009855 -0.064468 -0.200814
v -0.009852 -0.064468 -0.200814
v -0.009115 -0.049044 -0.210733
v 0.009118 -0.049044 -0.210733
v 0.009257 0.031439 -0.206483
v 0.009118 0.011930 -0.210733
v -0.009115 0.011930 -0.210733
v -0.009268 0.031441 -0.206481
v 0.150860 -0.064468 -0.132909
v 0.159074 -0.049044 -0.138518
v 0.170442 -0.049044 -0.124262
v 0.163147 -0.064468 -0.117502
v 0.155680 0.031442 -0.135977
v 0.167226 0.031446 -0.121494
v 0.170442 0.011930 -0.124262
v 0.159074 0.011930 -0.138518
v 0.197972 -0.064468 0.035078
v 0.207478 -0.049044 0.038003
v 0.203421 -0.049044 0.055780
v 0.193587 -0.064468 0.054291
v 0.203371 0.031440 0.036936
v 0.199244 0.031445 0.054994
v 0.203421 0.011930 0.055780
v 0.207478 0.011930 0.038003
v 0.096009 -0.064468 0.176650
v 0.099648 -0.049044 0.185906
v 0.083221 -0.049044 0.193817
v 0.078253 -0.064468 0.185201
v 0.097932 0.031444 0.182034
v 0.081243 0.031447 0.190068
v 0.083221 0.011930 0.193817
v 0.099648 0.011930 0.185906
v -0.078250 -0.064468 0.185201
v -0.083218 -0.049044 0.193817
v -0.099645 -0.049044 0.185906
v -0.096006 -0.064468 0.176650
v -0.081261 0.031438 0.190045
v -0.097949 0.031443 0.182003
v -0.099645 0.011930 0.185906
v -0.083218 0.011930 0.193817
v -0.193584 -0.064468 0.054291
v -0.203418 -0.049044 0.055780
v -0.207475 -0.049044 0.038003
v -0.197969 -0.064468 0.035078
v -0.199267 0.031445 0.054963
v -0.203385 0.031449 0.036905
v -0.207475 0.011930 0.038003
v -0.203418 0.011930 0.055780
v -0.163144 -0.064468 -0.117502
v -0.170439 -0.049044 -0.124262
v -0.159071 -0.049044 -0.138518
v -0.150857 -0.064468 -0.132909
v -0.167229 0.031448 -0.121489
v -0.155684 0.031442 -0.135973
v -0.159071 0.011930 -0.138518
v -0.170439 0.011930 -0.124262
v 0.009593 -0.113732 -0.067507
v -0.009590 -0.113732 -0.067507
v -0.010117 -0.121161 -0.086110
v 0.010120 -0.121161 -0.086110
v 0.046800 -0.113732 -0.049590
v 0.061015 -0.121161 -0.061600
v 0.073633 -0.121161 -0.045778
v 0.058761 -0.113732 -0.034591
v 0.067950 -0.113732 0.005670
v 0.086204 -0.121161 0.009295
v 0.081700 -0.121161 0.029025
v 0.063681 -0.113732 0.024372
v 0.037933 -0.113732 0.056659
v 0.046480 -0.121161 0.073191
v 0.028246 -0.121161 0.081971
v 0.020650 -0.113732 0.064982
v -0.020647 -0.113732 0.064982
v -0.028243 -0.121161 0.081971
v -0.046477 -0.121161 0.073191
v -0.037930 -0.113732 0.056659
v -0.063678 -0.113732 0.024372
v -0.081697 -0.121161 0.029025
v -0.086201 -0.121161 0.009295
v -0.067947 -0.113732 0.005670
v -0.058758 -0.113732 -0.034591
v -0.073630 -0.121161 -0.045778
v -0.061013 -0.121161 -0.061600
v -0.046797 -0.113732 -0.049590
v 0.063806 0.296826 -0.062240
v 0.062667 0.311954 -0.049550
v 0.075304 0.296820 -0.047770
v -0.009444 0.296830 -0.088349
v -0.000156 0.311948 -0.079515
v 0.009098 0.296833 -0.088370
v 0.084157 0.296825 0.029196
v 0.088352 0.296835 0.011129
v 0.077638 0.311959 0.018159
v 0.046652 0.296826 0.076177
v 0.034496 0.311958 0.072218
v 0.029954 0.296816 0.084102
v -0.047141 0.296829 0.075387
v -0.030439 0.296839 0.083515
v -0.034907 0.311954 0.071467
v -0.088908 0.296820 0.010363
v -0.084782 0.296824 0.028403
v -0.078245 0.311967 0.017468
v -0.075567 0.296823 -0.047688
v -0.062836 0.311963 -0.049475
v -0.063997 0.296827 -0.062154
v 0.010120 -0.121161 -0.087239
v -0.010117 -0.121161 -0.087239
v -0.009852 -0.115856 -0.108162
v 0.009855 -0.115856 -0.108162
v 0.061898 -0.121161 -0.062304
v 0.078422 -0.115856 -0.075142
v 0.090709 -0.115856 -0.059734
v 0.074516 -0.121161 -0.046482
v 0.087304 -0.121161 0.009546
v 0.107643 -0.115856 0.014461
v 0.103258 -0.115856 0.033674
v 0.082801 -0.121161 0.029277
v 0.046970 -0.121161 0.074208
v 0.055809 -0.115856 0.093174
v 0.038053 -0.115856 0.101724
v 0.028736 -0.121161 0.082989
v -0.028733 -0.121161 0.082989
v -0.038050 -0.115856 0.101724
v -0.055806 -0.115856 0.093174
v -0.046967 -0.121161 0.074208
v -0.082798 -0.121161 0.029277
v -0.103255 -0.115856 0.033674
v -0.107640 -0.115856 0.014461
v -0.087301 -0.121161 0.009546
v -0.074513 -0.121161 -0.046482
v -0.090706 -0.115856 -0.059734
v -0.078419 -0.115856 -0.075142
v -0.061895 -0.121161 -0.062304
v 0.009593 -0.109608 -0.063275
v 0.000001 -0.102179 -0.049037
v -0.009590 -0.109608 -0.063275
v 0.043490 -0.109608 -0.046950
v 0.055451 -0.109608 -0.031952
v 0.038340 -0.102179 -0.030574
v 0.063823 -0.109608 0.004728
v 0.059554 -0.109608 0.023430
v 0.047808 -0.102179 0.010911
v 0.036097 -0.109608 0.052845
v 0.018813 -0.109608 0.061168
v 0.021278 -0.102179 0.044179
v -0.018810 -0.109608 0.061168
v -0.036094 -0.109608 0.052845
v -0.021275 -0.102179 0.044179
v -0.059551 -0.109608 0.023430
v -0.063820 -0.109608 0.004728
v -0.047805 -0.102179 0.010911
v -0.055448 -0.109608 -0.031952
v -0.043488 -0.109608 -0.046950
v -0.038337 -0.102179 -0.030574
vn 0.7686 0.1423 0.6237
vn 0.9667 0.1422 -0.2129
vn 0.9766 -0.0000 -0.2152
vn 0.7763 -0.0000 0.6304
vn -0.0000 -1.0000 -0.0000
vn -0.7782 0.1422 0.6117
vn -0.0089 0.1424 0.9898
vn -0.0090 -0.0000 1.0000
vn -0.7862 -0.0000 0.6180
vn 0.4307 0.1425 -0.8912
vn -0.4333 0.1422 -0.8899
vn -0.4376 -0.0000 -0.8992
vn 0.4352 -0.0000 -0.9004
vn -0.9651 0.1423 -0.2199
vn -0.9750 -0.0000 -0.2222
vn 0.4423 -0.0000 -0.8969
vn 0.7698 -0.1294 0.6251
vn 0.9683 -0.1297 -0.2133
vn 0.9683 -0.1297 -0.2135
vn 0.7697 -0.1294 0.6251
vn 0.0031 -0.0000 1.0000
vn 0.7851 -0.0000 0.6194
vn 0.9759 -0.0000 -0.2180
vn -0.7855 -0.0000 0.6189
vn -0.4260 -0.0000 -0.9047
vn -0.9729 -0.0000 -0.2313
vn -0.0000 1.0000 -0.0000
vn -0.7793 -0.1284 0.6134
vn -0.0096 -0.1285 0.9917
vn -0.0084 -0.1285 0.9917
vn -0.7800 -0.1284 0.6125
vn 0.4311 -0.1293 -0.8930
vn -0.4337 -0.1288 -0.8918
vn -0.4342 -0.1288 -0.8915
vn 0.4319 -0.1293 -0.8926
vn -0.9668 -0.1291 -0.2204
vn -0.9668 -0.1291 -0.2203
vn -0.0000 -0.5409 -0.8411
vn -0.0000 0.2129 -0.9771
vn 0.6576 -0.5409 -0.5244
vn 0.7641 0.2123 -0.6092
vn 0.8200 -0.5409 0.1872
vn 0.9526 0.2126 0.2175
vn 0.3649 -0.5409 0.7578
vn 0.4240 0.2121 0.8805
vn -0.3649 -0.5409 0.7578
vn -0.4240 0.2129 0.8803
vn -0.8200 -0.5409 0.1872
vn -0.9528 0.2118 0.2174
vn -0.6576 -0.5409 -0.5244
vn -0.7641 0.2122 -0.6092
vn -0.0000 -0.9287 0.3709
vn -0.2900 -0.9287 0.2312
vn -0.3616 -0.9287 -0.0825
vn -0.1609 -0.9287 -0.3341
vn 0.1609 -0.9287 -0.3341
vn 0.3616 -0.9287 -0.0825
vn 0.2900 -0.9287 0.2312
vn 0.6772 0.5022 -0.5379
vn -0.0011 0.5050 -0.8631
vn 0.8408 0.5048 0.1955
vn 0.3706 0.5021 0.7814
vn -0.3776 0.5064 0.7753
vn -0.8426 0.5029 0.1926
vn -0.6747 0.5037 -0.5395
vn -0.0000 -0.9693 -0.2458
vn 0.1921 -0.9693 -0.1532
vn 0.2396 -0.9693 0.0547
vn 0.1066 -0.9693 0.2214
vn -0.1066 -0.9693 0.2214
vn -0.2396 -0.9693 0.0547
vn -0.1921 -0.9693 -0.1532
vn -0.0000 -0.8866 0.4626
vn -0.3617 -0.8866 0.2884
vn -0.4510 -0.8866 -0.1029
vn -0.2007 -0.8866 -0.4168
vn 0.2007 -0.8866 -0.4168
vn 0.4510 -0.8866 -0.1029
vn 0.3617 -0.8866 0.2884
vn 0.3788 -0.4877 -0.7865
vn 0.4260 0.1895 -0.8847
vn -0.0000 -0.0000 -1.0000
vn 0.7818 -0.0000 -0.6235
vn 0.8511 -0.4877 -0.1943
vn 0.9573 0.1892 -0.2185
vn 0.9749 -0.0000 0.2225
vn 0.6825 -0.4877 0.5443
vn 0.7677 0.1890 0.6123
vn 0.4339 -0.0000 0.9010
vn -0.0000 -0.4877 0.8730
vn -0.0001 0.1893 0.9819
vn -0.4339 -0.0000 0.9010
vn -0.6825 -0.4877 0.5443
vn -0.7677 0.1891 0.6123
vn -0.9749 -0.0000 0.2225
vn -0.8511 -0.4877 -0.1943
vn -0.9575 0.1885 -0.2185
vn -0.7818 -0.0000 -0.6235
vn -0.3788 -0.4877 -0.7865
vn -0.4260 0.1894 -0.8847
vn 0.1182 -0.9622 -0.2454
vn 0.2656 -0.9622 -0.0606
vn 0.2130 -0.9622 0.1699
vn -0.0000 -0.9622 0.2724
vn -0.2130 -0.9622 0.1699
vn -0.2656 -0.9622 -0.0606
vn -0.1182 -0.9622 -0.2454
vn -0.4729 -0.8745 0.1079
vn -0.2104 -0.8745 0.4370
vn 0.3792 -0.8745 -0.3024
vn -0.0000 -0.8745 -0.4850
vn 0.2104 -0.8745 0.4370
vn 0.4729 -0.8745 0.1079
vn -0.3792 -0.8745 -0.3024
vn 0.3942 0.4054 0.8248
vn -0.3983 0.4065 0.8223
vn -0.7144 0.4054 -0.5704
vn -0.0006 0.4066 -0.9136
vn 0.7151 0.4058 -0.5691
vn 0.8905 0.4060 0.2052
vn -0.8914 0.4049 0.2036
vn -0.1738 -0.9162 0.3610
vn -0.3906 -0.9162 0.0892
vn -0.3132 -0.9162 -0.2498
vn -0.0000 -0.9162 -0.4006
vn 0.3132 -0.9162 -0.2498
vn 0.3906 -0.9162 0.0892
vn 0.1738 -0.9162 0.3610
vn -0.0000 -0.7163 0.6978
vn 0.5456 -0.7163 0.4351
vn 0.6803 -0.7163 -0.1553
vn 0.3028 -0.7163 -0.6287
vn -0.3028 -0.7163 -0.6287
vn -0.6803 -0.7163 -0.1553
vn -0.5456 -0.7163 0.4351
vn 0.7657 0.6204 -0.1696
vn -0.0080 0.6204 0.7843
vn -0.6119 0.6203 0.4907
vn 0.3378 0.6204 -0.7078
vn 0.6129 0.6206 0.4892
vn -0.3392 0.6202 -0.7073
vn -0.7639 0.6209 -0.1757
vn 0.2275 -0.8516 -0.4723
vn 0.4339 -0.0000 -0.9010
vn -0.4339 -0.0000 -0.9010
vn -0.2275 -0.8516 -0.4723
vn 0.4020 0.3721 -0.8366
vn -0.4025 0.3719 -0.8365
vn 0.9749 -0.0000 -0.2225
vn 0.5111 -0.8516 -0.1167
vn 0.9055 0.3715 -0.2050
vn 0.7818 -0.0000 0.6235
vn 0.4099 -0.8516 0.3269
vn 0.7259 0.3712 0.5791
vn -0.0000 -0.0000 1.0000
vn -0.0000 -0.8516 0.5242
vn -0.0025 0.3717 0.9284
vn -0.7818 -0.0000 0.6235
vn -0.4099 -0.8516 0.3269
vn -0.7256 0.3713 0.5794
vn -0.9749 -0.0000 -0.2225
vn -0.5111 -0.8516 -0.1167
vn -0.9056 0.3702 -0.2071
vn -0.3185 -0.6790 0.6615
vn 0.3185 -0.6790 0.6615
vn -0.7158 -0.6790 0.1634
vn -0.5740 -0.6790 -0.4577
vn -0.0000 -0.6790 -0.7342
vn 0.5740 -0.6790 -0.4577
vn 0.7158 -0.6790 0.1634
vn 0.9594 0.1729 0.2230
vn 0.7713 0.1723 -0.6127
vn -0.0012 0.1733 -0.9849
vn -0.7695 0.1733 -0.6146
vn 0.4224 0.1729 0.8898
vn -0.4310 0.1743 0.8854
vn -0.9601 0.1734 0.2192
vt 0.433783 0.913558
vt 0.521245 0.919229
vt 0.518758 0.960517
vt 0.430299 0.954846
vt 0.158231 0.093854
vt 0.092712 0.107508
vt 0.073339 0.082194
vt 0.165996 0.062868
vt 0.853792 0.904788
vt 0.925630 0.907225
vt 0.923653 0.948513
vt 0.854037 0.946076
vt 0.617395 0.919795
vt 0.709187 0.914730
vt 0.712776 0.956018
vt 0.619198 0.961084
vt 0.785112 0.908125
vt 0.787414 0.949413
vt 0.359648 0.907225
vt 0.357672 0.948513
vt 0.073632 0.251490
vt 0.162932 0.274087
vt 0.171886 0.304456
vt 0.052828 0.277429
vt 0.207372 0.203307
vt 0.208589 0.135568
vt 0.237200 0.121929
vt 0.235514 0.218021
vt 0.062964 0.166312
vt 0.092906 0.227024
vt 0.030434 0.165954
vt 0.156393 0.242633
vt 0.070124 0.128748
vt 0.252240 0.033767
vt 0.264926 0.229738
vt 0.000320 0.165945
vt 0.052380 0.058602
vt 0.171052 0.031612
vt 0.264926 0.106592
vt 0.142709 0.726916
vt 0.265464 0.761392
vt 0.205632 0.803143
vt 0.163012 0.779311
vt 0.350651 0.441529
vt 0.144408 0.439150
vt 0.038234 0.293934
vt 0.461639 0.294489
vt 0.412212 0.106598
vt 0.343071 0.051712
vt 0.283596 0.099079
vt 0.265022 0.090127
vt 0.338494 0.031612
vt 0.416993 0.209855
vt 0.452412 0.138582
vt 0.473072 0.138746
vt 0.429635 0.226153
vt 0.419260 0.069128
vt 0.432154 0.053023
vt 0.283596 0.178642
vt 0.265022 0.187533
vt 0.342156 0.225794
vt 0.337387 0.245801
vt 0.217345 0.853326
vt 0.182411 0.898652
vt 0.130607 0.898399
vt 0.100050 0.858497
vt 0.117903 0.803999
vt 0.053713 0.876332
vt 0.063137 0.787974
vt 0.265464 0.884883
vt 0.189521 0.947467
vt 0.096382 0.957182
vt 0.000000 0.500000
vt 0.009217 0.500000
vt 0.007744 0.500000
vt 0.642574 0.462463
vt 0.642530 0.437204
vt 0.650776 0.435713
vt 0.651766 0.460950
vt 0.866360 0.500000
vt 0.864886 0.500000
vt 0.850241 0.500000
vt 0.848118 0.500000
vt 0.576420 0.469046
vt 0.567364 0.468887
vt 0.567923 0.443783
vt 0.575994 0.443943
vt 0.723311 0.500000
vt 0.721188 0.500000
vt 0.706542 0.500000
vt 0.705068 0.500000
vt 0.500973 0.459735
vt 0.491732 0.458022
vt 0.492797 0.432725
vt 0.501114 0.434414
vt 0.580454 0.500000
vt 0.578331 0.500000
vt 0.563685 0.500000
vt 0.562211 0.500000
vt 0.422045 0.440036
vt 0.412312 0.438059
vt 0.413460 0.412355
vt 0.422395 0.414302
vt 0.437597 0.500000
vt 0.435473 0.500000
vt 0.420828 0.500000
vt 0.419354 0.500000
vt 0.897989 0.425204
vt 0.892814 0.423912
vt 0.893486 0.398013
vt 0.898346 0.397924
vt 0.294740 0.500000
vt 0.292616 0.500000
vt 0.277971 0.500000
vt 0.276497 0.500000
vt 0.814767 0.425452
vt 0.804613 0.426501
vt 0.804554 0.400499
vt 0.814009 0.399472
vt 0.152075 0.500000
vt 0.150601 0.500000
vt 0.135955 0.500000
vt 0.133832 0.500000
vt 0.730327 0.441556
vt 0.720691 0.443597
vt 0.720333 0.417940
vt 0.729147 0.415922
vt 0.819862 0.236492
vt 0.793334 0.236492
vt 0.793828 0.250904
vt 0.819368 0.250904
vt 0.872025 0.211372
vt 0.883601 0.219971
vt 0.899525 0.200003
vt 0.888565 0.190631
vt 0.901449 0.134186
vt 0.915390 0.130498
vt 0.909706 0.105597
vt 0.895546 0.108323
vt 0.859448 0.063057
vt 0.865256 0.049858
vt 0.842244 0.038776
vt 0.835546 0.051547
vt 0.777650 0.051547
vt 0.770952 0.038776
vt 0.747940 0.049858
vt 0.753748 0.063057
vt 0.717650 0.108323
vt 0.703490 0.105597
vt 0.697807 0.130498
vt 0.711747 0.134186
vt 0.724630 0.190631
vt 0.713671 0.200003
vt 0.729595 0.219971
vt 0.741171 0.211372
vt 0.580605 0.803753
vt 0.570380 0.828454
vt 0.560588 0.803583
vt 0.665605 0.799762
vt 0.657066 0.825350
vt 0.645871 0.801280
vt 0.476527 0.798427
vt 0.496104 0.800155
vt 0.484751 0.824160
vt 0.415053 0.791773
vt 0.404006 0.815821
vt 0.396090 0.789798
vt 0.883699 0.784170
vt 0.892960 0.786276
vt 0.891895 0.809321
vt 0.806168 0.785715
vt 0.824815 0.784679
vt 0.816231 0.810357
vt 0.747239 0.791242
vt 0.739344 0.817292
vt 0.728189 0.793300
vt 0.025654 0.500000
vt 0.013984 0.500000
vt 0.882797 0.500000
vt 0.871127 0.500000
vt 0.843554 0.500000
vt 0.837876 0.500000
vt 0.733553 0.500000
vt 0.727874 0.500000
vt 0.700301 0.500000
vt 0.688632 0.500000
vt 0.590696 0.500000
vt 0.585017 0.500000
vt 0.557444 0.500000
vt 0.545775 0.500000
vt 0.447838 0.500000
vt 0.442160 0.500000
vt 0.414587 0.500000
vt 0.402918 0.500000
vt 0.304981 0.500000
vt 0.299303 0.500000
vt 0.271730 0.500000
vt 0.260060 0.500000
vt 0.168511 0.500000
vt 0.156841 0.500000
vt 0.129269 0.500000
vt 0.123590 0.500000
vt 0.820483 0.236193
vt 0.806598 0.224123
vt 0.792713 0.236193
vt 0.871405 0.211671
vt 0.888719 0.189959
vt 0.870625 0.193290
vt 0.901296 0.134858
vt 0.895116 0.107784
vt 0.886439 0.124007
vt 0.859877 0.063596
vt 0.834858 0.051547
vt 0.842130 0.068446
vt 0.778339 0.051547
vt 0.753319 0.063596
vt 0.771066 0.068446
vt 0.718080 0.107784
vt 0.711901 0.134858
vt 0.726758 0.124007
vt 0.724477 0.189959
vt 0.741791 0.211671
vt 0.742571 0.193290
vt 0.992256 0.500000
vt 0.990782 0.500000
vt 0.649373 0.355793
vt 0.641203 0.357283
vt 0.568111 0.363863
vt 0.576085 0.364023
vt 0.494411 0.352805
vt 0.502661 0.354494
vt 0.415608 0.332435
vt 0.424563 0.334382
vt 0.337026 0.398751
vt 0.337051 0.424771
vt 0.894386 0.318093
vt 0.899321 0.318004
vt 0.803198 0.320578
vt 0.812755 0.319552
vt 0.718168 0.338020
vt 0.726983 0.336002
vt 0.986016 0.500000
vt 0.974346 0.500000
vt 0.900639 0.200891
vt 0.884715 0.220860
vt 0.793828 0.252329
vt 0.819368 0.252329
vt 0.911095 0.105280
vt 0.916779 0.130181
vt 0.842863 0.037493
vt 0.865874 0.048574
vt 0.747322 0.048574
vt 0.770334 0.037493
vt 0.696417 0.130181
vt 0.702101 0.105280
vt 0.728481 0.220860
vt 0.712557 0.200891
vt 0.336365 0.784921
vt 0.327411 0.809753
vt 0.338040 0.318831
s 1
usemtl Material.001
f 4/1/1 2/2/2 12/3/3 9/4/4
s 0
f 9/5/5 12/6/5 19/7/5 16/8/5
s 1
f 1/9/6 6/10/7 8/11/8 13/12/9
f 7/13/10 5/14/11 11/15/12 10/16/13
f 5/14/11 3/17/14 14/18/15 11/15/12
f 3/17/14 1/9/6 13/12/9 14/18/15
f 2/2/2 7/13/10 10/16/13 12/3/3
f 6/19/7 4/1/1 9/4/4 8/20/8
f 18/21/12 21/22/15 28/23/15 25/24/12
s 0
f 13/25/5 8/26/5 15/27/5 20/28/5
f 10/29/5 11/30/5 18/21/5 17/31/5
f 11/30/5 14/32/5 21/22/5 18/21/5
f 14/32/5 13/25/5 20/28/5 21/22/5
f 12/6/5 10/29/5 17/31/5 19/7/5
f 8/26/5 9/5/5 16/8/5 15/27/5
f 27/33/16 22/34/16 36/34/16 41/33/16
s 1
f 21/22/15 20/28/9 27/35/9 28/23/15
f 19/7/3 17/31/13 24/36/13 26/37/3
f 15/27/8 16/8/4 23/38/4 22/39/8
f 16/8/4 19/7/3 26/37/3 23/38/4
f 20/28/9 15/27/8 22/39/8 27/35/9
f 17/31/13 18/21/12 25/24/12 24/36/13
f 30/40/17 33/41/18 47/42/19 44/43/20
s 0
f 24/44/21 25/45/21 39/45/21 38/44/21
f 25/45/22 28/46/22 42/46/22 39/45/22
f 28/46/23 27/33/23 41/33/23 42/46/23
f 26/47/24 24/44/24 38/44/24 40/47/24
f 22/34/25 23/48/25 37/48/25 36/34/25
f 23/48/26 26/47/26 40/47/26 37/48/26
f 30/49/27 29/50/27 36/51/27 37/52/27
f 32/53/27 31/54/27 38/55/27 39/56/27
f 31/54/27 33/57/27 40/58/27 38/55/27
f 29/50/27 34/59/27 41/60/27 36/51/27
f 34/59/27 35/61/27 42/62/27 41/60/27
f 33/57/27 30/49/27 37/52/27 40/58/27
f 35/61/27 32/53/27 39/56/27 42/62/27
f 47/42/27 45/63/27 46/64/27 49/65/27 48/66/27 43/67/27 44/43/27
s 1
f 34/68/28 29/69/29 43/67/30 48/66/31
f 31/70/32 32/71/33 46/64/34 45/63/35
f 32/71/33 35/72/36 49/65/37 46/64/34
f 35/72/36 34/68/28 48/66/31 49/65/37
f 33/41/18 31/70/32 45/63/35 47/42/19
f 29/69/29 30/40/17 44/43/20 43/67/30
s 0
f 50/73/38 51/74/38 52/75/38 53/73/38
f 54/76/39 55/77/39 56/78/39 57/79/39
f 58/80/40 59/81/40 60/82/40 61/83/40
f 62/84/41 63/85/41 64/86/41 65/87/41
f 66/88/42 67/89/42 68/90/42 69/91/42
f 70/92/43 71/93/43 72/94/43 73/95/43
f 74/96/44 75/97/44 76/98/44 77/99/44
f 78/100/45 79/101/45 80/102/45 81/103/45
f 82/104/46 83/105/46 84/106/46 85/107/46
f 86/108/47 87/109/47 88/110/47 89/111/47
f 90/112/48 91/113/48 92/114/48 93/115/48
f 94/116/49 95/117/49 96/118/49 97/119/49
f 98/120/50 99/121/50 100/122/50 101/123/50
f 102/124/51 103/125/51 104/126/51 105/127/51
f 106/128/52 107/129/52 108/130/52 109/131/52
f 110/132/53 111/133/53 112/134/53 113/135/53
f 114/136/54 115/137/54 116/138/54 117/139/54
f 118/140/55 119/141/55 120/142/55 121/143/55
f 122/144/56 123/145/56 124/146/56 125/147/56
f 126/148/57 127/149/57 128/150/57 129/151/57
f 130/152/58 131/153/58 132/154/58 133/155/58
f 134/156/59 135/157/59 136/158/59
f 137/159/60 138/160/60 139/161/60
f 140/162/61 141/163/61 142/164/61
f 143/165/62 144/166/62 145/167/62
f 146/168/63 147/169/63 148/170/63
f 149/171/64 150/172/64 151/173/64
f 152/174/65 153/175/65 154/176/65
f 155/73/66 156/177/66 157/178/66 158/73/66
f 159/179/67 160/180/67 161/181/67 162/182/67
f 163/183/68 164/184/68 165/185/68 166/186/68
f 167/187/69 168/188/69 169/189/69 170/190/69
f 171/191/70 172/192/70 173/193/70 174/194/70
f 175/195/71 176/196/71 177/197/71 178/198/71
f 179/199/72 180/200/72 181/201/72 182/202/72
f 183/203/73 184/204/73 185/205/73
f 186/206/74 187/207/74 188/208/74
f 189/209/75 190/210/75 191/211/75
f 192/212/76 193/213/76 194/214/76
f 195/215/77 196/216/77 197/217/77
f 198/218/78 199/219/78 200/220/78
f 201/221/79 202/222/79 203/223/79
f 53/224/80 59/81/80 58/80/80 50/225/80
f 65/87/81 55/77/81 54/76/81 62/84/81
f 52/226/82 56/78/82 55/77/82 53/227/82
f 64/86/83 60/228/83 59/229/83 65/87/83
f 60/82/84 67/89/84 66/88/84 61/83/84
f 73/95/85 64/86/85 63/85/85 70/92/85
f 72/94/86 68/230/86 67/231/86 73/95/86
f 68/90/87 75/97/87 74/96/87 69/91/87
f 81/103/88 72/94/88 71/93/88 78/100/88
f 80/102/89 76/232/89 75/233/89 81/103/89
f 76/98/90 83/105/90 82/104/90 77/99/90
f 89/234/91 80/102/91 79/101/91 86/235/91
f 88/110/92 84/236/92 83/237/92 89/111/92
f 84/106/93 91/113/93 90/112/93 85/107/93
f 97/119/94 88/110/94 87/109/94 94/116/94
f 96/118/95 92/238/95 91/239/95 97/119/95
f 92/114/96 99/121/96 98/120/96 93/115/96
f 105/127/97 96/118/97 95/117/97 102/124/97
f 104/126/98 100/240/98 99/241/98 105/127/98
f 100/122/99 52/75/99 51/74/99 101/123/99
f 56/78/100 104/126/100 103/125/100 57/79/100
f 158/242/101 160/180/101 159/179/101 155/243/101
f 161/181/102 164/184/102 163/183/102 162/182/102
f 165/185/103 168/188/103 167/187/103 166/186/103
f 169/189/104 172/192/104 171/191/104 170/190/104
f 173/193/105 176/196/105 175/195/105 174/194/105
f 177/197/106 180/200/106 179/199/106 178/198/106
f 181/201/107 157/178/107 156/177/107 182/202/107
f 93/115/108 177/197/108 176/196/108 90/112/108
f 172/192/109 82/104/109 85/107/109 173/193/109
f 61/83/110 161/181/110 160/180/110 58/80/110
f 157/178/111 51/74/111 50/73/111 158/73/111
f 77/99/112 169/189/112 168/188/112 74/96/112
f 164/184/113 66/88/113 69/91/113 165/185/113
f 101/123/114 181/201/114 180/200/114 98/120/114
f 78/100/115 143/165/115 145/167/115 79/101/115
f 146/168/116 87/109/116 86/108/116 147/169/116
f 102/124/117 152/174/117 154/176/117 103/125/117
f 139/161/118 54/76/118 57/79/118 137/159/118
f 62/84/119 134/156/119 136/158/119 63/85/119
f 140/162/120 71/93/120 70/92/120 141/163/120
f 149/171/121 95/117/121 94/116/121 150/172/121
f 109/131/122 111/133/122 110/132/122 106/128/122
f 112/134/123 115/137/123 114/136/123 113/135/123
f 116/138/124 119/141/124 118/140/124 117/139/124
f 120/142/125 123/145/125 122/144/125 121/143/125
f 124/146/126 127/149/126 126/148/126 125/147/126
f 128/150/127 131/153/127 130/152/127 129/151/127
f 132/154/128 108/130/128 107/129/128 133/155/128
f 162/244/5 112/134/5 111/133/5 159/245/5
f 108/130/5 156/246/5 155/247/5 109/131/5
f 166/248/5 116/138/5 115/137/5 163/249/5
f 170/250/5 120/142/5 119/141/5 167/251/5
f 174/252/5 124/146/5 123/145/5 171/253/5
f 178/254/5 128/150/5 127/149/5 175/255/5
f 182/256/5 132/154/5 131/153/5 179/257/5
f 183/203/122 186/206/122 188/208/122 184/204/122
f 187/207/123 189/209/123 191/211/123 188/208/123
f 190/210/124 192/212/124 194/214/124 191/211/124
f 193/213/125 195/215/125 197/217/125 194/214/125
f 196/216/126 198/218/126 200/220/126 197/217/126
f 199/219/127 201/221/127 203/223/127 200/220/127
f 202/222/128 185/205/128 184/204/128 203/223/128
f 106/128/129 183/203/129 185/205/129 107/129/129
f 201/221/130 130/152/130 133/155/130 202/222/130
f 129/151/131 199/219/131 198/218/131 126/148/131
f 195/215/132 122/144/132 125/147/132 196/216/132
f 121/143/133 193/213/133 192/212/133 118/140/133
f 189/209/134 114/136/134 117/139/134 190/210/134
f 113/135/135 187/207/135 186/206/135 110/132/135
f 141/163/136 136/158/136 135/157/136 142/164/136
f 147/258/137 145/167/137 144/166/137 148/259/137
f 150/172/138 146/168/138 148/170/138 151/173/138
f 134/156/139 139/161/139 138/160/139 135/157/139
f 143/165/140 140/162/140 142/164/140 144/166/140
f 137/159/141 154/176/141 153/175/141 138/160/141
f 152/174/142 149/171/142 151/173/142 153/175/142
f 50/225/143 58/80/143 160/180/143 158/242/143
f 53/227/144 55/77/144 65/87/144 59/229/144
f 100/240/145 104/126/145 56/78/145 52/226/145
f 101/123/146 51/74/146 157/178/146 181/201/146
f 62/84/147 54/76/147 139/161/147 134/156/147
f 57/79/148 103/125/148 154/176/148 137/159/148
f 60/228/149 64/86/149 73/95/149 67/231/149
f 61/83/150 66/88/150 164/184/150 161/181/150
f 70/92/151 63/85/151 136/158/151 141/163/151
f 68/230/152 72/94/152 81/103/152 75/233/152
f 69/91/153 74/96/153 168/188/153 165/185/153
f 78/100/154 71/93/154 140/162/154 143/165/154
f 76/232/155 80/102/155 89/234/155 83/260/155
f 77/99/156 82/104/156 172/192/156 169/189/156
f 86/235/157 79/101/157 145/167/157 147/258/157
f 84/236/158 88/110/158 97/119/158 91/239/158
f 85/107/159 90/112/159 176/196/159 173/193/159
f 94/116/160 87/109/160 146/168/160 150/172/160
f 92/238/161 96/118/161 105/127/161 99/241/161
f 93/115/162 98/120/162 180/200/162 177/197/162
f 102/124/163 95/117/163 149/171/163 152/174/163
f 106/128/164 110/132/164 186/206/164 183/203/164
f 108/130/5 132/154/5 182/256/5 156/246/5
f 111/133/5 109/131/5 155/247/5 159/245/5
f 133/155/165 107/129/165 185/205/165 202/222/165
f 113/135/166 114/136/166 189/209/166 187/207/166
f 115/137/5 112/134/5 162/244/5 163/249/5
f 117/139/167 118/140/167 192/212/167 190/210/167
f 119/141/5 116/138/5 166/248/5 167/251/5
f 121/143/168 122/144/168 195/215/168 193/213/168
f 123/145/5 120/142/5 170/250/5 171/253/5
f 125/147/169 126/148/169 198/218/169 196/216/169
f 127/149/5 124/146/5 174/252/5 175/255/5
f 129/151/170 130/152/170 201/221/170 199/219/170
f 131/153/5 128/150/5 178/254/5 179/257/5
s 1
f 142/164/171 135/157/172 2/2/2
f 135/157/172 7/13/10 2/2/2
f 135/157/172 138/160/173 7/13/10
f 5/14/11 7/13/10 138/160/173
f 138/160/173 153/175/174 5/14/11
f 144/166/175 142/164/171 4/1/1
f 4/1/1 142/164/171 2/2/2
f 148/259/176 144/166/175 6/19/7
f 4/1/1 6/19/7 144/166/175
f 151/173/177 148/170/176 1/9/6
f 6/10/7 1/9/6 148/170/176
f 153/175/174 151/173/177 3/17/14
f 1/9/6 3/17/14 151/173/177
f 3/17/14 5/14/11 153/175/174
s 0
f 184/204/5 188/208/5 191/211/5 194/214/5 197/217/5 200/220/5 203/223/5
