# Blender 5.0.0
# www.blender.org
mtllib door.mtl
o antarctic_door
v 1.258342 -1.242706 0.124998
v 1.310530 -1.238532 0.067581
v 0.538742 -1.226047 0.136614
v 0.587120 -1.223764 0.076486
v 0.347013 2.211670 0.336434
v 0.240334 -0.768616 -0.462403
v -0.219520 -0.761373 -0.184940
v -0.138595 -0.806762 0.412506
v 0.371274 -0.842057 0.504285
v 0.605465 -0.818482 -0.036439
v -0.237575 2.275720 0.467975
v 0.131719 -0.691336 -0.214434
v -0.369531 -0.684093 -0.363072
v -0.644867 -0.729482 0.148183
v -0.313785 -0.764777 0.612793
v 0.166172 -0.741202 0.388684
v -0.538872 -0.805942 -0.303691
v -0.681916 -0.712919 0.247661
v 0.409788 2.177052 -0.609456
v 0.530365 -0.870991 -0.735518
v -1.279046 -0.661076 0.279844
v -0.017495 -0.879299 -0.438545
v -1.505048 -0.722058 -0.251617
v 0.106482 -0.816957 0.153258
v -1.047596 -0.811590 -0.612261
v 0.730963 -0.770118 0.222039
v -0.671012 2.147197 -0.719185
v 0.992937 -0.803513 -0.327255
v 0.605288 3.391509 -0.249057
v 0.745233 2.294382 -0.507440
v 0.383322 2.248610 -0.488444
v 0.234763 2.237763 -0.039705
v 0.504859 2.276832 0.218634
v 0.820346 2.311824 -0.070442
v -0.257104 2.976277 -0.159714
v -0.078739 2.051596 -0.368206
v -0.370939 2.043752 -0.352877
v -0.489901 2.026595 0.009214
v -0.274714 2.073362 0.217670
v -0.022758 2.119423 -0.015588
v -0.627780 3.468598 -0.298036
v -0.514857 2.105381 -0.506528
v -0.806886 2.048508 -0.491200
v -0.926760 2.035031 -0.129109
v -0.708818 2.083575 0.079348
v -0.454248 2.127054 -0.153910
v 0.195142 3.614212 -0.049012
v 0.308065 2.250995 -0.257504
v 0.016036 2.194122 -0.242175
v -0.103838 1.928751 0.119916
v 0.114105 2.229188 0.328372
v 0.368675 2.272668 0.095114
v 0.967942 2.211670 0.336434
v 0.861263 -0.768616 -0.462403
v 0.401409 -0.761373 -0.184940
v 0.482334 -0.806762 0.412506
v 0.992203 -0.842057 0.504285
v 1.226394 -0.818482 -0.036439
v -0.834937 2.211670 0.336434
v -0.941615 -0.768616 -0.462403
v -1.401469 -0.761373 -0.184940
v -1.320544 -0.806762 0.412506
v -0.810676 -0.842057 0.504285
v -0.576485 -0.818482 -0.036439
v -0.033037 2.163967 -0.506470
v -0.373191 -0.861765 -0.758024
v -0.915725 -0.796461 -0.457332
v -0.783128 -0.771369 0.135688
v -0.158644 -0.821165 0.201503
v 0.094711 -0.877032 -0.350841
v -0.514857 0.117359 -0.506528
v -0.806886 0.060485 -0.491200
v -0.926760 0.047008 -0.129109
v -0.708818 0.095552 0.079348
v -0.454248 0.139031 -0.153910
v 0.308065 0.418318 -0.257504
v 0.016036 0.361445 -0.242175
v -0.103838 0.347968 0.119916
v 0.114105 0.396511 0.328372
v 0.368675 0.439991 0.095114
v 1.128411 3.414716 -0.049012
v 1.241333 2.051500 -0.257504
v 0.949304 1.994626 -0.242175
v 0.829431 1.981149 0.119916
v 1.047373 2.029693 0.328372
v 1.301943 2.046023 0.095114
v 1.349382 -0.746786 -0.429297
v 0.868926 -0.840356 -0.404078
v 0.671705 -0.862529 0.191647
v 1.030272 -0.782663 0.534607
v 1.449100 -0.711129 0.150842
v -1.146923 3.414716 -0.049012
v -1.034000 2.051500 -0.257504
v -1.326029 1.994626 -0.242175
v -1.445903 1.981149 0.119916
v -1.227960 2.029693 0.328372
v -0.973390 2.073172 0.095114
v -0.959443 -0.679083 -0.376046
v -1.381493 -0.761278 -0.353893
v -1.554738 -0.780756 0.169413
v -1.239761 -0.710599 0.470680
v -0.871848 -0.647761 0.133568
v 0.657248 -0.218615 -0.275446
v 0.448775 -0.244981 -0.264504
v 0.363199 -0.251229 -0.006014
v 0.518784 -0.228725 0.142798
v 0.700516 -0.208568 -0.023720
v 0.183368 -0.504012 -0.498279
v -0.251584 -0.515689 -0.475462
v -0.428665 -0.541228 0.063526
v -0.108349 -0.471613 0.373822
v 0.266697 -0.403049 0.026607
vn -0.0228 -0.9970 -0.0742
vn 0.0315 0.3163 0.9481
vn 0.0212 0.2581 -0.9659
vn -0.6071 0.2481 -0.7549
vn -0.3454 0.0791 0.9351
vn 0.0503 0.0552 0.9972
vn 0.8846 0.1305 -0.4476
vn -0.0048 0.2453 0.9694
vn 0.3590 0.2514 -0.8988
vn -0.0263 0.2713 -0.9621
vn -0.9740 0.1501 -0.1698
vn -0.0174 0.0480 0.9987
vn 0.7509 0.0833 0.6551
vn 0.9838 0.0189 -0.1783
vn 0.1620 0.3155 0.9350
vn -0.0073 0.2188 -0.9757
vn 0.0045 0.0415 -0.9991
vn -0.0478 0.3440 0.9378
vn -0.8797 0.0970 -0.4655
vn -0.9599 0.2802 0.0069
vn -0.2057 0.2611 0.9432
vn -0.0211 -0.0334 -0.9992
vn 0.0354 0.2749 0.9608
vn 0.0217 0.1094 -0.9938
vn 0.9816 0.1901 -0.0203
vn 0.0608 0.8175 -0.5727
vn 0.0829 0.0282 -0.9962
vn -0.1538 0.0258 -0.9878
vn -0.8910 0.1566 0.4262
vn -0.0014 0.0491 0.9988
vn 0.8502 0.1183 0.5130
vn -0.0308 0.7984 -0.6014
vn 0.1175 0.1093 -0.9870
vn -0.2203 0.1064 -0.9696
vn -0.8999 0.1427 0.4122
vn -0.0129 0.1045 0.9944
vn 0.8331 0.2157 0.5093
vn 0.0394 0.7650 -0.6428
vn 0.0971 0.0585 -0.9936
vn -0.1908 0.0586 -0.9799
vn -0.8958 0.1189 0.4282
vn -0.0011 0.0580 0.9983
vn 0.8527 0.0883 0.5149
vn 0.0309 0.8154 -0.5781
vn -0.1918 0.0590 -0.9797
vn -0.9259 0.0908 0.3666
vn -0.0019 0.0609 0.9981
vn 0.0757 0.3431 -0.9362
vn 0.0088 0.0819 -0.9966
vn -0.7940 0.2274 -0.5639
vn -0.1693 0.2517 0.9529
vn 0.0729 0.2272 0.9711
vn 0.9893 0.0343 -0.1420
vn 0.0975 -0.0000 -0.9952
vn -0.2179 -0.0000 -0.9760
vn -0.9445 -0.0000 0.3285
vn -0.0156 -0.0000 0.9999
vn 0.9091 -0.0000 0.4165
vn 0.0406 0.7698 -0.6369
vn 0.1196 0.0995 -0.9878
vn -0.2346 0.1007 -0.9669
vn -0.9088 0.1502 0.3893
vn -0.0007 0.1068 0.9943
vn 0.8660 0.1134 0.4870
vn 0.0702 0.0639 -0.9955
vn -0.1897 0.0613 -0.9799
vn -0.9186 0.0608 0.3905
vn -0.0240 0.0735 0.9970
vn 0.8838 0.0562 0.4644
vn 0.1118 0.0867 -0.9899
vn -0.2209 0.0884 -0.9713
vn -0.9054 0.1413 0.4005
vn -0.0009 0.0909 0.9959
vn 0.8591 0.1078 0.5003
vn 0.0765 0.0453 -0.9960
vn -0.1952 0.0436 -0.9798
vn -0.9265 0.0432 0.3739
vn -0.0212 0.0519 0.9984
vn 0.8915 0.0396 0.4513
vn 0.1860 -0.0968 -0.9778
vn -0.3178 -0.0931 -0.9436
vn -0.9269 -0.0428 0.3728
vn -0.0081 -0.0303 0.9995
vn 0.8874 -0.0337 0.4597
vn 0.1141 -0.0642 -0.9914
vn -0.1470 -0.1063 -0.9834
vn -0.7144 -0.5915 0.3739
vn 0.0002 -0.0492 0.9988
vn 0.8056 -0.4353 0.4018
vt 0.941370 0.401225
vt 0.949433 0.401225
vt 0.949433 0.409288
vt 0.941370 0.409288
vt 0.696896 0.134563
vt 0.852681 0.059848
vt 0.852681 0.457339
vt 0.808523 0.537571
vt 0.129763 0.123085
vt 0.085782 0.546856
vt 0.000000 0.411560
vt 0.001136 0.022703
vt 0.590354 0.340197
vt 0.564086 -0.000000
vt 0.250166 -0.000000
vt 0.250166 0.353277
vt 0.419114 0.355695
vt 0.521106 0.543417
vt 0.250166 0.427312
vt 0.667242 0.882504
vt 0.855170 0.933285
vt 0.564086 1.000000
vt 0.250166 0.048070
vt 0.901353 0.590021
vt 0.304998 0.000000
vt 0.564086 0.686364
vt 0.846041 0.537571
vt 0.564086 0.231108
vt 0.852681 0.298559
vt 0.893702 0.312537
vt 0.963462 0.120602
vt 0.921751 -0.000000
vt 0.852681 0.088610
vt 0.331725 0.703059
vt 0.336597 0.543417
vt 0.387449 0.560739
vt 0.387449 0.820934
vt 0.301873 0.930744
vt 0.250166 0.781291
vt 0.897633 0.183715
vt 0.451516 0.718393
vt 0.431123 0.862012
vt 0.387449 0.844626
vt 0.387449 0.618013
vt 0.488065 0.543417
vt 0.547276 0.674095
vt 0.064067 0.721831
vt 0.043675 0.865451
vt -0.000000 0.848064
vt -0.000000 0.621452
vt 0.100616 0.546856
vt 0.159827 0.677533
s 1
f 4/1/1 2/2/1 1/3/1 3/4/1
f 11/5/8 16/6/13 12/7/9
f 11/5/8 12/7/9 13/8/10
f 5/9/2 6/10/3 7/11/4
f 5/9/2 7/11/4 8/12/5
f 11/5/8 14/13/11 15/14/12
f 5/9/2 8/12/5 9/15/6
f 5/9/2 9/15/6 10/16/7
f 11/5/8 15/14/12 16/6/13
f 11/5/8 13/8/10 14/13/11
f 5/9/2 10/16/7 6/10/3
f 19/17/16 20/18/17 22/19/19
f 27/20/24 17/21/14 25/22/22
f 19/17/16 22/19/19 24/23/21
f 27/20/24 18/24/15 17/21/14
f 19/17/16 24/23/21 26/25/23
f 27/20/24 25/22/22 23/26/20
f 27/20/24 21/27/18 18/24/15
f 19/17/16 26/25/23 28/28/25
f 19/17/16 28/28/25 20/18/17
f 27/20/24 23/26/20 21/27/18
f 109/29/86 108/30/85 112/31/89 111/32/88 110/33/87
f 29/34/26 30/35/27 31/36/28
f 29/34/26 31/36/28 32/37/29
f 29/34/26 32/37/29 33/38/30
f 29/34/26 33/38/30 34/39/31
f 29/34/26 34/39/31 30/35/27
f 35/40/32 36/30/33 37/29/34
f 35/40/32 37/29/34 38/33/35
f 35/40/32 38/33/35 39/32/36
f 35/40/32 39/32/36 40/31/37
f 35/40/32 40/31/37 36/30/33
f 41/41/38 42/42/39 43/43/40
f 41/41/38 43/43/40 44/44/41
f 41/41/38 44/44/41 45/45/42
f 41/41/38 45/45/42 46/46/43
f 41/41/38 46/46/43 42/42/39
f 47/47/44 48/48/39 49/49/45
f 47/47/44 49/49/45 50/50/46
f 47/47/44 50/50/46 51/51/47
f 47/47/44 51/51/47 52/52/43
f 47/47/44 52/52/43 48/48/39
f 53/9/2 54/10/3 55/11/4
f 53/9/2 55/11/4 56/12/5
f 53/9/2 56/12/5 57/15/6
f 53/9/2 57/15/6 58/16/7
f 53/9/2 58/16/7 54/10/3
f 59/9/2 60/10/3 61/11/4
f 59/9/2 61/11/4 62/12/5
f 59/9/2 62/12/5 63/15/6
f 59/9/2 63/15/6 64/16/7
f 59/9/2 64/16/7 60/10/3
f 65/17/48 66/18/49 67/19/50
f 65/17/48 67/19/50 68/23/51
f 65/17/48 68/23/51 69/25/52
f 65/17/48 69/25/52 70/28/53
f 65/17/48 70/28/53 66/18/49
f 42/42/39 46/46/43 75/46/58 71/42/54
f 44/44/41 43/43/40 72/43/55 73/44/56
f 46/46/43 45/45/42 74/45/57 75/46/58
f 45/45/42 44/44/41 73/44/56 74/45/57
f 43/43/40 42/42/39 71/42/54 72/43/55
f 52/52/43 51/51/47 79/51/57 80/52/58
f 51/51/47 50/50/46 78/50/56 79/51/57
f 49/49/45 48/48/39 76/48/54 77/49/55
f 48/48/39 52/52/43 80/52/58 76/48/54
f 50/50/46 49/49/45 77/49/55 78/50/56
f 81/47/59 82/48/60 83/49/61
f 81/47/59 83/49/61 84/50/62
f 81/47/59 84/50/62 85/51/63
f 81/47/59 85/51/63 86/52/64
f 81/47/59 86/52/64 82/48/60
f 86/52/64 85/51/63 90/51/68 91/52/69
f 85/51/63 84/50/62 89/50/67 90/51/68
f 83/49/61 82/48/60 87/48/65 88/49/66
f 82/48/60 86/52/64 91/52/69 87/48/65
f 84/50/62 83/49/61 88/49/66 89/50/67
f 92/47/38 93/48/70 94/49/71
f 92/47/38 94/49/71 95/50/72
f 92/47/38 95/50/72 96/51/73
f 92/47/38 96/51/73 97/52/74
f 92/47/38 97/52/74 93/48/70
f 97/52/74 96/51/73 101/51/78 102/52/79
f 96/51/73 95/50/72 100/50/77 101/51/78
f 94/49/71 93/48/70 98/48/75 99/49/76
f 93/48/70 97/52/74 102/52/79 98/48/75
f 95/50/72 94/49/71 99/49/76 100/50/77
f 32/37/29 31/36/28 104/36/81 105/37/82
f 34/39/31 33/38/30 106/38/83 107/39/84
f 33/38/30 32/37/29 105/37/82 106/38/83
f 31/36/28 30/35/27 103/35/80 104/36/81
f 30/35/27 34/39/31 107/39/84 103/35/80
f 40/31/37 39/32/36 111/32/88 112/31/89
f 39/32/36 38/33/35 110/33/87 111/32/88
f 37/29/34 36/30/33 108/30/85 109/29/86
f 36/30/33 40/31/37 112/31/89 108/30/85
f 38/33/35 37/29/34 109/29/86 110/33/87
