# Blender 4.5.4 LTS
# www.blender.org
mtllib icicle.mtl
o Cylinder
v -0.000000 -1.202700 -0.000000
v -0.000000 -0.462769 -0.145516
v -0.000000 0.631666 0.233672
v 0.145516 -0.462769 -0.000000
v -0.000000 0.631666 -0.233673
v -0.000000 -0.462769 0.145515
v 0.233672 0.631666 -0.000000
v -0.145516 -0.462769 -0.000000
v -0.233672 0.631666 -0.000000
vn -0.0000 -1.0000 -0.0000
vn -0.0000 -0.1335 -0.9910
vn -0.0000 0.5475 0.8368
vn 0.9910 -0.1335 -0.0000
vn -0.0000 0.5475 -0.8368
vn -0.0000 -0.1335 0.9910
vn 0.8368 0.5475 -0.0000
vn -0.9910 -0.1335 -0.0000
vn -0.8368 0.5475 -0.0000
vt 0.507157 0.504928
vt 0.507157 0.512085
vt 0.503578 0.512085
vt 0.503578 0.504928
vt 0.500000 0.512085
vt 0.496422 0.512085
vt 0.500000 0.504928
vt 0.496422 0.504928
vt 0.492843 0.512085
vt 0.499857 0.501350
vt 0.496422 0.504785
vt 0.492986 0.501350
vt 0.496422 0.497915
s 1
f 1/1/1 2/2/2 4/3/4
f 1/4/1 4/3/4 6/5/6
f 8/6/8 6/5/6 3/5/3 9/6/9
f 1/7/1 6/5/6 8/6/8
f 1/8/1 8/6/8 2/9/2
f 2/9/2 8/6/8 9/6/9 5/9/5
f 7/10/7 5/11/5 9/12/9 3/13/3
f 6/5/6 4/3/4 7/3/7 3/5/3
f 4/3/4 2/2/2 5/2/5 7/3/7
