# Blender 4.5.4 LTS
# www.blender.org
mtllib wall.mtl
o antarctic_wall
v -2.578551 -0.027980 2.439049
v -2.578551 0.137785 0.494463
v -2.228196 -0.027980 2.439049
v -2.212997 0.102115 0.720776
v -1.704664 -0.027980 2.439049
v -1.682921 0.095513 1.023185
v -1.177012 -0.027980 2.439049
v -1.130392 0.057453 1.021587
v -0.583042 -0.027980 2.439049
v -0.547237 -0.036922 0.901874
v -0.032595 -0.027980 2.439049
v -0.006300 -0.100292 0.672995
v -2.578551 0.446480 1.255076
v -2.578551 0.984133 0.612928
v -2.578551 1.523265 0.612928
v -2.578551 2.245153 0.612928
v -2.578551 3.018049 0.612928
v -2.578551 3.809040 0.612928
v -2.578551 4.629148 0.612928
v -2.820014 5.107995 0.807290
v -2.827767 5.086163 0.349771
v -2.239689 0.446480 1.255076
v -2.219819 0.995674 0.612928
v -2.180202 1.538625 0.612928
v -2.198344 2.250524 0.612928
v -2.264983 3.022609 0.612928
v -2.256864 3.813164 0.612928
v -2.330233 4.632557 0.612928
v -2.536957 5.184536 1.029869
v -1.718184 0.446480 1.255076
v -1.721421 1.021948 0.612928
v -1.680063 1.556503 0.612928
v -1.716248 2.256845 0.612928
v -1.793883 3.028982 0.612928
v -1.807957 3.819701 0.612928
v -1.835996 4.635212 0.612928
v -2.018687 5.220792 1.186007
v -1.191756 0.446480 1.255076
v -1.232457 1.012474 0.612928
v -1.252981 1.544206 0.612928
v -1.289758 2.257696 0.612928
v -1.325081 3.035464 0.612928
v -1.374346 3.823723 0.612928
v -1.434491 4.635695 0.612928
v -1.493953 5.207880 1.352990
v -0.605411 0.446480 1.255076
v -0.731118 0.990618 0.612928
v -0.783974 1.527661 0.612928
v -0.823955 2.255550 0.612928
v -0.855292 3.039698 0.612928
v -0.941375 3.825535 0.612928
v -1.039350 4.635576 0.612928
v -1.103553 5.209339 1.382843
v -0.065097 0.446480 1.255076
v -0.194734 0.970976 0.612928
v -0.275205 1.505127 0.612928
v -0.328878 2.251209 0.612928
v -0.345591 3.041005 0.612928
v -0.451437 3.826447 0.612928
v -0.573059 4.635349 0.612928
v -0.576398 5.194787 1.239947
v -2.885783 5.476731 1.063875
v -2.910661 5.751203 1.660860
v -2.905259 5.477200 0.517940
v -2.909124 5.751065 0.782488
v -2.605493 5.508362 1.353025
v -2.649283 5.751040 1.966760
v -2.150735 5.497820 1.777699
v -2.188624 5.750996 2.438202
v -1.690970 5.516762 1.994679
v -1.717768 5.750898 2.620840
v -1.218393 5.535860 1.980809
v -1.224123 5.750833 2.544611
v -0.643567 5.544881 1.768013
v -0.625381 5.750785 2.275253
v -2.578551 -0.011509 -0.493728
v -2.578551 -0.014497 -0.976694
v -2.228066 -0.119508 -0.707988
v -2.267639 -0.105417 -1.275637
v -1.638018 -0.153893 -1.036612
v -1.655090 -0.169819 -1.595174
v -1.055968 -0.143589 -1.135916
v -1.078848 -0.197623 -1.697327
v -0.520014 -0.152713 -1.099183
v -0.563927 -0.234432 -1.714563
v -0.009508 -0.204507 -1.104379
v -0.049394 -0.253247 -1.664324
v -2.578551 1.593745 -0.311553
v -2.578551 2.264139 -0.347339
v -2.578551 2.918301 -0.263942
v -2.578551 3.632663 -0.299507
v -2.578551 4.322437 -0.292314
v -2.833841 4.910206 -0.229979
v -2.578551 0.381193 -0.969783
v -2.578551 0.994782 -0.817230
v -2.578551 1.576178 -0.579331
v -2.397373 2.217487 -0.449701
v -2.392035 2.889560 -0.363736
v -2.417585 3.642582 -0.375593
v -2.467504 4.311446 -0.422712
v -2.742298 4.820525 -0.539766
v -2.302373 0.376027 -1.368143
v -2.294009 1.030665 -1.132648
v -2.209399 1.609208 -0.734084
v -2.172981 2.253731 -0.517926
v -2.174623 2.961159 -0.448078
v -2.217579 3.729886 -0.449707
v -2.259861 4.392868 -0.515149
v -2.488865 4.871199 -0.697436
v -1.694507 0.352393 -1.687174
v -1.723261 1.067278 -1.361476
v -1.735576 1.656898 -0.862318
v -1.784592 2.319330 -0.642892
v -1.802221 3.068679 -0.568838
v -1.853866 3.836342 -0.567463
v -1.851002 4.489323 -0.627930
v -2.017924 4.942522 -0.924042
v -1.132458 0.331672 -1.807666
v -1.178768 1.082489 -1.461503
v -1.220468 1.682654 -0.929383
v -1.285046 2.364390 -0.789823
v -1.332355 3.113744 -0.688258
v -1.370165 3.872759 -0.674315
v -1.391191 4.521567 -0.720614
v -1.523471 4.985096 -1.088080
v -0.617464 0.293424 -1.864295
v -0.659878 1.071162 -1.525850
v -0.711244 1.678013 -0.969332
v -0.777221 2.362659 -0.848582
v -0.839346 3.104837 -0.748417
v -0.888507 3.856151 -0.740858
v -0.927159 4.508550 -0.779389
v -1.026198 5.000274 -1.111388
v -0.095613 0.274494 -1.846851
v -0.141462 1.051562 -1.549870
v -0.202679 1.647253 -0.966297
v -0.278068 2.329039 -0.860895
v -0.351389 3.066360 -0.770825
v -0.408365 3.816131 -0.777256
v -0.442289 4.482503 -0.796504
v -0.490385 5.001416 -1.097418
v -2.927039 5.748665 -0.228223
v -2.893072 5.751400 -0.230296
v -2.875008 5.749200 -0.688760
v -2.868457 5.751753 -0.712652
v -2.531717 5.743112 -1.117914
v -2.539839 5.751455 -1.154375
v -2.071000 5.318283 -1.264658
v -2.049378 5.751256 -1.600713
v -1.569075 5.372871 -1.449167
v -1.531342 5.751082 -1.754698
v -1.034391 5.406035 -1.436138
v -0.984028 5.750965 -1.686398
v -0.472080 5.419136 -1.413139
v -0.412613 5.750920 -1.651105
v 0.438367 -0.027980 2.439049
v 0.525162 -0.146607 0.501820
v 0.932444 -0.027980 2.439049
v 1.038025 -0.214224 0.669521
v 1.414767 -0.027980 2.439049
v 1.487880 -0.220219 0.743257
v 1.911184 -0.027980 2.439049
v 1.949344 -0.170699 0.718928
v 2.493351 -0.027980 2.439049
v 2.534167 -0.245355 0.489394
v 2.906825 -0.027980 2.439049
v 3.080364 -0.027980 2.439049
v 0.371700 0.446480 1.255076
v 0.321262 0.945199 0.612928
v 0.278464 1.493307 0.612928
v 0.196178 2.247702 0.612928
v 0.187004 3.039487 0.612928
v 0.109943 3.827162 0.612928
v -0.004001 4.635959 0.612928
v 0.026808 5.221411 1.225282
v 0.859989 0.446480 1.255076
v 0.856430 0.935745 0.615095
v 0.833135 1.487245 0.613198
v 0.730434 2.245693 0.612928
v 0.711317 3.037834 0.612928
v 0.681424 3.827327 0.612928
v 0.644962 4.637497 0.612928
v 0.644655 5.277839 1.283031
v 1.381324 0.446480 1.255076
v 1.361180 0.906038 0.619750
v 1.335432 1.470858 0.620196
v 1.316632 2.241061 0.623776
v 1.264141 3.030339 0.623909
v 1.203129 3.827174 0.621488
v 1.202235 4.641466 0.617806
v 1.257291 5.318844 1.321693
v 1.902441 0.446480 1.255076
v 1.843478 0.843803 0.624618
v 1.784976 1.446728 0.631790
v 1.722264 2.228242 0.640831
v 1.684962 3.014785 0.641816
v 1.647825 3.827724 0.638566
v 1.679986 4.662808 0.632095
v 1.809158 5.371702 1.243612
v 2.498772 0.446480 1.255076
v 2.407709 0.772738 0.620075
v 2.173000 1.392806 0.632380
v 1.984169 2.209382 0.645003
v 1.968682 3.003284 0.645862
v 1.948798 3.826051 0.641887
v 2.136768 4.688932 0.636032
v 2.362604 5.421632 1.208536
v 3.004577 0.446480 1.255076
v 2.921463 0.742249 0.607515
v 2.640839 1.358447 0.621069
v 2.303973 2.192001 0.640847
v 2.232506 2.991147 0.641890
v 2.195556 3.821872 0.638025
v 2.536891 4.696078 0.628765
v 2.888996 5.368228 0.900214
v 3.495656 0.446480 1.255076
v 3.458037 0.702856 0.595572
v 3.343827 1.398509 0.598597
v 3.025236 2.197220 0.611718
v 2.707394 2.984225 0.622313
v 2.669667 3.816862 0.619315
v 2.838523 4.683696 0.619593
v 3.332721 4.947919 0.534685
v 0.018025 5.581984 1.733025
v 0.045871 5.750689 2.264565
v 0.670057 5.631238 1.808328
v 0.697937 5.750577 2.340724
v 1.303607 5.663518 1.769752
v 1.332799 5.750502 2.287398
v 1.906035 5.687531 1.689472
v 1.947779 5.750459 2.215070
v 2.447469 5.709442 1.569128
v 2.507175 5.750420 2.073560
v 2.914310 5.701446 1.335186
v 2.875801 5.750616 1.871351
v 3.284043 5.557832 0.373488
v 2.986384 5.764834 0.699231
v 0.501141 -0.282875 -1.141264
v 0.443315 -0.286148 -1.650985
v 1.047350 -0.351128 -1.096904
v 0.967100 -0.342176 -1.677981
v 1.627039 -0.356747 -0.977822
v 1.561189 -0.377544 -1.592378
v 2.174936 -0.345932 -0.850539
v 2.175990 -0.401530 -1.511247
v 2.691668 -0.474470 -0.724414
v 2.774730 -0.406430 -1.315170
v 3.254845 -0.474553 -0.632986
v 3.199345 -0.336091 -1.120983
v 0.389196 0.265837 -1.831981
v 0.361065 1.040072 -1.574128
v 0.290776 1.632663 -1.015639
v 0.204516 2.282955 -0.917764
v 0.119271 3.023177 -0.852214
v 0.074556 3.777888 -0.849830
v 0.066364 4.456297 -0.820756
v 0.080173 5.007443 -1.086812
v 0.912591 0.242406 -1.874884
v 0.868923 1.078048 -1.722168
v 0.723629 1.690598 -1.244263
v 0.622939 2.265044 -1.134540
v 0.556508 3.007215 -1.010472
v 0.554163 3.757865 -0.947369
v 0.589132 4.429661 -0.876500
v 0.667968 4.998369 -1.038249
v 1.527722 0.209875 -1.920340
v 1.463601 1.085068 -1.895435
v 1.229378 1.720881 -1.528011
v 1.091653 2.248711 -1.345897
v 1.036632 2.981323 -1.148880
v 1.052173 3.716632 -0.991091
v 1.108574 4.384105 -0.856540
v 1.221736 4.956929 -0.943586
v 2.238586 0.148459 -1.939582
v 2.190983 0.995665 -1.906057
v 1.960312 1.642179 -1.740296
v 1.715268 2.182193 -1.546388
v 1.568592 2.887594 -1.319776
v 1.488090 3.588295 -1.078388
v 1.516646 4.276484 -0.878228
v 1.651285 4.847513 -0.926156
v 2.925053 0.148699 -1.661922
v 2.847091 0.871805 -1.586951
v 2.693193 1.477640 -1.305879
v 2.520279 2.071574 -1.343338
v 2.309771 2.748042 -1.328991
v 2.083104 3.359825 -1.119989
v 1.931321 4.056055 -0.882880
v 1.995737 4.674158 -0.896192
v 3.643357 0.067633 -0.592813
v 3.592084 0.703893 -0.525037
v 3.560887 1.304417 -0.442843
v 3.634327 1.997202 -0.429958
v 3.615053 2.688076 -0.430491
v 3.535806 3.297787 -0.348960
v 3.550972 3.972301 -0.399693
v 3.407050 4.730294 -0.545390
v 3.375281 0.139685 -1.222766
v 3.293266 0.789366 -1.135785
v 3.216207 1.387054 -0.882375
v 3.221883 2.004989 -0.921873
v 3.232383 2.672158 -0.942167
v 3.206159 3.268942 -1.066634
v 3.236639 3.881644 -1.044322
v 3.166156 4.652558 -1.039490
v 0.135240 5.433364 -1.427316
v 0.218545 5.750884 -1.696810
v 0.761412 5.439258 -1.379168
v 0.861771 5.750864 -1.663686
v 1.328780 5.396174 -1.278959
v 1.432797 5.750946 -1.593946
v 1.832313 5.290332 -1.253885
v 1.960559 5.751163 -1.641107
v 2.367337 5.181963 -1.328079
v 2.545598 5.751387 -1.678463
v 3.362363 5.320168 -0.636778
v 2.986655 5.751172 -0.848518
v 3.178338 5.214751 -1.281320
v 3.041871 5.751540 -1.556266
vn -0.5792 -0.1858 0.7937
vn -0.7385 -0.6723 0.0515
vn -0.0126 -0.2281 0.9736
vn -0.0489 -0.9984 0.0284
vn -0.0295 -0.2260 0.9737
vn -0.0127 -0.9999 0.0036
vn -0.1758 -0.2049 0.9629
vn -0.0546 -0.9984 0.0165
vn -0.1783 -0.1807 0.9672
vn -0.0769 -0.9965 0.0330
vn -0.1087 -0.1676 0.9798
vn -0.0722 -0.9960 0.0517
vn -0.6761 0.6313 0.3799
vn -0.6274 0.3332 0.7038
vn -0.7071 -0.0000 0.7071
vn -0.6833 -0.3843 0.6208
vn -0.7740 -0.4935 0.3966
vn -0.9559 -0.2883 0.0554
vn -0.0081 0.8547 0.5191
vn -0.0089 0.4190 0.9079
vn -0.0000 -0.0000 1.0000
vn -0.0810 -0.3373 0.9379
vn -0.2872 -0.6855 0.6690
vn -0.0031 0.8515 0.5243
vn -0.0033 0.4036 0.9149
vn -0.0598 -0.3926 0.9178
vn -0.1622 -0.8035 0.5728
vn 0.0057 0.8526 0.5226
vn 0.0060 0.4104 0.9119
vn -0.0398 -0.4319 0.9010
vn -0.0671 -0.8491 0.5240
vn 0.0074 0.8572 0.5149
vn 0.0081 0.4213 0.9069
vn 0.0172 -0.4363 0.8997
vn 0.0662 -0.8296 0.5544
vn 0.0091 0.8625 0.5060
vn 0.0095 0.4282 0.9036
vn 0.0287 -0.4141 0.9098
vn 0.0789 -0.7904 0.6075
vn -0.8620 -0.4185 0.2860
vn -0.4819 -0.8131 0.3266
vn -0.9968 -0.0775 0.0195
vn -0.9994 -0.0302 0.0138
vn -0.3403 -0.8281 0.4455
vn -0.3305 -0.8834 0.3324
vn -0.2297 -0.8967 0.3783
vn -0.1945 -0.9200 0.3402
vn -0.0580 -0.9218 0.3833
vn -0.0350 -0.9356 0.3513
vn 0.0925 -0.9041 0.4172
vn 0.0933 -0.9295 0.3567
vn 0.1088 -0.8820 0.4586
vn 0.1021 -0.9310 0.3503
vn -0.7697 -0.6350 0.0665
vn -0.8054 -0.5353 -0.2544
vn -0.1518 -0.9859 0.0704
vn -0.4947 -0.7098 -0.5015
vn -0.0364 -0.9970 0.0679
vn -0.2447 -0.7564 -0.6066
vn -0.0377 -0.9953 0.0893
vn -0.1102 -0.7930 -0.5991
vn -0.0762 -0.9930 0.0901
vn -0.0449 -0.8207 -0.5696
vn -0.0960 -0.9926 0.0750
vn -0.0384 -0.8373 -0.5454
vn -0.9687 0.0793 -0.2353
vn -0.9094 0.0766 -0.4089
vn -0.8492 0.0186 -0.5278
vn -0.8708 -0.0238 -0.4911
vn -0.9337 -0.2339 -0.2711
vn -0.9576 -0.2819 -0.0598
vn -0.9361 0.0332 -0.3501
vn -0.9066 0.1843 -0.3796
vn -0.8242 0.2278 -0.5185
vn -0.5397 0.1878 -0.8206
vn -0.4043 0.0498 -0.9133
vn -0.4398 -0.0483 -0.8968
vn -0.5504 -0.2539 -0.7954
vn -0.7720 -0.3515 -0.5295
vn -0.6144 0.0702 -0.7858
vn -0.5309 0.3969 -0.7488
vn -0.3902 0.4144 -0.8222
vn -0.3370 0.1996 -0.9201
vn -0.3318 0.0367 -0.9426
vn -0.3143 -0.0628 -0.9472
vn -0.2905 -0.3021 -0.9080
vn -0.4468 -0.4250 -0.7873
vn -0.3208 0.0920 -0.9427
vn -0.2603 0.5009 -0.8254
vn -0.2486 0.4526 -0.8564
vn -0.2824 0.1800 -0.9423
vn -0.2826 0.0388 -0.9585
vn -0.2485 -0.0542 -0.9671
vn -0.2144 -0.3528 -0.9108
vn -0.2774 -0.5738 -0.7706
vn -0.1440 0.0979 -0.9847
vn -0.1194 0.5364 -0.8355
vn -0.1339 0.4422 -0.8869
vn -0.1763 0.1601 -0.9712
vn -0.1883 0.0553 -0.9806
vn -0.1738 -0.0391 -0.9840
vn -0.1437 -0.3660 -0.9195
vn -0.0995 -0.6412 -0.7609
vn -0.0317 0.0594 -0.9977
vn -0.0317 0.5423 -0.8396
vn -0.0357 0.4409 -0.8969
vn -0.0591 0.1479 -0.9872
vn -0.0840 0.0622 -0.9945
vn -0.0955 -0.0285 -0.9950
vn -0.0706 -0.3276 -0.9422
vn -0.0067 -0.6033 -0.7974
vn 0.0197 0.0251 -0.9995
vn -0.0036 0.5343 -0.8453
vn -0.0314 0.4388 -0.8981
vn -0.0648 0.1288 -0.9895
vn -0.0950 0.0501 -0.9942
vn -0.0927 -0.0136 -0.9956
vn -0.0488 -0.2688 -0.9620
vn 0.0019 -0.5595 -0.8288
vn -0.9683 0.2448 -0.0492
vn -0.6892 0.7245 0.0036
vn -0.7799 0.4956 -0.3824
vn -0.2582 -0.9487 -0.1827
vn -0.5030 -0.6783 -0.5356
vn -0.5259 -0.6783 -0.5132
vn -0.3755 -0.5760 -0.7261
vn -0.3801 -0.5708 -0.7278
vn -0.0861 -0.6369 -0.7661
vn -0.0608 -0.6118 -0.7887
vn 0.0468 -0.6181 -0.7847
vn 0.0625 -0.6012 -0.7967
vn 0.0168 -0.6071 -0.7944
vn 0.0049 -0.6019 -0.7986
vn -0.1304 -0.1523 0.9797
vn -0.0979 -0.9927 0.0709
vn -0.1029 -0.1394 0.9849
vn -0.0625 -0.9944 0.0850
vn 0.0386 -0.1365 0.9899
vn 0.0154 -0.9952 0.0964
vn 0.0112 -0.1385 0.9903
vn -0.0156 -0.9947 0.1021
vn -0.0470 -0.1370 0.9895
vn -0.1001 -0.9868 0.1277
vn -0.0000 -0.1346 0.9909
vn 0.4229 -0.1466 0.8942
vn 0.0067 0.8667 0.4987
vn 0.0072 0.4419 0.8970
vn -0.0006 0.0004 1.0000
vn -0.0001 -0.0000 1.0000
vn 0.0075 -0.3970 0.9178
vn 0.0246 -0.7756 0.6307
vn 0.0067 0.8705 0.4921
vn 0.0032 0.4407 0.8976
vn -0.0079 -0.0003 1.0000
vn -0.0087 -0.0010 1.0000
vn -0.0094 -0.0001 1.0000
vn -0.0076 0.0006 1.0000
vn -0.0023 -0.3914 0.9202
vn 0.0144 -0.7733 0.6338
vn 0.0175 0.8783 0.4779
vn 0.0100 0.4488 0.8936
vn -0.0202 -0.0051 0.9998
vn -0.0282 -0.0043 0.9996
vn -0.0300 -0.0006 0.9995
vn -0.0260 0.0026 0.9997
vn 0.0115 -0.3768 0.9262
vn 0.0703 -0.7640 0.6414
vn 0.0262 0.8930 0.4492
vn 0.0259 0.4811 0.8763
vn -0.0149 -0.0120 0.9998
vn -0.0253 -0.0072 0.9997
vn -0.0276 0.0001 0.9996
vn -0.0246 0.0051 0.9997
vn 0.0339 -0.3561 0.9338
vn 0.1081 -0.7402 0.6637
vn 0.0214 0.9090 0.4163
vn 0.0360 0.5202 0.8533
vn 0.0088 -0.0140 0.9999
vn 0.0012 -0.0078 1.0000
vn 0.0005 0.0018 1.0000
vn 0.0016 0.0055 1.0000
vn 0.0795 -0.3279 0.9414
vn 0.1851 -0.7215 0.6672
vn 0.0182 0.9207 0.3899
vn 0.0370 0.5373 0.8426
vn 0.0274 -0.0086 0.9996
vn 0.0268 -0.0048 0.9996
vn 0.0274 0.0033 0.9996
vn 0.0259 0.0028 0.9997
vn 0.1398 -0.2687 0.9530
vn 0.5079 -0.4428 0.7389
vn 0.8129 0.3981 0.4250
vn 0.8088 0.3817 0.4475
vn 0.6384 0.0787 0.7656
vn 0.5189 0.0961 0.8494
vn 0.4166 0.0455 0.9080
vn 0.4103 -0.0165 0.9118
vn 0.4518 -0.2306 0.8618
vn 0.8454 -0.1702 0.5063
vn 0.0299 -0.8941 0.4468
vn 0.0209 -0.9546 0.2973
vn 0.0258 -0.9164 0.3993
vn 0.0231 -0.9742 0.2244
vn 0.0656 -0.9241 0.3765
vn 0.0379 -0.9854 0.1659
vn 0.0885 -0.9321 0.3513
vn 0.0396 -0.9921 0.1194
vn 0.1155 -0.9384 0.3257
vn 0.0396 -0.9950 0.0918
vn 0.8382 -0.2467 0.4864
vn 0.0773 -0.9924 0.0952
vn 0.9128 0.3749 0.1622
vn 0.7840 0.6131 0.0973
vn -0.1177 -0.9917 0.0526
vn -0.0965 -0.8224 -0.5606
vn -0.0792 -0.9959 0.0442
vn -0.0693 -0.8156 -0.5744
vn -0.0100 -0.9979 0.0648
vn -0.0153 -0.8736 -0.4864
vn -0.0648 -0.9959 0.0631
vn 0.0541 -0.8860 -0.4604
vn -0.0607 -0.9980 0.0173
vn 0.2206 -0.8577 -0.4644
vn 0.4881 -0.8711 -0.0537
vn 0.5422 -0.7150 -0.4413
vn -0.0678 -0.0164 -0.9976
vn -0.1558 0.4736 -0.8668
vn -0.2481 0.3964 -0.8839
vn -0.2728 0.0990 -0.9570
vn -0.2359 0.0487 -0.9706
vn -0.1676 0.0249 -0.9855
vn -0.0722 -0.1917 -0.9788
vn 0.0078 -0.5218 -0.8530
vn -0.1151 -0.1055 -0.9877
vn -0.2749 0.3430 -0.8982
vn -0.4181 0.3220 -0.8494
vn -0.4117 0.1170 -0.9038
vn -0.2947 0.1066 -0.9496
vn -0.1498 0.1016 -0.9835
vn -0.0238 -0.0956 -0.9951
vn 0.0566 -0.4690 -0.8814
vn -0.0444 -0.2146 -0.9757
vn -0.1532 0.2333 -0.9603
vn -0.3071 0.3079 -0.9005
vn -0.3389 0.1929 -0.9208
vn -0.2434 0.2038 -0.9483
vn -0.1038 0.1983 -0.9746
vn -0.0012 0.0032 -1.0000
vn 0.0105 -0.4034 -0.9150
vn 0.1871 -0.2676 -0.9452
vn 0.2365 0.2390 -0.9418
vn 0.1587 0.3398 -0.9270
vn -0.0218 0.2442 -0.9695
vn -0.0781 0.2688 -0.9600
vn -0.0359 0.2846 -0.9580
vn -0.0060 0.0838 -0.9965
vn -0.0929 -0.3476 -0.9330
vn 0.5223 -0.2072 -0.8272
vn 0.5728 0.2707 -0.7737
vn 0.5540 0.2761 -0.7854
vn 0.4121 0.1512 -0.8985
vn 0.2181 0.1754 -0.9601
vn 0.0700 0.2497 -0.9658
vn -0.0012 0.1381 -0.9904
vn -0.0968 -0.2526 -0.9627
vn 0.9685 -0.2110 -0.1321
vn 0.9720 0.1579 -0.1742
vn 0.9800 0.1130 -0.1639
vn 0.9909 0.0793 -0.1083
vn 0.9960 0.0889 -0.0063
vn 0.9881 -0.0023 0.1540
vn 0.9937 -0.0601 0.0946
vn 0.9957 -0.0279 -0.0882
vn 0.8045 -0.1593 -0.5722
vn 0.7856 0.2383 -0.5711
vn 0.7394 0.1482 -0.6567
vn 0.6560 0.0066 -0.7547
vn 0.6289 0.0587 -0.7752
vn 0.5378 0.0948 -0.8377
vn 0.5245 0.0702 -0.8485
vn 0.5433 -0.1584 -0.8245
vn 0.0200 -0.6287 -0.7774
vn 0.0152 -0.6445 -0.7644
vn 0.0703 -0.6492 -0.7574
vn 0.0686 -0.6752 -0.7344
vn -0.0009 -0.6322 -0.7748
vn -0.0096 -0.6584 -0.7526
vn -0.1349 -0.5747 -0.8072
vn -0.1130 -0.5871 -0.8016
vn -0.0633 -0.5290 -0.8462
vn 0.0128 -0.5214 -0.8532
vn 0.9430 0.3109 -0.1186
vn 0.8296 0.5504 -0.0933
vn 0.6902 -0.1698 -0.7034
vn 0.5655 -0.2082 -0.7981
vt 0.004544 0.098200
vt 0.066775 0.092470
vt 0.064187 0.104195
vt 0.004544 0.107843
vt 0.157013 0.091409
vt 0.153311 0.095862
vt 0.251073 0.085296
vt 0.243137 0.084565
vt 0.350347 0.070136
vt 0.344252 0.078053
vt 0.442434 0.059956
vt 0.437958 0.080305
vt -0.037881 0.893083
vt 0.004544 0.819670
vt -0.036561 0.896590
vt 0.062231 0.161207
vt 0.004544 0.155205
vt 0.065614 0.236007
vt 0.004544 0.234153
vt 0.204425 0.323224
vt 0.156834 0.320757
vt 0.156834 0.234153
vt 0.199692 0.236007
vt 0.202257 0.437580
vt 0.156834 0.436717
vt 0.194296 0.561604
vt 0.156834 0.560871
vt 0.195266 0.688595
vt 0.156834 0.687932
vt 0.186501 0.820218
vt 0.156834 0.819670
vt 0.011625 0.908885
vt 0.046817 0.820218
vt 0.151010 0.166617
vt 0.150459 0.240227
vt 0.264176 0.326096
vt 0.259235 0.240227
vt 0.259853 0.438595
vt 0.250578 0.562627
vt 0.248896 0.689645
vt 0.245547 0.820644
vt 0.099853 0.914709
vt 0.130954 0.820644
vt 0.240627 0.168249
vt 0.233698 0.238706
vt 0.315199 0.324120
vt 0.317651 0.238706
vt 0.310805 0.438732
vt 0.306585 0.563669
vt 0.300700 0.690291
vt 0.293514 0.820722
vt 0.189182 0.912635
vt 0.199305 0.820722
vt 0.340444 0.165879
vt 0.319044 0.235195
vt 0.371231 0.321463
vt 0.377545 0.235195
vt 0.366454 0.438387
vt 0.362710 0.564349
vt 0.352426 0.690582
vt 0.340721 0.820703
vt 0.255642 0.912869
vt 0.266572 0.820703
vt 0.432425 0.159875
vt 0.410356 0.232039
vt 0.432013 0.317843
vt 0.441627 0.232039
vt 0.425601 0.437690
vt 0.423604 0.564559
vt 0.410959 0.690728
vt 0.396429 0.820666
vt 0.345383 0.910532
vt 0.345951 0.820666
vt -0.051073 0.955897
vt -0.047758 0.955822
vt -0.051731 0.999889
vt -0.051993 0.999912
vt -0.000042 0.960903
vt -0.007497 0.999886
vt 0.077374 0.959209
vt 0.070924 0.999878
vt 0.155643 0.962252
vt 0.151080 0.999863
vt 0.236092 0.965320
vt 0.235117 0.999852
vt 0.333948 0.966769
vt 0.337044 0.999845
vt 0.004544 0.074218
vt 0.064209 0.056869
vt 0.004544 0.073738
vt 0.057473 0.059133
vt 0.164657 0.051346
vt 0.161751 0.048788
vt 0.263743 0.053001
vt 0.259848 0.044321
vt 0.354981 0.051536
vt 0.347506 0.038409
vt 0.441888 0.043216
vt 0.435098 0.035386
vt 0.004544 0.320757
vt 0.004544 0.436717
vt 0.004544 0.560871
vt 0.004544 0.687932
vt 0.004544 0.770402
vt 0.004544 0.659600
vt 0.004544 0.544848
vt 0.004544 0.439767
vt 0.004544 0.332078
vt 0.004544 0.329256
vt 0.004544 0.235864
vt 0.004544 0.137300
vt -0.038915 0.864818
vt 0.035387 0.432273
vt 0.036296 0.540231
vt 0.031946 0.661193
vt 0.023448 0.768636
vt -0.023331 0.850412
vt 0.051560 0.136470
vt 0.052984 0.241628
vt 0.067387 0.334562
vt 0.073587 0.438095
vt 0.073307 0.551733
vt 0.065995 0.675217
vt 0.058797 0.781715
vt 0.019812 0.858552
vt 0.155040 0.132673
vt 0.150146 0.247509
vt 0.148049 0.342223
vt 0.139705 0.448633
vt 0.136704 0.569004
vt 0.127912 0.692318
vt 0.128399 0.797209
vt 0.099983 0.870009
vt 0.250721 0.129345
vt 0.242838 0.249952
vt 0.235739 0.346360
vt 0.224745 0.455871
vt 0.216692 0.576243
vt 0.210255 0.698168
vt 0.206676 0.802389
vt 0.184157 0.876848
vt 0.338392 0.123201
vt 0.331171 0.248133
vt 0.322427 0.345614
vt 0.311195 0.455593
vt 0.300620 0.574812
vt 0.292251 0.695500
vt 0.285671 0.800298
vt 0.268811 0.879286
vt 0.427230 0.120160
vt 0.419425 0.244984
vt 0.409003 0.340673
vt 0.396169 0.450192
vt 0.383687 0.568632
vt 0.373988 0.689071
vt 0.368213 0.796114
vt 0.360025 0.879470
vt -0.054781 0.999504
vt -0.048999 0.999943
vt -0.045923 0.999590
vt -0.044808 1.000000
vt 0.012517 0.998612
vt 0.011135 0.999952
vt 0.090948 0.930369
vt 0.094629 0.999920
vt 0.176394 0.939138
vt 0.182817 0.999892
vt 0.267416 0.944466
vt 0.275990 0.999873
vt 0.363142 0.946570
vt 0.373265 0.999866
vt 0.533126 0.052463
vt 0.518132 0.074605
vt 0.621628 0.041451
vt 0.602931 0.058833
vt 0.698938 0.040504
vt 0.686741 0.054373
vt 0.777081 0.048404
vt 0.772614 0.059511
vt 0.873965 0.037015
vt 0.871803 0.064038
vt 0.966320 0.017563
vt 0.940822 0.056755
vt 0.506924 0.152858
vt 0.498197 0.227899
vt 0.498159 0.315944
vt 0.503272 0.227899
vt 0.488329 0.437126
vt 0.487232 0.564315
vt 0.478026 0.690843
vt 0.464413 0.820764
vt 0.448070 0.914808
vt 0.442825 0.820764
vt 0.591547 0.151898
vt 0.589915 0.225731
vt 0.564491 0.314840
vt 0.567639 0.225731
vt 0.552156 0.436804
vt 0.549872 0.564049
vt 0.546300 0.690870
vt 0.541944 0.821011
vt 0.553250 0.923873
vt 0.553302 0.821011
vt 0.682082 0.148516
vt 0.677905 0.219944
vt 0.627432 0.311784
vt 0.629388 0.219944
vt 0.626647 0.436774
vt 0.620576 0.563362
vt 0.612300 0.690703
vt 0.610083 0.821156
vt 0.657553 0.930454
vt 0.650395 0.821156
vt 0.771673 0.139074
vt 0.762724 0.211355
vt 0.685438 0.310260
vt 0.688913 0.211355
vt 0.681315 0.436563
vt 0.677592 0.562096
vt 0.672235 0.690117
vt 0.671257 0.821190
vt 0.752906 0.937505
vt 0.737565 0.821190
vt 0.870909 0.128724
vt 0.856292 0.202482
vt 0.731022 0.304268
vt 0.754578 0.202482
vt 0.713067 0.434683
vt 0.712020 0.560708
vt 0.708768 0.688761
vt 0.725420 0.821103
vt 0.847116 0.943175
vt 0.814744 0.821103
vt 0.953093 0.120575
vt 0.938047 0.197746
vt 0.781303 0.300216
vt 0.811952 0.197746
vt 0.747645 0.432600
vt 0.740423 0.558598
vt 0.735701 0.687099
vt 0.769041 0.820117
vt 0.934116 0.932359
vt 0.876901 0.820117
vt 1.033720 0.096829
vt 1.025887 0.188934
vt 0.873597 0.188934
vt 0.856852 0.303571
vt 0.818865 0.432054
vt 0.786416 0.556738
vt 0.782735 0.685406
vt 0.801156 0.818352
vt 0.922663 0.818352
vt 1.004101 0.864650
vt 0.446575 0.972729
vt 0.451315 0.999829
vt 0.557574 0.980641
vt 0.562320 0.999811
vt 0.665427 0.985826
vt 0.670397 0.999799
vt 0.767994 0.989668
vt 0.775089 0.999792
vt 0.860345 0.992591
vt 0.870318 0.999786
vt 0.939511 0.990499
vt 0.933072 0.999800
vt 1.000742 0.966261
vt 0.951210 0.999785
vt 0.528819 0.030627
vt 0.518975 0.030101
vt 0.621803 0.019663
vt 0.608142 0.021101
vt 0.720451 0.018735
vt 0.709277 0.015420
vt 0.813263 0.020402
vt 0.813938 0.011567
vt 0.900344 0.000000
vt 0.915652 0.010770
vt 0.995265 0.000190
vt 0.987371 0.022060
vt 0.509762 0.118769
vt 0.504973 0.243139
vt 0.493007 0.338330
vt 0.478323 0.442789
vt 0.463811 0.561695
vt 0.456199 0.682928
vt 0.454804 0.791904
vt 0.457155 0.880438
vt 0.598862 0.115005
vt 0.591428 0.249239
vt 0.566694 0.347636
vt 0.549553 0.439912
vt 0.538244 0.559131
vt 0.537845 0.679712
vt 0.543798 0.787626
vt 0.557219 0.878980
vt 0.703580 0.109780
vt 0.692664 0.250367
vt 0.652791 0.352501
vt 0.629345 0.437288
vt 0.619979 0.554972
vt 0.622624 0.673088
vt 0.632226 0.780308
vt 0.651490 0.872324
vt 0.824594 0.099914
vt 0.816491 0.236005
vt 0.777222 0.339858
vt 0.735507 0.426603
vt 0.710537 0.539916
vt 0.696833 0.652473
vt 0.701694 0.763020
vt 0.724615 0.854747
vt 0.941456 0.099953
vt 0.928184 0.216109
vt 0.901985 0.313427
vt 0.872549 0.408834
vt 0.836713 0.517499
vt 0.798126 0.615773
vt 0.772437 0.727641
vt 0.783295 0.826909
vt 1.060982 0.086392
vt 1.052442 0.187728
vt 1.045904 0.284892
vt 1.002027 0.303571
vt 1.057756 0.396673
vt 0.947897 0.432054
vt 1.054512 0.507526
vt 0.901660 0.556738
vt 1.038765 0.605833
vt 0.896414 0.685406
vt 1.042804 0.714442
vt 1.021324 0.835465
vt 1.017565 0.098335
vt 1.003710 0.202511
vt 0.990220 0.298536
vt 0.991354 0.398081
vt 0.993347 0.505260
vt 0.989294 0.601173
vt 0.994459 0.699601
vt 0.982423 0.823442
vt 0.466529 0.948856
vt 0.480711 0.999860
vt 0.573126 0.949802
vt 0.590211 0.999857
vt 0.669713 0.942882
vt 0.687420 0.999870
vt 0.755432 0.925880
vt 0.777264 0.999905
vt 0.846512 0.908472
vt 0.876859 0.999941
vt 1.015637 0.930538
vt 0.951943 0.999907
vt 0.984574 0.913739
vt 0.961342 0.999966
s 1
usemtl Material.001
f 2/1/2 4/2/4 3/3/3 1/4/1
f 4/2/4 6/5/6 5/6/5 3/3/3
f 6/5/6 8/7/8 7/8/7 5/6/5
f 8/7/8 10/9/10 9/10/9 7/8/7
f 10/9/10 12/11/12 11/12/11 9/10/9
f 21/13/18 19/14/16 20/15/17
f 22/16/19 13/17/13 1/4/1 3/3/3
f 23/18/20 14/19/14 13/17/13 22/16/19
f 24/20/21 15/21/15 14/22/14 23/23/20
f 25/24/21 16/25/15 15/21/15 24/20/21
f 26/26/21 17/27/15 16/25/15 25/24/21
f 27/28/21 18/29/15 17/27/15 26/26/21
f 28/30/22 19/31/16 18/29/15 27/28/21
f 29/32/23 20/15/17 19/14/16 28/33/22
f 30/34/24 22/16/19 3/3/3 5/6/5
f 31/35/25 23/18/20 22/16/19 30/34/24
f 32/36/21 24/20/21 23/23/20 31/37/25
f 33/38/21 25/24/21 24/20/21 32/36/21
f 34/39/21 26/26/21 25/24/21 33/38/21
f 35/40/21 27/28/21 26/26/21 34/39/21
f 36/41/26 28/30/22 27/28/21 35/40/21
f 37/42/27 29/32/23 28/33/22 36/43/26
f 38/44/28 30/34/24 5/6/5 7/8/7
f 39/45/29 31/35/25 30/34/24 38/44/28
f 40/46/21 32/36/21 31/37/25 39/47/29
f 41/48/21 33/38/21 32/36/21 40/46/21
f 42/49/21 34/39/21 33/38/21 41/48/21
f 43/50/21 35/40/21 34/39/21 42/49/21
f 44/51/30 36/41/26 35/40/21 43/50/21
f 45/52/31 37/42/27 36/43/26 44/53/30
f 46/54/32 38/44/28 7/8/7 9/10/9
f 47/55/33 39/45/29 38/44/28 46/54/32
f 48/56/21 40/46/21 39/47/29 47/57/33
f 49/58/21 41/48/21 40/46/21 48/56/21
f 50/59/21 42/49/21 41/48/21 49/58/21
f 51/60/21 43/50/21 42/49/21 50/59/21
f 52/61/34 44/51/30 43/50/21 51/60/21
f 53/62/35 45/52/31 44/53/30 52/63/34
f 54/64/36 46/54/32 9/10/9 11/12/11
f 55/65/37 47/55/33 46/54/32 54/64/36
f 56/66/21 48/56/21 47/57/33 55/67/37
f 57/68/21 49/58/21 48/56/21 56/66/21
f 58/69/21 50/59/21 49/58/21 57/68/21
f 59/70/21 51/60/21 50/59/21 58/69/21
f 60/71/38 52/61/34 51/60/21 59/70/21
f 61/72/39 53/62/35 52/63/34 60/73/38
f 64/74/42 21/13/18 20/15/17 62/75/40
f 65/76/43 64/74/42 62/75/40 63/77/41
f 66/78/44 62/75/40 20/15/17 29/32/23
f 67/79/45 63/77/41 62/75/40 66/78/44
f 68/80/46 66/78/44 29/32/23 37/42/27
f 69/81/47 67/79/45 66/78/44 68/80/46
f 70/82/48 68/80/46 37/42/27 45/52/31
f 71/83/49 69/81/47 68/80/46 70/82/48
f 72/84/50 70/82/48 45/52/31 53/62/35
f 73/85/51 71/83/49 70/82/48 72/84/50
f 74/86/52 72/84/50 53/62/35 61/72/39
f 75/87/53 73/85/51 72/84/50 74/86/52
f 76/88/54 78/89/56 4/2/4 2/1/2
f 77/90/55 79/91/57 78/89/56 76/88/54
f 78/89/56 80/92/58 6/5/6 4/2/4
f 79/91/57 81/93/59 80/92/58 78/89/56
f 80/92/58 82/94/60 8/7/8 6/5/6
f 81/93/59 83/95/61 82/94/60 80/92/58
f 82/94/60 84/96/62 10/9/10 8/7/8
f 83/95/61 85/97/63 84/96/62 82/94/60
f 84/96/62 86/98/64 12/11/12 10/9/10
f 85/97/63 87/99/65 86/98/64 84/96/62
f 2/1/2 1/4/1 13/17/13 14/19/14 15/100/15 16/101/15 17/102/15 18/103/15 19/14/16 92/104/70 91/105/69 90/106/68 89/107/67 88/108/66 96/109/74 95/110/73 94/111/72 77/90/55 76/88/54
f 93/112/71 92/104/70 19/14/16 21/13/18
f 97/113/75 96/109/74 88/108/66 89/107/67
f 98/114/76 97/113/75 89/107/67 90/106/68
f 99/115/77 98/114/76 90/106/68 91/105/69
f 100/116/78 99/115/77 91/105/69 92/104/70
f 101/117/79 100/116/78 92/104/70 93/112/71
f 94/111/72 102/118/80 79/91/57 77/90/55
f 95/110/73 103/119/81 102/118/80 94/111/72
f 96/109/74 104/120/82 103/119/81 95/110/73
f 97/113/75 105/121/83 104/120/82 96/109/74
f 98/114/76 106/122/84 105/121/83 97/113/75
f 99/115/77 107/123/85 106/122/84 98/114/76
f 100/116/78 108/124/86 107/123/85 99/115/77
f 101/117/79 109/125/87 108/124/86 100/116/78
f 102/118/80 110/126/88 81/93/59 79/91/57
f 103/119/81 111/127/89 110/126/88 102/118/80
f 104/120/82 112/128/90 111/127/89 103/119/81
f 105/121/83 113/129/91 112/128/90 104/120/82
f 106/122/84 114/130/92 113/129/91 105/121/83
f 107/123/85 115/131/93 114/130/92 106/122/84
f 108/124/86 116/132/94 115/131/93 107/123/85
f 109/125/87 117/133/95 116/132/94 108/124/86
f 110/126/88 118/134/96 83/95/61 81/93/59
f 111/127/89 119/135/97 118/134/96 110/126/88
f 112/128/90 120/136/98 119/135/97 111/127/89
f 113/129/91 121/137/99 120/136/98 112/128/90
f 114/130/92 122/138/100 121/137/99 113/129/91
f 115/131/93 123/139/101 122/138/100 114/130/92
f 116/132/94 124/140/102 123/139/101 115/131/93
f 117/133/95 125/141/103 124/140/102 116/132/94
f 118/134/96 126/142/104 85/97/63 83/95/61
f 119/135/97 127/143/105 126/142/104 118/134/96
f 120/136/98 128/144/106 127/143/105 119/135/97
f 121/137/99 129/145/107 128/144/106 120/136/98
f 122/138/100 130/146/108 129/145/107 121/137/99
f 123/139/101 131/147/109 130/146/108 122/138/100
f 124/140/102 132/148/110 131/147/109 123/139/101
f 125/141/103 133/149/111 132/148/110 124/140/102
f 126/142/104 134/150/112 87/99/65 85/97/63
f 127/143/105 135/151/113 134/150/112 126/142/104
f 128/144/106 136/152/114 135/151/113 127/143/105
f 129/145/107 137/153/115 136/152/114 128/144/106
f 130/146/108 138/154/116 137/153/115 129/145/107
f 131/147/109 139/155/117 138/154/116 130/146/108
f 132/148/110 140/156/118 139/155/117 131/147/109
f 133/149/111 141/157/119 140/156/118 132/148/110
f 142/158/120 93/112/71 21/13/18 64/74/42
f 143/159/121 142/158/120 64/74/42 65/76/43
f 144/160/122 101/117/79 93/112/71 142/158/120
f 145/161/123 144/160/122 142/158/120 143/159/121
f 144/160/122 146/162/124 109/125/87 101/117/79
f 145/161/123 147/163/125 146/162/124 144/160/122
f 146/162/124 148/164/126 117/133/95 109/125/87
f 147/163/125 149/165/127 148/164/126 146/162/124
f 148/164/126 150/166/128 125/141/103 117/133/95
f 149/165/127 151/167/129 150/166/128 148/164/126
f 150/166/128 152/168/130 133/149/111 125/141/103
f 151/167/129 153/169/131 152/168/130 150/166/128
f 152/168/130 154/170/132 141/157/119 133/149/111
f 153/169/131 155/171/133 154/170/132 152/168/130
f 12/11/12 157/172/135 156/173/134 11/12/11
f 157/172/135 159/174/137 158/175/136 156/173/134
f 159/174/137 161/176/139 160/177/138 158/175/136
f 161/176/139 163/178/141 162/179/140 160/177/138
f 163/178/141 165/180/143 164/181/142 162/179/140
f 165/180/143 167/182/145 166/183/144 164/181/142
f 168/184/146 54/64/36 11/12/11 156/173/134
f 169/185/147 55/65/37 54/64/36 168/184/146
f 170/186/148 56/66/21 55/67/37 169/187/147
f 171/188/149 57/68/21 56/66/21 170/186/148
f 172/189/21 58/69/21 57/68/21 171/188/149
f 173/190/21 59/70/21 58/69/21 172/189/21
f 174/191/150 60/71/38 59/70/21 173/190/21
f 175/192/151 61/72/39 60/73/38 174/193/150
f 176/194/152 168/184/146 156/173/134 158/175/136
f 177/195/153 169/185/147 168/184/146 176/194/152
f 178/196/154 170/186/148 169/187/147 177/197/153
f 179/198/155 171/188/149 170/186/148 178/196/154
f 180/199/156 172/189/21 171/188/149 179/198/155
f 181/200/157 173/190/21 172/189/21 180/199/156
f 182/201/158 174/191/150 173/190/21 181/200/157
f 183/202/159 175/192/151 174/193/150 182/203/158
f 184/204/160 176/194/152 158/175/136 160/177/138
f 185/205/161 177/195/153 176/194/152 184/204/160
f 186/206/162 178/196/154 177/197/153 185/207/161
f 187/208/163 179/198/155 178/196/154 186/206/162
f 188/209/164 180/199/156 179/198/155 187/208/163
f 189/210/165 181/200/157 180/199/156 188/209/164
f 190/211/166 182/201/158 181/200/157 189/210/165
f 191/212/167 183/202/159 182/203/158 190/213/166
f 192/214/168 184/204/160 160/177/138 162/179/140
f 193/215/169 185/205/161 184/204/160 192/214/168
f 194/216/170 186/206/162 185/207/161 193/217/169
f 195/218/171 187/208/163 186/206/162 194/216/170
f 196/219/172 188/209/164 187/208/163 195/218/171
f 197/220/173 189/210/165 188/209/164 196/219/172
f 198/221/174 190/211/166 189/210/165 197/220/173
f 199/222/175 191/212/167 190/213/166 198/223/174
f 200/224/176 192/214/168 162/179/140 164/181/142
f 201/225/177 193/215/169 192/214/168 200/224/176
f 202/226/178 194/216/170 193/217/169 201/227/177
f 203/228/179 195/218/171 194/216/170 202/226/178
f 204/229/180 196/219/172 195/218/171 203/228/179
f 205/230/181 197/220/173 196/219/172 204/229/180
f 206/231/182 198/221/174 197/220/173 205/230/181
f 207/232/183 199/222/175 198/223/174 206/233/182
f 208/234/184 200/224/176 164/181/142 166/183/144
f 209/235/185 201/225/177 200/224/176 208/234/184
f 210/236/186 202/226/178 201/227/177 209/237/185
f 211/238/187 203/228/179 202/226/178 210/236/186
f 212/239/188 204/229/180 203/228/179 211/238/187
f 213/240/189 205/230/181 204/229/180 212/239/188
f 214/241/190 206/231/182 205/230/181 213/240/189
f 215/242/191 207/232/183 206/233/182 214/243/190
f 167/182/145 216/244/192 208/234/184 166/183/144
f 216/244/192 217/245/193 209/235/185 208/234/184
f 217/246/193 218/247/194 210/236/186 209/237/185
f 218/247/194 219/248/195 211/238/187 210/236/186
f 219/248/195 220/249/196 212/239/188 211/238/187
f 220/249/196 221/250/197 213/240/189 212/239/188
f 221/250/197 222/251/198 214/241/190 213/240/189
f 222/252/198 223/253/199 215/242/191 214/243/190
f 224/254/200 74/86/52 61/72/39 175/192/151
f 225/255/201 75/87/53 74/86/52 224/254/200
f 226/256/202 224/254/200 175/192/151 183/202/159
f 227/257/203 225/255/201 224/254/200 226/256/202
f 228/258/204 226/256/202 183/202/159 191/212/167
f 229/259/205 227/257/203 226/256/202 228/258/204
f 230/260/206 228/258/204 191/212/167 199/222/175
f 231/261/207 229/259/205 228/258/204 230/260/206
f 232/262/208 230/260/206 199/222/175 207/232/183
f 233/263/209 231/261/207 230/260/206 232/262/208
f 234/264/210 232/262/208 207/232/183 215/242/191
f 235/265/211 233/263/209 232/262/208 234/264/210
f 223/253/199 236/266/212 234/264/210 215/242/191
f 236/266/212 237/267/213 235/265/211 234/264/210
f 86/98/64 238/268/214 157/172/135 12/11/12
f 87/99/65 239/269/215 238/268/214 86/98/64
f 238/268/214 240/270/216 159/174/137 157/172/135
f 239/269/215 241/271/217 240/270/216 238/268/214
f 240/270/216 242/272/218 161/176/139 159/174/137
f 241/271/217 243/273/219 242/272/218 240/270/216
f 242/272/218 244/274/220 163/178/141 161/176/139
f 243/273/219 245/275/221 244/274/220 242/272/218
f 244/274/220 246/276/222 165/180/143 163/178/141
f 245/275/221 247/277/223 246/276/222 244/274/220
f 246/276/222 248/278/224 167/182/145 165/180/143
f 247/277/223 249/279/225 248/278/224 246/276/222
f 134/150/112 250/280/226 239/269/215 87/99/65
f 135/151/113 251/281/227 250/280/226 134/150/112
f 136/152/114 252/282/228 251/281/227 135/151/113
f 137/153/115 253/283/229 252/282/228 136/152/114
f 138/154/116 254/284/230 253/283/229 137/153/115
f 139/155/117 255/285/231 254/284/230 138/154/116
f 140/156/118 256/286/232 255/285/231 139/155/117
f 141/157/119 257/287/233 256/286/232 140/156/118
f 250/280/226 258/288/234 241/271/217 239/269/215
f 251/281/227 259/289/235 258/288/234 250/280/226
f 252/282/228 260/290/236 259/289/235 251/281/227
f 253/283/229 261/291/237 260/290/236 252/282/228
f 254/284/230 262/292/238 261/291/237 253/283/229
f 255/285/231 263/293/239 262/292/238 254/284/230
f 256/286/232 264/294/240 263/293/239 255/285/231
f 257/287/233 265/295/241 264/294/240 256/286/232
f 258/288/234 266/296/242 243/273/219 241/271/217
f 259/289/235 267/297/243 266/296/242 258/288/234
f 260/290/236 268/298/244 267/297/243 259/289/235
f 261/291/237 269/299/245 268/298/244 260/290/236
f 262/292/238 270/300/246 269/299/245 261/291/237
f 263/293/239 271/301/247 270/300/246 262/292/238
f 264/294/240 272/302/248 271/301/247 263/293/239
f 265/295/241 273/303/249 272/302/248 264/294/240
f 266/296/242 274/304/250 245/275/221 243/273/219
f 267/297/243 275/305/251 274/304/250 266/296/242
f 268/298/244 276/306/252 275/305/251 267/297/243
f 269/299/245 277/307/253 276/306/252 268/298/244
f 270/300/246 278/308/254 277/307/253 269/299/245
f 271/301/247 279/309/255 278/308/254 270/300/246
f 272/302/248 280/310/256 279/309/255 271/301/247
f 273/303/249 281/311/257 280/310/256 272/302/248
f 274/304/250 282/312/258 247/277/223 245/275/221
f 275/305/251 283/313/259 282/312/258 274/304/250
f 276/306/252 284/314/260 283/313/259 275/305/251
f 277/307/253 285/315/261 284/314/260 276/306/252
f 278/308/254 286/316/262 285/315/261 277/307/253
f 279/309/255 287/317/263 286/316/262 278/308/254
f 280/310/256 288/318/264 287/317/263 279/309/255
f 281/311/257 289/319/265 288/318/264 280/310/256
f 248/278/224 290/320/266 216/244/192 167/182/145
f 290/320/266 291/321/267 217/245/193 216/244/192
f 291/321/267 292/322/268 218/323/194 217/245/193
f 292/322/268 293/324/269 219/325/195 218/323/194
f 293/324/269 294/326/270 220/327/196 219/325/195
f 294/326/270 295/328/271 221/329/197 220/327/196
f 295/328/271 296/330/272 222/252/198 221/329/197
f 296/330/272 297/331/273 223/253/199 222/252/198
f 249/279/225 298/332/274 290/320/266 248/278/224
f 282/312/258 298/332/274 249/279/225 247/277/223
f 298/332/274 299/333/275 291/321/267 290/320/266
f 283/313/259 299/333/275 298/332/274 282/312/258
f 299/333/275 300/334/276 292/322/268 291/321/267
f 284/314/260 300/334/276 299/333/275 283/313/259
f 300/334/276 301/335/277 293/324/269 292/322/268
f 285/315/261 301/335/277 300/334/276 284/314/260
f 301/335/277 302/336/278 294/326/270 293/324/269
f 286/316/262 302/336/278 301/335/277 285/315/261
f 302/336/278 303/337/279 295/328/271 294/326/270
f 287/317/263 303/337/279 302/336/278 286/316/262
f 303/337/279 304/338/280 296/330/272 295/328/271
f 288/318/264 304/338/280 303/337/279 287/317/263
f 304/338/280 305/339/281 297/331/273 296/330/272
f 289/319/265 305/339/281 304/338/280 288/318/264
f 154/170/132 306/340/282 257/287/233 141/157/119
f 155/171/133 307/341/283 306/340/282 154/170/132
f 306/340/282 308/342/284 265/295/241 257/287/233
f 307/341/283 309/343/285 308/342/284 306/340/282
f 308/342/284 310/344/286 273/303/249 265/295/241
f 309/343/285 311/345/287 310/344/286 308/342/284
f 310/344/286 312/346/288 281/311/257 273/303/249
f 311/345/287 313/347/289 312/346/288 310/344/286
f 312/346/288 314/348/290 289/319/265 281/311/257
f 313/347/289 315/349/291 314/348/290 312/346/288
f 297/331/273 316/350/292 236/266/212 223/253/199
f 316/350/292 317/351/293 237/267/213 236/266/212
f 305/339/281 318/352/294 316/350/292 297/331/273
f 314/348/290 318/352/294 305/339/281 289/319/265
f 318/352/294 319/353/295 317/351/293 316/350/292
f 315/349/291 319/353/295 318/352/294 314/348/290
