# Blender 4.5.4 LTS
# www.blender.org
mtllib wall collision shape.mtl
o antarctic_wall_collision
v -2.578551 -0.189703 2.439049
v -2.578551 0.984133 0.612928
v -2.578551 4.629148 0.612928
v -2.910661 5.751203 1.660860
v -1.717768 5.750898 2.620840
v -2.578551 -0.189703 -0.976694
v -2.578551 2.264139 -1.072807
v -2.578551 4.322437 -1.072807
v -2.578551 0.994782 -1.072807
v -2.294009 1.030665 -1.072807
v -2.927039 5.748665 -0.228223
v -2.893072 5.751400 -0.230296
v -2.875008 5.749200 -1.072807
v -2.868457 5.751753 -1.043508
v -2.531717 5.743112 -1.072807
v -2.539839 5.751455 -1.072807
v 3.080364 -0.189703 2.439049
v 3.226864 0.446481 1.255076
v 3.226864 0.702856 0.595572
v 3.226864 4.683696 0.619593
v 3.226864 5.701446 1.335186
v 3.226864 5.750616 1.871351
v 3.375281 -0.189703 -1.072807
v 3.226864 0.067633 -1.072807
v 3.226864 5.320168 -1.072807
v 3.178338 5.214751 -1.072807
v 3.041871 5.751540 -1.072807
vn -0.5639 -0.2097 0.7987
vn -0.8331 0.2719 0.4817
vn -0.7418 -0.4257 0.5182
vn -0.5832 0.3533 0.7315
vn -0.0128 0.2921 0.9563
vn -0.5914 -0.5786 -0.5617
vn -0.7077 -0.0056 -0.7065
vn -0.7257 -0.0840 -0.6829
vn -0.6964 -0.0340 -0.7169
vn 0.0043 -0.0444 -0.9990
vn -0.8271 0.5620 -0.0020
vn -0.0525 0.9986 -0.0015
vn -0.5737 0.4417 -0.6898
vn -0.0603 0.9933 -0.0984
vn -0.0049 0.5673 -0.8235
vn -0.0029 0.9556 -0.2945
vn 0.5157 -0.1595 0.8418
vn 0.6938 0.6249 0.3579
vn 0.8527 0.2682 0.4483
vn 0.8211 -0.2703 0.5028
vn 0.9759 0.2132 -0.0470
vn 0.5821 0.2547 0.7722
vn 0.6688 -0.6071 -0.4291
vn 0.7744 0.0219 -0.6323
vn 0.9626 0.2084 -0.1729
vn 0.6124 0.2769 -0.7404
vn 0.4241 0.6847 -0.5928
vt 0.914314 0.000000
vt 0.100359 0.000000
vt 0.959199 0.049316
vt 0.883180 0.997597
vt 0.889041 0.989287
vt 0.957233 0.924849
vt 0.929225 0.907033
vt 0.908455 0.997753
vt 0.008916 0.997789
vt 0.007919 0.997358
vt 0.000000 0.997267
vt 0.005170 0.997729
vt 0.058931 0.997739
vt 0.060167 0.996329
vt 0.053039 0.192033
vt 0.971795 0.144495
vt 0.877506 0.817281
vt 0.053039 0.808062
vt 0.184048 0.997645
vt 0.002493 0.997696
vt 0.053039 0.000000
vt 0.053039 0.193833
vt 0.053039 0.000000
vt 0.977520 0.101166
vt 1.000000 0.037139
vt 0.053039 0.756226
vt 0.053039 0.408362
vt 0.080614 0.400477
vt 0.096346 0.199897
vt 0.683098 0.000000
vt 0.069940 0.754369
s 1
f 17/1/17 6/2/6 23/3/23
f 22/4/22 21/5/21 25/6/25 26/7/26 27/8/27
f 14/9/14 13/10/13 11/11/11 12/12/12
f 14/9/14 16/13/16 15/14/15 13/10/13
f 2/15/2 19/16/19 20/17/20 3/18/3
f 3/18/3 20/17/20 22/4/22 5/19/5 4/20/4
f 6/21/6 2/15/2 9/22/9
f 2/15/2 1/23/1 17/1/17 18/24/18 19/16/19
f 17/1/17 23/3/23 24/25/24 18/24/18
f 24/25/24 25/6/25 19/16/19
f 25/6/25 21/5/21 20/17/20
f 21/5/21 22/4/22 20/17/20
f 19/16/19 18/24/18 24/25/24
f 25/6/25 20/17/20 19/16/19
f 4/20/4 12/12/12 11/11/11
f 11/11/11 13/10/13 8/26/8
f 3/18/3 4/20/4 11/11/11
f 6/21/6 1/23/1 2/15/2
f 2/15/2 3/18/3 7/27/7
f 3/18/3 11/11/11 8/26/8
f 7/27/7 3/18/3 8/26/8
f 7/28/7 9/22/9 2/15/2
f 9/22/9 10/29/10 6/21/6
f 17/1/17 1/23/1 6/2/6
f 24/25/24 23/30/23 6/2/6 10/29/10 9/22/9 7/27/7 8/31/8 13/10/13 15/14/15 16/13/16 27/8/27 26/7/26 25/6/25
f 5/19/5 22/4/22 27/8/27 16/13/16 14/9/14 12/12/12 4/20/4
