# Blender 5.0.0
# www.blender.org
mtllib boss-arena-A.mtl
o arena2
v -5.653818 0.860625 6.523649
v -6.523649 0.860625 5.653818
v -6.399914 0.982460 5.602565
v -5.602565 0.982460 6.399914
v -6.523649 0.860625 -5.653818
v -5.653818 0.860625 -6.523649
v -5.602565 0.982460 -6.399914
v -6.399914 0.982460 -5.602565
v 6.523649 0.860625 5.653818
v 5.653818 0.860625 6.523649
v 5.602565 0.982460 6.399914
v 6.399914 0.982460 5.602565
v 5.653818 0.860625 -6.523649
v 6.523649 0.860625 -5.653818
v 6.399914 0.982460 -5.602565
v 5.602565 0.982460 -6.399914
v -5.653818 0.982460 6.523649
v -6.523649 0.982460 5.653818
v -6.523649 0.982460 -5.653818
v -5.653818 0.982460 -6.523649
v 5.653818 0.982460 -6.523649
v 6.523649 0.982460 -5.653818
v 6.523649 0.982460 5.653818
v 5.653818 0.982460 6.523649
v -5.551312 1.106195 6.276179
v -6.276179 1.106195 5.551312
v -6.276179 1.106195 -5.551312
v -5.551312 1.106195 -6.276179
v 5.551312 1.106195 -6.276179
v 6.276179 1.106195 -5.551312
v 6.276179 1.106195 5.551312
v 5.551312 1.106195 6.276179
v -5.602565 1.106195 6.399914
v -6.399914 1.106195 5.602565
v -6.399914 1.106195 -5.602565
v -5.602565 1.106195 -6.399914
v 5.602565 1.106195 -6.399914
v 6.399914 1.106195 -5.602565
v 6.399914 1.106195 5.602565
v 5.602565 1.106195 6.399914
v -5.500060 1.229930 6.152444
v -6.152444 1.229930 5.500060
v -6.152444 1.229930 -5.500060
v -5.500060 1.229930 -6.152444
v 5.500060 1.229930 -6.152444
v 6.152444 1.229930 -5.500060
v 6.152444 1.229930 5.500060
v 5.500060 1.229930 6.152444
v -5.551312 1.229930 6.276179
v -6.276179 1.229930 5.551312
v -6.276179 1.229930 -5.551312
v -5.551312 1.229930 -6.276179
v 5.551312 1.229930 -6.276179
v 6.276179 1.229930 -5.551312
v 6.276179 1.229930 5.551312
v 5.551312 1.229930 6.276179
v -5.448807 1.353665 6.028709
v -6.028709 1.353665 5.448807
v -6.028709 1.353665 -5.448807
v -5.448807 1.353665 -6.028709
v 5.448807 1.353665 -6.028709
v 6.028709 1.353665 -5.448807
v 6.028709 1.353665 5.448807
v 5.448807 1.353665 6.028709
v -5.500060 1.353665 6.152444
v -6.152444 1.353665 5.500060
v -6.152444 1.353665 -5.500060
v -5.500060 1.353665 -6.152444
v 5.500060 1.353665 -6.152444
v 6.152444 1.353665 -5.500060
v 6.152444 1.353665 5.500060
v 5.500060 1.353665 6.152444
v -5.397554 1.477400 5.904974
v -5.904974 1.477400 5.397554
v -5.904974 1.477400 -5.397554
v -5.397554 1.477400 -5.904974
v 5.397554 1.477400 -5.904974
v 5.904974 1.477400 -5.397554
v 5.904974 1.477400 5.397554
v 5.397554 1.477400 5.904974
v -5.448807 1.477400 6.028709
v -6.028709 1.477400 5.448807
v -6.028709 1.477400 -5.448807
v -5.448807 1.477400 -6.028709
v 5.448807 1.477400 -6.028709
v 6.028709 1.477400 -5.448807
v 6.028709 1.477400 5.448807
v 5.448807 1.477400 6.028709
v -5.346301 1.601135 5.781239
v -5.781239 1.601135 5.346301
v -5.781239 1.601135 -5.346301
v -5.346301 1.601135 -5.781239
v 5.346301 1.601135 -5.781239
v 5.781239 1.601135 -5.346301
v 5.781239 1.601135 5.346301
v 5.346301 1.601135 5.781239
v -5.397554 1.601135 5.904974
v -5.904974 1.601135 5.397554
v -5.904974 1.601135 -5.397554
v -5.397554 1.601135 -5.904974
v 5.397554 1.601135 -5.904974
v 5.904974 1.601135 -5.397554
v 5.904974 1.601135 5.397554
v 5.397554 1.601135 5.904974
v -5.295048 1.724870 5.657504
v -5.657504 1.724870 5.295048
v -5.657504 1.724870 -5.295048
v -5.295048 1.724870 -5.657504
v 5.295048 1.724870 -5.657504
v 5.657504 1.724870 -5.295048
v 5.657504 1.724870 5.295048
v 5.295048 1.724870 5.657504
v -5.346301 1.724870 5.781239
v -5.781239 1.724870 5.346301
v -5.781239 1.724870 -5.346301
v -5.346301 1.724870 -5.781239
v 5.346301 1.724870 -5.781239
v 5.781239 1.724870 -5.346301
v 5.781239 1.724870 5.346301
v 5.346301 1.724870 5.781239
v -5.243795 1.848605 5.533769
v -5.533769 1.848605 5.243795
v -5.533769 1.848605 -5.243795
v -5.243795 1.848605 -5.533769
v 5.243795 1.848605 -5.533769
v 5.533769 1.848605 -5.243795
v 5.533769 1.848605 5.243795
v 5.243795 1.848605 5.533769
v -5.295048 1.848605 5.657504
v -5.657504 1.848605 5.295048
v -5.657504 1.848605 -5.295048
v -5.295048 1.848605 -5.657504
v 5.295048 1.848605 -5.657504
v 5.657504 1.848605 -5.295048
v 5.657504 1.848605 5.295048
v 5.295048 1.848605 5.657504
v -5.192543 1.972340 5.410034
v -5.410034 1.972340 5.192543
v -5.410034 1.972340 -5.192543
v -5.192543 1.972340 -5.410034
v 5.192543 1.972340 -5.410034
v 5.410034 1.972340 -5.192543
v 5.410034 1.972340 5.192543
v 5.192543 1.972340 5.410034
v -5.243795 1.972340 5.533769
v -5.533769 1.972340 5.243795
v -5.533769 1.972340 -5.243795
v -5.243795 1.972340 -5.533769
v 5.243795 1.972340 -5.533769
v 5.533769 1.972340 -5.243795
v 5.533769 1.972340 5.243795
v 5.243795 1.972340 5.533769
v -5.141290 2.096075 5.286299
v -5.286299 2.096075 5.141290
v -5.286299 2.096075 -5.141290
v -5.141290 2.096075 -5.286299
v 5.141290 2.096075 -5.286299
v 5.286299 2.096075 -5.141290
v 5.286299 2.096075 5.141290
v 5.141290 2.096075 5.286299
v -5.192543 2.096075 5.410034
v -5.410034 2.096075 5.192543
v -5.410034 2.096075 -5.192543
v -5.192543 2.096075 -5.410034
v 5.192543 2.096075 -5.410034
v 5.410034 2.096075 -5.192543
v 5.410034 2.096075 5.192543
v 5.192543 2.096075 5.410034
v -5.090037 2.219810 5.162564
v -5.162564 2.219810 5.090037
v -5.162564 2.219810 -5.090037
v -5.090037 2.219810 -5.162564
v 5.090037 2.219810 -5.162564
v 5.162564 2.219810 -5.090037
v 5.162564 2.219810 5.090037
v 5.090037 2.219810 5.162564
v -5.141290 2.219810 5.286299
v -5.286299 2.219810 5.141290
v -5.286299 2.219810 -5.141290
v -5.141290 2.219810 -5.286299
v 5.141290 2.219810 -5.286299
v 5.286299 2.219810 -5.141290
v 5.286299 2.219810 5.141290
v 5.141290 2.219810 5.286299
v -5.038784 2.343545 5.038829
v -5.038829 2.343545 5.038784
v -5.038829 2.343545 -5.038784
v -5.038784 2.343545 -5.038829
v 5.038784 2.343545 -5.038829
v 5.038829 2.343545 -5.038784
v 5.038829 2.343545 5.038784
v 5.038784 2.343545 5.038829
v -5.090037 2.343545 5.162564
v -5.162564 2.343545 5.090037
v -5.162564 2.343545 -5.090037
v -5.090037 2.343545 -5.162564
v 5.090037 2.343545 -5.162564
v 5.162564 2.343545 -5.090037
v 5.162564 2.343545 5.090037
v 5.090037 2.343545 5.162564
v -5.038784 2.467280 5.038829
v -5.038829 2.467280 5.038784
v -5.038829 2.467280 -5.038784
v -5.038784 2.467280 -5.038829
v 5.038784 2.467280 -5.038829
v 5.038829 2.467280 -5.038784
v 5.038829 2.467280 5.038784
v 5.038784 2.467280 5.038829
vn -0.7071 -0.0000 0.7071
vn -0.7071 -0.0000 -0.7071
vn 0.7071 -0.0000 -0.7071
vn 0.7071 -0.0000 0.7071
vn -0.0000 -1.0000 -0.0000
vn -1.0000 -0.0000 -0.0000
vn -0.0000 -0.0000 1.0000
vn -0.0000 -0.0000 -1.0000
vn 1.0000 -0.0000 -0.0000
vn -0.0000 1.0000 -0.0000
vn 0.7073 -0.0000 -0.7070
vn -0.7073 -0.0000 0.7070
vn 0.7073 -0.0000 0.7070
vn -0.7073 -0.0000 -0.7070
vt 0.502905 0.188501
vt 0.501001 0.188501
vt 0.501001 0.248999
vt 0.502905 0.248999
vt 0.561499 0.252905
vt 0.561499 0.251001
vt 0.501001 0.251001
vt 0.501001 0.252905
vt 0.502905 0.126001
vt 0.501001 0.126001
vt 0.501001 0.186499
vt 0.502905 0.186499
vt 0.561499 0.256811
vt 0.561499 0.254907
vt 0.501001 0.254907
vt 0.501001 0.256811
vt 0.498999 0.465799
vt 0.465799 0.498999
vt 0.034201 0.498999
vt 0.001001 0.465799
vt 0.001001 0.034201
vt 0.034201 0.001001
vt 0.465799 0.001001
vt 0.498999 0.034201
vt 0.569311 0.001001
vt 0.567407 0.001001
vt 0.567407 0.498999
vt 0.569311 0.498999
vt 0.998999 0.502905
vt 0.998999 0.501001
vt 0.501001 0.501001
vt 0.501001 0.502905
vt 0.573218 0.498999
vt 0.573218 0.001001
vt 0.571314 0.001001
vt 0.571314 0.498999
vt 0.998999 0.506811
vt 0.998999 0.504907
vt 0.501001 0.504907
vt 0.501001 0.506811
vt 0.577124 0.001001
vt 0.575220 0.001001
vt 0.575220 0.498999
vt 0.577124 0.498999
vt 0.522436 0.123999
vt 0.522436 0.094751
vt 0.520532 0.094751
vt 0.520532 0.123999
vt 0.518530 0.123999
vt 0.518530 0.094751
vt 0.516626 0.094751
vt 0.516626 0.123999
vt 0.530249 0.123999
vt 0.530249 0.094751
vt 0.528345 0.094751
vt 0.528345 0.123999
vt 0.526343 0.123999
vt 0.526343 0.094751
vt 0.524439 0.094751
vt 0.524439 0.123999
vt 0.501001 0.510718
vt 0.998999 0.510718
vt 0.998999 0.508814
vt 0.501001 0.508814
vt 0.581030 0.498999
vt 0.581030 0.001001
vt 0.579126 0.001001
vt 0.579126 0.498999
vt 0.501001 0.514624
vt 0.998999 0.514624
vt 0.998999 0.512720
vt 0.501001 0.512720
vt 0.584936 0.498999
vt 0.584936 0.001001
vt 0.583032 0.001001
vt 0.583032 0.498999
vt 0.506811 0.123999
vt 0.506811 0.094751
vt 0.504907 0.094751
vt 0.504907 0.123999
vt 0.502905 0.123999
vt 0.502905 0.094751
vt 0.501001 0.094751
vt 0.501001 0.123999
vt 0.514624 0.123999
vt 0.514624 0.094751
vt 0.512720 0.094751
vt 0.512720 0.123999
vt 0.501001 0.518530
vt 0.998999 0.518530
vt 0.998999 0.516626
vt 0.501001 0.516626
vt 0.588843 0.498999
vt 0.588843 0.001001
vt 0.586939 0.001001
vt 0.586939 0.498999
vt 0.510718 0.123999
vt 0.510718 0.094751
vt 0.508814 0.094751
vt 0.508814 0.123999
vt 0.553686 0.123999
vt 0.553686 0.094751
vt 0.551782 0.094751
vt 0.551782 0.123999
vt 0.501001 0.522436
vt 0.998999 0.522436
vt 0.998999 0.520532
vt 0.501001 0.520532
vt 0.549780 0.123999
vt 0.549780 0.094751
vt 0.547876 0.094751
vt 0.547876 0.123999
vt 0.561499 0.123999
vt 0.561499 0.094751
vt 0.559595 0.094751
vt 0.559595 0.123999
vt 0.557593 0.123999
vt 0.557593 0.094751
vt 0.555689 0.094751
vt 0.555689 0.123999
vt 0.538061 0.123999
vt 0.538061 0.094751
vt 0.536157 0.094751
vt 0.536157 0.123999
vt 0.592749 0.498999
vt 0.592749 0.001001
vt 0.590845 0.001001
vt 0.590845 0.498999
vt 0.501001 0.526343
vt 0.998999 0.526343
vt 0.998999 0.524439
vt 0.501001 0.524439
vt 0.596655 0.498999
vt 0.596655 0.001001
vt 0.594751 0.001001
vt 0.594751 0.498999
vt 0.501001 0.530249
vt 0.998999 0.530249
vt 0.998999 0.528345
vt 0.501001 0.528345
vt 0.600561 0.498999
vt 0.600561 0.001001
vt 0.598657 0.001001
vt 0.598657 0.498999
vt 0.534155 0.123999
vt 0.534155 0.094751
vt 0.532251 0.094751
vt 0.532251 0.123999
vt 0.501001 0.534155
vt 0.998999 0.534155
vt 0.998999 0.532251
vt 0.501001 0.532251
vt 0.604468 0.498999
vt 0.604468 0.001001
vt 0.602564 0.001001
vt 0.602564 0.498999
vt 0.545874 0.123999
vt 0.545874 0.094751
vt 0.543970 0.094751
vt 0.543970 0.123999
vt 0.541968 0.123999
vt 0.541968 0.094751
vt 0.540064 0.094751
vt 0.540064 0.123999
vt 0.501001 0.538061
vt 0.998999 0.538061
vt 0.998999 0.536157
vt 0.501001 0.536157
vt 0.608374 0.498999
vt 0.608374 0.001001
vt 0.606470 0.001001
vt 0.606470 0.498999
vt 0.522436 0.030249
vt 0.522436 0.001001
vt 0.520532 0.001001
vt 0.520532 0.030249
vt 0.518530 0.030249
vt 0.518530 0.001001
vt 0.516626 0.001001
vt 0.516626 0.030249
vt 0.530249 0.030249
vt 0.530249 0.001001
vt 0.528345 0.001001
vt 0.528345 0.030249
vt 0.526343 0.030249
vt 0.526343 0.001001
vt 0.524439 0.001001
vt 0.524439 0.030249
vt 0.501001 0.541968
vt 0.998999 0.541968
vt 0.998999 0.540064
vt 0.501001 0.540064
vt 0.612280 0.498999
vt 0.612280 0.001001
vt 0.610376 0.001001
vt 0.610376 0.498999
vt 0.501001 0.545874
vt 0.998999 0.545874
vt 0.998999 0.543970
vt 0.501001 0.543970
vt 0.616186 0.498999
vt 0.616186 0.001001
vt 0.614282 0.001001
vt 0.614282 0.498999
vt 0.506811 0.030249
vt 0.506811 0.001001
vt 0.504907 0.001001
vt 0.504907 0.030249
vt 0.501001 0.549780
vt 0.998999 0.549780
vt 0.998999 0.547876
vt 0.501001 0.547876
vt 0.502905 0.030249
vt 0.502905 0.001001
vt 0.501001 0.001001
vt 0.501001 0.030249
vt 0.514624 0.030249
vt 0.514624 0.001001
vt 0.512720 0.001001
vt 0.512720 0.030249
vt 0.620093 0.498999
vt 0.620093 0.001001
vt 0.618189 0.001001
vt 0.618189 0.498999
vt 0.501001 0.553686
vt 0.998999 0.553686
vt 0.998999 0.551782
vt 0.501001 0.551782
vt 0.510718 0.030249
vt 0.510718 0.001001
vt 0.508814 0.001001
vt 0.508814 0.030249
vt 0.553686 0.030249
vt 0.553686 0.001001
vt 0.551782 0.001001
vt 0.551782 0.030249
vt 0.549780 0.030249
vt 0.549780 0.001001
vt 0.547876 0.001001
vt 0.547876 0.030249
vt 0.561499 0.030249
vt 0.561499 0.001001
vt 0.559595 0.001001
vt 0.559595 0.030249
vt 0.557593 0.030249
vt 0.557593 0.001001
vt 0.555689 0.001001
vt 0.555689 0.030249
vt 0.538061 0.030249
vt 0.538061 0.001001
vt 0.536157 0.001001
vt 0.536157 0.030249
vt 0.623999 0.498999
vt 0.623999 0.001001
vt 0.622095 0.001001
vt 0.622095 0.498999
vt 0.501001 0.557593
vt 0.998999 0.557593
vt 0.998999 0.555689
vt 0.501001 0.555689
vt 0.627905 0.498999
vt 0.627905 0.001001
vt 0.626001 0.001001
vt 0.626001 0.498999
vt 0.501001 0.561499
vt 0.998999 0.561499
vt 0.998999 0.559595
vt 0.501001 0.559595
vt 0.534155 0.030249
vt 0.534155 0.001001
vt 0.532251 0.001001
vt 0.532251 0.030249
vt 0.631811 0.498999
vt 0.631811 0.001001
vt 0.629907 0.001001
vt 0.629907 0.498999
vt 0.501001 0.565405
vt 0.998999 0.565405
vt 0.998999 0.563501
vt 0.501001 0.563501
vt 0.545874 0.030249
vt 0.545874 0.001001
vt 0.543970 0.001001
vt 0.543970 0.030249
vt 0.541968 0.030249
vt 0.541968 0.001001
vt 0.540064 0.001001
vt 0.540064 0.030249
vt 0.635718 0.498999
vt 0.635718 0.001001
vt 0.633814 0.001001
vt 0.633814 0.498999
vt 0.501001 0.569311
vt 0.998999 0.569311
vt 0.998999 0.567407
vt 0.501001 0.567407
vt 0.522436 0.061499
vt 0.522436 0.032251
vt 0.520532 0.032251
vt 0.520532 0.061499
vt 0.518530 0.061499
vt 0.518530 0.032251
vt 0.516626 0.032251
vt 0.516626 0.061499
vt 0.530249 0.061499
vt 0.530249 0.032251
vt 0.528345 0.032251
vt 0.528345 0.061499
vt 0.526343 0.061499
vt 0.526343 0.032251
vt 0.524439 0.032251
vt 0.524439 0.061499
vt 0.506811 0.061499
vt 0.506811 0.032251
vt 0.504907 0.032251
vt 0.504907 0.061499
vt 0.639624 0.498999
vt 0.639624 0.001001
vt 0.637720 0.001001
vt 0.637720 0.498999
vt 0.501001 0.573218
vt 0.998999 0.573218
vt 0.998999 0.571314
vt 0.501001 0.571314
vt 0.643530 0.498999
vt 0.643530 0.001001
vt 0.641626 0.001001
vt 0.641626 0.498999
vt 0.501001 0.577124
vt 0.998999 0.577124
vt 0.998999 0.575220
vt 0.501001 0.575220
vt 0.502905 0.061499
vt 0.502905 0.032251
vt 0.501001 0.032251
vt 0.501001 0.061499
vt 0.514624 0.061499
vt 0.514624 0.032251
vt 0.512720 0.032251
vt 0.512720 0.061499
vt 0.647436 0.498999
vt 0.647436 0.001001
vt 0.645532 0.001001
vt 0.645532 0.498999
vt 0.501001 0.581030
vt 0.998999 0.581030
vt 0.998999 0.579126
vt 0.501001 0.579126
vt 0.510718 0.061499
vt 0.510718 0.032251
vt 0.508814 0.032251
vt 0.508814 0.061499
vt 0.553686 0.061499
vt 0.553686 0.032251
vt 0.551782 0.032251
vt 0.551782 0.061499
vt 0.651343 0.498999
vt 0.651343 0.001001
vt 0.649439 0.001001
vt 0.649439 0.498999
vt 0.501001 0.584936
vt 0.998999 0.584936
vt 0.998999 0.583032
vt 0.501001 0.583032
vt 0.549780 0.061499
vt 0.549780 0.032251
vt 0.547876 0.032251
vt 0.547876 0.061499
vt 0.561499 0.061499
vt 0.561499 0.032251
vt 0.559595 0.032251
vt 0.559595 0.061499
vt 0.557593 0.061499
vt 0.557593 0.032251
vt 0.555689 0.032251
vt 0.555689 0.061499
vt 0.538061 0.061499
vt 0.538061 0.032251
vt 0.536157 0.032251
vt 0.536157 0.061499
vt 0.655249 0.498999
vt 0.655249 0.001001
vt 0.653345 0.001001
vt 0.653345 0.498999
vt 0.501001 0.588843
vt 0.998999 0.588843
vt 0.998999 0.586939
vt 0.501001 0.586939
vt 0.756811 0.498999
vt 0.756811 0.001001
vt 0.754907 0.001001
vt 0.754907 0.498999
vt 0.501001 0.596655
vt 0.998999 0.596655
vt 0.998999 0.594751
vt 0.501001 0.594751
vt 0.659155 0.498999
vt 0.659155 0.001001
vt 0.657251 0.001001
vt 0.657251 0.498999
vt 0.534155 0.061499
vt 0.534155 0.032251
vt 0.532251 0.032251
vt 0.532251 0.061499
vt 0.501001 0.600561
vt 0.998999 0.600561
vt 0.998999 0.598657
vt 0.501001 0.598657
vt 0.663061 0.498999
vt 0.663061 0.001001
vt 0.661157 0.001001
vt 0.661157 0.498999
vt 0.545874 0.061499
vt 0.545874 0.032251
vt 0.543970 0.032251
vt 0.543970 0.061499
vt 0.541968 0.061499
vt 0.541968 0.032251
vt 0.540064 0.032251
vt 0.540064 0.061499
vt 0.501001 0.604468
vt 0.998999 0.604468
vt 0.998999 0.602564
vt 0.501001 0.602564
vt 0.666968 0.498999
vt 0.666968 0.001001
vt 0.665064 0.001001
vt 0.665064 0.498999
vt 0.522436 0.092749
vt 0.522436 0.079126
vt 0.520532 0.079126
vt 0.520532 0.092749
vt 0.518530 0.092749
vt 0.518530 0.079126
vt 0.516626 0.079126
vt 0.516626 0.092749
vt 0.530249 0.092749
vt 0.530249 0.079126
vt 0.528345 0.079126
vt 0.528345 0.092749
vt 0.526343 0.092749
vt 0.526343 0.079126
vt 0.524439 0.079126
vt 0.524439 0.092749
vt 0.501001 0.608374
vt 0.998999 0.608374
vt 0.998999 0.606470
vt 0.501001 0.606470
vt 0.670874 0.498999
vt 0.670874 0.001001
vt 0.668970 0.001001
vt 0.668970 0.498999
vt 0.501001 0.612280
vt 0.998999 0.612280
vt 0.998999 0.610376
vt 0.501001 0.610376
vt 0.674780 0.498999
vt 0.674780 0.001001
vt 0.672876 0.001001
vt 0.672876 0.498999
vt 0.501001 0.616186
vt 0.998999 0.616186
vt 0.998999 0.614282
vt 0.501001 0.614282
vt 0.678686 0.498999
vt 0.678686 0.001001
vt 0.676782 0.001001
vt 0.676782 0.498999
vt 0.506811 0.092749
vt 0.506811 0.079126
vt 0.504907 0.079126
vt 0.504907 0.092749
vt 0.502905 0.092749
vt 0.502905 0.079126
vt 0.501001 0.079126
vt 0.501001 0.092749
vt 0.501001 0.620093
vt 0.998999 0.620093
vt 0.998999 0.618189
vt 0.501001 0.618189
vt 0.682593 0.498999
vt 0.682593 0.001001
vt 0.680689 0.001001
vt 0.680689 0.498999
vt 0.514624 0.092749
vt 0.514624 0.079126
vt 0.512720 0.079126
vt 0.512720 0.092749
vt 0.510718 0.092749
vt 0.510718 0.079126
vt 0.508814 0.079126
vt 0.508814 0.092749
vt 0.522436 0.077124
vt 0.522436 0.063501
vt 0.520532 0.063501
vt 0.520532 0.077124
vt 0.518530 0.077124
vt 0.518530 0.063501
vt 0.516626 0.063501
vt 0.516626 0.077124
vt 0.530249 0.077124
vt 0.530249 0.063501
vt 0.528345 0.063501
vt 0.528345 0.077124
vt 0.526343 0.077124
vt 0.526343 0.063501
vt 0.524439 0.063501
vt 0.524439 0.077124
vt 0.501001 0.623999
vt 0.998999 0.623999
vt 0.998999 0.622095
vt 0.501001 0.622095
vt 0.686499 0.498999
vt 0.686499 0.001001
vt 0.684595 0.001001
vt 0.684595 0.498999
vt 0.501001 0.627905
vt 0.998999 0.627905
vt 0.998999 0.626001
vt 0.501001 0.626001
vt 0.690405 0.498999
vt 0.690405 0.001001
vt 0.688501 0.001001
vt 0.688501 0.498999
vt 0.501001 0.631811
vt 0.998999 0.631811
vt 0.998999 0.629907
vt 0.501001 0.629907
vt 0.506811 0.077124
vt 0.506811 0.063501
vt 0.504907 0.063501
vt 0.504907 0.077124
vt 0.502905 0.077124
vt 0.502905 0.063501
vt 0.501001 0.063501
vt 0.501001 0.077124
vt 0.694311 0.498999
vt 0.694311 0.001001
vt 0.692407 0.001001
vt 0.692407 0.498999
vt 0.501001 0.635718
vt 0.998999 0.635718
vt 0.998999 0.633814
vt 0.501001 0.633814
vt 0.514624 0.077124
vt 0.514624 0.063501
vt 0.512720 0.063501
vt 0.512720 0.077124
vt 0.510718 0.077124
vt 0.510718 0.063501
vt 0.508814 0.063501
vt 0.508814 0.077124
vt 0.698218 0.498999
vt 0.698218 0.001001
vt 0.696314 0.001001
vt 0.696314 0.498999
vt 0.553686 0.092749
vt 0.553686 0.079126
vt 0.551782 0.079126
vt 0.551782 0.092749
vt 0.549780 0.092749
vt 0.549780 0.079126
vt 0.547876 0.079126
vt 0.547876 0.092749
vt 0.561499 0.092749
vt 0.561499 0.079126
vt 0.559595 0.079126
vt 0.559595 0.092749
vt 0.557593 0.092749
vt 0.557593 0.079126
vt 0.555689 0.079126
vt 0.555689 0.092749
vt 0.501001 0.639624
vt 0.998999 0.639624
vt 0.998999 0.637720
vt 0.501001 0.637720
vt 0.702124 0.498999
vt 0.702124 0.001001
vt 0.700220 0.001001
vt 0.700220 0.498999
vt 0.501001 0.643530
vt 0.998999 0.643530
vt 0.998999 0.641626
vt 0.501001 0.641626
vt 0.706030 0.498999
vt 0.706030 0.001001
vt 0.704126 0.001001
vt 0.704126 0.498999
vt 0.501001 0.647436
vt 0.998999 0.647436
vt 0.998999 0.645532
vt 0.501001 0.645532
vt 0.709936 0.498999
vt 0.709936 0.001001
vt 0.708032 0.001001
vt 0.708032 0.498999
vt 0.538061 0.092749
vt 0.538061 0.079126
vt 0.536157 0.079126
vt 0.536157 0.092749
vt 0.534155 0.092749
vt 0.534155 0.079126
vt 0.532251 0.079126
vt 0.532251 0.092749
vt 0.501001 0.651343
vt 0.998999 0.651343
vt 0.998999 0.649439
vt 0.501001 0.649439
vt 0.713843 0.498999
vt 0.713843 0.001001
vt 0.711939 0.001001
vt 0.711939 0.498999
vt 0.545874 0.092749
vt 0.545874 0.079126
vt 0.543970 0.079126
vt 0.543970 0.092749
vt 0.541968 0.092749
vt 0.541968 0.079126
vt 0.540064 0.079126
vt 0.540064 0.092749
vt 0.561499 0.077124
vt 0.561499 0.071314
vt 0.559595 0.071314
vt 0.559595 0.077124
vt 0.557593 0.077124
vt 0.557593 0.071314
vt 0.555689 0.071314
vt 0.555689 0.077124
vt 0.538061 0.069311
vt 0.538061 0.063501
vt 0.536157 0.063501
vt 0.536157 0.069311
vt 0.534155 0.069311
vt 0.534155 0.063501
vt 0.532251 0.063501
vt 0.532251 0.069311
vt 0.501001 0.655249
vt 0.998999 0.655249
vt 0.998999 0.653345
vt 0.501001 0.653345
vt 0.717749 0.498999
vt 0.717749 0.001001
vt 0.715845 0.001001
vt 0.715845 0.498999
vt 0.501001 0.659155
vt 0.998999 0.659155
vt 0.998999 0.657251
vt 0.501001 0.657251
vt 0.721655 0.498999
vt 0.721655 0.001001
vt 0.719751 0.001001
vt 0.719751 0.498999
vt 0.501001 0.663061
vt 0.998999 0.663061
vt 0.998999 0.661157
vt 0.501001 0.661157
vt 0.725561 0.498999
vt 0.725561 0.001001
vt 0.723657 0.001001
vt 0.723657 0.498999
vt 0.545874 0.069311
vt 0.545874 0.063501
vt 0.543970 0.063501
vt 0.543970 0.069311
vt 0.541968 0.069311
vt 0.541968 0.063501
vt 0.540064 0.063501
vt 0.540064 0.069311
vt 0.501001 0.666968
vt 0.998999 0.666968
vt 0.998999 0.665064
vt 0.501001 0.665064
vt 0.729468 0.498999
vt 0.729468 0.001001
vt 0.727564 0.001001
vt 0.727564 0.498999
vt 0.538061 0.077124
vt 0.538061 0.071314
vt 0.536157 0.071314
vt 0.536157 0.077124
vt 0.534155 0.077124
vt 0.534155 0.071314
vt 0.532251 0.071314
vt 0.532251 0.077124
vt 0.545874 0.077124
vt 0.545874 0.071314
vt 0.543970 0.071314
vt 0.543970 0.077124
vt 0.541968 0.077124
vt 0.541968 0.071314
vt 0.540064 0.071314
vt 0.540064 0.077124
vt 0.506811 0.264624
vt 0.506811 0.258814
vt 0.504907 0.258814
vt 0.504907 0.264624
vt 0.502905 0.264624
vt 0.502905 0.258814
vt 0.501001 0.258814
vt 0.501001 0.264624
vt 0.501001 0.670874
vt 0.998999 0.670874
vt 0.998999 0.668970
vt 0.501001 0.668970
vt 0.733374 0.498999
vt 0.733374 0.001001
vt 0.731470 0.001001
vt 0.731470 0.498999
vt 0.501001 0.674780
vt 0.998999 0.674780
vt 0.998999 0.672876
vt 0.501001 0.672876
vt 0.737280 0.498999
vt 0.737280 0.001001
vt 0.735376 0.001001
vt 0.735376 0.498999
vt 0.501001 0.678686
vt 0.998999 0.678686
vt 0.998999 0.676782
vt 0.501001 0.676782
vt 0.553686 0.067407
vt 0.551782 0.067407
vt 0.551782 0.069311
vt 0.553686 0.069311
vt 0.549780 0.067407
vt 0.547876 0.067407
vt 0.547876 0.069311
vt 0.549780 0.069311
vt 0.741186 0.498999
vt 0.741186 0.001001
vt 0.739282 0.001001
vt 0.739282 0.498999
vt 0.501001 0.682593
vt 0.998999 0.682593
vt 0.998999 0.680689
vt 0.501001 0.680689
vt 0.553686 0.063501
vt 0.551782 0.063501
vt 0.551782 0.065405
vt 0.553686 0.065405
vt 0.549780 0.063501
vt 0.547876 0.063501
vt 0.547876 0.065405
vt 0.549780 0.065405
vt 0.745093 0.498999
vt 0.745093 0.001001
vt 0.743189 0.001001
vt 0.743189 0.498999
vt 0.561499 0.067407
vt 0.559595 0.067407
vt 0.559595 0.069311
vt 0.561499 0.069311
vt 0.557593 0.067407
vt 0.555689 0.067407
vt 0.555689 0.069311
vt 0.557593 0.069311
vt 0.561499 0.063501
vt 0.559595 0.063501
vt 0.559595 0.065405
vt 0.561499 0.065405
vt 0.557593 0.063501
vt 0.555689 0.063501
vt 0.555689 0.065405
vt 0.557593 0.065405
vt 0.501001 0.686499
vt 0.998999 0.686499
vt 0.998999 0.684595
vt 0.501001 0.684595
vt 0.748999 0.498999
vt 0.748999 0.001001
vt 0.747095 0.001001
vt 0.747095 0.498999
vt 0.501001 0.690405
vt 0.998999 0.690405
vt 0.998999 0.688501
vt 0.501001 0.688501
vt 0.752905 0.498999
vt 0.752905 0.001001
vt 0.751001 0.001001
vt 0.751001 0.498999
vt 0.001003 0.998999
vt 0.001001 0.998997
vt 0.001001 0.501003
vt 0.001003 0.501001
vt 0.498997 0.501001
vt 0.498999 0.501003
vt 0.498999 0.998997
vt 0.498997 0.998999
vt 0.553686 0.075220
vt 0.551782 0.075220
vt 0.551782 0.077124
vt 0.553686 0.077124
vt 0.549780 0.075220
vt 0.547876 0.075220
vt 0.547876 0.077124
vt 0.549780 0.077124
vt 0.501001 0.694311
vt 0.998999 0.694311
vt 0.998999 0.692407
vt 0.501001 0.692407
vt 0.565405 0.498999
vt 0.565405 0.001001
vt 0.563501 0.001001
vt 0.563501 0.498999
vt 0.553686 0.071314
vt 0.551782 0.071314
vt 0.551782 0.073218
vt 0.553686 0.073218
vt 0.549780 0.071314
vt 0.547876 0.071314
vt 0.547876 0.073218
vt 0.549780 0.073218
vt 0.501001 0.592749
vt 0.998999 0.592749
vt 0.998999 0.590845
vt 0.501001 0.590845
s 0
f 1/1/1 17/2/1 18/3/1 2/4/1
f 20/5/2 6/6/2 5/7/2 19/8/2
f 22/9/3 14/10/3 13/11/3 21/12/3
f 24/13/4 10/14/4 9/15/4 23/16/4
f 5/17/5 6/18/5 13/19/5 14/20/5 9/21/5 10/22/5 1/23/5 2/24/5
f 2/25/6 18/26/6 19/27/6 5/28/6
f 10/29/7 24/30/7 17/31/7 1/32/7
f 4/33/7 11/34/7 40/35/7 33/36/7
f 6/37/8 20/38/8 21/39/8 13/40/8
f 14/41/9 22/42/9 23/43/9 9/44/9
f 4/45/10 3/46/10 18/47/10 17/48/10
f 8/49/10 7/50/10 20/51/10 19/52/10
f 16/53/10 15/54/10 22/55/10 21/56/10
f 12/57/10 11/58/10 24/59/10 23/60/10
f 3/61/10 8/62/10 19/63/10 18/64/10
f 11/65/10 4/66/10 17/67/10 24/68/10
f 15/69/10 12/70/10 23/71/10 22/72/10
f 7/73/10 16/74/10 21/75/10 20/76/10
f 32/77/4 31/78/4 55/79/4 56/80/4
f 11/81/4 12/82/4 39/83/4 40/84/4
f 7/85/2 8/86/2 35/87/2 36/88/2
f 12/89/9 15/90/9 38/91/9 39/92/9
f 8/93/6 3/94/6 34/95/6 35/96/6
f 15/97/3 16/98/3 37/99/3 38/100/3
f 3/101/1 4/102/1 33/103/1 34/104/1
f 16/105/8 7/106/8 36/107/8 37/108/8
f 25/109/10 26/110/10 34/111/10 33/112/10
f 27/113/10 28/114/10 36/115/10 35/116/10
f 29/117/10 30/118/10 38/119/10 37/120/10
f 31/121/10 32/122/10 40/123/10 39/124/10
f 26/125/10 27/126/10 35/127/10 34/128/10
f 32/129/10 25/130/10 33/131/10 40/132/10
f 30/133/10 31/134/10 39/135/10 38/136/10
f 28/137/10 29/138/10 37/139/10 36/140/10
f 45/141/8 44/142/8 68/143/8 69/144/8
f 28/145/2 27/146/2 51/147/2 52/148/2
f 31/149/9 30/150/9 54/151/9 55/152/9
f 27/153/6 26/154/6 50/155/6 51/156/6
f 30/157/3 29/158/3 53/159/3 54/160/3
f 26/161/1 25/162/1 49/163/1 50/164/1
f 29/165/8 28/166/8 52/167/8 53/168/8
f 25/169/7 32/170/7 56/171/7 49/172/7
f 41/173/10 42/174/10 50/175/10 49/176/10
f 43/177/10 44/178/10 52/179/10 51/180/10
f 45/181/10 46/182/10 54/183/10 53/184/10
f 47/185/10 48/186/10 56/187/10 55/188/10
f 42/189/10 43/190/10 51/191/10 50/192/10
f 48/193/10 41/194/10 49/195/10 56/196/10
f 46/197/10 47/198/10 55/199/10 54/200/10
f 44/201/10 45/202/10 53/203/10 52/204/10
f 58/205/1 57/206/1 81/207/1 82/208/1
f 41/209/7 48/210/7 72/211/7 65/212/7
f 48/213/4 47/214/4 71/215/4 72/216/4
f 44/217/2 43/218/2 67/219/2 68/220/2
f 47/221/9 46/222/9 70/223/9 71/224/9
f 43/225/6 42/226/6 66/227/6 67/228/6
f 46/229/3 45/230/3 69/231/3 70/232/3
f 42/233/1 41/234/1 65/235/1 66/236/1
f 57/237/10 58/238/10 66/239/10 65/240/10
f 59/241/10 60/242/10 68/243/10 67/244/10
f 61/245/10 62/246/10 70/247/10 69/248/10
f 63/249/10 64/250/10 72/251/10 71/252/10
f 58/253/10 59/254/10 67/255/10 66/256/10
f 64/257/10 57/258/10 65/259/10 72/260/10
f 62/261/10 63/262/10 71/263/10 70/264/10
f 60/265/10 61/266/10 69/267/10 68/268/10
f 80/269/4 79/270/4 103/271/4 104/272/4
f 61/273/8 60/274/8 84/275/8 85/276/8
f 57/277/7 64/278/7 88/279/7 81/280/7
f 64/281/4 63/282/4 87/283/4 88/284/4
f 60/285/2 59/286/2 83/287/2 84/288/2
f 63/289/9 62/290/9 86/291/9 87/292/9
f 59/293/6 58/294/6 82/295/6 83/296/6
f 62/297/3 61/298/3 85/299/3 86/300/3
f 73/301/10 74/302/10 82/303/10 81/304/10
f 75/305/10 76/306/10 84/307/10 83/308/10
f 77/309/10 78/310/10 86/311/10 85/312/10
f 79/313/10 80/314/10 88/315/10 87/316/10
f 74/317/10 75/318/10 83/319/10 82/320/10
f 80/321/10 73/322/10 81/323/10 88/324/10
f 78/325/10 79/326/10 87/327/10 86/328/10
f 76/329/10 77/330/10 85/331/10 84/332/10
f 96/333/4 95/334/4 119/335/4 120/336/4
f 76/337/2 75/338/2 99/339/2 100/340/2
f 79/341/9 78/342/9 102/343/9 103/344/9
f 75/345/6 74/346/6 98/347/6 99/348/6
f 78/349/3 77/350/3 101/351/3 102/352/3
f 74/353/1 73/354/1 97/355/1 98/356/1
f 77/357/8 76/358/8 100/359/8 101/360/8
f 73/361/7 80/362/7 104/363/7 97/364/7
f 89/365/10 90/366/10 98/367/10 97/368/10
f 91/369/10 92/370/10 100/371/10 99/372/10
f 93/373/10 94/374/10 102/375/10 101/376/10
f 95/377/10 96/378/10 104/379/10 103/380/10
f 90/381/10 91/382/10 99/383/10 98/384/10
f 96/385/10 89/386/10 97/387/10 104/388/10
f 94/389/10 95/390/10 103/391/10 102/392/10
f 92/393/10 93/394/10 101/395/10 100/396/10
f 109/397/8 108/398/8 132/399/8 133/400/8
f 92/401/2 91/402/2 115/403/2 116/404/2
f 95/405/9 94/406/9 118/407/9 119/408/9
f 91/409/6 90/410/6 114/411/6 115/412/6
f 94/413/3 93/414/3 117/415/3 118/416/3
f 90/417/1 89/418/1 113/419/1 114/420/1
f 93/421/8 92/422/8 116/423/8 117/424/8
f 89/425/7 96/426/7 120/427/7 113/428/7
f 105/429/10 106/430/10 114/431/10 113/432/10
f 107/433/10 108/434/10 116/435/10 115/436/10
f 109/437/10 110/438/10 118/439/10 117/440/10
f 111/441/10 112/442/10 120/443/10 119/444/10
f 106/445/10 107/446/10 115/447/10 114/448/10
f 112/449/10 105/450/10 113/451/10 120/452/10
f 110/453/10 111/454/10 119/455/10 118/456/10
f 108/457/10 109/458/10 117/459/10 116/460/10
f 121/461/7 128/462/7 152/463/7 145/464/7
f 105/465/7 112/466/7 136/467/7 129/468/7
f 112/469/4 111/470/4 135/471/4 136/472/4
f 108/473/2 107/474/2 131/475/2 132/476/2
f 111/477/9 110/478/9 134/479/9 135/480/9
f 107/481/6 106/482/6 130/483/6 131/484/6
f 110/485/3 109/486/3 133/487/3 134/488/3
f 106/489/1 105/490/1 129/491/1 130/492/1
f 121/493/10 122/494/10 130/495/10 129/496/10
f 123/497/10 124/498/10 132/499/10 131/500/10
f 125/501/10 126/502/10 134/503/10 133/504/10
f 127/505/10 128/506/10 136/507/10 135/508/10
f 122/509/10 123/510/10 131/511/10 130/512/10
f 128/513/10 121/514/10 129/515/10 136/516/10
f 126/517/10 127/518/10 135/519/10 134/520/10
f 124/521/10 125/522/10 133/523/10 132/524/10
f 143/525/9 142/526/9 166/527/9 167/528/9
f 128/529/4 127/530/4 151/531/4 152/532/4
f 124/533/2 123/534/2 147/535/2 148/536/2
f 127/537/9 126/538/9 150/539/9 151/540/9
f 123/541/6 122/542/6 146/543/6 147/544/6
f 126/545/3 125/546/3 149/547/3 150/548/3
f 122/549/1 121/550/1 145/551/1 146/552/1
f 125/553/8 124/554/8 148/555/8 149/556/8
f 137/557/10 138/558/10 146/559/10 145/560/10
f 139/561/10 140/562/10 148/563/10 147/564/10
f 141/565/10 142/566/10 150/567/10 149/568/10
f 143/569/10 144/570/10 152/571/10 151/572/10
f 138/573/10 139/574/10 147/575/10 146/576/10
f 144/577/10 137/578/10 145/579/10 152/580/10
f 142/581/10 143/582/10 151/583/10 150/584/10
f 140/585/10 141/586/10 149/587/10 148/588/10
f 159/589/9 158/590/9 182/591/9 183/592/9
f 139/593/6 138/594/6 162/595/6 163/596/6
f 142/597/3 141/598/3 165/599/3 166/600/3
f 138/601/1 137/602/1 161/603/1 162/604/1
f 141/605/8 140/606/8 164/607/8 165/608/8
f 137/609/7 144/610/7 168/611/7 161/612/7
f 144/613/4 143/614/4 167/615/4 168/616/4
f 140/617/2 139/618/2 163/619/2 164/620/2
f 153/621/10 154/622/10 162/623/10 161/624/10
f 155/625/10 156/626/10 164/627/10 163/628/10
f 157/629/10 158/630/10 166/631/10 165/632/10
f 159/633/10 160/634/10 168/635/10 167/636/10
f 154/637/10 155/638/10 163/639/10 162/640/10
f 160/641/10 153/642/10 161/643/10 168/644/10
f 158/645/10 159/646/10 167/647/10 166/648/10
f 156/649/10 157/650/10 165/651/10 164/652/10
f 169/653/7 176/654/7 200/655/7 193/656/7
f 155/657/6 154/658/6 178/659/6 179/660/6
f 158/661/3 157/662/3 181/663/3 182/664/3
f 154/665/1 153/666/1 177/667/1 178/668/1
f 157/669/8 156/670/8 180/671/8 181/672/8
f 153/673/7 160/674/7 184/675/7 177/676/7
f 160/677/4 159/678/4 183/679/4 184/680/4
f 156/681/2 155/682/2 179/683/2 180/684/2
f 169/685/10 170/686/10 178/687/10 177/688/10
f 171/689/10 172/690/10 180/691/10 179/692/10
f 173/693/10 174/694/10 182/695/10 181/696/10
f 175/697/10 176/698/10 184/699/10 183/700/10
f 170/701/10 171/702/10 179/703/10 178/704/10
f 176/705/10 169/706/10 177/707/10 184/708/10
f 174/709/10 175/710/10 183/711/10 182/712/10
f 172/713/10 173/714/10 181/715/10 180/716/10
f 187/717/6 186/718/6 202/719/6 203/720/6
f 176/721/4 175/722/4 199/723/4 200/724/4
f 172/725/2 171/726/2 195/727/2 196/728/2
f 175/729/9 174/730/9 198/731/9 199/732/9
f 171/733/6 170/734/6 194/735/6 195/736/6
f 174/737/3 173/738/3 197/739/3 198/740/3
f 170/741/1 169/742/1 193/743/1 194/744/1
f 173/745/8 172/746/8 196/747/8 197/748/8
f 185/749/10 186/750/10 194/751/10 193/752/10
f 187/753/10 188/754/10 196/755/10 195/756/10
f 189/757/10 190/758/10 198/759/10 197/760/10
f 191/761/10 192/762/10 200/763/10 199/764/10
f 186/765/10 187/766/10 195/767/10 194/768/10
f 192/769/10 185/770/10 193/771/10 200/772/10
f 190/773/10 191/774/10 199/775/10 198/776/10
f 188/777/10 189/778/10 197/779/10 196/780/10
f 206/781/10 205/782/10 204/783/10 203/784/10 202/785/10 201/786/10 208/787/10 207/788/10
f 190/789/11 189/790/11 205/791/11 206/792/11
f 186/793/12 185/794/12 201/795/12 202/796/12
f 189/797/8 188/798/8 204/799/8 205/800/8
f 185/801/7 192/802/7 208/803/7 201/804/7
f 192/805/13 191/806/13 207/807/13 208/808/13
f 188/809/14 187/810/14 203/811/14 204/812/14
f 191/813/9 190/814/9 206/815/9 207/816/9
